<?xml version="1.0" encoding="utf-8" standalone="no"?>
<!DOCTYPE svg PUBLIC "-//W3C//DTD SVG 1.1//EN"
  "http://www.w3.org/Graphics/SVG/1.1/DTD/svg11.dtd">
<!-- Created with matplotlib (https://matplotlib.org/) -->
<svg height="285.600781pt" version="1.1" viewBox="0 0 480.269673 285.600781" width="480.269673pt" xmlns="http://www.w3.org/2000/svg" xmlns:xlink="http://www.w3.org/1999/xlink">
 <defs>
  <style type="text/css">
*{stroke-linecap:butt;stroke-linejoin:round;}
  </style>
 </defs>
 <g id="figure_1">
  <g id="patch_1">
   <path d="M 0 285.600781 
L 480.269673 285.600781 
L 480.269673 0 
L 0 0 
z
" style="fill:none;"/>
  </g>
  <g id="axes_1">
   <g id="patch_2">
    <path d="M 20.669673 230.64 
L 223.578764 230.64 
L 223.578764 13.2 
L 20.669673 13.2 
z
" style="fill:none;"/>
   </g>
   <g id="line2d_1">
    <path clip-path="url(#p5fdd63ee9f)" d="M 89.452416 230.64 
L 89.452416 13.2 
" style="fill:none;stroke:#c44e52;stroke-dasharray:8.325,3.6;stroke-dashoffset:0;stroke-width:2.25;"/>
   </g>
   <g id="matplotlib.axis_1">
    <g id="xtick_1">
     <g id="text_1">
      <!-- 0 -->
      <defs>
       <path d="M 31.78125 66.40625 
Q 24.171875 66.40625 20.328125 58.90625 
Q 16.5 51.421875 16.5 36.375 
Q 16.5 21.390625 20.328125 13.890625 
Q 24.171875 6.390625 31.78125 6.390625 
Q 39.453125 6.390625 43.28125 13.890625 
Q 47.125 21.390625 47.125 36.375 
Q 47.125 51.421875 43.28125 58.90625 
Q 39.453125 66.40625 31.78125 66.40625 
z
M 31.78125 74.21875 
Q 44.046875 74.21875 50.515625 64.515625 
Q 56.984375 54.828125 56.984375 36.375 
Q 56.984375 17.96875 50.515625 8.265625 
Q 44.046875 -1.421875 31.78125 -1.421875 
Q 19.53125 -1.421875 13.0625 8.265625 
Q 6.59375 17.96875 6.59375 36.375 
Q 6.59375 54.828125 13.0625 64.515625 
Q 19.53125 74.21875 31.78125 74.21875 
z
" id="DejaVuSans-48"/>
      </defs>
      <g style="fill:#262626;" transform="translate(15.420611 249.677422)scale(0.165 -0.165)">
       <use xlink:href="#DejaVuSans-48"/>
      </g>
     </g>
    </g>
    <g id="xtick_2">
     <g id="text_2">
      <!-- 1 -->
      <defs>
       <path d="M 12.40625 8.296875 
L 28.515625 8.296875 
L 28.515625 63.921875 
L 10.984375 60.40625 
L 10.984375 69.390625 
L 28.421875 72.90625 
L 38.28125 72.90625 
L 38.28125 8.296875 
L 54.390625 8.296875 
L 54.390625 0 
L 12.40625 0 
z
" id="DejaVuSans-49"/>
      </defs>
      <g style="fill:#262626;" transform="translate(84.203353 249.677422)scale(0.165 -0.165)">
       <use xlink:href="#DejaVuSans-49"/>
      </g>
     </g>
    </g>
    <g id="xtick_3">
     <g id="text_3">
      <!-- 2 -->
      <defs>
       <path d="M 19.1875 8.296875 
L 53.609375 8.296875 
L 53.609375 0 
L 7.328125 0 
L 7.328125 8.296875 
Q 12.9375 14.109375 22.625 23.890625 
Q 32.328125 33.6875 34.8125 36.53125 
Q 39.546875 41.84375 41.421875 45.53125 
Q 43.3125 49.21875 43.3125 52.78125 
Q 43.3125 58.59375 39.234375 62.25 
Q 35.15625 65.921875 28.609375 65.921875 
Q 23.96875 65.921875 18.8125 64.3125 
Q 13.671875 62.703125 7.8125 59.421875 
L 7.8125 69.390625 
Q 13.765625 71.78125 18.9375 73 
Q 24.125 74.21875 28.421875 74.21875 
Q 39.75 74.21875 46.484375 68.546875 
Q 53.21875 62.890625 53.21875 53.421875 
Q 53.21875 48.921875 51.53125 44.890625 
Q 49.859375 40.875 45.40625 35.40625 
Q 44.1875 33.984375 37.640625 27.21875 
Q 31.109375 20.453125 19.1875 8.296875 
z
" id="DejaVuSans-50"/>
      </defs>
      <g style="fill:#262626;" transform="translate(152.986096 249.677422)scale(0.165 -0.165)">
       <use xlink:href="#DejaVuSans-50"/>
      </g>
     </g>
    </g>
    <g id="text_4">
     <!-- Log rel. fluorescence -->
     <defs>
      <path d="M 9.8125 72.90625 
L 19.671875 72.90625 
L 19.671875 8.296875 
L 55.171875 8.296875 
L 55.171875 0 
L 9.8125 0 
z
" id="DejaVuSans-76"/>
      <path d="M 30.609375 48.390625 
Q 23.390625 48.390625 19.1875 42.75 
Q 14.984375 37.109375 14.984375 27.296875 
Q 14.984375 17.484375 19.15625 11.84375 
Q 23.34375 6.203125 30.609375 6.203125 
Q 37.796875 6.203125 41.984375 11.859375 
Q 46.1875 17.53125 46.1875 27.296875 
Q 46.1875 37.015625 41.984375 42.703125 
Q 37.796875 48.390625 30.609375 48.390625 
z
M 30.609375 56 
Q 42.328125 56 49.015625 48.375 
Q 55.71875 40.765625 55.71875 27.296875 
Q 55.71875 13.875 49.015625 6.21875 
Q 42.328125 -1.421875 30.609375 -1.421875 
Q 18.84375 -1.421875 12.171875 6.21875 
Q 5.515625 13.875 5.515625 27.296875 
Q 5.515625 40.765625 12.171875 48.375 
Q 18.84375 56 30.609375 56 
z
" id="DejaVuSans-111"/>
      <path d="M 45.40625 27.984375 
Q 45.40625 37.75 41.375 43.109375 
Q 37.359375 48.484375 30.078125 48.484375 
Q 22.859375 48.484375 18.828125 43.109375 
Q 14.796875 37.75 14.796875 27.984375 
Q 14.796875 18.265625 18.828125 12.890625 
Q 22.859375 7.515625 30.078125 7.515625 
Q 37.359375 7.515625 41.375 12.890625 
Q 45.40625 18.265625 45.40625 27.984375 
z
M 54.390625 6.78125 
Q 54.390625 -7.171875 48.1875 -13.984375 
Q 42 -20.796875 29.203125 -20.796875 
Q 24.46875 -20.796875 20.265625 -20.09375 
Q 16.0625 -19.390625 12.109375 -17.921875 
L 12.109375 -9.1875 
Q 16.0625 -11.328125 19.921875 -12.34375 
Q 23.78125 -13.375 27.78125 -13.375 
Q 36.625 -13.375 41.015625 -8.765625 
Q 45.40625 -4.15625 45.40625 5.171875 
L 45.40625 9.625 
Q 42.625 4.78125 38.28125 2.390625 
Q 33.9375 0 27.875 0 
Q 17.828125 0 11.671875 7.65625 
Q 5.515625 15.328125 5.515625 27.984375 
Q 5.515625 40.671875 11.671875 48.328125 
Q 17.828125 56 27.875 56 
Q 33.9375 56 38.28125 53.609375 
Q 42.625 51.21875 45.40625 46.390625 
L 45.40625 54.6875 
L 54.390625 54.6875 
z
" id="DejaVuSans-103"/>
      <path id="DejaVuSans-32"/>
      <path d="M 41.109375 46.296875 
Q 39.59375 47.171875 37.8125 47.578125 
Q 36.03125 48 33.890625 48 
Q 26.265625 48 22.1875 43.046875 
Q 18.109375 38.09375 18.109375 28.8125 
L 18.109375 0 
L 9.078125 0 
L 9.078125 54.6875 
L 18.109375 54.6875 
L 18.109375 46.1875 
Q 20.953125 51.171875 25.484375 53.578125 
Q 30.03125 56 36.53125 56 
Q 37.453125 56 38.578125 55.875 
Q 39.703125 55.765625 41.0625 55.515625 
z
" id="DejaVuSans-114"/>
      <path d="M 56.203125 29.59375 
L 56.203125 25.203125 
L 14.890625 25.203125 
Q 15.484375 15.921875 20.484375 11.0625 
Q 25.484375 6.203125 34.421875 6.203125 
Q 39.59375 6.203125 44.453125 7.46875 
Q 49.3125 8.734375 54.109375 11.28125 
L 54.109375 2.78125 
Q 49.265625 0.734375 44.1875 -0.34375 
Q 39.109375 -1.421875 33.890625 -1.421875 
Q 20.796875 -1.421875 13.15625 6.1875 
Q 5.515625 13.8125 5.515625 26.8125 
Q 5.515625 40.234375 12.765625 48.109375 
Q 20.015625 56 32.328125 56 
Q 43.359375 56 49.78125 48.890625 
Q 56.203125 41.796875 56.203125 29.59375 
z
M 47.21875 32.234375 
Q 47.125 39.59375 43.09375 43.984375 
Q 39.0625 48.390625 32.421875 48.390625 
Q 24.90625 48.390625 20.390625 44.140625 
Q 15.875 39.890625 15.1875 32.171875 
z
" id="DejaVuSans-101"/>
      <path d="M 9.421875 75.984375 
L 18.40625 75.984375 
L 18.40625 0 
L 9.421875 0 
z
" id="DejaVuSans-108"/>
      <path d="M 10.6875 12.40625 
L 21 12.40625 
L 21 0 
L 10.6875 0 
z
" id="DejaVuSans-46"/>
      <path d="M 37.109375 75.984375 
L 37.109375 68.5 
L 28.515625 68.5 
Q 23.6875 68.5 21.796875 66.546875 
Q 19.921875 64.59375 19.921875 59.515625 
L 19.921875 54.6875 
L 34.71875 54.6875 
L 34.71875 47.703125 
L 19.921875 47.703125 
L 19.921875 0 
L 10.890625 0 
L 10.890625 47.703125 
L 2.296875 47.703125 
L 2.296875 54.6875 
L 10.890625 54.6875 
L 10.890625 58.5 
Q 10.890625 67.625 15.140625 71.796875 
Q 19.390625 75.984375 28.609375 75.984375 
z
" id="DejaVuSans-102"/>
      <path d="M 8.5 21.578125 
L 8.5 54.6875 
L 17.484375 54.6875 
L 17.484375 21.921875 
Q 17.484375 14.15625 20.5 10.265625 
Q 23.53125 6.390625 29.59375 6.390625 
Q 36.859375 6.390625 41.078125 11.03125 
Q 45.3125 15.671875 45.3125 23.6875 
L 45.3125 54.6875 
L 54.296875 54.6875 
L 54.296875 0 
L 45.3125 0 
L 45.3125 8.40625 
Q 42.046875 3.421875 37.71875 1 
Q 33.40625 -1.421875 27.6875 -1.421875 
Q 18.265625 -1.421875 13.375 4.4375 
Q 8.5 10.296875 8.5 21.578125 
z
M 31.109375 56 
z
" id="DejaVuSans-117"/>
      <path d="M 44.28125 53.078125 
L 44.28125 44.578125 
Q 40.484375 46.53125 36.375 47.5 
Q 32.28125 48.484375 27.875 48.484375 
Q 21.1875 48.484375 17.84375 46.4375 
Q 14.5 44.390625 14.5 40.28125 
Q 14.5 37.15625 16.890625 35.375 
Q 19.28125 33.59375 26.515625 31.984375 
L 29.59375 31.296875 
Q 39.15625 29.25 43.1875 25.515625 
Q 47.21875 21.78125 47.21875 15.09375 
Q 47.21875 7.46875 41.1875 3.015625 
Q 35.15625 -1.421875 24.609375 -1.421875 
Q 20.21875 -1.421875 15.453125 -0.5625 
Q 10.6875 0.296875 5.421875 2 
L 5.421875 11.28125 
Q 10.40625 8.6875 15.234375 7.390625 
Q 20.0625 6.109375 24.8125 6.109375 
Q 31.15625 6.109375 34.5625 8.28125 
Q 37.984375 10.453125 37.984375 14.40625 
Q 37.984375 18.0625 35.515625 20.015625 
Q 33.0625 21.96875 24.703125 23.78125 
L 21.578125 24.515625 
Q 13.234375 26.265625 9.515625 29.90625 
Q 5.8125 33.546875 5.8125 39.890625 
Q 5.8125 47.609375 11.28125 51.796875 
Q 16.75 56 26.8125 56 
Q 31.78125 56 36.171875 55.265625 
Q 40.578125 54.546875 44.28125 53.078125 
z
" id="DejaVuSans-115"/>
      <path d="M 48.78125 52.59375 
L 48.78125 44.1875 
Q 44.96875 46.296875 41.140625 47.34375 
Q 37.3125 48.390625 33.40625 48.390625 
Q 24.65625 48.390625 19.8125 42.84375 
Q 14.984375 37.3125 14.984375 27.296875 
Q 14.984375 17.28125 19.8125 11.734375 
Q 24.65625 6.203125 33.40625 6.203125 
Q 37.3125 6.203125 41.140625 7.25 
Q 44.96875 8.296875 48.78125 10.40625 
L 48.78125 2.09375 
Q 45.015625 0.34375 40.984375 -0.53125 
Q 36.96875 -1.421875 32.421875 -1.421875 
Q 20.0625 -1.421875 12.78125 6.34375 
Q 5.515625 14.109375 5.515625 27.296875 
Q 5.515625 40.671875 12.859375 48.328125 
Q 20.21875 56 33.015625 56 
Q 37.15625 56 41.109375 55.140625 
Q 45.0625 54.296875 48.78125 52.59375 
z
" id="DejaVuSans-99"/>
      <path d="M 54.890625 33.015625 
L 54.890625 0 
L 45.90625 0 
L 45.90625 32.71875 
Q 45.90625 40.484375 42.875 44.328125 
Q 39.84375 48.1875 33.796875 48.1875 
Q 26.515625 48.1875 22.3125 43.546875 
Q 18.109375 38.921875 18.109375 30.90625 
L 18.109375 0 
L 9.078125 0 
L 9.078125 54.6875 
L 18.109375 54.6875 
L 18.109375 46.1875 
Q 21.34375 51.125 25.703125 53.5625 
Q 30.078125 56 35.796875 56 
Q 45.21875 56 50.046875 50.171875 
Q 54.890625 44.34375 54.890625 33.015625 
z
" id="DejaVuSans-110"/>
     </defs>
     <g style="fill:#262626;" transform="translate(7.2 273.825469)scale(0.22 -0.22)">
      <use xlink:href="#DejaVuSans-76"/>
      <use x="55.697266" xlink:href="#DejaVuSans-111"/>
      <use x="116.878906" xlink:href="#DejaVuSans-103"/>
      <use x="180.355469" xlink:href="#DejaVuSans-32"/>
      <use x="212.142578" xlink:href="#DejaVuSans-114"/>
      <use x="253.224609" xlink:href="#DejaVuSans-101"/>
      <use x="314.748047" xlink:href="#DejaVuSans-108"/>
      <use x="342.53125" xlink:href="#DejaVuSans-46"/>
      <use x="374.318359" xlink:href="#DejaVuSans-32"/>
      <use x="406.105469" xlink:href="#DejaVuSans-102"/>
      <use x="441.310547" xlink:href="#DejaVuSans-108"/>
      <use x="469.09375" xlink:href="#DejaVuSans-117"/>
      <use x="532.472656" xlink:href="#DejaVuSans-111"/>
      <use x="593.654297" xlink:href="#DejaVuSans-114"/>
      <use x="634.736328" xlink:href="#DejaVuSans-101"/>
      <use x="696.259766" xlink:href="#DejaVuSans-115"/>
      <use x="748.359375" xlink:href="#DejaVuSans-99"/>
      <use x="803.339844" xlink:href="#DejaVuSans-101"/>
      <use x="864.863281" xlink:href="#DejaVuSans-110"/>
      <use x="928.242188" xlink:href="#DejaVuSans-99"/>
      <use x="983.222656" xlink:href="#DejaVuSans-101"/>
     </g>
    </g>
   </g>
   <g id="matplotlib.axis_2">
    <g id="ytick_1"/>
    <g id="ytick_2"/>
    <g id="ytick_3"/>
    <g id="ytick_4"/>
    <g id="ytick_5"/>
    <g id="ytick_6"/>
    <g id="ytick_7"/>
    <g id="ytick_8"/>
    <g id="ytick_9"/>
    <g id="ytick_10"/>
    <g id="ytick_11"/>
    <g id="ytick_12"/>
    <g id="ytick_13"/>
    <g id="ytick_14"/>
    <g id="ytick_15"/>
    <g id="ytick_16"/>
    <g id="ytick_17"/>
    <g id="ytick_18"/>
    <g id="ytick_19"/>
    <g id="ytick_20"/>
    <g id="ytick_21"/>
    <g id="ytick_22"/>
    <g id="ytick_23"/>
    <g id="ytick_24"/>
    <g id="ytick_25"/>
    <g id="ytick_26"/>
    <g id="ytick_27"/>
    <g id="ytick_28"/>
    <g id="ytick_29"/>
    <g id="ytick_30"/>
   </g>
   <g id="patch_3">
    <path clip-path="url(#p5fdd63ee9f)" d="M 20.669673 59509.09892 
L 30.815128 59509.09892 
L 30.815128 55.013986 
L 20.669673 55.013986 
z
" style="fill:#1a1a1a;stroke:#ffffff;stroke-linejoin:miter;stroke-width:1.5;"/>
   </g>
   <g id="patch_4">
    <path clip-path="url(#p5fdd63ee9f)" d="M 30.815128 59509.09892 
L 40.960582 59509.09892 
L 40.960582 23.083636 
L 30.815128 23.083636 
z
" style="fill:#1a1a1a;stroke:#ffffff;stroke-linejoin:miter;stroke-width:1.5;"/>
   </g>
   <g id="patch_5">
    <path clip-path="url(#p5fdd63ee9f)" d="M 40.960582 59509.09892 
L 51.106037 59509.09892 
L 51.106037 92.813808 
L 40.960582 92.813808 
z
" style="fill:#1a1a1a;stroke:#ffffff;stroke-linejoin:miter;stroke-width:1.5;"/>
   </g>
   <g id="patch_6">
    <path clip-path="url(#p5fdd63ee9f)" d="M 51.106037 59509.09892 
L 61.251491 59509.09892 
L 61.251491 59509.09892 
L 51.106037 59509.09892 
z
" style="fill:#1a1a1a;stroke:#ffffff;stroke-linejoin:miter;stroke-width:1.5;"/>
   </g>
   <g id="patch_7">
    <path clip-path="url(#p5fdd63ee9f)" d="M 61.251491 59509.09892 
L 71.396946 59509.09892 
L 71.396946 59509.09892 
L 61.251491 59509.09892 
z
" style="fill:#1a1a1a;stroke:#ffffff;stroke-linejoin:miter;stroke-width:1.5;"/>
   </g>
   <g id="patch_8">
    <path clip-path="url(#p5fdd63ee9f)" d="M 71.396946 59509.09892 
L 81.542401 59509.09892 
L 81.542401 59509.09892 
L 71.396946 59509.09892 
z
" style="fill:#1a1a1a;stroke:#ffffff;stroke-linejoin:miter;stroke-width:1.5;"/>
   </g>
   <g id="patch_9">
    <path clip-path="url(#p5fdd63ee9f)" d="M 81.542401 59509.09892 
L 91.687855 59509.09892 
L 91.687855 59509.09892 
L 81.542401 59509.09892 
z
" style="fill:#1a1a1a;stroke:#ffffff;stroke-linejoin:miter;stroke-width:1.5;"/>
   </g>
   <g id="patch_10">
    <path clip-path="url(#p5fdd63ee9f)" d="M 91.687855 59509.09892 
L 101.83331 59509.09892 
L 101.83331 59509.09892 
L 91.687855 59509.09892 
z
" style="fill:#1a1a1a;stroke:#ffffff;stroke-linejoin:miter;stroke-width:1.5;"/>
   </g>
   <g id="patch_11">
    <path clip-path="url(#p5fdd63ee9f)" d="M 101.83331 59509.09892 
L 111.978764 59509.09892 
L 111.978764 202.861667 
L 101.83331 202.861667 
z
" style="fill:#1a1a1a;stroke:#ffffff;stroke-linejoin:miter;stroke-width:1.5;"/>
   </g>
   <g id="patch_12">
    <path clip-path="url(#p5fdd63ee9f)" d="M 111.978764 59509.09892 
L 122.124219 59509.09892 
L 122.124219 192.393941 
L 111.978764 192.393941 
z
" style="fill:#1a1a1a;stroke:#ffffff;stroke-linejoin:miter;stroke-width:1.5;"/>
   </g>
   <g id="patch_13">
    <path clip-path="url(#p5fdd63ee9f)" d="M 122.124219 59509.09892 
L 132.269673 59509.09892 
L 132.269673 156.604547 
L 122.124219 156.604547 
z
" style="fill:#1a1a1a;stroke:#ffffff;stroke-linejoin:miter;stroke-width:1.5;"/>
   </g>
   <g id="patch_14">
    <path clip-path="url(#p5fdd63ee9f)" d="M 132.269673 59509.09892 
L 142.415128 59509.09892 
L 142.415128 150.843742 
L 132.269673 150.843742 
z
" style="fill:#1a1a1a;stroke:#ffffff;stroke-linejoin:miter;stroke-width:1.5;"/>
   </g>
   <g id="patch_15">
    <path clip-path="url(#p5fdd63ee9f)" d="M 142.415128 59509.09892 
L 152.560582 59509.09892 
L 152.560582 202.861667 
L 142.415128 202.861667 
z
" style="fill:#1a1a1a;stroke:#ffffff;stroke-linejoin:miter;stroke-width:1.5;"/>
   </g>
   <g id="patch_16">
    <path clip-path="url(#p5fdd63ee9f)" d="M 152.560582 59509.09892 
L 162.706037 59509.09892 
L 162.706037 174.499244 
L 152.560582 174.499244 
z
" style="fill:#1a1a1a;stroke:#ffffff;stroke-linejoin:miter;stroke-width:1.5;"/>
   </g>
   <g id="patch_17">
    <path clip-path="url(#p5fdd63ee9f)" d="M 162.706037 59509.09892 
L 172.851491 59509.09892 
L 172.851491 202.861667 
L 162.706037 202.861667 
z
" style="fill:#1a1a1a;stroke:#ffffff;stroke-linejoin:miter;stroke-width:1.5;"/>
   </g>
   <g id="patch_18">
    <path clip-path="url(#p5fdd63ee9f)" d="M 172.851491 59509.09892 
L 182.996946 59509.09892 
L 182.996946 220.756364 
L 172.851491 220.756364 
z
" style="fill:#1a1a1a;stroke:#ffffff;stroke-linejoin:miter;stroke-width:1.5;"/>
   </g>
   <g id="patch_19">
    <path clip-path="url(#p5fdd63ee9f)" d="M 182.996946 59509.09892 
L 193.142401 59509.09892 
L 193.142401 202.861667 
L 182.996946 202.861667 
z
" style="fill:#1a1a1a;stroke:#ffffff;stroke-linejoin:miter;stroke-width:1.5;"/>
   </g>
   <g id="patch_20">
    <path clip-path="url(#p5fdd63ee9f)" d="M 193.142401 59509.09892 
L 203.287855 59509.09892 
L 203.287855 59509.09892 
L 193.142401 59509.09892 
z
" style="fill:#1a1a1a;stroke:#ffffff;stroke-linejoin:miter;stroke-width:1.5;"/>
   </g>
   <g id="patch_21">
    <path clip-path="url(#p5fdd63ee9f)" d="M 203.287855 59509.09892 
L 213.43331 59509.09892 
L 213.43331 59509.09892 
L 203.287855 59509.09892 
z
" style="fill:#1a1a1a;stroke:#ffffff;stroke-linejoin:miter;stroke-width:1.5;"/>
   </g>
   <g id="patch_22">
    <path clip-path="url(#p5fdd63ee9f)" d="M 213.43331 59509.09892 
L 223.578764 59509.09892 
L 223.578764 59509.09892 
L 213.43331 59509.09892 
z
" style="fill:#1a1a1a;stroke:#ffffff;stroke-linejoin:miter;stroke-width:1.5;"/>
   </g>
   <g id="patch_23">
    <path d="M 20.669673 230.64 
L 20.669673 13.2 
" style="fill:none;stroke:#262626;stroke-linecap:square;stroke-linejoin:miter;stroke-width:1.875;"/>
   </g>
   <g id="patch_24">
    <path d="M 20.669673 230.64 
L 223.578764 230.64 
" style="fill:none;stroke:#262626;stroke-linecap:square;stroke-linejoin:miter;stroke-width:1.875;"/>
   </g>
  </g>
  <g id="axes_2">
   <g id="patch_25">
    <path d="M 264.160582 112.036364 
L 467.069673 112.036364 
L 467.069673 13.2 
L 264.160582 13.2 
z
" style="fill:none;"/>
   </g>
   <g id="matplotlib.axis_3"/>
   <g id="matplotlib.axis_4"/>
   <g id="patch_26">
    <path clip-path="url(#p4770cb8adc)" d="M 264.160582 112.036364 
L 274.306037 112.036364 
L 274.306037 111.908643 
L 264.160582 111.908643 
z
" style="fill:#1a1a1a;stroke:#ffffff;stroke-linejoin:miter;stroke-width:1.5;"/>
   </g>
   <g id="patch_27">
    <path clip-path="url(#p4770cb8adc)" d="M 274.306037 112.036364 
L 284.451491 112.036364 
L 284.451491 109.609678 
L 274.306037 109.609678 
z
" style="fill:#1a1a1a;stroke:#ffffff;stroke-linejoin:miter;stroke-width:1.5;"/>
   </g>
   <g id="patch_28">
    <path clip-path="url(#p4770cb8adc)" d="M 284.451491 112.036364 
L 294.596946 112.036364 
L 294.596946 100.030654 
L 284.451491 100.030654 
z
" style="fill:#1a1a1a;stroke:#ffffff;stroke-linejoin:miter;stroke-width:1.5;"/>
   </g>
   <g id="patch_29">
    <path clip-path="url(#p4770cb8adc)" d="M 294.596946 112.036364 
L 304.742401 112.036364 
L 304.742401 71.165864 
L 294.596946 71.165864 
z
" style="fill:#1a1a1a;stroke:#ffffff;stroke-linejoin:miter;stroke-width:1.5;"/>
   </g>
   <g id="patch_30">
    <path clip-path="url(#p4770cb8adc)" d="M 304.742401 112.036364 
L 314.887855 112.036364 
L 314.887855 48.687089 
L 304.742401 48.687089 
z
" style="fill:#1a1a1a;stroke:#ffffff;stroke-linejoin:miter;stroke-width:1.5;"/>
   </g>
   <g id="patch_31">
    <path clip-path="url(#p4770cb8adc)" d="M 314.887855 112.036364 
L 325.03331 112.036364 
L 325.03331 17.906494 
L 314.887855 17.906494 
z
" style="fill:#1a1a1a;stroke:#ffffff;stroke-linejoin:miter;stroke-width:1.5;"/>
   </g>
   <g id="patch_32">
    <path clip-path="url(#p4770cb8adc)" d="M 325.03331 112.036364 
L 335.178764 112.036364 
L 335.178764 57.24435 
L 325.03331 57.24435 
z
" style="fill:#1a1a1a;stroke:#ffffff;stroke-linejoin:miter;stroke-width:1.5;"/>
   </g>
   <g id="patch_33">
    <path clip-path="url(#p4770cb8adc)" d="M 335.178764 112.036364 
L 345.324219 112.036364 
L 345.324219 71.038143 
L 335.178764 71.038143 
z
" style="fill:#1a1a1a;stroke:#ffffff;stroke-linejoin:miter;stroke-width:1.5;"/>
   </g>
   <g id="patch_34">
    <path clip-path="url(#p4770cb8adc)" d="M 345.324219 112.036364 
L 355.469673 112.036364 
L 355.469673 87.514064 
L 345.324219 87.514064 
z
" style="fill:#1a1a1a;stroke:#ffffff;stroke-linejoin:miter;stroke-width:1.5;"/>
   </g>
   <g id="patch_35">
    <path clip-path="url(#p4770cb8adc)" d="M 355.469673 112.036364 
L 365.615128 112.036364 
L 365.615128 95.943604 
L 355.469673 95.943604 
z
" style="fill:#1a1a1a;stroke:#ffffff;stroke-linejoin:miter;stroke-width:1.5;"/>
   </g>
   <g id="patch_36">
    <path clip-path="url(#p4770cb8adc)" d="M 365.615128 112.036364 
L 375.760582 112.036364 
L 375.760582 97.987129 
L 365.615128 97.987129 
z
" style="fill:#1a1a1a;stroke:#ffffff;stroke-linejoin:miter;stroke-width:1.5;"/>
   </g>
   <g id="patch_37">
    <path clip-path="url(#p4770cb8adc)" d="M 375.760582 112.036364 
L 385.906037 112.036364 
L 385.906037 107.055271 
L 375.760582 107.055271 
z
" style="fill:#1a1a1a;stroke:#ffffff;stroke-linejoin:miter;stroke-width:1.5;"/>
   </g>
   <g id="patch_38">
    <path clip-path="url(#p4770cb8adc)" d="M 385.906037 112.036364 
L 396.051491 112.036364 
L 396.051491 109.354237 
L 385.906037 109.354237 
z
" style="fill:#1a1a1a;stroke:#ffffff;stroke-linejoin:miter;stroke-width:1.5;"/>
   </g>
   <g id="patch_39">
    <path clip-path="url(#p4770cb8adc)" d="M 396.051491 112.036364 
L 406.196946 112.036364 
L 406.196946 111.270042 
L 396.051491 111.270042 
z
" style="fill:#1a1a1a;stroke:#ffffff;stroke-linejoin:miter;stroke-width:1.5;"/>
   </g>
   <g id="patch_40">
    <path clip-path="url(#p4770cb8adc)" d="M 406.196946 112.036364 
L 416.342401 112.036364 
L 416.342401 111.653203 
L 406.196946 111.653203 
z
" style="fill:#1a1a1a;stroke:#ffffff;stroke-linejoin:miter;stroke-width:1.5;"/>
   </g>
   <g id="patch_41">
    <path clip-path="url(#p4770cb8adc)" d="M 416.342401 112.036364 
L 426.487855 112.036364 
L 426.487855 111.780923 
L 416.342401 111.780923 
z
" style="fill:#1a1a1a;stroke:#ffffff;stroke-linejoin:miter;stroke-width:1.5;"/>
   </g>
   <g id="patch_42">
    <path clip-path="url(#p4770cb8adc)" d="M 426.487855 112.036364 
L 436.63331 112.036364 
L 436.63331 112.036364 
L 426.487855 112.036364 
z
" style="fill:#1a1a1a;stroke:#ffffff;stroke-linejoin:miter;stroke-width:1.5;"/>
   </g>
   <g id="patch_43">
    <path clip-path="url(#p4770cb8adc)" d="M 436.63331 112.036364 
L 446.778764 112.036364 
L 446.778764 112.036364 
L 436.63331 112.036364 
z
" style="fill:#1a1a1a;stroke:#ffffff;stroke-linejoin:miter;stroke-width:1.5;"/>
   </g>
   <g id="patch_44">
    <path clip-path="url(#p4770cb8adc)" d="M 446.778764 112.036364 
L 456.924219 112.036364 
L 456.924219 112.036364 
L 446.778764 112.036364 
z
" style="fill:#1a1a1a;stroke:#ffffff;stroke-linejoin:miter;stroke-width:1.5;"/>
   </g>
   <g id="patch_45">
    <path clip-path="url(#p4770cb8adc)" d="M 456.924219 112.036364 
L 467.069673 112.036364 
L 467.069673 112.036364 
L 456.924219 112.036364 
z
" style="fill:#1a1a1a;stroke:#ffffff;stroke-linejoin:miter;stroke-width:1.5;"/>
   </g>
   <g id="patch_46">
    <path d="M 264.160582 112.036364 
L 264.160582 13.2 
" style="fill:none;stroke:#262626;stroke-linecap:square;stroke-linejoin:miter;stroke-width:1.875;"/>
   </g>
   <g id="patch_47">
    <path d="M 264.160582 112.036364 
L 467.069673 112.036364 
" style="fill:none;stroke:#262626;stroke-linecap:square;stroke-linejoin:miter;stroke-width:1.875;"/>
   </g>
  </g>
  <g id="axes_3">
   <g id="patch_48">
    <path d="M 264.160582 230.64 
L 467.069673 230.64 
L 467.069673 131.803636 
L 264.160582 131.803636 
z
" style="fill:none;"/>
   </g>
   <g id="matplotlib.axis_5">
    <g id="xtick_4">
     <g id="text_5">
      <!-- 0 -->
      <g style="fill:#262626;" transform="translate(258.91152 249.677422)scale(0.165 -0.165)">
       <use xlink:href="#DejaVuSans-48"/>
      </g>
     </g>
    </g>
    <g id="xtick_5">
     <g id="text_6">
      <!-- 20 -->
      <g style="fill:#262626;" transform="translate(317.071548 249.677422)scale(0.165 -0.165)">
       <use xlink:href="#DejaVuSans-50"/>
       <use x="63.623047" xlink:href="#DejaVuSans-48"/>
      </g>
     </g>
    </g>
    <g id="xtick_6">
     <g id="text_7">
      <!-- 40 -->
      <defs>
       <path d="M 37.796875 64.3125 
L 12.890625 25.390625 
L 37.796875 25.390625 
z
M 35.203125 72.90625 
L 47.609375 72.90625 
L 47.609375 25.390625 
L 58.015625 25.390625 
L 58.015625 17.1875 
L 47.609375 17.1875 
L 47.609375 0 
L 37.796875 0 
L 37.796875 17.1875 
L 4.890625 17.1875 
L 4.890625 26.703125 
z
" id="DejaVuSans-52"/>
      </defs>
      <g style="fill:#262626;" transform="translate(380.480639 249.677422)scale(0.165 -0.165)">
       <use xlink:href="#DejaVuSans-52"/>
       <use x="63.623047" xlink:href="#DejaVuSans-48"/>
      </g>
     </g>
    </g>
    <g id="xtick_7">
     <g id="text_8">
      <!-- 60 -->
      <defs>
       <path d="M 33.015625 40.375 
Q 26.375 40.375 22.484375 35.828125 
Q 18.609375 31.296875 18.609375 23.390625 
Q 18.609375 15.53125 22.484375 10.953125 
Q 26.375 6.390625 33.015625 6.390625 
Q 39.65625 6.390625 43.53125 10.953125 
Q 47.40625 15.53125 47.40625 23.390625 
Q 47.40625 31.296875 43.53125 35.828125 
Q 39.65625 40.375 33.015625 40.375 
z
M 52.59375 71.296875 
L 52.59375 62.3125 
Q 48.875 64.0625 45.09375 64.984375 
Q 41.3125 65.921875 37.59375 65.921875 
Q 27.828125 65.921875 22.671875 59.328125 
Q 17.53125 52.734375 16.796875 39.40625 
Q 19.671875 43.65625 24.015625 45.921875 
Q 28.375 48.1875 33.59375 48.1875 
Q 44.578125 48.1875 50.953125 41.515625 
Q 57.328125 34.859375 57.328125 23.390625 
Q 57.328125 12.15625 50.6875 5.359375 
Q 44.046875 -1.421875 33.015625 -1.421875 
Q 20.359375 -1.421875 13.671875 8.265625 
Q 6.984375 17.96875 6.984375 36.375 
Q 6.984375 53.65625 15.1875 63.9375 
Q 23.390625 74.21875 37.203125 74.21875 
Q 40.921875 74.21875 44.703125 73.484375 
Q 48.484375 72.75 52.59375 71.296875 
z
" id="DejaVuSans-54"/>
      </defs>
      <g style="fill:#262626;" transform="translate(443.88973 249.677422)scale(0.165 -0.165)">
       <use xlink:href="#DejaVuSans-54"/>
       <use x="63.623047" xlink:href="#DejaVuSans-48"/>
      </g>
     </g>
    </g>
    <g id="text_9">
     <!-- Num. mutations -->
     <defs>
      <path d="M 9.8125 72.90625 
L 23.09375 72.90625 
L 55.421875 11.921875 
L 55.421875 72.90625 
L 64.984375 72.90625 
L 64.984375 0 
L 51.703125 0 
L 19.390625 60.984375 
L 19.390625 0 
L 9.8125 0 
z
" id="DejaVuSans-78"/>
      <path d="M 52 44.1875 
Q 55.375 50.25 60.0625 53.125 
Q 64.75 56 71.09375 56 
Q 79.640625 56 84.28125 50.015625 
Q 88.921875 44.046875 88.921875 33.015625 
L 88.921875 0 
L 79.890625 0 
L 79.890625 32.71875 
Q 79.890625 40.578125 77.09375 44.375 
Q 74.3125 48.1875 68.609375 48.1875 
Q 61.625 48.1875 57.5625 43.546875 
Q 53.515625 38.921875 53.515625 30.90625 
L 53.515625 0 
L 44.484375 0 
L 44.484375 32.71875 
Q 44.484375 40.625 41.703125 44.40625 
Q 38.921875 48.1875 33.109375 48.1875 
Q 26.21875 48.1875 22.15625 43.53125 
Q 18.109375 38.875 18.109375 30.90625 
L 18.109375 0 
L 9.078125 0 
L 9.078125 54.6875 
L 18.109375 54.6875 
L 18.109375 46.1875 
Q 21.1875 51.21875 25.484375 53.609375 
Q 29.78125 56 35.6875 56 
Q 41.65625 56 45.828125 52.96875 
Q 50 49.953125 52 44.1875 
z
" id="DejaVuSans-109"/>
      <path d="M 18.3125 70.21875 
L 18.3125 54.6875 
L 36.8125 54.6875 
L 36.8125 47.703125 
L 18.3125 47.703125 
L 18.3125 18.015625 
Q 18.3125 11.328125 20.140625 9.421875 
Q 21.96875 7.515625 27.59375 7.515625 
L 36.8125 7.515625 
L 36.8125 0 
L 27.59375 0 
Q 17.1875 0 13.234375 3.875 
Q 9.28125 7.765625 9.28125 18.015625 
L 9.28125 47.703125 
L 2.6875 47.703125 
L 2.6875 54.6875 
L 9.28125 54.6875 
L 9.28125 70.21875 
z
" id="DejaVuSans-116"/>
      <path d="M 34.28125 27.484375 
Q 23.390625 27.484375 19.1875 25 
Q 14.984375 22.515625 14.984375 16.5 
Q 14.984375 11.71875 18.140625 8.90625 
Q 21.296875 6.109375 26.703125 6.109375 
Q 34.1875 6.109375 38.703125 11.40625 
Q 43.21875 16.703125 43.21875 25.484375 
L 43.21875 27.484375 
z
M 52.203125 31.203125 
L 52.203125 0 
L 43.21875 0 
L 43.21875 8.296875 
Q 40.140625 3.328125 35.546875 0.953125 
Q 30.953125 -1.421875 24.3125 -1.421875 
Q 15.921875 -1.421875 10.953125 3.296875 
Q 6 8.015625 6 15.921875 
Q 6 25.140625 12.171875 29.828125 
Q 18.359375 34.515625 30.609375 34.515625 
L 43.21875 34.515625 
L 43.21875 35.40625 
Q 43.21875 41.609375 39.140625 45 
Q 35.0625 48.390625 27.6875 48.390625 
Q 23 48.390625 18.546875 47.265625 
Q 14.109375 46.140625 10.015625 43.890625 
L 10.015625 52.203125 
Q 14.9375 54.109375 19.578125 55.046875 
Q 24.21875 56 28.609375 56 
Q 40.484375 56 46.34375 49.84375 
Q 52.203125 43.703125 52.203125 31.203125 
z
" id="DejaVuSans-97"/>
      <path d="M 9.421875 54.6875 
L 18.40625 54.6875 
L 18.40625 0 
L 9.421875 0 
z
M 9.421875 75.984375 
L 18.40625 75.984375 
L 18.40625 64.59375 
L 9.421875 64.59375 
z
" id="DejaVuSans-105"/>
     </defs>
     <g style="fill:#262626;" transform="translate(277.168253 273.825469)scale(0.22 -0.22)">
      <use xlink:href="#DejaVuSans-78"/>
      <use x="74.804688" xlink:href="#DejaVuSans-117"/>
      <use x="138.183594" xlink:href="#DejaVuSans-109"/>
      <use x="235.595703" xlink:href="#DejaVuSans-46"/>
      <use x="267.382812" xlink:href="#DejaVuSans-32"/>
      <use x="299.169922" xlink:href="#DejaVuSans-109"/>
      <use x="396.582031" xlink:href="#DejaVuSans-117"/>
      <use x="459.960938" xlink:href="#DejaVuSans-116"/>
      <use x="499.169922" xlink:href="#DejaVuSans-97"/>
      <use x="560.449219" xlink:href="#DejaVuSans-116"/>
      <use x="599.658203" xlink:href="#DejaVuSans-105"/>
      <use x="627.441406" xlink:href="#DejaVuSans-111"/>
      <use x="688.623047" xlink:href="#DejaVuSans-110"/>
      <use x="752.001953" xlink:href="#DejaVuSans-115"/>
     </g>
    </g>
   </g>
   <g id="matplotlib.axis_6"/>
   <g id="patch_49">
    <path clip-path="url(#p914e9cd220)" d="M 264.160582 230.64 
L 274.306037 230.64 
L 274.306037 230.64 
L 264.160582 230.64 
z
" style="fill:#1a1a1a;stroke:#ffffff;stroke-linejoin:miter;stroke-width:1.5;"/>
   </g>
   <g id="patch_50">
    <path clip-path="url(#p914e9cd220)" d="M 274.306037 230.64 
L 284.451491 230.64 
L 284.451491 230.611055 
L 274.306037 230.611055 
z
" style="fill:#1a1a1a;stroke:#ffffff;stroke-linejoin:miter;stroke-width:1.5;"/>
   </g>
   <g id="patch_51">
    <path clip-path="url(#p914e9cd220)" d="M 284.451491 230.64 
L 294.596946 230.64 
L 294.596946 230.58211 
L 284.451491 230.58211 
z
" style="fill:#1a1a1a;stroke:#ffffff;stroke-linejoin:miter;stroke-width:1.5;"/>
   </g>
   <g id="patch_52">
    <path clip-path="url(#p914e9cd220)" d="M 294.596946 230.64 
L 304.742401 230.64 
L 304.742401 229.916369 
L 294.596946 229.916369 
z
" style="fill:#1a1a1a;stroke:#ffffff;stroke-linejoin:miter;stroke-width:1.5;"/>
   </g>
   <g id="patch_53">
    <path clip-path="url(#p914e9cd220)" d="M 304.742401 230.64 
L 314.887855 230.64 
L 314.887855 225.198298 
L 304.742401 225.198298 
z
" style="fill:#1a1a1a;stroke:#ffffff;stroke-linejoin:miter;stroke-width:1.5;"/>
   </g>
   <g id="patch_54">
    <path clip-path="url(#p914e9cd220)" d="M 314.887855 230.64 
L 325.03331 230.64 
L 325.03331 200.623802 
L 314.887855 200.623802 
z
" style="fill:#1a1a1a;stroke:#ffffff;stroke-linejoin:miter;stroke-width:1.5;"/>
   </g>
   <g id="patch_55">
    <path clip-path="url(#p914e9cd220)" d="M 325.03331 230.64 
L 335.178764 230.64 
L 335.178764 172.344318 
L 325.03331 172.344318 
z
" style="fill:#1a1a1a;stroke:#ffffff;stroke-linejoin:miter;stroke-width:1.5;"/>
   </g>
   <g id="patch_56">
    <path clip-path="url(#p914e9cd220)" d="M 335.178764 230.64 
L 345.324219 230.64 
L 345.324219 147.248808 
L 335.178764 147.248808 
z
" style="fill:#1a1a1a;stroke:#ffffff;stroke-linejoin:miter;stroke-width:1.5;"/>
   </g>
   <g id="patch_57">
    <path clip-path="url(#p914e9cd220)" d="M 345.324219 230.64 
L 355.469673 230.64 
L 355.469673 139.578324 
L 345.324219 139.578324 
z
" style="fill:#1a1a1a;stroke:#ffffff;stroke-linejoin:miter;stroke-width:1.5;"/>
   </g>
   <g id="patch_58">
    <path clip-path="url(#p914e9cd220)" d="M 355.469673 230.64 
L 365.615128 230.64 
L 365.615128 138.883638 
L 355.469673 138.883638 
z
" style="fill:#1a1a1a;stroke:#ffffff;stroke-linejoin:miter;stroke-width:1.5;"/>
   </g>
   <g id="patch_59">
    <path clip-path="url(#p914e9cd220)" d="M 365.615128 230.64 
L 375.760582 230.64 
L 375.760582 136.51013 
L 365.615128 136.51013 
z
" style="fill:#1a1a1a;stroke:#ffffff;stroke-linejoin:miter;stroke-width:1.5;"/>
   </g>
   <g id="patch_60">
    <path clip-path="url(#p914e9cd220)" d="M 375.760582 230.64 
L 385.906037 230.64 
L 385.906037 178.625432 
L 375.760582 178.625432 
z
" style="fill:#1a1a1a;stroke:#ffffff;stroke-linejoin:miter;stroke-width:1.5;"/>
   </g>
   <g id="patch_61">
    <path clip-path="url(#p914e9cd220)" d="M 385.906037 230.64 
L 396.051491 230.64 
L 396.051491 199.465993 
L 385.906037 199.465993 
z
" style="fill:#1a1a1a;stroke:#ffffff;stroke-linejoin:miter;stroke-width:1.5;"/>
   </g>
   <g id="patch_62">
    <path clip-path="url(#p914e9cd220)" d="M 396.051491 230.64 
L 406.196946 230.64 
L 406.196946 214.401729 
L 396.051491 214.401729 
z
" style="fill:#1a1a1a;stroke:#ffffff;stroke-linejoin:miter;stroke-width:1.5;"/>
   </g>
   <g id="patch_63">
    <path clip-path="url(#p914e9cd220)" d="M 406.196946 230.64 
L 416.342401 230.64 
L 416.342401 221.435419 
L 406.196946 221.435419 
z
" style="fill:#1a1a1a;stroke:#ffffff;stroke-linejoin:miter;stroke-width:1.5;"/>
   </g>
   <g id="patch_64">
    <path clip-path="url(#p914e9cd220)" d="M 416.342401 230.64 
L 426.487855 230.64 
L 426.487855 224.243105 
L 416.342401 224.243105 
z
" style="fill:#1a1a1a;stroke:#ffffff;stroke-linejoin:miter;stroke-width:1.5;"/>
   </g>
   <g id="patch_65">
    <path clip-path="url(#p914e9cd220)" d="M 426.487855 230.64 
L 436.63331 230.64 
L 436.63331 227.484971 
L 426.487855 227.484971 
z
" style="fill:#1a1a1a;stroke:#ffffff;stroke-linejoin:miter;stroke-width:1.5;"/>
   </g>
   <g id="patch_66">
    <path clip-path="url(#p914e9cd220)" d="M 436.63331 230.64 
L 446.778764 230.64 
L 446.778764 228.787506 
L 436.63331 228.787506 
z
" style="fill:#1a1a1a;stroke:#ffffff;stroke-linejoin:miter;stroke-width:1.5;"/>
   </g>
   <g id="patch_67">
    <path clip-path="url(#p914e9cd220)" d="M 446.778764 230.64 
L 456.924219 230.64 
L 456.924219 229.800588 
L 446.778764 229.800588 
z
" style="fill:#1a1a1a;stroke:#ffffff;stroke-linejoin:miter;stroke-width:1.5;"/>
   </g>
   <g id="patch_68">
    <path clip-path="url(#p914e9cd220)" d="M 456.924219 230.64 
L 467.069673 230.64 
L 467.069673 230.408438 
L 456.924219 230.408438 
z
" style="fill:#1a1a1a;stroke:#ffffff;stroke-linejoin:miter;stroke-width:1.5;"/>
   </g>
   <g id="patch_69">
    <path d="M 264.160582 230.64 
L 264.160582 131.803636 
" style="fill:none;stroke:#262626;stroke-linecap:square;stroke-linejoin:miter;stroke-width:1.875;"/>
   </g>
   <g id="patch_70">
    <path d="M 264.160582 230.64 
L 467.069673 230.64 
" style="fill:none;stroke:#262626;stroke-linecap:square;stroke-linejoin:miter;stroke-width:1.875;"/>
   </g>
  </g>
 </g>
 <defs>
  <clipPath id="p5fdd63ee9f">
   <rect height="217.44" width="202.909091" x="20.669673" y="13.2"/>
  </clipPath>
  <clipPath id="p4770cb8adc">
   <rect height="98.836364" width="202.909091" x="264.160582" y="13.2"/>
  </clipPath>
  <clipPath id="p914e9cd220">
   <rect height="98.836364" width="202.909091" x="264.160582" y="131.803636"/>
  </clipPath>
 </defs>
</svg>
