<?xml version="1.0" encoding="utf-8" standalone="no"?>
<!DOCTYPE svg PUBLIC "-//W3C//DTD SVG 1.1//EN"
  "http://www.w3.org/Graphics/SVG/1.1/DTD/svg11.dtd">
<!-- Created with matplotlib (https://matplotlib.org/) -->
<svg height="216.820906pt" version="1.1" viewBox="0 0 337.394375 216.820906" width="337.394375pt" xmlns="http://www.w3.org/2000/svg" xmlns:xlink="http://www.w3.org/1999/xlink">
 <defs>
  <style type="text/css">
*{stroke-linecap:butt;stroke-linejoin:round;}
  </style>
 </defs>
 <g id="figure_1">
  <g id="patch_1">
   <path d="M 0 216.820906 
L 337.394375 216.820906 
L 337.394375 0 
L 0 0 
z
" style="fill:none;"/>
  </g>
  <g id="axes_1">
   <g id="patch_2">
    <path d="M 45.194375 187.152 
L 172.012557 187.152 
L 172.012557 13.2 
L 45.194375 13.2 
z
" style="fill:none;"/>
   </g>
   <g id="matplotlib.axis_1">
    <g id="xtick_1">
     <g id="line2d_1">
      <path clip-path="url(#paea711838f)" d="M 71.651781 187.152 
L 71.651781 13.2 
" style="fill:none;stroke:#cccccc;stroke-linecap:round;stroke-width:1.5;"/>
     </g>
     <g id="text_1">
      <!-- 1 -->
      <defs>
       <path d="M 12.40625 8.296875 
L 28.515625 8.296875 
L 28.515625 63.921875 
L 10.984375 60.40625 
L 10.984375 69.390625 
L 28.421875 72.90625 
L 38.28125 72.90625 
L 38.28125 8.296875 
L 54.390625 8.296875 
L 54.390625 0 
L 12.40625 0 
z
" id="DejaVuSans-49"/>
      </defs>
      <g style="fill:#262626;" transform="translate(66.402719 206.189422)scale(0.165 -0.165)">
       <use xlink:href="#DejaVuSans-49"/>
      </g>
     </g>
    </g>
    <g id="xtick_2">
     <g id="line2d_2">
      <path clip-path="url(#paea711838f)" d="M 101.213129 187.152 
L 101.213129 13.2 
" style="fill:none;stroke:#cccccc;stroke-linecap:round;stroke-width:1.5;"/>
     </g>
     <g id="text_2">
      <!-- 3 -->
      <defs>
       <path d="M 40.578125 39.3125 
Q 47.65625 37.796875 51.625 33 
Q 55.609375 28.21875 55.609375 21.1875 
Q 55.609375 10.40625 48.1875 4.484375 
Q 40.765625 -1.421875 27.09375 -1.421875 
Q 22.515625 -1.421875 17.65625 -0.515625 
Q 12.796875 0.390625 7.625 2.203125 
L 7.625 11.71875 
Q 11.71875 9.328125 16.59375 8.109375 
Q 21.484375 6.890625 26.8125 6.890625 
Q 36.078125 6.890625 40.9375 10.546875 
Q 45.796875 14.203125 45.796875 21.1875 
Q 45.796875 27.640625 41.28125 31.265625 
Q 36.765625 34.90625 28.71875 34.90625 
L 20.21875 34.90625 
L 20.21875 43.015625 
L 29.109375 43.015625 
Q 36.375 43.015625 40.234375 45.921875 
Q 44.09375 48.828125 44.09375 54.296875 
Q 44.09375 59.90625 40.109375 62.90625 
Q 36.140625 65.921875 28.71875 65.921875 
Q 24.65625 65.921875 20.015625 65.03125 
Q 15.375 64.15625 9.8125 62.3125 
L 9.8125 71.09375 
Q 15.4375 72.65625 20.34375 73.4375 
Q 25.25 74.21875 29.59375 74.21875 
Q 40.828125 74.21875 47.359375 69.109375 
Q 53.90625 64.015625 53.90625 55.328125 
Q 53.90625 49.265625 50.4375 45.09375 
Q 46.96875 40.921875 40.578125 39.3125 
z
" id="DejaVuSans-51"/>
      </defs>
      <g style="fill:#262626;" transform="translate(95.964066 206.189422)scale(0.165 -0.165)">
       <use xlink:href="#DejaVuSans-51"/>
      </g>
     </g>
    </g>
    <g id="xtick_3">
     <g id="line2d_3">
      <path clip-path="url(#paea711838f)" d="M 130.774477 187.152 
L 130.774477 13.2 
" style="fill:none;stroke:#cccccc;stroke-linecap:round;stroke-width:1.5;"/>
     </g>
     <g id="text_3">
      <!-- 5 -->
      <defs>
       <path d="M 10.796875 72.90625 
L 49.515625 72.90625 
L 49.515625 64.59375 
L 19.828125 64.59375 
L 19.828125 46.734375 
Q 21.96875 47.46875 24.109375 47.828125 
Q 26.265625 48.1875 28.421875 48.1875 
Q 40.625 48.1875 47.75 41.5 
Q 54.890625 34.8125 54.890625 23.390625 
Q 54.890625 11.625 47.5625 5.09375 
Q 40.234375 -1.421875 26.90625 -1.421875 
Q 22.3125 -1.421875 17.546875 -0.640625 
Q 12.796875 0.140625 7.71875 1.703125 
L 7.71875 11.625 
Q 12.109375 9.234375 16.796875 8.0625 
Q 21.484375 6.890625 26.703125 6.890625 
Q 35.15625 6.890625 40.078125 11.328125 
Q 45.015625 15.765625 45.015625 23.390625 
Q 45.015625 31 40.078125 35.4375 
Q 35.15625 39.890625 26.703125 39.890625 
Q 22.75 39.890625 18.8125 39.015625 
Q 14.890625 38.140625 10.796875 36.28125 
z
" id="DejaVuSans-53"/>
      </defs>
      <g style="fill:#262626;" transform="translate(125.525414 206.189422)scale(0.165 -0.165)">
       <use xlink:href="#DejaVuSans-53"/>
      </g>
     </g>
    </g>
    <g id="xtick_4">
     <g id="line2d_4">
      <path clip-path="url(#paea711838f)" d="M 160.335824 187.152 
L 160.335824 13.2 
" style="fill:none;stroke:#cccccc;stroke-linecap:round;stroke-width:1.5;"/>
     </g>
     <g id="text_4">
      <!-- 7 -->
      <defs>
       <path d="M 8.203125 72.90625 
L 55.078125 72.90625 
L 55.078125 68.703125 
L 28.609375 0 
L 18.3125 0 
L 43.21875 64.59375 
L 8.203125 64.59375 
z
" id="DejaVuSans-55"/>
      </defs>
      <g style="fill:#262626;" transform="translate(155.086762 206.189422)scale(0.165 -0.165)">
       <use xlink:href="#DejaVuSans-55"/>
      </g>
     </g>
    </g>
   </g>
   <g id="matplotlib.axis_2">
    <g id="ytick_1">
     <g id="line2d_5">
      <path clip-path="url(#paea711838f)" d="M 45.194375 187.152 
L 172.012557 187.152 
" style="fill:none;stroke:#cccccc;stroke-linecap:round;stroke-width:1.5;"/>
     </g>
     <g id="text_5">
      <!-- 0 -->
      <defs>
       <path d="M 31.78125 66.40625 
Q 24.171875 66.40625 20.328125 58.90625 
Q 16.5 51.421875 16.5 36.375 
Q 16.5 21.390625 20.328125 13.890625 
Q 24.171875 6.390625 31.78125 6.390625 
Q 39.453125 6.390625 43.28125 13.890625 
Q 47.125 21.390625 47.125 36.375 
Q 47.125 51.421875 43.28125 58.90625 
Q 39.453125 66.40625 31.78125 66.40625 
z
M 31.78125 74.21875 
Q 44.046875 74.21875 50.515625 64.515625 
Q 56.984375 54.828125 56.984375 36.375 
Q 56.984375 17.96875 50.515625 8.265625 
Q 44.046875 -1.421875 31.78125 -1.421875 
Q 19.53125 -1.421875 13.0625 8.265625 
Q 6.59375 17.96875 6.59375 36.375 
Q 6.59375 54.828125 13.0625 64.515625 
Q 19.53125 74.21875 31.78125 74.21875 
z
" id="DejaVuSans-48"/>
      </defs>
      <g style="fill:#262626;" transform="translate(28.19625 193.420711)scale(0.165 -0.165)">
       <use xlink:href="#DejaVuSans-48"/>
      </g>
     </g>
    </g>
    <g id="ytick_2">
     <g id="line2d_6">
      <path clip-path="url(#paea711838f)" d="M 45.194375 140.615884 
L 172.012557 140.615884 
" style="fill:none;stroke:#cccccc;stroke-linecap:round;stroke-width:1.5;"/>
     </g>
     <g id="text_6">
      <!-- 100 -->
      <g style="fill:#262626;" transform="translate(7.2 146.884595)scale(0.165 -0.165)">
       <use xlink:href="#DejaVuSans-49"/>
       <use x="63.623047" xlink:href="#DejaVuSans-48"/>
       <use x="127.246094" xlink:href="#DejaVuSans-48"/>
      </g>
     </g>
    </g>
    <g id="ytick_3">
     <g id="line2d_7">
      <path clip-path="url(#paea711838f)" d="M 45.194375 94.079769 
L 172.012557 94.079769 
" style="fill:none;stroke:#cccccc;stroke-linecap:round;stroke-width:1.5;"/>
     </g>
     <g id="text_7">
      <!-- 200 -->
      <defs>
       <path d="M 19.1875 8.296875 
L 53.609375 8.296875 
L 53.609375 0 
L 7.328125 0 
L 7.328125 8.296875 
Q 12.9375 14.109375 22.625 23.890625 
Q 32.328125 33.6875 34.8125 36.53125 
Q 39.546875 41.84375 41.421875 45.53125 
Q 43.3125 49.21875 43.3125 52.78125 
Q 43.3125 58.59375 39.234375 62.25 
Q 35.15625 65.921875 28.609375 65.921875 
Q 23.96875 65.921875 18.8125 64.3125 
Q 13.671875 62.703125 7.8125 59.421875 
L 7.8125 69.390625 
Q 13.765625 71.78125 18.9375 73 
Q 24.125 74.21875 28.421875 74.21875 
Q 39.75 74.21875 46.484375 68.546875 
Q 53.21875 62.890625 53.21875 53.421875 
Q 53.21875 48.921875 51.53125 44.890625 
Q 49.859375 40.875 45.40625 35.40625 
Q 44.1875 33.984375 37.640625 27.21875 
Q 31.109375 20.453125 19.1875 8.296875 
z
" id="DejaVuSans-50"/>
      </defs>
      <g style="fill:#262626;" transform="translate(7.2 100.34848)scale(0.165 -0.165)">
       <use xlink:href="#DejaVuSans-50"/>
       <use x="63.623047" xlink:href="#DejaVuSans-48"/>
       <use x="127.246094" xlink:href="#DejaVuSans-48"/>
      </g>
     </g>
    </g>
    <g id="ytick_4">
     <g id="line2d_8">
      <path clip-path="url(#paea711838f)" d="M 45.194375 47.543653 
L 172.012557 47.543653 
" style="fill:none;stroke:#cccccc;stroke-linecap:round;stroke-width:1.5;"/>
     </g>
     <g id="text_8">
      <!-- 300 -->
      <g style="fill:#262626;" transform="translate(7.2 53.812364)scale(0.165 -0.165)">
       <use xlink:href="#DejaVuSans-51"/>
       <use x="63.623047" xlink:href="#DejaVuSans-48"/>
       <use x="127.246094" xlink:href="#DejaVuSans-48"/>
      </g>
     </g>
    </g>
   </g>
   <g id="patch_3">
    <path clip-path="url(#paea711838f)" d="M 50.958838 187.152 
L 62.783377 187.152 
L 62.783377 186.686639 
L 50.958838 186.686639 
z
" style="fill:#808080;stroke:#ffffff;stroke-linejoin:miter;stroke-width:1.5;"/>
   </g>
   <g id="patch_4">
    <path clip-path="url(#paea711838f)" d="M 65.739512 187.152 
L 77.564051 187.152 
L 77.564051 183.894472 
L 65.739512 183.894472 
z
" style="fill:#808080;stroke:#ffffff;stroke-linejoin:miter;stroke-width:1.5;"/>
   </g>
   <g id="patch_5">
    <path clip-path="url(#paea711838f)" d="M 80.520186 187.152 
L 92.344725 187.152 
L 92.344725 180.171583 
L 80.520186 180.171583 
z
" style="fill:#808080;stroke:#ffffff;stroke-linejoin:miter;stroke-width:1.5;"/>
   </g>
   <g id="patch_6">
    <path clip-path="url(#paea711838f)" d="M 95.300859 187.152 
L 107.125399 187.152 
L 107.125399 175.517971 
L 95.300859 175.517971 
z
" style="fill:#808080;stroke:#ffffff;stroke-linejoin:miter;stroke-width:1.5;"/>
   </g>
   <g id="patch_7">
    <path clip-path="url(#paea711838f)" d="M 110.081533 187.152 
L 121.906072 187.152 
L 121.906072 173.191165 
L 110.081533 173.191165 
z
" style="fill:#808080;stroke:#ffffff;stroke-linejoin:miter;stroke-width:1.5;"/>
   </g>
   <g id="patch_8">
    <path clip-path="url(#paea711838f)" d="M 124.862207 187.152 
L 136.686746 187.152 
L 136.686746 165.745387 
L 124.862207 165.745387 
z
" style="fill:#808080;stroke:#ffffff;stroke-linejoin:miter;stroke-width:1.5;"/>
   </g>
   <g id="patch_9">
    <path clip-path="url(#paea711838f)" d="M 139.642881 187.152 
L 151.46742 187.152 
L 151.46742 125.724327 
L 139.642881 125.724327 
z
" style="fill:#808080;stroke:#ffffff;stroke-linejoin:miter;stroke-width:1.5;"/>
   </g>
   <g id="patch_10">
    <path clip-path="url(#paea711838f)" d="M 154.423555 187.152 
L 166.248094 187.152 
L 166.248094 21.483429 
L 154.423555 21.483429 
z
" style="fill:#808080;stroke:#ffffff;stroke-linejoin:miter;stroke-width:1.5;"/>
   </g>
   <g id="line2d_9">
    <path clip-path="url(#paea711838f)" d="M 160.335824 187.152 
L 160.335824 13.2 
" style="fill:none;stroke:#c44e52;stroke-linecap:round;stroke-width:2.25;"/>
   </g>
   <g id="patch_11">
    <path d="M 45.194375 187.152 
L 45.194375 13.2 
" style="fill:none;stroke:#262626;stroke-linecap:square;stroke-linejoin:miter;stroke-width:1.875;"/>
   </g>
   <g id="patch_12">
    <path d="M 45.194375 187.152 
L 172.012557 187.152 
" style="fill:none;stroke:#262626;stroke-linecap:square;stroke-linejoin:miter;stroke-width:1.875;"/>
   </g>
  </g>
  <g id="axes_2">
   <g id="patch_13">
    <path d="M 197.376193 187.152 
L 324.194375 187.152 
L 324.194375 13.2 
L 197.376193 13.2 
z
" style="fill:none;"/>
   </g>
   <g id="matplotlib.axis_3">
    <g id="xtick_5">
     <g id="line2d_10">
      <path clip-path="url(#p32f962d58c)" d="M 223.833599 187.152 
L 223.833599 13.2 
" style="fill:none;stroke:#cccccc;stroke-linecap:round;stroke-width:1.5;"/>
     </g>
     <g id="text_9">
      <!-- 1 -->
      <g style="fill:#262626;" transform="translate(218.584537 206.189422)scale(0.165 -0.165)">
       <use xlink:href="#DejaVuSans-49"/>
      </g>
     </g>
    </g>
    <g id="xtick_6">
     <g id="line2d_11">
      <path clip-path="url(#p32f962d58c)" d="M 253.394947 187.152 
L 253.394947 13.2 
" style="fill:none;stroke:#cccccc;stroke-linecap:round;stroke-width:1.5;"/>
     </g>
     <g id="text_10">
      <!-- 3 -->
      <g style="fill:#262626;" transform="translate(248.145885 206.189422)scale(0.165 -0.165)">
       <use xlink:href="#DejaVuSans-51"/>
      </g>
     </g>
    </g>
    <g id="xtick_7">
     <g id="line2d_12">
      <path clip-path="url(#p32f962d58c)" d="M 282.956295 187.152 
L 282.956295 13.2 
" style="fill:none;stroke:#cccccc;stroke-linecap:round;stroke-width:1.5;"/>
     </g>
     <g id="text_11">
      <!-- 5 -->
      <g style="fill:#262626;" transform="translate(277.707232 206.189422)scale(0.165 -0.165)">
       <use xlink:href="#DejaVuSans-53"/>
      </g>
     </g>
    </g>
    <g id="xtick_8">
     <g id="line2d_13">
      <path clip-path="url(#p32f962d58c)" d="M 312.517643 187.152 
L 312.517643 13.2 
" style="fill:none;stroke:#cccccc;stroke-linecap:round;stroke-width:1.5;"/>
     </g>
     <g id="text_12">
      <!-- 7 -->
      <g style="fill:#262626;" transform="translate(307.26858 206.189422)scale(0.165 -0.165)">
       <use xlink:href="#DejaVuSans-55"/>
      </g>
     </g>
    </g>
   </g>
   <g id="matplotlib.axis_4">
    <g id="ytick_5">
     <g id="line2d_14">
      <path clip-path="url(#p32f962d58c)" d="M 197.376193 187.152 
L 324.194375 187.152 
" style="fill:none;stroke:#cccccc;stroke-linecap:round;stroke-width:1.5;"/>
     </g>
    </g>
    <g id="ytick_6">
     <g id="line2d_15">
      <path clip-path="url(#p32f962d58c)" d="M 197.376193 140.615884 
L 324.194375 140.615884 
" style="fill:none;stroke:#cccccc;stroke-linecap:round;stroke-width:1.5;"/>
     </g>
    </g>
    <g id="ytick_7">
     <g id="line2d_16">
      <path clip-path="url(#p32f962d58c)" d="M 197.376193 94.079769 
L 324.194375 94.079769 
" style="fill:none;stroke:#cccccc;stroke-linecap:round;stroke-width:1.5;"/>
     </g>
    </g>
    <g id="ytick_8">
     <g id="line2d_17">
      <path clip-path="url(#p32f962d58c)" d="M 197.376193 47.543653 
L 324.194375 47.543653 
" style="fill:none;stroke:#cccccc;stroke-linecap:round;stroke-width:1.5;"/>
     </g>
    </g>
   </g>
   <g id="patch_14">
    <path clip-path="url(#p32f962d58c)" d="M 203.140656 187.152 
L 214.965195 187.152 
L 214.965195 186.686639 
L 203.140656 186.686639 
z
" style="fill:#808080;stroke:#ffffff;stroke-linejoin:miter;stroke-width:1.5;"/>
   </g>
   <g id="patch_15">
    <path clip-path="url(#p32f962d58c)" d="M 217.92133 187.152 
L 229.745869 187.152 
L 229.745869 183.894472 
L 217.92133 183.894472 
z
" style="fill:#808080;stroke:#ffffff;stroke-linejoin:miter;stroke-width:1.5;"/>
   </g>
   <g id="patch_16">
    <path clip-path="url(#p32f962d58c)" d="M 232.702004 187.152 
L 244.526543 187.152 
L 244.526543 179.24086 
L 232.702004 179.24086 
z
" style="fill:#808080;stroke:#ffffff;stroke-linejoin:miter;stroke-width:1.5;"/>
   </g>
   <g id="patch_17">
    <path clip-path="url(#p32f962d58c)" d="M 247.482678 187.152 
L 259.307217 187.152 
L 259.307217 175.05261 
L 247.482678 175.05261 
z
" style="fill:#808080;stroke:#ffffff;stroke-linejoin:miter;stroke-width:1.5;"/>
   </g>
   <g id="patch_18">
    <path clip-path="url(#p32f962d58c)" d="M 262.263351 187.152 
L 274.087891 187.152 
L 274.087891 171.329721 
L 262.263351 171.329721 
z
" style="fill:#808080;stroke:#ffffff;stroke-linejoin:miter;stroke-width:1.5;"/>
   </g>
   <g id="patch_19">
    <path clip-path="url(#p32f962d58c)" d="M 277.044025 187.152 
L 288.868564 187.152 
L 288.868564 154.576719 
L 277.044025 154.576719 
z
" style="fill:#808080;stroke:#ffffff;stroke-linejoin:miter;stroke-width:1.5;"/>
   </g>
   <g id="patch_20">
    <path clip-path="url(#p32f962d58c)" d="M 291.824699 187.152 
L 303.649238 187.152 
L 303.649238 92.683685 
L 291.824699 92.683685 
z
" style="fill:#808080;stroke:#ffffff;stroke-linejoin:miter;stroke-width:1.5;"/>
   </g>
   <g id="patch_21">
    <path clip-path="url(#p32f962d58c)" d="M 306.605373 187.152 
L 318.429912 187.152 
L 318.429912 68.950266 
L 306.605373 68.950266 
z
" style="fill:#808080;stroke:#ffffff;stroke-linejoin:miter;stroke-width:1.5;"/>
   </g>
   <g id="line2d_18">
    <path clip-path="url(#p32f962d58c)" d="M 297.736969 187.152 
L 297.736969 13.2 
" style="fill:none;stroke:#c44e52;stroke-linecap:round;stroke-width:2.25;"/>
   </g>
   <g id="patch_22">
    <path d="M 197.376193 187.152 
L 197.376193 13.2 
" style="fill:none;stroke:#262626;stroke-linecap:square;stroke-linejoin:miter;stroke-width:1.875;"/>
   </g>
   <g id="patch_23">
    <path d="M 197.376193 187.152 
L 324.194375 187.152 
" style="fill:none;stroke:#262626;stroke-linecap:square;stroke-linejoin:miter;stroke-width:1.875;"/>
   </g>
  </g>
 </g>
 <defs>
  <clipPath id="paea711838f">
   <rect height="173.952" width="126.818182" x="45.194375" y="13.2"/>
  </clipPath>
  <clipPath id="p32f962d58c">
   <rect height="173.952" width="126.818182" x="197.376193" y="13.2"/>
  </clipPath>
 </defs>
</svg>
