<?xml version="1.0" encoding="utf-8" standalone="no"?>
<!DOCTYPE svg PUBLIC "-//W3C//DTD SVG 1.1//EN"
  "http://www.w3.org/Graphics/SVG/1.1/DTD/svg11.dtd">
<!-- Created with matplotlib (http://matplotlib.org/) -->
<svg height="80pt" version="1.1" viewBox="0 0 249 80" width="249pt" xmlns="http://www.w3.org/2000/svg" xmlns:xlink="http://www.w3.org/1999/xlink">
 <defs>
  <style type="text/css">
*{stroke-linecap:butt;stroke-linejoin:round;}
  </style>
 </defs>
 <g id="figure_1">
  <g id="patch_1">
   <path d="M 0 80.76 
L 249.6 80.76 
L 249.6 0 
L 0 0 
z
" style="fill:none;"/>
  </g>
  <g id="axes_1">
   <g id="patch_2">
    <path d="M 13.2 67.56 
L 236.4 67.56 
L 236.4 13.2 
L 13.2 13.2 
z
" style="fill:none;"/>
   </g>
   <g id="matplotlib.axis_1"/>
   <g id="matplotlib.axis_2">
    <g id="ytick_1">
     <g id="line2d_1">
      <path clip-path="url(#p516bc5f7a3)" d="M 13.2 15.904921 
L 236.4 15.904921 
" style="fill:none;stroke:#cccccc;stroke-linecap:round;stroke-width:1.5;"/>
     </g>
    </g>
   </g>
   <g id="line2d_2">
    <path clip-path="url(#p516bc5f7a3)" d="M 27.40199 56.088056 
L 29.389705 48.291388 
L 31.377419 55.083796 
L 33.365134 60.304926 
L 35.352848 53.991996 
L 37.340563 51.286266 
L 39.328277 60.00949 
L 41.315992 64.68505 
L 43.303706 66.120289 
L 45.291421 47.285734 
L 47.279135 53.957946 
L 49.26685 65.060199 
L 51.254564 56.952765 
L 53.242279 57.807632 
L 55.229993 54.242173 
L 57.217708 65.565627 
L 59.205422 49.819996 
L 61.193137 54.98226 
L 63.180851 54.593124 
L 65.168566 53.445266 
L 67.15628 50.735749 
L 69.143995 51.631094 
L 71.131709 53.547142 
L 73.119424 48.855878 
L 75.107138 53.99414 
L 77.094852 39.470635 
L 79.082567 57.575966 
L 81.070281 53.448563 
L 83.057996 53.327738 
L 85.04571 55.48381 
L 87.033425 47.467602 
L 89.021139 45.088819 
L 91.008854 46.063949 
L 92.996568 48.7616 
L 94.984283 49.793917 
L 96.971997 55.354321 
L 98.959712 47.042924 
L 100.947426 49.376358 
L 102.935141 47.04408 
L 104.922855 45.874335 
L 106.91057 49.921864 
L 108.898284 48.567259 
L 110.885999 46.887063 
L 112.873713 41.944413 
L 114.861428 44.046484 
L 116.849142 39.716509 
L 118.836857 44.245847 
L 120.824571 43.462128 
L 122.812286 46.365913 
L 124.8 42.553092 
L 126.787714 43.021709 
L 128.775429 38.743698 
L 130.763143 38.470237 
L 132.750858 42.023317 
L 134.738572 37.928487 
L 136.726287 44.491662 
L 138.714001 44.017444 
L 140.701716 44.122589 
L 142.68943 40.712467 
L 144.677145 40.042046 
L 146.664859 41.227303 
L 148.652574 39.739062 
L 150.640288 39.481252 
L 152.628003 37.123 
L 154.615717 38.804315 
L 156.603432 35.855022 
L 158.591146 37.464349 
L 160.578861 36.052693 
L 162.566575 33.827277 
L 164.55429 34.965112 
L 166.542004 36.15946 
L 168.529719 37.172752 
L 170.517433 31.850846 
L 172.505148 32.699005 
L 174.492862 31.145967 
L 176.480576 32.772578 
L 178.468291 32.241774 
L 180.456005 26.632168 
L 182.44372 32.668035 
L 184.431434 32.197972 
L 186.419149 28.811628 
L 188.406863 25.867212 
L 190.394578 25.77528 
L 192.382292 27.159406 
L 194.370007 25.347879 
L 196.357721 27.784355 
L 198.345436 26.792916 
L 200.33315 28.461303 
L 202.320865 26.145888 
L 204.308579 24.948969 
L 206.296294 23.679008 
L 208.284008 22.793416 
L 210.271723 22.161663 
L 212.259437 22.88065 
L 214.247152 23.04346 
L 216.234866 23.832272 
L 218.222581 20.05251 
L 220.210295 20.246892 
L 222.19801 25.440371 
" style="fill:none;stroke:#1a1a1a;stroke-linecap:round;stroke-width:4;"/>
   </g>
   <g id="patch_3">
    <path d="M 13.2 67.56 
L 13.2 13.2 
" style="fill:none;stroke:#262626;stroke-linecap:square;stroke-linejoin:miter;stroke-width:1.875;"/>
   </g>
   <g id="patch_4">
    <path d="M 13.2 67.56 
L 236.4 67.56 
" style="fill:none;stroke:#262626;stroke-linecap:square;stroke-linejoin:miter;stroke-width:1.875;"/>
   </g>
  </g>
 </g>
 <defs>
  <clipPath id="p516bc5f7a3">
   <rect height="54.36" width="223.2" x="13.2" y="13.2"/>
  </clipPath>
 </defs>
</svg>
