<?xml version="1.0" encoding="utf-8" standalone="no"?>
<!DOCTYPE svg PUBLIC "-//W3C//DTD SVG 1.1//EN"
  "http://www.w3.org/Graphics/SVG/1.1/DTD/svg11.dtd">
<!-- Created with matplotlib (https://matplotlib.org/) -->
<svg height="80.76pt" version="1.1" viewBox="0 0 249.6 80.76" width="249.6pt" xmlns="http://www.w3.org/2000/svg" xmlns:xlink="http://www.w3.org/1999/xlink">
 <defs>
  <style type="text/css">
*{stroke-linecap:butt;stroke-linejoin:round;}
  </style>
 </defs>
 <g id="figure_1">
  <g id="patch_1">
   <path d="M 0 80.76 
L 249.6 80.76 
L 249.6 0 
L 0 0 
z
" style="fill:none;"/>
  </g>
  <g id="axes_1">
   <g id="patch_2">
    <path d="M 13.2 67.56 
L 236.4 67.56 
L 236.4 13.2 
L 13.2 13.2 
z
" style="fill:none;"/>
   </g>
   <g id="matplotlib.axis_1"/>
   <g id="matplotlib.axis_2">
    <g id="ytick_1">
     <g id="line2d_1">
      <path clip-path="url(#p18f2613264)" d="M 13.2 15.904921 
L 236.4 15.904921 
" style="fill:none;stroke:#cccccc;stroke-linecap:round;stroke-width:1.5;"/>
     </g>
    </g>
   </g>
   <g id="line2d_2">
    <path clip-path="url(#p18f2613264)" d="M 26.16178 20.821848 
L 28.174805 16.052401 
L 30.18783 19.917924 
L 32.200855 23.634705 
L 34.21388 43.893788 
L 36.226905 67.485837 
L 38.23993 26.277151 
L 40.252955 31.294236 
L 42.265979 43.426149 
L 44.279004 58.145286 
L 46.292029 47.853571 
L 48.305054 20.52491 
L 50.318079 47.441056 
L 52.331104 48.391726 
L 54.344129 38.139579 
L 56.357154 40.913147 
L 58.370179 38.129214 
L 60.383203 39.134567 
L 62.396228 48.114574 
L 64.409253 65.137487 
L 66.422278 46.172089 
L 68.435303 44.094704 
L 70.448328 44.833215 
L 72.461353 41.909296 
L 74.474378 44.799377 
L 76.487403 41.784182 
L 78.500427 35.0389 
L 80.513452 51.569849 
L 82.526477 46.035004 
L 84.539502 39.746282 
L 86.552527 44.032599 
L 88.565552 41.207636 
L 90.578577 46.002391 
L 92.591602 36.415536 
L 94.604627 39.934523 
L 96.617652 38.909189 
L 98.630676 51.952006 
L 100.643701 40.103924 
L 102.656726 38.427004 
L 104.669751 45.6942 
L 106.682776 40.713084 
L 108.695801 48.065041 
L 110.708826 42.173671 
L 112.721851 39.515474 
L 114.734876 41.997164 
L 116.7479 39.883139 
L 118.760925 40.607576 
L 120.77395 34.69223 
L 122.786975 38.952654 
L 124.8 44.198177 
L 126.813025 39.599277 
L 128.82605 38.33208 
L 130.839075 38.389017 
L 132.8521 41.349649 
L 134.865124 36.66167 
L 136.878149 39.246522 
L 138.891174 38.028851 
L 140.904199 32.33925 
L 142.917224 35.88491 
L 144.930249 35.784701 
L 146.943274 36.226865 
L 148.956299 34.846209 
L 150.969324 34.899079 
L 152.982348 33.770289 
L 154.995373 31.17482 
L 157.008398 34.016614 
L 159.021423 32.931962 
L 161.034448 33.989283 
L 163.047473 32.441357 
L 165.060498 33.163413 
L 167.073523 30.443978 
L 169.086548 32.55026 
L 171.099573 30.903406 
L 173.112597 31.113224 
L 175.125622 27.168564 
L 177.138647 31.189646 
L 179.151672 30.924492 
L 181.164697 28.674654 
L 183.177722 32.014674 
L 185.190747 29.534126 
L 187.203772 30.099798 
L 189.216797 32.25305 
L 191.229821 29.197284 
L 193.242846 31.302895 
L 195.255871 29.903352 
L 197.268896 25.739274 
L 199.281921 27.615291 
L 201.294946 28.615471 
L 203.307971 28.730951 
L 205.320996 26.49873 
L 207.334021 33.103747 
L 209.347045 26.114944 
L 211.36007 24.705943 
L 213.373095 25.786189 
L 215.38612 20.617475 
L 217.399145 19.981467 
L 219.41217 16.776316 
L 221.425195 28.563409 
L 223.43822 30.488578 
" style="fill:none;stroke:#1a1a1a;stroke-linecap:round;stroke-width:4;"/>
   </g>
   <g id="patch_3">
    <path d="M 13.2 67.56 
L 13.2 13.2 
" style="fill:none;stroke:#262626;stroke-linecap:square;stroke-linejoin:miter;stroke-width:1.875;"/>
   </g>
   <g id="patch_4">
    <path d="M 13.2 67.56 
L 236.4 67.56 
" style="fill:none;stroke:#262626;stroke-linecap:square;stroke-linejoin:miter;stroke-width:1.875;"/>
   </g>
  </g>
 </g>
 <defs>
  <clipPath id="p18f2613264">
   <rect height="54.36" width="223.2" x="13.2" y="13.2"/>
  </clipPath>
 </defs>
</svg>
