<?xml version="1.0" encoding="utf-8" standalone="no"?>
<!DOCTYPE svg PUBLIC "-//W3C//DTD SVG 1.1//EN"
  "http://www.w3.org/Graphics/SVG/1.1/DTD/svg11.dtd">
<!-- Created with matplotlib (https://matplotlib.org/) -->
<svg height="80.76pt" version="1.1" viewBox="0 0 249.6 80.76" width="249.6pt" xmlns="http://www.w3.org/2000/svg" xmlns:xlink="http://www.w3.org/1999/xlink">
 <defs>
  <style type="text/css">
*{stroke-linecap:butt;stroke-linejoin:round;}
  </style>
 </defs>
 <g id="figure_1">
  <g id="patch_1">
   <path d="M 0 80.76 
L 249.6 80.76 
L 249.6 0 
L 0 0 
z
" style="fill:none;"/>
  </g>
  <g id="axes_1">
   <g id="patch_2">
    <path d="M 13.2 67.56 
L 236.4 67.56 
L 236.4 13.2 
L 13.2 13.2 
z
" style="fill:none;"/>
   </g>
   <g id="matplotlib.axis_1"/>
   <g id="matplotlib.axis_2">
    <g id="ytick_1">
     <g id="line2d_1">
      <path clip-path="url(#p671b38101e)" d="M 13.2 15.904921 
L 236.4 15.904921 
" style="fill:none;stroke:#cccccc;stroke-linecap:round;stroke-width:1.5;"/>
     </g>
    </g>
   </g>
   <g id="line2d_2">
    <path clip-path="url(#p671b38101e)" d="M 26.727904 33.136726 
L 28.729376 46.178844 
L 30.730847 26.897704 
L 32.732318 42.628532 
L 34.73379 33.34907 
L 36.735261 32.669341 
L 38.736732 22.402775 
L 40.738204 28.71202 
L 42.739675 32.31831 
L 44.741146 40.553016 
L 46.742618 27.749814 
L 48.744089 37.206101 
L 50.74556 29.318899 
L 52.747032 30.253164 
L 54.748503 31.777329 
L 56.749974 30.203405 
L 58.751446 29.562178 
L 60.752917 28.499588 
L 62.754388 34.821407 
L 64.75586 36.465159 
L 66.757331 31.41971 
L 68.758802 30.449519 
L 70.760274 28.972742 
L 72.761745 32.417979 
L 74.763216 32.474194 
L 76.764688 33.704538 
L 78.766159 32.62921 
L 80.76763 33.080873 
L 82.769102 33.513039 
L 84.770573 35.129189 
L 86.772044 37.957265 
L 88.773516 33.670507 
L 90.774987 37.398058 
L 92.776459 35.053456 
L 94.77793 35.558016 
L 96.779401 32.109312 
L 98.780873 35.228554 
L 100.782344 36.004776 
L 102.783815 34.071296 
L 104.785287 38.571329 
L 106.786758 35.051025 
L 108.788229 37.327196 
L 110.789701 34.690951 
L 112.791172 38.758382 
L 114.792643 37.387513 
L 116.794115 33.233664 
L 118.795586 36.922993 
L 120.797057 34.114003 
L 122.798529 34.850547 
L 124.8 37.300514 
L 126.801471 34.18532 
L 128.802943 32.829249 
L 130.804414 36.319595 
L 132.805885 36.878388 
L 134.807357 33.152013 
L 136.808828 37.201513 
L 138.810299 33.463866 
L 140.811771 33.411543 
L 142.813242 34.159355 
L 144.814713 36.58995 
L 146.816185 31.202513 
L 148.817656 36.32955 
L 150.819127 34.16831 
L 152.820599 34.462316 
L 154.82207 35.409254 
L 156.823541 33.078367 
L 158.825013 33.3596 
L 160.826484 38.179256 
L 162.827956 33.242618 
L 164.829427 33.390554 
L 166.830898 36.513513 
L 168.83237 39.099699 
L 170.833841 36.101668 
L 172.835312 38.398382 
L 174.836784 36.946763 
L 176.838255 28.42734 
L 178.839726 31.815923 
L 180.841198 33.414196 
L 182.842669 27.294221 
L 184.84414 35.186048 
L 186.845612 25.871839 
L 188.847083 31.776179 
L 190.848554 30.576839 
L 192.850026 32.473443 
L 194.851497 25.889282 
L 196.852968 24.759077 
L 198.85444 32.681218 
L 200.855911 19.589093 
L 202.857382 30.989646 
L 204.858854 29.513017 
L 206.860325 34.206138 
L 208.861796 30.680333 
L 210.863268 31.675648 
L 212.864739 21.569348 
L 214.86621 32.824792 
L 216.867682 31.410626 
L 218.869153 15.917138 
L 220.870624 22.479056 
L 222.872096 19.942395 
" style="fill:none;stroke:#1a1a1a;stroke-linecap:round;stroke-width:4;"/>
   </g>
   <g id="patch_3">
    <path d="M 13.2 67.56 
L 13.2 13.2 
" style="fill:none;stroke:#262626;stroke-linecap:square;stroke-linejoin:miter;stroke-width:1.875;"/>
   </g>
   <g id="patch_4">
    <path d="M 13.2 67.56 
L 236.4 67.56 
" style="fill:none;stroke:#262626;stroke-linecap:square;stroke-linejoin:miter;stroke-width:1.875;"/>
   </g>
  </g>
 </g>
 <defs>
  <clipPath id="p671b38101e">
   <rect height="54.36" width="223.2" x="13.2" y="13.2"/>
  </clipPath>
 </defs>
</svg>
