<?xml version="1.0" encoding="utf-8" standalone="no"?>
<!DOCTYPE svg PUBLIC "-//W3C//DTD SVG 1.1//EN"
  "http://www.w3.org/Graphics/SVG/1.1/DTD/svg11.dtd">
<!-- Created with matplotlib (https://matplotlib.org/) -->
<svg height="80.76pt" version="1.1" viewBox="0 0 249.6 80.76" width="249.6pt" xmlns="http://www.w3.org/2000/svg" xmlns:xlink="http://www.w3.org/1999/xlink">
 <defs>
  <style type="text/css">
*{stroke-linecap:butt;stroke-linejoin:round;}
  </style>
 </defs>
 <g id="figure_1">
  <g id="patch_1">
   <path d="M 0 80.76 
L 249.6 80.76 
L 249.6 0 
L 0 0 
z
" style="fill:none;"/>
  </g>
  <g id="axes_1">
   <g id="patch_2">
    <path d="M 13.2 67.56 
L 236.4 67.56 
L 236.4 13.2 
L 13.2 13.2 
z
" style="fill:none;"/>
   </g>
   <g id="matplotlib.axis_1"/>
   <g id="matplotlib.axis_2">
    <g id="ytick_1">
     <g id="line2d_1">
      <path clip-path="url(#p916039e643)" d="M 13.2 15.904921 
L 236.4 15.904921 
" style="fill:none;stroke:#cccccc;stroke-linecap:round;stroke-width:1.5;"/>
     </g>
    </g>
   </g>
   <g id="line2d_2">
    <path clip-path="url(#p916039e643)" d="M 27.402007 56.088056 
L 29.389721 48.291388 
L 31.377435 55.083796 
L 33.36515 60.304926 
L 35.352864 53.991996 
L 37.340578 51.286266 
L 39.328292 60.00949 
L 41.316006 64.68505 
L 43.30372 66.120289 
L 45.291434 47.285734 
L 47.279149 53.957946 
L 49.266863 65.060199 
L 51.254577 56.952765 
L 53.242291 57.807632 
L 55.230005 54.242173 
L 57.217719 65.565627 
L 59.205433 49.819996 
L 61.193148 54.98226 
L 63.180862 54.593124 
L 65.168576 53.445266 
L 67.15629 50.735749 
L 69.144004 51.631094 
L 71.131718 53.547142 
L 73.119432 48.855878 
L 75.107146 53.99414 
L 77.094861 39.470635 
L 79.082575 57.575966 
L 81.070289 53.448563 
L 83.058003 53.327738 
L 85.045717 55.48381 
L 87.033431 47.467602 
L 89.021145 45.088819 
L 91.00886 46.063949 
L 92.996574 48.7616 
L 94.984288 49.793917 
L 96.972002 55.354321 
L 98.959716 47.042924 
L 100.94743 49.376358 
L 102.935144 47.04408 
L 104.922859 45.874335 
L 106.910573 49.921864 
L 108.898287 48.567259 
L 110.886001 46.887063 
L 112.873715 41.944413 
L 114.861429 44.046484 
L 116.849143 39.716509 
L 118.836858 44.245847 
L 120.824572 43.462128 
L 122.812286 46.563957 
L 124.8 42.289434 
L 126.787714 43.021709 
L 128.775428 38.743698 
L 130.763142 38.470237 
L 132.750857 42.023317 
L 134.738571 37.928487 
L 136.726285 44.491662 
L 138.713999 44.017444 
L 140.701713 44.122589 
L 142.689427 40.712467 
L 144.677141 40.042046 
L 146.664856 41.227303 
L 148.65257 39.739062 
L 150.640284 39.481252 
L 152.627998 37.123 
L 154.615712 38.804315 
L 156.603426 35.855022 
L 158.59114 37.464349 
L 160.578855 36.052693 
L 162.566569 33.827277 
L 164.554283 34.965112 
L 166.541997 36.15946 
L 168.529711 37.172752 
L 170.517425 31.850846 
L 172.505139 32.699005 
L 174.492854 31.145967 
L 176.480568 32.772578 
L 178.468282 32.241774 
L 180.455996 26.632168 
L 182.44371 32.668035 
L 184.431424 32.197972 
L 186.419138 28.811628 
L 188.406852 25.867212 
L 190.394567 25.77528 
L 192.382281 27.159406 
L 194.369995 25.347879 
L 196.357709 27.784355 
L 198.345423 27.094912 
L 200.333137 28.168404 
L 202.320851 26.145888 
L 204.308566 24.948969 
L 206.29628 23.679008 
L 208.283994 22.793416 
L 210.271708 22.161663 
L 212.259422 22.88065 
L 214.247136 23.04346 
L 216.23485 23.832272 
L 218.222565 20.05251 
L 220.210279 20.246892 
L 222.197993 25.440371 
" style="fill:none;stroke:#1a1a1a;stroke-linecap:round;stroke-width:4;"/>
   </g>
   <g id="patch_3">
    <path d="M 13.2 67.56 
L 13.2 13.2 
" style="fill:none;stroke:#262626;stroke-linecap:square;stroke-linejoin:miter;stroke-width:1.875;"/>
   </g>
   <g id="patch_4">
    <path d="M 13.2 67.56 
L 236.4 67.56 
" style="fill:none;stroke:#262626;stroke-linecap:square;stroke-linejoin:miter;stroke-width:1.875;"/>
   </g>
  </g>
 </g>
 <defs>
  <clipPath id="p916039e643">
   <rect height="54.36" width="223.2" x="13.2" y="13.2"/>
  </clipPath>
 </defs>
</svg>
