<?xml version="1.0" encoding="utf-8" standalone="no"?>
<!DOCTYPE svg PUBLIC "-//W3C//DTD SVG 1.1//EN"
  "http://www.w3.org/Graphics/SVG/1.1/DTD/svg11.dtd">
<!-- Created with matplotlib (http://matplotlib.org/) -->
<svg height="80pt" version="1.1" viewBox="0 0 249 80" width="249pt" xmlns="http://www.w3.org/2000/svg" xmlns:xlink="http://www.w3.org/1999/xlink">
 <defs>
  <style type="text/css">
*{stroke-linecap:butt;stroke-linejoin:round;}
  </style>
 </defs>
 <g id="figure_1">
  <g id="patch_1">
   <path d="M 0 80.76 
L 249.6 80.76 
L 249.6 0 
L 0 0 
z
" style="fill:none;"/>
  </g>
  <g id="axes_1">
   <g id="patch_2">
    <path d="M 13.2 67.56 
L 236.4 67.56 
L 236.4 13.2 
L 13.2 13.2 
z
" style="fill:none;"/>
   </g>
   <g id="matplotlib.axis_1"/>
   <g id="matplotlib.axis_2">
    <g id="ytick_1">
     <g id="line2d_1">
      <path clip-path="url(#pcef4e18771)" d="M 13.2 15.904921 
L 236.4 15.904921 
" style="fill:none;stroke:#cccccc;stroke-linecap:round;stroke-width:1.5;"/>
     </g>
    </g>
   </g>
   <g id="line2d_2">
    <path clip-path="url(#pcef4e18771)" d="M 26.161783 20.821848 
L 28.174807 16.052401 
L 30.187832 19.917924 
L 32.200857 23.634705 
L 34.213882 43.893788 
L 36.226907 67.485837 
L 38.239932 26.277151 
L 40.252957 31.294236 
L 42.265981 43.426149 
L 44.279006 58.145286 
L 46.292031 47.853571 
L 48.305056 20.52491 
L 50.318081 47.441056 
L 52.331106 48.391726 
L 54.34413 38.139579 
L 56.357155 40.913147 
L 58.37018 38.129214 
L 60.383205 39.134567 
L 62.39623 48.114574 
L 64.409255 65.137487 
L 66.42228 46.172089 
L 68.435304 44.094704 
L 70.448329 44.833215 
L 72.461354 41.909296 
L 74.474379 44.799377 
L 76.487404 41.784182 
L 78.500429 35.0389 
L 80.513453 51.569849 
L 82.526478 46.035004 
L 84.539503 39.746282 
L 86.552528 44.032599 
L 88.565553 41.207636 
L 90.578578 46.002391 
L 92.591602 36.415536 
L 94.604627 39.934523 
L 96.617652 38.909189 
L 98.630677 51.952006 
L 100.643702 40.103924 
L 102.656727 38.427004 
L 104.669752 45.6942 
L 106.682776 41.170127 
L 108.695801 47.723241 
L 110.708826 42.173671 
L 112.721851 39.515474 
L 114.734876 41.997164 
L 116.747901 39.883139 
L 118.760925 40.607576 
L 120.77395 34.69223 
L 122.786975 38.952654 
L 124.8 44.198177 
L 126.813025 39.599277 
L 128.82605 38.586262 
L 130.839075 38.172162 
L 132.852099 41.349649 
L 134.865124 36.66167 
L 136.878149 39.246522 
L 138.891174 38.028851 
L 140.904199 32.33925 
L 142.917224 35.88491 
L 144.930248 35.784701 
L 146.943273 36.226865 
L 148.956298 34.846209 
L 150.969323 34.899079 
L 152.982348 33.770289 
L 154.995373 31.17482 
L 157.008398 34.016614 
L 159.021422 32.931962 
L 161.034447 33.989283 
L 163.047472 32.643547 
L 165.060497 32.979092 
L 167.073522 30.443978 
L 169.086547 32.55026 
L 171.099571 30.903406 
L 173.112596 31.113224 
L 175.125621 27.168564 
L 177.138646 31.189646 
L 179.151671 30.924492 
L 181.164696 28.802645 
L 183.17772 31.874749 
L 185.190745 29.534126 
L 187.20377 30.099798 
L 189.216795 32.25305 
L 191.22982 29.197284 
L 193.242845 31.302895 
L 195.25587 29.903352 
L 197.268894 25.739274 
L 199.281919 27.615291 
L 201.294944 28.615471 
L 203.307969 28.730951 
L 205.320994 26.49873 
L 207.334019 33.103747 
L 209.347043 26.114944 
L 211.360068 24.705943 
L 213.373093 25.786189 
L 215.386118 20.617475 
L 217.399143 19.981467 
L 219.412168 16.776316 
L 221.425193 28.563409 
L 223.438217 30.488578 
" style="fill:none;stroke:#1a1a1a;stroke-linecap:round;stroke-width:4;"/>
   </g>
   <g id="patch_3">
    <path d="M 13.2 67.56 
L 13.2 13.2 
" style="fill:none;stroke:#262626;stroke-linecap:square;stroke-linejoin:miter;stroke-width:1.875;"/>
   </g>
   <g id="patch_4">
    <path d="M 13.2 67.56 
L 236.4 67.56 
" style="fill:none;stroke:#262626;stroke-linecap:square;stroke-linejoin:miter;stroke-width:1.875;"/>
   </g>
  </g>
 </g>
 <defs>
  <clipPath id="pcef4e18771">
   <rect height="54.36" width="223.2" x="13.2" y="13.2"/>
  </clipPath>
 </defs>
</svg>
