<?xml version="1.0" encoding="utf-8" standalone="no"?>
<!DOCTYPE svg PUBLIC "-//W3C//DTD SVG 1.1//EN"
  "http://www.w3.org/Graphics/SVG/1.1/DTD/svg11.dtd">
<!-- Created with matplotlib (http://matplotlib.org/) -->
<svg height="80pt" version="1.1" viewBox="0 0 249 80" width="249pt" xmlns="http://www.w3.org/2000/svg" xmlns:xlink="http://www.w3.org/1999/xlink">
 <defs>
  <style type="text/css">
*{stroke-linecap:butt;stroke-linejoin:round;}
  </style>
 </defs>
 <g id="figure_1">
  <g id="patch_1">
   <path d="M 0 80.76 
L 249.6 80.76 
L 249.6 0 
L 0 0 
z
" style="fill:none;"/>
  </g>
  <g id="axes_1">
   <g id="patch_2">
    <path d="M 13.2 67.56 
L 236.4 67.56 
L 236.4 13.2 
L 13.2 13.2 
z
" style="fill:none;"/>
   </g>
   <g id="matplotlib.axis_1"/>
   <g id="matplotlib.axis_2">
    <g id="ytick_1">
     <g id="line2d_1">
      <path clip-path="url(#pe5b9023fb9)" d="M 13.2 15.904921 
L 236.4 15.904921 
" style="fill:none;stroke:#cccccc;stroke-linecap:round;stroke-width:1.5;"/>
     </g>
    </g>
   </g>
   <g id="line2d_2">
    <path clip-path="url(#pe5b9023fb9)" d="M 26.852134 22.122748 
L 28.85107 25.341085 
L 30.850006 26.406639 
L 32.848942 29.413819 
L 34.847878 32.12271 
L 36.846814 38.387191 
L 38.84575 32.422822 
L 40.844686 26.377441 
L 42.843622 31.144984 
L 44.842558 30.072221 
L 46.841494 31.186515 
L 48.84043 35.409758 
L 50.839366 27.983322 
L 52.838302 26.959606 
L 54.837239 36.684444 
L 56.836175 29.965382 
L 58.835111 27.61517 
L 60.834047 31.267819 
L 62.832983 32.19566 
L 64.831919 36.488956 
L 66.830855 37.087825 
L 68.829791 31.699096 
L 70.828727 30.540616 
L 72.827663 38.812445 
L 74.826599 34.053077 
L 76.825535 33.317171 
L 78.824471 31.487552 
L 80.823407 31.232932 
L 82.822343 30.057453 
L 84.821279 34.48043 
L 86.820215 31.960489 
L 88.819151 31.279804 
L 90.818087 32.043092 
L 92.817023 31.957757 
L 94.815959 32.887359 
L 96.814895 33.815407 
L 98.813831 29.859212 
L 100.812767 30.724487 
L 102.811704 34.66869 
L 104.81064 31.721267 
L 106.809576 37.686203 
L 108.808512 35.603385 
L 110.807448 32.515637 
L 112.806384 30.814546 
L 114.80532 33.28298 
L 116.804256 36.558247 
L 118.803192 39.344633 
L 120.802128 32.57845 
L 122.801064 33.782739 
L 124.8 38.767807 
L 126.798936 35.634812 
L 128.797872 33.701755 
L 130.796808 36.405879 
L 132.795744 33.636313 
L 134.79468 36.217578 
L 136.793616 35.145443 
L 138.792552 34.495851 
L 140.791488 34.680175 
L 142.790424 32.12553 
L 144.78936 34.226659 
L 146.788296 32.200198 
L 148.787233 33.649143 
L 150.786169 32.505817 
L 152.785105 33.743275 
L 154.784041 32.74006 
L 156.782977 33.963425 
L 158.781913 35.790866 
L 160.780849 31.609778 
L 162.779785 31.947795 
L 164.778721 40.625252 
L 166.777657 36.909125 
L 168.776593 37.843131 
L 170.775529 41.7551 
L 172.774465 35.984153 
L 174.773401 36.40196 
L 176.772337 29.866556 
L 178.771273 39.449342 
L 180.770209 35.90846 
L 182.769145 40.092299 
L 184.768081 39.631861 
L 186.767017 32.458715 
L 188.765953 31.860184 
L 190.764889 37.624228 
L 192.763825 33.531238 
L 194.762761 40.67777 
L 196.761698 37.444779 
L 198.760634 39.236839 
L 200.75957 40.642355 
L 202.758506 34.664513 
L 204.757442 35.063939 
L 206.756378 26.970894 
L 208.755314 34.683031 
L 210.75425 32.387491 
L 212.753186 30.208198 
L 214.752122 39.464713 
L 216.751058 32.58469 
L 218.749994 34.936824 
L 220.74893 28.0748 
L 222.747866 45.580344 
" style="fill:none;stroke:#1a1a1a;stroke-linecap:round;stroke-width:4;"/>
   </g>
   <g id="patch_3">
    <path d="M 13.2 67.56 
L 13.2 13.2 
" style="fill:none;stroke:#262626;stroke-linecap:square;stroke-linejoin:miter;stroke-width:1.875;"/>
   </g>
   <g id="patch_4">
    <path d="M 13.2 67.56 
L 236.4 67.56 
" style="fill:none;stroke:#262626;stroke-linecap:square;stroke-linejoin:miter;stroke-width:1.875;"/>
   </g>
  </g>
 </g>
 <defs>
  <clipPath id="pe5b9023fb9">
   <rect height="54.36" width="223.2" x="13.2" y="13.2"/>
  </clipPath>
 </defs>
</svg>
