<?xml version="1.0" encoding="utf-8" standalone="no"?>
<!DOCTYPE svg PUBLIC "-//W3C//DTD SVG 1.1//EN"
  "http://www.w3.org/Graphics/SVG/1.1/DTD/svg11.dtd">
<!-- Created with matplotlib (https://matplotlib.org/) -->
<svg height="80.76pt" version="1.1" viewBox="0 0 249.6 80.76" width="249.6pt" xmlns="http://www.w3.org/2000/svg" xmlns:xlink="http://www.w3.org/1999/xlink">
 <defs>
  <style type="text/css">
*{stroke-linecap:butt;stroke-linejoin:round;}
  </style>
 </defs>
 <g id="figure_1">
  <g id="patch_1">
   <path d="M 0 80.76 
L 249.6 80.76 
L 249.6 0 
L 0 0 
z
" style="fill:none;"/>
  </g>
  <g id="axes_1">
   <g id="patch_2">
    <path d="M 13.2 67.56 
L 236.4 67.56 
L 236.4 13.2 
L 13.2 13.2 
z
" style="fill:none;"/>
   </g>
   <g id="matplotlib.axis_1"/>
   <g id="matplotlib.axis_2">
    <g id="ytick_1">
     <g id="line2d_1">
      <path clip-path="url(#p9d8a51324d)" d="M 13.2 14.265882 
L 236.4 14.265882 
" style="fill:none;stroke:#cccccc;stroke-linecap:round;stroke-width:1.5;"/>
     </g>
    </g>
   </g>
   <g id="line2d_2">
    <path clip-path="url(#p9d8a51324d)" d="M 27.212937 65.720396 
L 29.20451 63.677732 
L 31.196082 64.046002 
L 33.187655 62.148615 
L 35.179228 62.993101 
L 37.1708 62.423237 
L 39.162373 63.956402 
L 41.153946 63.675801 
L 43.145519 63.193045 
L 45.137091 64.87471 
L 47.128664 63.735277 
L 49.120237 61.414631 
L 51.111809 63.933697 
L 53.103382 63.975539 
L 55.094955 63.194607 
L 57.086528 60.029639 
L 59.0781 60.890677 
L 61.069673 62.057277 
L 63.061246 62.988626 
L 65.052818 61.709547 
L 67.044391 62.551985 
L 69.035964 62.233609 
L 71.027537 58.980989 
L 73.019109 63.17848 
L 75.010682 60.795904 
L 77.002255 59.46457 
L 78.993827 61.74962 
L 80.9854 59.832208 
L 82.976973 60.515911 
L 84.968546 58.358948 
L 86.960118 59.254857 
L 88.951691 60.067546 
L 90.943264 59.595108 
L 92.934837 59.975954 
L 94.926409 58.456413 
L 96.917982 58.943775 
L 98.909555 58.567718 
L 100.901127 57.442829 
L 102.8927 56.802006 
L 104.884273 57.272591 
L 106.875846 54.296015 
L 108.867418 57.209917 
L 110.858991 56.046487 
L 112.850564 56.142065 
L 114.842136 58.069612 
L 116.833709 53.776365 
L 118.825282 53.289702 
L 120.816855 53.009498 
L 122.808427 54.307666 
L 124.8 52.972763 
L 126.791573 52.245476 
L 128.783145 52.446718 
L 130.774718 51.68853 
L 132.766291 51.023743 
L 134.757864 50.85277 
L 136.749436 47.304043 
L 138.741009 47.623814 
L 140.732582 48.184119 
L 142.724154 46.26606 
L 144.715727 46.759188 
L 146.7073 45.036259 
L 148.698873 45.694918 
L 150.690445 44.125509 
L 152.682018 43.454718 
L 154.673591 41.802278 
L 156.665163 41.104535 
L 158.656736 40.466737 
L 160.648309 40.550401 
L 162.639882 38.997243 
L 164.631454 37.411196 
L 166.623027 37.390706 
L 168.6146 37.741259 
L 170.606173 34.685335 
L 172.597745 33.724507 
L 174.589318 34.658886 
L 176.580891 33.000802 
L 178.572463 31.917618 
L 180.564036 30.547536 
L 182.555609 31.285252 
L 184.547182 29.973605 
L 186.538754 29.41237 
L 188.530327 28.27686 
L 190.5219 26.596791 
L 192.513472 27.638743 
L 194.505045 25.981878 
L 196.496618 25.165103 
L 198.488191 24.46266 
L 200.479763 24.64214 
L 202.471336 23.051139 
L 204.462909 23.070183 
L 206.454481 23.609868 
L 208.446054 21.936164 
L 210.437627 21.281814 
L 212.4292 21.385529 
L 214.420772 19.961885 
L 216.412345 19.806763 
L 218.403918 19.553123 
L 220.39549 17.81379 
L 222.387063 18.688359 
" style="fill:none;stroke:#1a1a1a;stroke-linecap:round;stroke-width:4;"/>
   </g>
   <g id="patch_3">
    <path d="M 13.2 67.56 
L 13.2 13.2 
" style="fill:none;stroke:#262626;stroke-linecap:square;stroke-linejoin:miter;stroke-width:1.875;"/>
   </g>
   <g id="patch_4">
    <path d="M 13.2 67.56 
L 236.4 67.56 
" style="fill:none;stroke:#262626;stroke-linecap:square;stroke-linejoin:miter;stroke-width:1.875;"/>
   </g>
  </g>
 </g>
 <defs>
  <clipPath id="p9d8a51324d">
   <rect height="54.36" width="223.2" x="13.2" y="13.2"/>
  </clipPath>
 </defs>
</svg>
