<?xml version="1.0" encoding="utf-8" standalone="no"?>
<!DOCTYPE svg PUBLIC "-//W3C//DTD SVG 1.1//EN"
  "http://www.w3.org/Graphics/SVG/1.1/DTD/svg11.dtd">
<!-- Created with matplotlib (https://matplotlib.org/) -->
<svg height="80.76pt" version="1.1" viewBox="0 0 249.6 80.76" width="249.6pt" xmlns="http://www.w3.org/2000/svg" xmlns:xlink="http://www.w3.org/1999/xlink">
 <defs>
  <style type="text/css">
*{stroke-linecap:butt;stroke-linejoin:round;}
  </style>
 </defs>
 <g id="figure_1">
  <g id="patch_1">
   <path d="M 0 80.76 
L 249.6 80.76 
L 249.6 0 
L 0 0 
z
" style="fill:none;"/>
  </g>
  <g id="axes_1">
   <g id="patch_2">
    <path d="M 13.2 67.56 
L 236.4 67.56 
L 236.4 13.2 
L 13.2 13.2 
z
" style="fill:none;"/>
   </g>
   <g id="matplotlib.axis_1"/>
   <g id="matplotlib.axis_2">
    <g id="ytick_1">
     <g id="line2d_1">
      <path clip-path="url(#p9205f2773b)" d="M 13.2 14.265882 
L 236.4 14.265882 
" style="fill:none;stroke:#cccccc;stroke-linecap:round;stroke-width:1.5;"/>
     </g>
    </g>
   </g>
   <g id="line2d_2">
    <path clip-path="url(#p9205f2773b)" d="M 27.554184 61.964589 
L 29.538792 62.555584 
L 31.523401 64.307609 
L 33.508009 61.024814 
L 35.492618 63.114435 
L 37.477226 64.779577 
L 39.461835 61.353482 
L 41.446443 57.097303 
L 43.431052 63.474735 
L 45.41566 62.09916 
L 47.400269 59.4538 
L 49.384877 63.398381 
L 51.369486 61.073511 
L 53.354094 63.190717 
L 55.338703 59.484386 
L 57.323311 62.217284 
L 59.30792 61.628301 
L 61.292528 56.024306 
L 63.277137 60.692051 
L 65.261745 59.964802 
L 67.246354 60.729499 
L 69.230962 63.676501 
L 71.215571 61.225736 
L 73.200179 60.730392 
L 75.184788 61.371916 
L 77.169396 58.092477 
L 79.154005 57.533091 
L 81.138613 57.264231 
L 83.123222 58.89413 
L 85.10783 59.10046 
L 87.092439 57.383408 
L 89.077047 59.040284 
L 91.061656 55.797045 
L 93.046264 57.774869 
L 95.030873 61.608269 
L 97.015481 60.74942 
L 99.00009 62.149023 
L 100.984698 61.151136 
L 102.969307 61.141451 
L 104.953915 62.586294 
L 106.938524 60.716172 
L 108.923132 60.816475 
L 110.907741 62.071463 
L 112.892349 59.702911 
L 114.876958 62.434769 
L 116.861566 60.551309 
L 118.846175 61.425664 
L 120.830783 61.982922 
L 122.815392 60.947424 
L 124.8 61.476846 
L 126.784608 60.478003 
L 128.769217 61.504549 
L 130.753825 60.793249 
L 132.738434 61.311655 
L 134.723042 61.528721 
L 136.707651 60.375815 
L 138.692259 59.853153 
L 140.676868 58.965646 
L 142.661476 59.643962 
L 144.646085 58.395197 
L 146.630693 60.673259 
L 148.615302 60.209811 
L 150.59991 60.235429 
L 152.584519 59.783545 
L 154.569127 59.910567 
L 156.553736 59.784426 
L 158.538344 58.89505 
L 160.522953 57.344093 
L 162.507561 56.906098 
L 164.49217 55.923148 
L 166.476778 55.065413 
L 168.461387 53.091771 
L 170.445995 53.233509 
L 172.430604 51.466061 
L 174.415212 50.21089 
L 176.399821 49.563408 
L 178.384429 47.154494 
L 180.369038 45.171561 
L 182.353646 43.620546 
L 184.338255 42.449369 
L 186.322863 40.476441 
L 188.307472 38.746815 
L 190.29208 35.474037 
L 192.276689 33.290634 
L 194.261297 33.961177 
L 196.245906 32.345912 
L 198.230514 29.592611 
L 200.215123 28.571284 
L 202.199731 26.3757 
L 204.18434 25.212666 
L 206.168948 23.63513 
L 208.153557 22.104602 
L 210.138165 20.943661 
L 212.122774 20.575978 
L 214.107382 19.791025 
L 216.091991 18.970819 
L 218.076599 18.275467 
L 220.061208 17.95616 
L 222.045816 17.130684 
" style="fill:none;stroke:#1a1a1a;stroke-linecap:round;stroke-width:4;"/>
   </g>
   <g id="patch_3">
    <path d="M 13.2 67.56 
L 13.2 13.2 
" style="fill:none;stroke:#262626;stroke-linecap:square;stroke-linejoin:miter;stroke-width:1.875;"/>
   </g>
   <g id="patch_4">
    <path d="M 13.2 67.56 
L 236.4 67.56 
" style="fill:none;stroke:#262626;stroke-linecap:square;stroke-linejoin:miter;stroke-width:1.875;"/>
   </g>
  </g>
 </g>
 <defs>
  <clipPath id="p9205f2773b">
   <rect height="54.36" width="223.2" x="13.2" y="13.2"/>
  </clipPath>
 </defs>
</svg>
