<?xml version="1.0" encoding="utf-8" standalone="no"?>
<!DOCTYPE svg PUBLIC "-//W3C//DTD SVG 1.1//EN"
  "http://www.w3.org/Graphics/SVG/1.1/DTD/svg11.dtd">
<!-- Created with matplotlib (https://matplotlib.org/) -->
<svg height="243.84pt" version="1.1" viewBox="0 0 249.6 243.84" width="249.6pt" xmlns="http://www.w3.org/2000/svg" xmlns:xlink="http://www.w3.org/1999/xlink">
 <defs>
  <style type="text/css">
*{stroke-linecap:butt;stroke-linejoin:round;}
  </style>
 </defs>
 <g id="figure_1">
  <g id="patch_1">
   <path d="M 0 243.84 
L 249.6 243.84 
L 249.6 0 
L 0 0 
z
" style="fill:none;"/>
  </g>
  <g id="axes_1">
   <g id="patch_2">
    <path d="M 13.2 230.64 
L 236.4 230.64 
L 236.4 13.2 
L 13.2 13.2 
z
" style="fill:none;"/>
   </g>
   <g id="matplotlib.axis_1"/>
   <g id="matplotlib.axis_2"/>
   <g id="PolyCollection_1">
    <defs>
     <path d="M 23.345455 -13.321615 
L 23.345455 -13.2 
L 25.056378 -13.2 
L 26.767301 -13.2 
L 28.478224 -13.2 
L 30.189148 -13.2 
L 31.900071 -13.2 
L 33.610994 -13.2 
L 35.321918 -13.2 
L 37.032841 -13.2 
L 38.743764 -13.2 
L 40.454688 -13.2 
L 42.165611 -13.2 
L 43.876534 -13.2 
L 45.587457 -13.2 
L 47.298381 -13.2 
L 49.009304 -13.2 
L 50.720227 -13.2 
L 52.431151 -13.2 
L 54.142074 -13.2 
L 55.852997 -13.2 
L 57.56392 -13.2 
L 59.274844 -13.2 
L 60.985767 -13.2 
L 62.69669 -13.2 
L 64.407614 -13.2 
L 66.118537 -13.2 
L 67.82946 -13.2 
L 69.540384 -13.2 
L 71.251307 -13.2 
L 72.96223 -13.2 
L 74.673153 -13.2 
L 76.384077 -13.2 
L 78.095 -13.2 
L 79.805923 -13.2 
L 81.516847 -13.2 
L 83.22777 -13.2 
L 84.938693 -13.2 
L 86.649617 -13.2 
L 88.36054 -13.2 
L 90.071463 -13.2 
L 91.782386 -13.2 
L 93.49331 -13.2 
L 95.204233 -13.2 
L 96.915156 -13.2 
L 98.62608 -13.2 
L 100.337003 -13.2 
L 102.047926 -13.2 
L 103.758849 -13.2 
L 105.469773 -13.2 
L 107.180696 -13.2 
L 108.891619 -13.2 
L 110.602543 -13.2 
L 112.313466 -13.2 
L 114.024389 -13.2 
L 115.735313 -13.2 
L 117.446236 -13.2 
L 119.157159 -13.2 
L 120.868082 -13.2 
L 122.579006 -13.2 
L 124.289929 -13.2 
L 126.000852 -13.2 
L 127.711776 -13.2 
L 129.422699 -13.2 
L 131.133622 -13.2 
L 132.844546 -13.2 
L 134.555469 -13.2 
L 136.266392 -13.2 
L 137.977315 -13.2 
L 139.688239 -13.2 
L 141.399162 -13.2 
L 143.110085 -13.2 
L 144.821009 -13.2 
L 146.531932 -13.2 
L 148.242855 -13.2 
L 149.953779 -13.2 
L 151.664702 -13.2 
L 153.375625 -13.2 
L 155.086548 -13.2 
L 156.797472 -13.2 
L 158.508395 -13.2 
L 160.219318 -13.2 
L 161.930242 -13.2 
L 163.641165 -13.2 
L 165.352088 -13.2 
L 167.063011 -13.2 
L 168.773935 -13.2 
L 170.484858 -13.2 
L 172.195781 -13.2 
L 173.906705 -13.2 
L 175.617628 -13.2 
L 177.328551 -13.2 
L 179.039475 -13.2 
L 180.750398 -13.2 
L 182.461321 -13.2 
L 184.172244 -13.2 
L 185.883168 -13.2 
L 187.594091 -13.2 
L 189.305014 -13.2 
L 191.015938 -13.2 
L 192.726861 -13.2 
L 192.726861 -13.426298 
L 192.726861 -13.426298 
L 191.015938 -13.573151 
L 189.305014 -13.800166 
L 187.594091 -14.141661 
L 185.883168 -14.641505 
L 184.172244 -15.353328 
L 182.461321 -16.339528 
L 180.750398 -17.668715 
L 179.039475 -19.4114 
L 177.328551 -21.634014 
L 175.617628 -24.391711 
L 173.906705 -27.720852 
L 172.195781 -31.632378 
L 170.484858 -36.107459 
L 168.773935 -41.096722 
L 167.063011 -46.523893 
L 165.352088 -52.293997 
L 163.641165 -58.305357 
L 161.930242 -64.463731 
L 160.219318 -70.69631 
L 158.508395 -76.963058 
L 156.797472 -83.263152 
L 155.086548 -89.635101 
L 153.375625 -96.150206 
L 151.664702 -102.900258 
L 149.953779 -109.98136 
L 148.242855 -117.476402 
L 146.531932 -125.438758 
L 144.821009 -133.879398 
L 143.110085 -142.758838 
L 141.399162 -151.984472 
L 139.688239 -161.41307 
L 137.977315 -170.857692 
L 136.266392 -180.098068 
L 134.555469 -188.893493 
L 132.844546 -196.997408 
L 131.133622 -204.172854 
L 129.422699 -210.207888 
L 127.711776 -214.929755 
L 126.000852 -218.21635 
L 124.289929 -220.003359 
L 122.579006 -220.285714 
L 120.868082 -219.112648 
L 119.157159 -216.576702 
L 117.446236 -212.798248 
L 115.735313 -207.908116 
L 114.024389 -202.031565 
L 112.313466 -195.276674 
L 110.602543 -187.729455 
L 108.891619 -179.456563 
L 107.180696 -170.514853 
L 105.469773 -160.965529 
L 103.758849 -150.889581 
L 102.047926 -140.400885 
L 100.337003 -129.653787 
L 98.62608 -118.843032 
L 96.915156 -108.195382 
L 95.204233 -97.953863 
L 93.49331 -88.356931 
L 91.782386 -79.615811 
L 90.071463 -71.893624 
L 88.36054 -65.289615 
L 86.649617 -59.830986 
L 84.938693 -55.473551 
L 83.22777 -52.110962 
L 81.516847 -49.590901 
L 79.805923 -47.735491 
L 78.095 -46.362633 
L 76.384077 -45.304957 
L 74.673153 -44.423727 
L 72.96223 -43.616081 
L 71.251307 -42.815359 
L 69.540384 -41.985555 
L 67.82946 -41.11194 
L 66.118537 -40.190435 
L 64.407614 -39.218239 
L 62.69669 -38.187625 
L 60.985767 -37.083848 
L 59.274844 -35.887066 
L 57.56392 -34.577171 
L 55.852997 -33.13992 
L 54.142074 -31.57253 
L 52.431151 -29.887288 
L 50.720227 -28.112274 
L 49.009304 -26.289099 
L 47.298381 -24.468223 
L 45.587457 -22.70291 
L 43.876534 -21.043023 
L 42.165611 -19.529779 
L 40.454688 -18.192216 
L 38.743764 -17.045707 
L 37.032841 -16.092416 
L 35.321918 -15.323278 
L 33.610994 -14.720906 
L 31.900071 -14.262815 
L 30.189148 -13.924436 
L 28.478224 -13.681581 
L 26.767301 -13.512189 
L 25.056378 -13.397334 
L 23.345455 -13.321615 
z
" id="m23bbd238d1" style="stroke:#ffffff;stroke-opacity:0.25;stroke-width:1.5;"/>
    </defs>
    <g clip-path="url(#pdbdcaa1da2)">
     <use style="fill:#0173b2;fill-opacity:0.25;stroke:#ffffff;stroke-opacity:0.25;stroke-width:1.5;" x="0" xlink:href="#m23bbd238d1" y="243.84"/>
    </g>
   </g>
   <g id="PolyCollection_2">
    <defs>
     <path d="M 53.062695 -13.450833 
L 53.062695 -13.2 
L 54.812108 -13.2 
L 56.56152 -13.2 
L 58.310933 -13.2 
L 60.060346 -13.2 
L 61.809758 -13.2 
L 63.559171 -13.2 
L 65.308584 -13.2 
L 67.057996 -13.2 
L 68.807409 -13.2 
L 70.556821 -13.2 
L 72.306234 -13.2 
L 74.055647 -13.2 
L 75.805059 -13.2 
L 77.554472 -13.2 
L 79.303885 -13.2 
L 81.053297 -13.2 
L 82.80271 -13.2 
L 84.552122 -13.2 
L 86.301535 -13.2 
L 88.050948 -13.2 
L 89.80036 -13.2 
L 91.549773 -13.2 
L 93.299186 -13.2 
L 95.048598 -13.2 
L 96.798011 -13.2 
L 98.547424 -13.2 
L 100.296836 -13.2 
L 102.046249 -13.2 
L 103.795661 -13.2 
L 105.545074 -13.2 
L 107.294487 -13.2 
L 109.043899 -13.2 
L 110.793312 -13.2 
L 112.542725 -13.2 
L 114.292137 -13.2 
L 116.04155 -13.2 
L 117.790962 -13.2 
L 119.540375 -13.2 
L 121.289788 -13.2 
L 123.0392 -13.2 
L 124.788613 -13.2 
L 126.538026 -13.2 
L 128.287438 -13.2 
L 130.036851 -13.2 
L 131.786263 -13.2 
L 133.535676 -13.2 
L 135.285089 -13.2 
L 137.034501 -13.2 
L 138.783914 -13.2 
L 140.533327 -13.2 
L 142.282739 -13.2 
L 144.032152 -13.2 
L 145.781565 -13.2 
L 147.530977 -13.2 
L 149.28039 -13.2 
L 151.029802 -13.2 
L 152.779215 -13.2 
L 154.528628 -13.2 
L 156.27804 -13.2 
L 158.027453 -13.2 
L 159.776866 -13.2 
L 161.526278 -13.2 
L 163.275691 -13.2 
L 165.025103 -13.2 
L 166.774516 -13.2 
L 168.523929 -13.2 
L 170.273341 -13.2 
L 172.022754 -13.2 
L 173.772167 -13.2 
L 175.521579 -13.2 
L 177.270992 -13.2 
L 179.020404 -13.2 
L 180.769817 -13.2 
L 182.51923 -13.2 
L 184.268642 -13.2 
L 186.018055 -13.2 
L 187.767468 -13.2 
L 189.51688 -13.2 
L 191.266293 -13.2 
L 193.015705 -13.2 
L 194.765118 -13.2 
L 196.514531 -13.2 
L 198.263943 -13.2 
L 200.013356 -13.2 
L 201.762769 -13.2 
L 203.512181 -13.2 
L 205.261594 -13.2 
L 207.011007 -13.2 
L 208.760419 -13.2 
L 210.509832 -13.2 
L 212.259244 -13.2 
L 214.008657 -13.2 
L 215.75807 -13.2 
L 217.507482 -13.2 
L 219.256895 -13.2 
L 221.006308 -13.2 
L 222.75572 -13.2 
L 224.505133 -13.2 
L 226.254545 -13.2 
L 226.254545 -13.302179 
L 226.254545 -13.302179 
L 224.505133 -13.368306 
L 222.75572 -13.469062 
L 221.006308 -13.617468 
L 219.256895 -13.828653 
L 217.507482 -14.118797 
L 215.75807 -14.50332 
L 214.008657 -14.994367 
L 212.259244 -15.597775 
L 210.509832 -16.309975 
L 208.760419 -17.115438 
L 207.011007 -17.985391 
L 205.261594 -18.878481 
L 203.512181 -19.743804 
L 201.762769 -20.526331 
L 200.013356 -21.174232 
L 198.263943 -21.647158 
L 196.514531 -21.924181 
L 194.765118 -22.010035 
L 193.015705 -21.938515 
L 191.266293 -21.772345 
L 189.51688 -21.599448 
L 187.767468 -21.526131 
L 186.018055 -21.668227 
L 184.268642 -22.141496 
L 182.51923 -23.052631 
L 180.769817 -24.492075 
L 179.020404 -26.529496 
L 177.270992 -29.212294 
L 175.521579 -32.566991 
L 173.772167 -36.602779 
L 172.022754 -41.316087 
L 170.273341 -46.69473 
L 168.523929 -52.720334 
L 166.774516 -59.368152 
L 165.025103 -66.604222 
L 163.275691 -74.380732 
L 161.526278 -82.631293 
L 159.776866 -91.268169 
L 158.027453 -100.183255 
L 156.27804 -109.253633 
L 154.528628 -118.3512 
L 152.779215 -127.354467 
L 151.029802 -136.159753 
L 149.28039 -144.688899 
L 147.530977 -152.89146 
L 145.781565 -160.740849 
L 144.032152 -168.225602 
L 142.282739 -175.338214 
L 140.533327 -182.064504 
L 138.783914 -188.375877 
L 137.034501 -194.225625 
L 135.285089 -199.548868 
L 133.535676 -204.264577 
L 131.786263 -208.277873 
L 130.036851 -211.481409 
L 128.287438 -213.755955 
L 126.538026 -214.97169 
L 124.788613 -214.992453 
L 123.0392 -213.684982 
L 121.289788 -210.933864 
L 119.540375 -206.660978 
L 117.790962 -200.846278 
L 116.04155 -193.545574 
L 114.292137 -184.900946 
L 112.542725 -175.140593 
L 110.793312 -164.567008 
L 109.043899 -153.534639 
L 107.294487 -142.420121 
L 105.545074 -131.589305 
L 103.795661 -121.365471 
L 102.046249 -112.00255 
L 100.296836 -103.666147 
L 98.547424 -96.423983 
L 96.798011 -90.246336 
L 95.048598 -85.016138 
L 93.299186 -80.547579 
L 91.549773 -76.611313 
L 89.80036 -72.963563 
L 88.050948 -69.375835 
L 86.301535 -65.66156 
L 84.552122 -61.696185 
L 82.80271 -57.428022 
L 81.053297 -52.878528 
L 79.303885 -48.132445 
L 77.554472 -43.319885 
L 75.805059 -38.593811 
L 74.055647 -34.10686 
L 72.306234 -29.991268 
L 70.556821 -26.344636 
L 68.807409 -23.222857 
L 67.057996 -20.640053 
L 65.308584 -18.574152 
L 63.559171 -16.976041 
L 61.809758 -15.780045 
L 60.060346 -14.913861 
L 58.310933 -14.306607 
L 56.56152 -13.894396 
L 54.812108 -13.623404 
L 53.062695 -13.450833 
z
" id="m0a575cb77d" style="stroke:#ffffff;stroke-opacity:0.25;stroke-width:1.5;"/>
    </defs>
    <g clip-path="url(#pdbdcaa1da2)">
     <use style="fill:#de8f05;fill-opacity:0.25;stroke:#ffffff;stroke-opacity:0.25;stroke-width:1.5;" x="0" xlink:href="#m0a575cb77d" y="243.84"/>
    </g>
   </g>
   <g id="line2d_1">
    <path clip-path="url(#pdbdcaa1da2)" d="M 23.345455 230.518385 
L 25.056378 230.442666 
L 26.767301 230.327811 
L 28.478224 230.158419 
L 30.189148 229.915564 
L 31.900071 229.577185 
L 33.610994 229.119094 
L 35.321918 228.516722 
L 37.032841 227.747584 
L 38.743764 226.794293 
L 40.454688 225.647784 
L 42.165611 224.310221 
L 43.876534 222.796977 
L 45.587457 221.13709 
L 47.298381 219.371777 
L 49.009304 217.550901 
L 50.720227 215.727726 
L 52.431151 213.952712 
L 54.142074 212.26747 
L 55.852997 210.70008 
L 57.56392 209.262829 
L 59.274844 207.952934 
L 60.985767 206.756152 
L 62.69669 205.652375 
L 64.407614 204.621761 
L 66.118537 203.649565 
L 67.82946 202.72806 
L 69.540384 201.854445 
L 71.251307 201.024641 
L 72.96223 200.223919 
L 74.673153 199.416273 
L 76.384077 198.535043 
L 78.095 197.477367 
L 79.805923 196.104509 
L 81.516847 194.249099 
L 83.22777 191.729038 
L 84.938693 188.366449 
L 86.649617 184.009014 
L 88.36054 178.550385 
L 90.071463 171.946376 
L 91.782386 164.224189 
L 93.49331 155.483069 
L 95.204233 145.886137 
L 96.915156 135.644618 
L 98.62608 124.996968 
L 100.337003 114.186213 
L 102.047926 103.439115 
L 103.758849 92.950419 
L 105.469773 82.874471 
L 107.180696 73.325147 
L 108.891619 64.383437 
L 110.602543 56.110545 
L 112.313466 48.563326 
L 114.024389 41.808435 
L 115.735313 35.931884 
L 117.446236 31.041752 
L 119.157159 27.263298 
L 120.868082 24.727352 
L 122.579006 23.554286 
L 124.289929 23.836641 
L 126.000852 25.62365 
L 127.711776 28.910245 
L 129.422699 33.632112 
L 131.133622 39.667146 
L 132.844546 46.842592 
L 134.555469 54.946507 
L 136.266392 63.741932 
L 137.977315 72.982308 
L 139.688239 82.42693 
L 141.399162 91.855528 
L 143.110085 101.081162 
L 144.821009 109.960602 
L 146.531932 118.401242 
L 148.242855 126.363598 
L 149.953779 133.85864 
L 151.664702 140.939742 
L 153.375625 147.689794 
L 155.086548 154.204899 
L 156.797472 160.576848 
L 158.508395 166.876942 
L 160.219318 173.14369 
L 161.930242 179.376269 
L 163.641165 185.534643 
L 165.352088 191.546003 
L 167.063011 197.316107 
L 168.773935 202.743278 
L 170.484858 207.732541 
L 172.195781 212.207622 
L 173.906705 216.119148 
L 175.617628 219.448289 
L 177.328551 222.205986 
L 179.039475 224.4286 
L 180.750398 226.171285 
L 182.461321 227.500472 
L 184.172244 228.486672 
L 185.883168 229.198495 
L 187.594091 229.698339 
L 189.305014 230.039834 
L 191.015938 230.266849 
L 192.726861 230.413702 
" style="fill:none;stroke:#0173b2;stroke-linecap:round;stroke-width:4;"/>
   </g>
   <g id="line2d_2">
    <path clip-path="url(#pdbdcaa1da2)" d="M 53.062695 230.389167 
L 54.812108 230.216596 
L 56.56152 229.945604 
L 58.310933 229.533393 
L 60.060346 228.926139 
L 61.809758 228.059955 
L 63.559171 226.863959 
L 65.308584 225.265848 
L 67.057996 223.199947 
L 68.807409 220.617143 
L 70.556821 217.495364 
L 72.306234 213.848732 
L 74.055647 209.73314 
L 75.805059 205.246189 
L 77.554472 200.520115 
L 79.303885 195.707555 
L 81.053297 190.961472 
L 82.80271 186.411978 
L 84.552122 182.143815 
L 86.301535 178.17844 
L 88.050948 174.464165 
L 89.80036 170.876437 
L 91.549773 167.228687 
L 93.299186 163.292421 
L 95.048598 158.823862 
L 96.798011 153.593664 
L 98.547424 147.416017 
L 100.296836 140.173853 
L 102.046249 131.83745 
L 103.795661 122.474529 
L 105.545074 112.250695 
L 107.294487 101.419879 
L 109.043899 90.305361 
L 110.793312 79.272992 
L 112.542725 68.699407 
L 114.292137 58.939054 
L 116.04155 50.294426 
L 117.790962 42.993722 
L 119.540375 37.179022 
L 121.289788 32.906136 
L 123.0392 30.155018 
L 124.788613 28.847547 
L 126.538026 28.86831 
L 128.287438 30.084045 
L 130.036851 32.358591 
L 131.786263 35.562127 
L 133.535676 39.575423 
L 135.285089 44.291132 
L 137.034501 49.614375 
L 138.783914 55.464123 
L 140.533327 61.775496 
L 142.282739 68.501786 
L 144.032152 75.614398 
L 145.781565 83.099151 
L 147.530977 90.94854 
L 149.28039 99.151101 
L 151.029802 107.680247 
L 152.779215 116.485533 
L 154.528628 125.4888 
L 156.27804 134.586367 
L 158.027453 143.656745 
L 159.776866 152.571831 
L 161.526278 161.208707 
L 163.275691 169.459268 
L 165.025103 177.235778 
L 166.774516 184.471848 
L 168.523929 191.119666 
L 170.273341 197.14527 
L 172.022754 202.523913 
L 173.772167 207.237221 
L 175.521579 211.273009 
L 177.270992 214.627706 
L 179.020404 217.310504 
L 180.769817 219.347925 
L 182.51923 220.787369 
L 184.268642 221.698504 
L 186.018055 222.171773 
L 187.767468 222.313869 
L 189.51688 222.240552 
L 191.266293 222.067655 
L 193.015705 221.901485 
L 194.765118 221.829965 
L 196.514531 221.915819 
L 198.263943 222.192842 
L 200.013356 222.665768 
L 201.762769 223.313669 
L 203.512181 224.096196 
L 205.261594 224.961519 
L 207.011007 225.854609 
L 208.760419 226.724562 
L 210.509832 227.530025 
L 212.259244 228.242225 
L 214.008657 228.845633 
L 215.75807 229.33668 
L 217.507482 229.721203 
L 219.256895 230.011347 
L 221.006308 230.222532 
L 222.75572 230.370938 
L 224.505133 230.471694 
L 226.254545 230.537821 
" style="fill:none;stroke:#de8f05;stroke-linecap:round;stroke-width:4;"/>
   </g>
   <g id="patch_3">
    <path d="M 13.2 230.64 
L 13.2 13.2 
" style="fill:none;stroke:#262626;stroke-linecap:square;stroke-linejoin:miter;stroke-width:1.875;"/>
   </g>
   <g id="patch_4">
    <path d="M 13.2 230.64 
L 236.4 230.64 
" style="fill:none;stroke:#262626;stroke-linecap:square;stroke-linejoin:miter;stroke-width:1.875;"/>
   </g>
  </g>
 </g>
 <defs>
  <clipPath id="pdbdcaa1da2">
   <rect height="217.44" width="223.2" x="13.2" y="13.2"/>
  </clipPath>
 </defs>
</svg>
