<?xml version="1.0" encoding="utf-8" standalone="no"?>
<!DOCTYPE svg PUBLIC "-//W3C//DTD SVG 1.1//EN"
  "http://www.w3.org/Graphics/SVG/1.1/DTD/svg11.dtd">
<!-- Created with matplotlib (http://matplotlib.org/) -->
<svg height="243pt" version="1.1" viewBox="0 0 249 243" width="249pt" xmlns="http://www.w3.org/2000/svg" xmlns:xlink="http://www.w3.org/1999/xlink">
 <defs>
  <style type="text/css">
*{stroke-linecap:butt;stroke-linejoin:round;}
  </style>
 </defs>
 <g id="figure_1">
  <g id="patch_1">
   <path d="M 0 243.84 
L 249.6 243.84 
L 249.6 0 
L 0 0 
z
" style="fill:none;"/>
  </g>
  <g id="axes_1">
   <g id="patch_2">
    <path d="M 13.2 230.64 
L 236.4 230.64 
L 236.4 13.2 
L 13.2 13.2 
z
" style="fill:none;"/>
   </g>
   <g id="matplotlib.axis_1"/>
   <g id="matplotlib.axis_2"/>
   <g id="PolyCollection_1">
    <defs>
     <path d="M 119.236082 -13.278994 
L 119.236082 -13.2 
L 120.198792 -13.2 
L 121.161501 -13.2 
L 122.124211 -13.2 
L 123.08692 -13.2 
L 124.04963 -13.2 
L 125.01234 -13.2 
L 125.975049 -13.2 
L 126.937759 -13.2 
L 127.900468 -13.2 
L 128.863178 -13.2 
L 129.825887 -13.2 
L 130.788597 -13.2 
L 131.751306 -13.2 
L 132.714016 -13.2 
L 133.676726 -13.2 
L 134.639435 -13.2 
L 135.602145 -13.2 
L 136.564854 -13.2 
L 137.527564 -13.2 
L 138.490273 -13.2 
L 139.452983 -13.2 
L 140.415692 -13.2 
L 141.378402 -13.2 
L 142.341112 -13.2 
L 143.303821 -13.2 
L 144.266531 -13.2 
L 145.22924 -13.2 
L 146.19195 -13.2 
L 147.154659 -13.2 
L 148.117369 -13.2 
L 149.080079 -13.2 
L 150.042788 -13.2 
L 151.005498 -13.2 
L 151.968207 -13.2 
L 152.930917 -13.2 
L 153.893626 -13.2 
L 154.856336 -13.2 
L 155.819045 -13.2 
L 156.781755 -13.2 
L 157.744465 -13.2 
L 158.707174 -13.2 
L 159.669884 -13.2 
L 160.632593 -13.2 
L 161.595303 -13.2 
L 162.558012 -13.2 
L 163.520722 -13.2 
L 164.483432 -13.2 
L 165.446141 -13.2 
L 166.408851 -13.2 
L 167.37156 -13.2 
L 168.33427 -13.2 
L 169.296979 -13.2 
L 170.259689 -13.2 
L 171.222398 -13.2 
L 172.185108 -13.2 
L 173.147818 -13.2 
L 174.110527 -13.2 
L 175.073237 -13.2 
L 176.035946 -13.2 
L 176.998656 -13.2 
L 177.961365 -13.2 
L 178.924075 -13.2 
L 179.886784 -13.2 
L 180.849494 -13.2 
L 181.812204 -13.2 
L 182.774913 -13.2 
L 183.737623 -13.2 
L 184.700332 -13.2 
L 185.663042 -13.2 
L 186.625751 -13.2 
L 187.588461 -13.2 
L 188.551171 -13.2 
L 189.51388 -13.2 
L 190.47659 -13.2 
L 191.439299 -13.2 
L 192.402009 -13.2 
L 193.364718 -13.2 
L 194.327428 -13.2 
L 195.290137 -13.2 
L 196.252847 -13.2 
L 197.215557 -13.2 
L 198.178266 -13.2 
L 199.140976 -13.2 
L 200.103685 -13.2 
L 201.066395 -13.2 
L 202.029104 -13.2 
L 202.991814 -13.2 
L 203.954523 -13.2 
L 204.917233 -13.2 
L 205.879943 -13.2 
L 206.842652 -13.2 
L 207.805362 -13.2 
L 208.768071 -13.2 
L 209.730781 -13.2 
L 210.69349 -13.2 
L 211.6562 -13.2 
L 212.61891 -13.2 
L 213.581619 -13.2 
L 214.544329 -13.2 
L 214.544329 -13.534306 
L 214.544329 -13.534306 
L 213.581619 -13.784367 
L 212.61891 -14.19475 
L 211.6562 -14.849204 
L 210.69349 -15.863247 
L 209.730781 -17.389603 
L 208.768071 -19.621071 
L 207.805362 -22.788863 
L 206.842652 -27.154263 
L 205.879943 -32.991848 
L 204.917233 -40.563444 
L 203.954523 -50.083546 
L 202.991814 -61.679038 
L 202.029104 -75.348189 
L 201.066395 -90.925742 
L 200.103685 -108.061651 
L 199.140976 -126.22038 
L 198.178266 -144.705189 
L 197.215557 -162.70791 
L 196.252847 -179.379924 
L 195.290137 -193.915413 
L 194.327428 -205.634692 
L 193.364718 -214.054427 
L 192.402009 -218.933279 
L 191.439299 -220.285714 
L 190.47659 -218.362549 
L 189.51388 -213.602849 
L 188.551171 -206.566746 
L 187.588461 -197.861469 
L 186.625751 -188.072923 
L 185.663042 -177.712729 
L 184.700332 -167.186528 
L 183.737623 -156.784681 
L 182.774913 -146.692267 
L 181.812204 -137.012386 
L 180.849494 -127.79551 
L 179.886784 -119.067956 
L 178.924075 -110.854131 
L 177.961365 -103.189404 
L 176.998656 -96.122871 
L 176.035946 -89.711318 
L 175.073237 -84.007184 
L 174.110527 -79.044085 
L 173.147818 -74.823536 
L 172.185108 -71.30591 
L 171.222398 -68.407718 
L 170.259689 -66.005953 
L 169.296979 -63.948991 
L 168.33427 -62.072334 
L 167.37156 -60.216718 
L 166.408851 -58.245736 
L 165.446141 -56.060311 
L 164.483432 -53.60793 
L 163.520722 -50.885491 
L 162.558012 -47.935634 
L 161.595303 -44.837409 
L 160.632593 -41.692922 
L 159.669884 -38.612055 
L 158.707174 -35.697504 
L 157.744465 -33.03218 
L 156.781755 -30.670567 
L 155.819045 -28.634977 
L 154.856336 -26.916865 
L 153.893626 -25.482613 
L 152.930917 -24.282502 
L 151.968207 -23.261179 
L 151.005498 -22.367738 
L 150.042788 -21.563756 
L 149.080079 -20.828055 
L 148.117369 -20.157642 
L 147.154659 -19.564991 
L 146.19195 -19.072447 
L 145.22924 -18.704977 
L 144.266531 -18.482663 
L 143.303821 -18.414289 
L 142.341112 -18.493075 
L 141.378402 -18.695218 
L 140.415692 -18.981426 
L 139.452983 -19.301137 
L 138.490273 -19.598701 
L 137.527564 -19.820504 
L 136.564854 -19.921846 
L 135.602145 -19.872474 
L 134.639435 -19.659878 
L 133.676726 -19.289913 
L 132.714016 -18.78477 
L 131.751306 -18.178819 
L 130.788597 -17.513175 
L 129.825887 -16.829996 
L 128.863178 -16.16745 
L 127.900468 -15.556054 
L 126.937759 -15.016703 
L 125.975049 -14.560386 
L 125.01234 -14.189258 
L 124.04963 -13.898584 
L 123.08692 -13.679056 
L 122.124211 -13.519013 
L 121.161501 -13.406293 
L 120.198792 -13.329543 
L 119.236082 -13.278994 
z
" id="mc067326032" style="stroke:#ffffff;stroke-opacity:0.25;stroke-width:1.5;"/>
    </defs>
    <g clip-path="url(#p7ee8fcff76)">
     <use style="fill:#0173b2;fill-opacity:0.25;stroke:#ffffff;stroke-opacity:0.25;stroke-width:1.5;" x="0" xlink:href="#mc067326032" y="243.84"/>
    </g>
   </g>
   <g id="PolyCollection_2">
    <defs>
     <path d="M 23.345455 -13.237665 
L 23.345455 -13.2 
L 25.395041 -13.2 
L 27.444628 -13.2 
L 29.494215 -13.2 
L 31.543802 -13.2 
L 33.593388 -13.2 
L 35.642975 -13.2 
L 37.692562 -13.2 
L 39.742149 -13.2 
L 41.791736 -13.2 
L 43.841322 -13.2 
L 45.890909 -13.2 
L 47.940496 -13.2 
L 49.990083 -13.2 
L 52.039669 -13.2 
L 54.089256 -13.2 
L 56.138843 -13.2 
L 58.18843 -13.2 
L 60.238017 -13.2 
L 62.287603 -13.2 
L 64.33719 -13.2 
L 66.386777 -13.2 
L 68.436364 -13.2 
L 70.48595 -13.2 
L 72.535537 -13.2 
L 74.585124 -13.2 
L 76.634711 -13.2 
L 78.684298 -13.2 
L 80.733884 -13.2 
L 82.783471 -13.2 
L 84.833058 -13.2 
L 86.882645 -13.2 
L 88.932231 -13.2 
L 90.981818 -13.2 
L 93.031405 -13.2 
L 95.080992 -13.2 
L 97.130579 -13.2 
L 99.180165 -13.2 
L 101.229752 -13.2 
L 103.279339 -13.2 
L 105.328926 -13.2 
L 107.378512 -13.2 
L 109.428099 -13.2 
L 111.477686 -13.2 
L 113.527273 -13.2 
L 115.57686 -13.2 
L 117.626446 -13.2 
L 119.676033 -13.2 
L 121.72562 -13.2 
L 123.775207 -13.2 
L 125.824793 -13.2 
L 127.87438 -13.2 
L 129.923967 -13.2 
L 131.973554 -13.2 
L 134.02314 -13.2 
L 136.072727 -13.2 
L 138.122314 -13.2 
L 140.171901 -13.2 
L 142.221488 -13.2 
L 144.271074 -13.2 
L 146.320661 -13.2 
L 148.370248 -13.2 
L 150.419835 -13.2 
L 152.469421 -13.2 
L 154.519008 -13.2 
L 156.568595 -13.2 
L 158.618182 -13.2 
L 160.667769 -13.2 
L 162.717355 -13.2 
L 164.766942 -13.2 
L 166.816529 -13.2 
L 168.866116 -13.2 
L 170.915702 -13.2 
L 172.965289 -13.2 
L 175.014876 -13.2 
L 177.064463 -13.2 
L 179.11405 -13.2 
L 181.163636 -13.2 
L 183.213223 -13.2 
L 185.26281 -13.2 
L 187.312397 -13.2 
L 189.361983 -13.2 
L 191.41157 -13.2 
L 193.461157 -13.2 
L 195.510744 -13.2 
L 197.560331 -13.2 
L 199.609917 -13.2 
L 201.659504 -13.2 
L 203.709091 -13.2 
L 205.758678 -13.2 
L 207.808264 -13.2 
L 209.857851 -13.2 
L 211.907438 -13.2 
L 213.957025 -13.2 
L 216.006612 -13.2 
L 218.056198 -13.2 
L 220.105785 -13.2 
L 222.155372 -13.2 
L 224.204959 -13.2 
L 226.254545 -13.2 
L 226.254545 -13.305119 
L 226.254545 -13.305119 
L 224.204959 -13.382674 
L 222.155372 -13.509012 
L 220.105785 -13.708982 
L 218.056198 -14.016577 
L 216.006612 -14.476467 
L 213.957025 -15.144925 
L 211.907438 -16.089689 
L 209.857851 -17.388333 
L 207.808264 -19.124769 
L 205.758678 -21.383739 
L 203.709091 -24.243393 
L 201.659504 -27.766458 
L 199.609917 -31.990802 
L 197.560331 -36.920515 
L 195.510744 -42.518753 
L 193.461157 -48.703552 
L 191.41157 -55.347562 
L 189.361983 -62.282198 
L 187.312397 -69.306133 
L 185.26281 -76.197436 
L 183.213223 -82.72811 
L 181.163636 -88.67942 
L 179.11405 -93.856279 
L 177.064463 -98.099166 
L 175.014876 -101.292455 
L 172.965289 -103.368687 
L 170.915702 -104.308916 
L 168.866116 -104.139796 
L 166.816529 -102.928345 
L 164.766942 -100.77535 
L 162.717355 -97.808175 
L 160.667769 -94.173429 
L 158.618182 -90.029677 
L 156.568595 -85.540204 
L 154.519008 -80.865839 
L 152.469421 -76.157928 
L 150.419835 -71.551722 
L 148.370248 -67.160542 
L 146.320661 -63.071136 
L 144.271074 -59.340661 
L 142.221488 -55.995589 
L 140.171901 -53.032804 
L 138.122314 -50.422953 
L 136.072727 -48.115995 
L 134.02314 -46.048581 
L 131.973554 -44.152634 
L 129.923967 -42.364187 
L 127.87438 -40.631319 
L 125.824793 -38.920011 
L 123.775207 -37.216966 
L 121.72562 -35.528894 
L 119.676033 -33.878398 
L 117.626446 -32.297233 
L 115.57686 -30.818251 
L 113.527273 -29.467585 
L 111.477686 -28.25859 
L 109.428099 -27.188632 
L 107.378512 -26.239256 
L 105.328926 -25.379544 
L 103.279339 -24.571837 
L 101.229752 -23.778593 
L 99.180165 -22.968985 
L 97.130579 -22.124005 
L 95.080992 -21.239227 
L 93.031405 -20.324916 
L 90.981818 -19.403733 
L 88.932231 -18.506676 
L 86.882645 -17.668184 
L 84.833058 -16.921278 
L 82.783471 -16.293484 
L 80.733884 -15.803939 
L 78.684298 -15.4618 
L 76.634711 -15.265835 
L 74.585124 -15.204938 
L 72.535537 -15.25933 
L 70.48595 -15.402267 
L 68.436364 -15.602158 
L 66.386777 -15.825053 
L 64.33719 -16.037404 
L 62.287603 -16.208935 
L 60.238017 -16.315336 
L 58.18843 -16.340415 
L 56.138843 -16.27736 
L 54.089256 -16.128865 
L 52.039669 -15.90608 
L 49.990083 -15.626534 
L 47.940496 -15.311412 
L 45.890909 -14.982647 
L 43.841322 -14.660306 
L 41.791736 -14.360642 
L 39.742149 -14.094999 
L 37.692562 -13.869597 
L 35.642975 -13.686037 
L 33.593388 -13.542286 
L 31.543802 -13.433869 
L 29.494215 -13.355031 
L 27.444628 -13.299707 
L 25.395041 -13.262216 
L 23.345455 -13.237665 
z
" id="m9c9e74b166" style="stroke:#ffffff;stroke-opacity:0.25;stroke-width:1.5;"/>
    </defs>
    <g clip-path="url(#p7ee8fcff76)">
     <use style="fill:#de8f05;fill-opacity:0.25;stroke:#ffffff;stroke-opacity:0.25;stroke-width:1.5;" x="0" xlink:href="#m9c9e74b166" y="243.84"/>
    </g>
   </g>
   <g id="line2d_1">
    <path clip-path="url(#p7ee8fcff76)" d="M 119.236082 230.561006 
L 120.198792 230.510457 
L 121.161501 230.433707 
L 122.124211 230.320987 
L 123.08692 230.160944 
L 124.04963 229.941416 
L 125.01234 229.650742 
L 125.975049 229.279614 
L 126.937759 228.823297 
L 127.900468 228.283946 
L 128.863178 227.67255 
L 129.825887 227.010004 
L 130.788597 226.326825 
L 131.751306 225.661181 
L 132.714016 225.05523 
L 133.676726 224.550087 
L 134.639435 224.180122 
L 135.602145 223.967526 
L 136.564854 223.918154 
L 137.527564 224.019496 
L 138.490273 224.241299 
L 139.452983 224.538863 
L 140.415692 224.858574 
L 141.378402 225.144782 
L 142.341112 225.346925 
L 143.303821 225.425711 
L 144.266531 225.357337 
L 145.22924 225.135023 
L 146.19195 224.767553 
L 147.154659 224.275009 
L 148.117369 223.682358 
L 149.080079 223.011945 
L 150.042788 222.276244 
L 151.005498 221.472262 
L 151.968207 220.578821 
L 152.930917 219.557498 
L 153.893626 218.357387 
L 154.856336 216.923135 
L 155.819045 215.205023 
L 156.781755 213.169433 
L 157.744465 210.80782 
L 158.707174 208.142496 
L 159.669884 205.227945 
L 160.632593 202.147078 
L 161.595303 199.002591 
L 162.558012 195.904366 
L 163.520722 192.954509 
L 164.483432 190.23207 
L 165.446141 187.779689 
L 166.408851 185.594264 
L 167.37156 183.623282 
L 168.33427 181.767666 
L 169.296979 179.891009 
L 170.259689 177.834047 
L 171.222398 175.432282 
L 172.185108 172.53409 
L 173.147818 169.016464 
L 174.110527 164.795915 
L 175.073237 159.832816 
L 176.035946 154.128682 
L 176.998656 147.717129 
L 177.961365 140.650596 
L 178.924075 132.985869 
L 179.886784 124.772044 
L 180.849494 116.04449 
L 181.812204 106.827614 
L 182.774913 97.147733 
L 183.737623 87.055319 
L 184.700332 76.653472 
L 185.663042 66.127271 
L 186.625751 55.767077 
L 187.588461 45.978531 
L 188.551171 37.273254 
L 189.51388 30.237151 
L 190.47659 25.477451 
L 191.439299 23.554286 
L 192.402009 24.906721 
L 193.364718 29.785573 
L 194.327428 38.205308 
L 195.290137 49.924587 
L 196.252847 64.460076 
L 197.215557 81.13209 
L 198.178266 99.134811 
L 199.140976 117.61962 
L 200.103685 135.778349 
L 201.066395 152.914258 
L 202.029104 168.491811 
L 202.991814 182.160962 
L 203.954523 193.756454 
L 204.917233 203.276556 
L 205.879943 210.848152 
L 206.842652 216.685737 
L 207.805362 221.051137 
L 208.768071 224.218929 
L 209.730781 226.450397 
L 210.69349 227.976753 
L 211.6562 228.990796 
L 212.61891 229.64525 
L 213.581619 230.055633 
L 214.544329 230.305694 
" style="fill:none;stroke:#0173b2;stroke-linecap:round;stroke-width:4;"/>
   </g>
   <g id="line2d_2">
    <path clip-path="url(#p7ee8fcff76)" d="M 23.345455 230.602335 
L 25.395041 230.577784 
L 27.444628 230.540293 
L 29.494215 230.484969 
L 31.543802 230.406131 
L 33.593388 230.297714 
L 35.642975 230.153963 
L 37.692562 229.970403 
L 39.742149 229.745001 
L 41.791736 229.479358 
L 43.841322 229.179694 
L 45.890909 228.857353 
L 47.940496 228.528588 
L 49.990083 228.213466 
L 52.039669 227.93392 
L 54.089256 227.711135 
L 56.138843 227.56264 
L 58.18843 227.499585 
L 60.238017 227.524664 
L 62.287603 227.631065 
L 64.33719 227.802596 
L 66.386777 228.014947 
L 68.436364 228.237842 
L 70.48595 228.437733 
L 72.535537 228.58067 
L 74.585124 228.635062 
L 76.634711 228.574165 
L 78.684298 228.3782 
L 80.733884 228.036061 
L 82.783471 227.546516 
L 84.833058 226.918722 
L 86.882645 226.171816 
L 88.932231 225.333324 
L 90.981818 224.436267 
L 93.031405 223.515084 
L 95.080992 222.600773 
L 97.130579 221.715995 
L 99.180165 220.871015 
L 101.229752 220.061407 
L 103.279339 219.268163 
L 105.328926 218.460456 
L 107.378512 217.600744 
L 109.428099 216.651368 
L 111.477686 215.58141 
L 113.527273 214.372415 
L 115.57686 213.021749 
L 117.626446 211.542767 
L 119.676033 209.961602 
L 121.72562 208.311106 
L 123.775207 206.623034 
L 125.824793 204.919989 
L 127.87438 203.208681 
L 129.923967 201.475813 
L 131.973554 199.687366 
L 134.02314 197.791419 
L 136.072727 195.724005 
L 138.122314 193.417047 
L 140.171901 190.807196 
L 142.221488 187.844411 
L 144.271074 184.499339 
L 146.320661 180.768864 
L 148.370248 176.679458 
L 150.419835 172.288278 
L 152.469421 167.682072 
L 154.519008 162.974161 
L 156.568595 158.299796 
L 158.618182 153.810323 
L 160.667769 149.666571 
L 162.717355 146.031825 
L 164.766942 143.06465 
L 166.816529 140.911655 
L 168.866116 139.700204 
L 170.915702 139.531084 
L 172.965289 140.471313 
L 175.014876 142.547545 
L 177.064463 145.740834 
L 179.11405 149.983721 
L 181.163636 155.16058 
L 183.213223 161.11189 
L 185.26281 167.642564 
L 187.312397 174.533867 
L 189.361983 181.557802 
L 191.41157 188.492438 
L 193.461157 195.136448 
L 195.510744 201.321247 
L 197.560331 206.919485 
L 199.609917 211.849198 
L 201.659504 216.073542 
L 203.709091 219.596607 
L 205.758678 222.456261 
L 207.808264 224.715231 
L 209.857851 226.451667 
L 211.907438 227.750311 
L 213.957025 228.695075 
L 216.006612 229.363533 
L 218.056198 229.823423 
L 220.105785 230.131018 
L 222.155372 230.330988 
L 224.204959 230.457326 
L 226.254545 230.534881 
" style="fill:none;stroke:#de8f05;stroke-linecap:round;stroke-width:4;"/>
   </g>
   <g id="patch_3">
    <path d="M 13.2 230.64 
L 13.2 13.2 
" style="fill:none;stroke:#262626;stroke-linecap:square;stroke-linejoin:miter;stroke-width:1.875;"/>
   </g>
   <g id="patch_4">
    <path d="M 13.2 230.64 
L 236.4 230.64 
" style="fill:none;stroke:#262626;stroke-linecap:square;stroke-linejoin:miter;stroke-width:1.875;"/>
   </g>
  </g>
 </g>
 <defs>
  <clipPath id="p7ee8fcff76">
   <rect height="217.44" width="223.2" x="13.2" y="13.2"/>
  </clipPath>
 </defs>
</svg>
