<?xml version="1.0" encoding="utf-8" standalone="no"?>
<!DOCTYPE svg PUBLIC "-//W3C//DTD SVG 1.1//EN"
  "http://www.w3.org/Graphics/SVG/1.1/DTD/svg11.dtd">
<!-- Created with matplotlib (http://matplotlib.org/) -->
<svg height="243pt" version="1.1" viewBox="0 0 249 243" width="249pt" xmlns="http://www.w3.org/2000/svg" xmlns:xlink="http://www.w3.org/1999/xlink">
 <defs>
  <style type="text/css">
*{stroke-linecap:butt;stroke-linejoin:round;}
  </style>
 </defs>
 <g id="figure_1">
  <g id="patch_1">
   <path d="M 0 243.84 
L 249.6 243.84 
L 249.6 0 
L 0 0 
z
" style="fill:none;"/>
  </g>
  <g id="axes_1">
   <g id="patch_2">
    <path d="M 13.2 230.64 
L 236.4 230.64 
L 236.4 13.2 
L 13.2 13.2 
z
" style="fill:none;"/>
   </g>
   <g id="matplotlib.axis_1"/>
   <g id="matplotlib.axis_2"/>
   <g id="PolyCollection_1">
    <defs>
     <path d="M 97.115143 -13.277752 
L 97.115143 -13.2 
L 98.253529 -13.2 
L 99.391915 -13.2 
L 100.5303 -13.2 
L 101.668686 -13.2 
L 102.807071 -13.2 
L 103.945457 -13.2 
L 105.083843 -13.2 
L 106.222228 -13.2 
L 107.360614 -13.2 
L 108.498999 -13.2 
L 109.637385 -13.2 
L 110.775771 -13.2 
L 111.914156 -13.2 
L 113.052542 -13.2 
L 114.190927 -13.2 
L 115.329313 -13.2 
L 116.467699 -13.2 
L 117.606084 -13.2 
L 118.74447 -13.2 
L 119.882855 -13.2 
L 121.021241 -13.2 
L 122.159627 -13.2 
L 123.298012 -13.2 
L 124.436398 -13.2 
L 125.574783 -13.2 
L 126.713169 -13.2 
L 127.851555 -13.2 
L 128.98994 -13.2 
L 130.128326 -13.2 
L 131.266711 -13.2 
L 132.405097 -13.2 
L 133.543483 -13.2 
L 134.681868 -13.2 
L 135.820254 -13.2 
L 136.958639 -13.2 
L 138.097025 -13.2 
L 139.235411 -13.2 
L 140.373796 -13.2 
L 141.512182 -13.2 
L 142.650567 -13.2 
L 143.788953 -13.2 
L 144.927339 -13.2 
L 146.065724 -13.2 
L 147.20411 -13.2 
L 148.342495 -13.2 
L 149.480881 -13.2 
L 150.619267 -13.2 
L 151.757652 -13.2 
L 152.896038 -13.2 
L 154.034423 -13.2 
L 155.172809 -13.2 
L 156.311195 -13.2 
L 157.44958 -13.2 
L 158.587966 -13.2 
L 159.726351 -13.2 
L 160.864737 -13.2 
L 162.003123 -13.2 
L 163.141508 -13.2 
L 164.279894 -13.2 
L 165.418279 -13.2 
L 166.556665 -13.2 
L 167.695051 -13.2 
L 168.833436 -13.2 
L 169.971822 -13.2 
L 171.110207 -13.2 
L 172.248593 -13.2 
L 173.386979 -13.2 
L 174.525364 -13.2 
L 175.66375 -13.2 
L 176.802135 -13.2 
L 177.940521 -13.2 
L 179.078907 -13.2 
L 180.217292 -13.2 
L 181.355678 -13.2 
L 182.494063 -13.2 
L 183.632449 -13.2 
L 184.770835 -13.2 
L 185.90922 -13.2 
L 187.047606 -13.2 
L 188.185991 -13.2 
L 189.324377 -13.2 
L 190.462763 -13.2 
L 191.601148 -13.2 
L 192.739534 -13.2 
L 193.877919 -13.2 
L 195.016305 -13.2 
L 196.154691 -13.2 
L 197.293076 -13.2 
L 198.431462 -13.2 
L 199.569847 -13.2 
L 200.708233 -13.2 
L 201.846619 -13.2 
L 202.985004 -13.2 
L 204.12339 -13.2 
L 205.261775 -13.2 
L 206.400161 -13.2 
L 207.538547 -13.2 
L 208.676932 -13.2 
L 209.815318 -13.2 
L 209.815318 -13.480477 
L 209.815318 -13.480477 
L 208.676932 -13.69595 
L 207.538547 -14.053617 
L 206.400161 -14.630206 
L 205.261775 -15.532787 
L 204.12339 -16.904473 
L 202.985004 -18.927857 
L 201.846619 -21.824191 
L 200.708233 -25.846176 
L 199.569847 -31.262539 
L 198.431462 -38.333504 
L 197.293076 -47.277849 
L 196.154691 -58.234302 
L 195.016305 -71.222211 
L 193.877919 -86.108137 
L 192.739534 -102.585654 
L 191.601148 -120.174765 
L 190.462763 -138.244698 
L 189.324377 -156.059883 
L 188.185991 -172.844278 
L 187.047606 -187.855149 
L 185.90922 -200.454907 
L 184.770835 -210.169538 
L 183.632449 -216.724642 
L 182.494063 -220.054593 
L 181.355678 -220.285714 
L 180.217292 -217.69919 
L 179.078907 -212.682616 
L 177.940521 -205.679794 
L 176.802135 -197.146827 
L 175.66375 -187.519399 
L 174.525364 -177.192473 
L 173.386979 -166.510568 
L 172.248593 -155.765103 
L 171.110207 -145.195063 
L 169.971822 -134.988344 
L 168.833436 -125.282666 
L 167.695051 -116.1665 
L 166.556665 -107.681265 
L 165.418279 -99.826149 
L 164.279894 -92.566257 
L 163.141508 -85.843839 
L 162.003123 -79.591352 
L 160.864737 -73.744444 
L 159.726351 -68.252792 
L 158.587966 -63.086986 
L 157.44958 -58.240417 
L 156.311195 -53.726066 
L 155.172809 -49.569083 
L 154.034423 -45.796881 
L 152.896038 -42.42891 
L 151.757652 -39.468309 
L 150.619267 -36.89717 
L 149.480881 -34.676328 
L 148.342495 -32.749603 
L 147.20411 -31.051517 
L 146.065724 -29.516801 
L 144.927339 -28.089779 
L 143.788953 -26.731826 
L 142.650567 -25.425629 
L 141.512182 -24.175647 
L 140.373796 -23.004913 
L 139.235411 -21.948958 
L 138.097025 -21.048044 
L 136.958639 -20.339076 
L 135.820254 -19.848496 
L 134.681868 -19.587216 
L 133.543483 -19.548241 
L 132.405097 -19.707172 
L 131.266711 -20.025316 
L 130.128326 -20.454682 
L 128.98994 -20.943876 
L 127.851555 -21.443773 
L 126.713169 -21.91196 
L 125.574783 -22.315279 
L 124.436398 -22.630261 
L 123.298012 -22.841791 
L 122.159627 -22.94073 
L 121.021241 -22.921456 
L 119.882855 -22.780166 
L 118.74447 -22.514482 
L 117.606084 -22.124357 
L 116.467699 -21.613865 
L 115.329313 -20.993105 
L 114.190927 -20.279406 
L 113.052542 -19.497271 
L 111.914156 -18.676825 
L 110.775771 -17.851042 
L 109.637385 -17.052298 
L 108.498999 -16.308991 
L 107.360614 -15.642888 
L 106.222228 -15.06763 
L 105.083843 -14.588529 
L 103.945457 -14.203495 
L 102.807071 -13.90474 
L 101.668686 -13.680821 
L 100.5303 -13.518633 
L 99.391915 -13.405061 
L 98.253529 -13.328145 
L 97.115143 -13.277752 
z
" id="mc8a02787fa" style="stroke:#ffffff;stroke-opacity:0.25;stroke-width:1.5;"/>
    </defs>
    <g clip-path="url(#p0cea076e55)">
     <use style="fill:#0173b2;fill-opacity:0.25;stroke:#ffffff;stroke-opacity:0.25;stroke-width:1.5;" x="0" xlink:href="#mc8a02787fa" y="243.84"/>
    </g>
   </g>
   <g id="PolyCollection_2">
    <defs>
     <path d="M 23.345455 -13.241133 
L 23.345455 -13.2 
L 25.395041 -13.2 
L 27.444628 -13.2 
L 29.494215 -13.2 
L 31.543802 -13.2 
L 33.593388 -13.2 
L 35.642975 -13.2 
L 37.692562 -13.2 
L 39.742149 -13.2 
L 41.791736 -13.2 
L 43.841322 -13.2 
L 45.890909 -13.2 
L 47.940496 -13.2 
L 49.990083 -13.2 
L 52.039669 -13.2 
L 54.089256 -13.2 
L 56.138843 -13.2 
L 58.18843 -13.2 
L 60.238017 -13.2 
L 62.287603 -13.2 
L 64.33719 -13.2 
L 66.386777 -13.2 
L 68.436364 -13.2 
L 70.48595 -13.2 
L 72.535537 -13.2 
L 74.585124 -13.2 
L 76.634711 -13.2 
L 78.684298 -13.2 
L 80.733884 -13.2 
L 82.783471 -13.2 
L 84.833058 -13.2 
L 86.882645 -13.2 
L 88.932231 -13.2 
L 90.981818 -13.2 
L 93.031405 -13.2 
L 95.080992 -13.2 
L 97.130579 -13.2 
L 99.180165 -13.2 
L 101.229752 -13.2 
L 103.279339 -13.2 
L 105.328926 -13.2 
L 107.378512 -13.2 
L 109.428099 -13.2 
L 111.477686 -13.2 
L 113.527273 -13.2 
L 115.57686 -13.2 
L 117.626446 -13.2 
L 119.676033 -13.2 
L 121.72562 -13.2 
L 123.775207 -13.2 
L 125.824793 -13.2 
L 127.87438 -13.2 
L 129.923967 -13.2 
L 131.973554 -13.2 
L 134.02314 -13.2 
L 136.072727 -13.2 
L 138.122314 -13.2 
L 140.171901 -13.2 
L 142.221488 -13.2 
L 144.271074 -13.2 
L 146.320661 -13.2 
L 148.370248 -13.2 
L 150.419835 -13.2 
L 152.469421 -13.2 
L 154.519008 -13.2 
L 156.568595 -13.2 
L 158.618182 -13.2 
L 160.667769 -13.2 
L 162.717355 -13.2 
L 164.766942 -13.2 
L 166.816529 -13.2 
L 168.866116 -13.2 
L 170.915702 -13.2 
L 172.965289 -13.2 
L 175.014876 -13.2 
L 177.064463 -13.2 
L 179.11405 -13.2 
L 181.163636 -13.2 
L 183.213223 -13.2 
L 185.26281 -13.2 
L 187.312397 -13.2 
L 189.361983 -13.2 
L 191.41157 -13.2 
L 193.461157 -13.2 
L 195.510744 -13.2 
L 197.560331 -13.2 
L 199.609917 -13.2 
L 201.659504 -13.2 
L 203.709091 -13.2 
L 205.758678 -13.2 
L 207.808264 -13.2 
L 209.857851 -13.2 
L 211.907438 -13.2 
L 213.957025 -13.2 
L 216.006612 -13.2 
L 218.056198 -13.2 
L 220.105785 -13.2 
L 222.155372 -13.2 
L 224.204959 -13.2 
L 226.254545 -13.2 
L 226.254545 -13.364067 
L 226.254545 -13.364067 
L 224.204959 -13.463992 
L 222.155372 -13.615615 
L 220.105785 -13.840299 
L 218.056198 -14.165457 
L 216.006612 -14.625007 
L 213.957025 -15.259288 
L 211.907438 -16.114231 
L 209.857851 -17.239599 
L 207.808264 -18.686184 
L 205.758678 -20.502013 
L 203.709091 -22.727743 
L 201.659504 -25.391648 
L 199.609917 -28.504732 
L 197.560331 -32.05666 
L 195.510744 -36.013168 
L 193.461157 -40.315572 
L 191.41157 -44.882747 
L 189.361983 -49.615668 
L 187.312397 -54.404211 
L 185.26281 -59.13558 
L 183.213223 -63.703364 
L 181.163636 -68.016102 
L 179.11405 -72.004157 
L 177.064463 -75.623888 
L 175.014876 -78.858428 
L 172.965289 -81.714838 
L 170.915702 -84.217947 
L 168.866116 -86.40173 
L 166.816529 -88.299489 
L 164.766942 -89.934382 
L 162.717355 -91.311857 
L 160.667769 -92.415324 
L 158.618182 -93.205905 
L 156.568595 -93.626474 
L 154.519008 -93.609478 
L 152.469421 -93.087384 
L 150.419835 -92.00415 
L 148.370248 -90.325932 
L 146.320661 -88.049361 
L 144.271074 -85.206169 
L 142.221488 -81.863527 
L 140.171901 -78.120175 
L 138.122314 -74.099007 
L 136.072727 -69.937272 
L 134.02314 -65.775724 
L 131.973554 -61.748054 
L 129.923967 -57.971684 
L 127.87438 -54.540689 
L 125.824793 -51.521204 
L 123.775207 -48.949358 
L 121.72562 -46.831532 
L 119.676033 -45.146598 
L 117.626446 -43.849727 
L 115.57686 -42.877369 
L 113.527273 -42.153024 
L 111.477686 -41.59343 
L 109.428099 -41.114805 
L 107.378512 -40.638779 
L 105.328926 -40.097653 
L 103.279339 -39.438621 
L 101.229752 -38.626686 
L 99.180165 -37.646027 
L 97.130579 -36.499745 
L 95.080992 -35.208018 
L 93.031405 -33.804846 
L 90.981818 -32.333733 
L 88.932231 -30.842714 
L 86.882645 -29.379274 
L 84.833058 -27.985655 
L 82.783471 -26.695062 
L 80.733884 -25.52912 
L 78.684298 -24.496831 
L 76.634711 -23.595025 
L 74.585124 -22.810182 
L 72.535537 -22.121262 
L 70.48595 -21.503129 
L 68.436364 -20.930072 
L 66.386777 -20.378964 
L 64.33719 -19.8317 
L 62.287603 -19.276685 
L 60.238017 -18.709291 
L 58.18843 -18.131378 
L 56.138843 -17.550054 
L 54.089256 -16.975967 
L 52.039669 -16.421415 
L 49.990083 -15.898554 
L 47.940496 -15.417916 
L 45.890909 -14.987384 
L 43.841322 -14.611659 
L 41.791736 -14.292194 
L 39.742149 -14.027519 
L 37.692562 -13.813815 
L 35.642975 -13.645625 
L 33.593388 -13.516579 
L 31.543802 -13.420035 
L 29.494215 -13.349599 
L 27.444628 -13.299478 
L 25.395041 -13.264689 
L 23.345455 -13.241133 
z
" id="mcc32d15d5b" style="stroke:#ffffff;stroke-opacity:0.25;stroke-width:1.5;"/>
    </defs>
    <g clip-path="url(#p0cea076e55)">
     <use style="fill:#de8f05;fill-opacity:0.25;stroke:#ffffff;stroke-opacity:0.25;stroke-width:1.5;" x="0" xlink:href="#mcc32d15d5b" y="243.84"/>
    </g>
   </g>
   <g id="line2d_1">
    <path clip-path="url(#p0cea076e55)" d="M 97.115143 230.562248 
L 98.253529 230.511855 
L 99.391915 230.434939 
L 100.5303 230.321367 
L 101.668686 230.159179 
L 102.807071 229.93526 
L 103.945457 229.636505 
L 105.083843 229.251471 
L 106.222228 228.77237 
L 107.360614 228.197112 
L 108.498999 227.531009 
L 109.637385 226.787702 
L 110.775771 225.988958 
L 111.914156 225.163175 
L 113.052542 224.342729 
L 114.190927 223.560594 
L 115.329313 222.846895 
L 116.467699 222.226135 
L 117.606084 221.715643 
L 118.74447 221.325518 
L 119.882855 221.059834 
L 121.021241 220.918544 
L 122.159627 220.89927 
L 123.298012 220.998209 
L 124.436398 221.209739 
L 125.574783 221.524721 
L 126.713169 221.92804 
L 127.851555 222.396227 
L 128.98994 222.896124 
L 130.128326 223.385318 
L 131.266711 223.814684 
L 132.405097 224.132828 
L 133.543483 224.291759 
L 134.681868 224.252784 
L 135.820254 223.991504 
L 136.958639 223.500924 
L 138.097025 222.791956 
L 139.235411 221.891042 
L 140.373796 220.835087 
L 141.512182 219.664353 
L 142.650567 218.414371 
L 143.788953 217.108174 
L 144.927339 215.750221 
L 146.065724 214.323199 
L 147.20411 212.788483 
L 148.342495 211.090397 
L 149.480881 209.163672 
L 150.619267 206.94283 
L 151.757652 204.371691 
L 152.896038 201.41109 
L 154.034423 198.043119 
L 155.172809 194.270917 
L 156.311195 190.113934 
L 157.44958 185.599583 
L 158.587966 180.753014 
L 159.726351 175.587208 
L 160.864737 170.095556 
L 162.003123 164.248648 
L 163.141508 157.996161 
L 164.279894 151.273743 
L 165.418279 144.013851 
L 166.556665 136.158735 
L 167.695051 127.6735 
L 168.833436 118.557334 
L 169.971822 108.851656 
L 171.110207 98.644937 
L 172.248593 88.074897 
L 173.386979 77.329432 
L 174.525364 66.647527 
L 175.66375 56.320601 
L 176.802135 46.693173 
L 177.940521 38.160206 
L 179.078907 31.157384 
L 180.217292 26.14081 
L 181.355678 23.554286 
L 182.494063 23.785407 
L 183.632449 27.115358 
L 184.770835 33.670462 
L 185.90922 43.385093 
L 187.047606 55.984851 
L 188.185991 70.995722 
L 189.324377 87.780117 
L 190.462763 105.595302 
L 191.601148 123.665235 
L 192.739534 141.254346 
L 193.877919 157.731863 
L 195.016305 172.617789 
L 196.154691 185.605698 
L 197.293076 196.562151 
L 198.431462 205.506496 
L 199.569847 212.577461 
L 200.708233 217.993824 
L 201.846619 222.015809 
L 202.985004 224.912143 
L 204.12339 226.935527 
L 205.261775 228.307213 
L 206.400161 229.209794 
L 207.538547 229.786383 
L 208.676932 230.14405 
L 209.815318 230.359523 
" style="fill:none;stroke:#0173b2;stroke-linecap:round;stroke-width:4;"/>
   </g>
   <g id="line2d_2">
    <path clip-path="url(#p0cea076e55)" d="M 23.345455 230.598867 
L 25.395041 230.575311 
L 27.444628 230.540522 
L 29.494215 230.490401 
L 31.543802 230.419965 
L 33.593388 230.323421 
L 35.642975 230.194375 
L 37.692562 230.026185 
L 39.742149 229.812481 
L 41.791736 229.547806 
L 43.841322 229.228341 
L 45.890909 228.852616 
L 47.940496 228.422084 
L 49.990083 227.941446 
L 52.039669 227.418585 
L 54.089256 226.864033 
L 56.138843 226.289946 
L 58.18843 225.708622 
L 60.238017 225.130709 
L 62.287603 224.563315 
L 64.33719 224.0083 
L 66.386777 223.461036 
L 68.436364 222.909928 
L 70.48595 222.336871 
L 72.535537 221.718738 
L 74.585124 221.029818 
L 76.634711 220.244975 
L 78.684298 219.343169 
L 80.733884 218.31088 
L 82.783471 217.144938 
L 84.833058 215.854345 
L 86.882645 214.460726 
L 88.932231 212.997286 
L 90.981818 211.506267 
L 93.031405 210.035154 
L 95.080992 208.631982 
L 97.130579 207.340255 
L 99.180165 206.193973 
L 101.229752 205.213314 
L 103.279339 204.401379 
L 105.328926 203.742347 
L 107.378512 203.201221 
L 109.428099 202.725195 
L 111.477686 202.24657 
L 113.527273 201.686976 
L 115.57686 200.962631 
L 117.626446 199.990273 
L 119.676033 198.693402 
L 121.72562 197.008468 
L 123.775207 194.890642 
L 125.824793 192.318796 
L 127.87438 189.299311 
L 129.923967 185.868316 
L 131.973554 182.091946 
L 134.02314 178.064276 
L 136.072727 173.902728 
L 138.122314 169.740993 
L 140.171901 165.719825 
L 142.221488 161.976473 
L 144.271074 158.633831 
L 146.320661 155.790639 
L 148.370248 153.514068 
L 150.419835 151.83585 
L 152.469421 150.752616 
L 154.519008 150.230522 
L 156.568595 150.213526 
L 158.618182 150.634095 
L 160.667769 151.424676 
L 162.717355 152.528143 
L 164.766942 153.905618 
L 166.816529 155.540511 
L 168.866116 157.43827 
L 170.915702 159.622053 
L 172.965289 162.125162 
L 175.014876 164.981572 
L 177.064463 168.216112 
L 179.11405 171.835843 
L 181.163636 175.823898 
L 183.213223 180.136636 
L 185.26281 184.70442 
L 187.312397 189.435789 
L 189.361983 194.224332 
L 191.41157 198.957253 
L 193.461157 203.524428 
L 195.510744 207.826832 
L 197.560331 211.78334 
L 199.609917 215.335268 
L 201.659504 218.448352 
L 203.709091 221.112257 
L 205.758678 223.337987 
L 207.808264 225.153816 
L 209.857851 226.600401 
L 211.907438 227.725769 
L 213.957025 228.580712 
L 216.006612 229.214993 
L 218.056198 229.674543 
L 220.105785 229.999701 
L 222.155372 230.224385 
L 224.204959 230.376008 
L 226.254545 230.475933 
" style="fill:none;stroke:#de8f05;stroke-linecap:round;stroke-width:4;"/>
   </g>
   <g id="patch_3">
    <path d="M 13.2 230.64 
L 13.2 13.2 
" style="fill:none;stroke:#262626;stroke-linecap:square;stroke-linejoin:miter;stroke-width:1.875;"/>
   </g>
   <g id="patch_4">
    <path d="M 13.2 230.64 
L 236.4 230.64 
" style="fill:none;stroke:#262626;stroke-linecap:square;stroke-linejoin:miter;stroke-width:1.875;"/>
   </g>
  </g>
 </g>
 <defs>
  <clipPath id="p0cea076e55">
   <rect height="217.44" width="223.2" x="13.2" y="13.2"/>
  </clipPath>
 </defs>
</svg>
