<?xml version="1.0" encoding="utf-8" standalone="no"?>
<!DOCTYPE svg PUBLIC "-//W3C//DTD SVG 1.1//EN"
  "http://www.w3.org/Graphics/SVG/1.1/DTD/svg11.dtd">
<!-- Created with matplotlib (https://matplotlib.org/) -->
<svg height="243.84pt" version="1.1" viewBox="0 0 249.6 243.84" width="249.6pt" xmlns="http://www.w3.org/2000/svg" xmlns:xlink="http://www.w3.org/1999/xlink">
 <defs>
  <style type="text/css">
*{stroke-linecap:butt;stroke-linejoin:round;}
  </style>
 </defs>
 <g id="figure_1">
  <g id="patch_1">
   <path d="M 0 243.84 
L 249.6 243.84 
L 249.6 0 
L 0 0 
z
" style="fill:none;"/>
  </g>
  <g id="axes_1">
   <g id="patch_2">
    <path d="M 13.2 230.64 
L 236.4 230.64 
L 236.4 13.2 
L 13.2 13.2 
z
" style="fill:none;"/>
   </g>
   <g id="matplotlib.axis_1"/>
   <g id="matplotlib.axis_2"/>
   <g id="PolyCollection_1">
    <defs>
     <path d="M 23.345455 -13.285304 
L 23.345455 -13.2 
L 25.395041 -13.2 
L 27.444628 -13.2 
L 29.494215 -13.2 
L 31.543802 -13.2 
L 33.593388 -13.2 
L 35.642975 -13.2 
L 37.692562 -13.2 
L 39.742149 -13.2 
L 41.791736 -13.2 
L 43.841322 -13.2 
L 45.890909 -13.2 
L 47.940496 -13.2 
L 49.990083 -13.2 
L 52.039669 -13.2 
L 54.089256 -13.2 
L 56.138843 -13.2 
L 58.18843 -13.2 
L 60.238017 -13.2 
L 62.287603 -13.2 
L 64.33719 -13.2 
L 66.386777 -13.2 
L 68.436364 -13.2 
L 70.48595 -13.2 
L 72.535537 -13.2 
L 74.585124 -13.2 
L 76.634711 -13.2 
L 78.684298 -13.2 
L 80.733884 -13.2 
L 82.783471 -13.2 
L 84.833058 -13.2 
L 86.882645 -13.2 
L 88.932231 -13.2 
L 90.981818 -13.2 
L 93.031405 -13.2 
L 95.080992 -13.2 
L 97.130579 -13.2 
L 99.180165 -13.2 
L 101.229752 -13.2 
L 103.279339 -13.2 
L 105.328926 -13.2 
L 107.378512 -13.2 
L 109.428099 -13.2 
L 111.477686 -13.2 
L 113.527273 -13.2 
L 115.57686 -13.2 
L 117.626446 -13.2 
L 119.676033 -13.2 
L 121.72562 -13.2 
L 123.775207 -13.2 
L 125.824793 -13.2 
L 127.87438 -13.2 
L 129.923967 -13.2 
L 131.973554 -13.2 
L 134.02314 -13.2 
L 136.072727 -13.2 
L 138.122314 -13.2 
L 140.171901 -13.2 
L 142.221488 -13.2 
L 144.271074 -13.2 
L 146.320661 -13.2 
L 148.370248 -13.2 
L 150.419835 -13.2 
L 152.469421 -13.2 
L 154.519008 -13.2 
L 156.568595 -13.2 
L 158.618182 -13.2 
L 160.667769 -13.2 
L 162.717355 -13.2 
L 164.766942 -13.2 
L 166.816529 -13.2 
L 168.866116 -13.2 
L 170.915702 -13.2 
L 172.965289 -13.2 
L 175.014876 -13.2 
L 177.064463 -13.2 
L 179.11405 -13.2 
L 181.163636 -13.2 
L 183.213223 -13.2 
L 185.26281 -13.2 
L 187.312397 -13.2 
L 189.361983 -13.2 
L 191.41157 -13.2 
L 193.461157 -13.2 
L 195.510744 -13.2 
L 197.560331 -13.2 
L 199.609917 -13.2 
L 201.659504 -13.2 
L 203.709091 -13.2 
L 205.758678 -13.2 
L 207.808264 -13.2 
L 209.857851 -13.2 
L 211.907438 -13.2 
L 213.957025 -13.2 
L 216.006612 -13.2 
L 218.056198 -13.2 
L 220.105785 -13.2 
L 222.155372 -13.2 
L 224.204959 -13.2 
L 226.254545 -13.2 
L 226.254545 -13.50509 
L 226.254545 -13.50509 
L 224.204959 -13.717191 
L 222.155372 -14.055248 
L 220.105785 -14.579841 
L 218.056198 -15.372427 
L 216.006612 -16.538343 
L 213.957025 -18.208249 
L 211.907438 -20.537005 
L 209.857851 -23.699021 
L 207.808264 -27.879339 
L 205.758678 -33.260213 
L 203.709091 -40.003635 
L 201.659504 -48.23115 
L 199.609917 -58.003103 
L 197.560331 -69.300117 
L 195.510744 -82.009788 
L 193.461157 -95.921284 
L 191.41157 -110.729659 
L 189.361983 -126.050336 
L 187.312397 -141.442704 
L 185.26281 -156.440268 
L 183.213223 -170.583747 
L 181.163636 -183.45302 
L 179.11405 -194.694055 
L 177.064463 -204.037839 
L 175.014876 -211.309596 
L 172.965289 -216.428111 
L 170.915702 -219.396348 
L 168.866116 -220.285714 
L 166.816529 -219.216981 
L 164.766942 -216.341104 
L 162.717355 -211.822907 
L 160.667769 -205.829876 
L 158.618182 -198.527262 
L 156.568595 -190.079414 
L 154.519008 -180.655966 
L 152.469421 -170.440425 
L 150.419835 -159.638099 
L 148.370248 -148.480293 
L 146.320661 -137.222416 
L 144.271074 -126.134975 
L 142.221488 -115.488033 
L 140.171901 -105.531347 
L 138.122314 -96.47355 
L 136.072727 -88.464201 
L 134.02314 -81.582128 
L 131.973554 -75.832283 
L 129.923967 -71.151709 
L 127.87438 -67.423418 
L 125.824793 -64.495535 
L 123.775207 -62.202202 
L 121.72562 -60.382672 
L 119.676033 -58.895673 
L 117.626446 -57.627315 
L 115.57686 -56.492283 
L 113.527273 -55.429393 
L 111.477686 -54.393631 
L 109.428099 -53.347237 
L 107.378512 -52.252325 
L 105.328926 -51.06689 
L 103.279339 -49.745069 
L 101.229752 -48.241478 
L 99.180165 -46.518415 
L 97.130579 -44.554107 
L 95.080992 -42.349915 
L 93.031405 -39.934684 
L 90.981818 -37.365046 
L 88.932231 -34.721324 
L 86.882645 -32.099615 
L 84.833058 -29.60128 
L 82.783471 -27.32155 
L 80.733884 -25.338948 
L 78.684298 -23.707018 
L 76.634711 -22.449347 
L 74.585124 -21.558312 
L 72.535537 -20.997439 
L 70.48595 -20.706838 
L 68.436364 -20.610851 
L 66.386777 -20.62688 
L 64.33719 -20.674346 
L 62.287603 -20.682715 
L 60.238017 -20.597742 
L 58.18843 -20.385303 
L 56.138843 -20.032513 
L 54.089256 -19.546219 
L 52.039669 -18.9493 
L 49.990083 -18.275507 
L 47.940496 -17.563718 
L 45.890909 -16.852494 
L 43.841322 -16.175636 
L 41.791736 -15.559209 
L 39.742149 -15.020167 
L 37.692562 -14.566441 
L 35.642975 -14.198137 
L 33.593388 -13.909415 
L 31.543802 -13.690586 
L 29.494215 -13.53009 
L 27.444628 -13.416096 
L 25.395041 -13.337645 
L 23.345455 -13.285304 
z
" id="m4909ee2139" style="stroke:#ffffff;stroke-opacity:0.25;stroke-width:1.5;"/>
    </defs>
    <g clip-path="url(#p313a247edb)">
     <use style="fill:#0173b2;fill-opacity:0.25;stroke:#ffffff;stroke-opacity:0.25;stroke-width:1.5;" x="0" xlink:href="#m4909ee2139" y="243.84"/>
    </g>
   </g>
   <g id="PolyCollection_2">
    <defs>
     <path d="M 30.714215 -13.290246 
L 30.714215 -13.2 
L 32.632013 -13.2 
L 34.549811 -13.2 
L 36.467609 -13.2 
L 38.385408 -13.2 
L 40.303206 -13.2 
L 42.221004 -13.2 
L 44.138802 -13.2 
L 46.056601 -13.2 
L 47.974399 -13.2 
L 49.892197 -13.2 
L 51.809996 -13.2 
L 53.727794 -13.2 
L 55.645592 -13.2 
L 57.56339 -13.2 
L 59.481189 -13.2 
L 61.398987 -13.2 
L 63.316785 -13.2 
L 65.234583 -13.2 
L 67.152382 -13.2 
L 69.07018 -13.2 
L 70.987978 -13.2 
L 72.905776 -13.2 
L 74.823575 -13.2 
L 76.741373 -13.2 
L 78.659171 -13.2 
L 80.576969 -13.2 
L 82.494768 -13.2 
L 84.412566 -13.2 
L 86.330364 -13.2 
L 88.248162 -13.2 
L 90.165961 -13.2 
L 92.083759 -13.2 
L 94.001557 -13.2 
L 95.919355 -13.2 
L 97.837154 -13.2 
L 99.754952 -13.2 
L 101.67275 -13.2 
L 103.590548 -13.2 
L 105.508347 -13.2 
L 107.426145 -13.2 
L 109.343943 -13.2 
L 111.261742 -13.2 
L 113.17954 -13.2 
L 115.097338 -13.2 
L 117.015136 -13.2 
L 118.932935 -13.2 
L 120.850733 -13.2 
L 122.768531 -13.2 
L 124.686329 -13.2 
L 126.604128 -13.2 
L 128.521926 -13.2 
L 130.439724 -13.2 
L 132.357522 -13.2 
L 134.275321 -13.2 
L 136.193119 -13.2 
L 138.110917 -13.2 
L 140.028715 -13.2 
L 141.946514 -13.2 
L 143.864312 -13.2 
L 145.78211 -13.2 
L 147.699908 -13.2 
L 149.617707 -13.2 
L 151.535505 -13.2 
L 153.453303 -13.2 
L 155.371101 -13.2 
L 157.2889 -13.2 
L 159.206698 -13.2 
L 161.124496 -13.2 
L 163.042294 -13.2 
L 164.960093 -13.2 
L 166.877891 -13.2 
L 168.795689 -13.2 
L 170.713487 -13.2 
L 172.631286 -13.2 
L 174.549084 -13.2 
L 176.466882 -13.2 
L 178.384681 -13.2 
L 180.302479 -13.2 
L 182.220277 -13.2 
L 184.138075 -13.2 
L 186.055874 -13.2 
L 187.973672 -13.2 
L 189.89147 -13.2 
L 191.809268 -13.2 
L 193.727067 -13.2 
L 195.644865 -13.2 
L 197.562663 -13.2 
L 199.480461 -13.2 
L 201.39826 -13.2 
L 203.316058 -13.2 
L 205.233856 -13.2 
L 207.151654 -13.2 
L 209.069453 -13.2 
L 210.987251 -13.2 
L 212.905049 -13.2 
L 214.822847 -13.2 
L 216.740646 -13.2 
L 218.658444 -13.2 
L 220.576242 -13.2 
L 220.576242 -13.438073 
L 220.576242 -13.438073 
L 218.658444 -13.592433 
L 216.740646 -13.831085 
L 214.822847 -14.190358 
L 212.905049 -14.717088 
L 210.987251 -15.469324 
L 209.069453 -16.516087 
L 207.151654 -17.935897 
L 205.233856 -19.813919 
L 203.316058 -22.237785 
L 201.39826 -25.292415 
L 199.480461 -29.054411 
L 197.562663 -33.586721 
L 195.644865 -38.934312 
L 193.727067 -45.121351 
L 191.809268 -52.15003 
L 189.89147 -60.000741 
L 187.973672 -68.632849 
L 186.055874 -77.985147 
L 184.138075 -87.97518 
L 182.220277 -98.497076 
L 180.302479 -109.41823 
L 178.384681 -120.575963 
L 176.466882 -131.775805 
L 174.549084 -142.793209 
L 172.631286 -153.380038 
L 170.713487 -163.27627 
L 168.795689 -172.226127 
L 166.877891 -179.99665 
L 164.960093 -186.395932 
L 163.042294 -191.288068 
L 161.124496 -194.602359 
L 159.206698 -196.335451 
L 157.2889 -196.546477 
L 155.371101 -195.346579 
L 153.453303 -192.885205 
L 151.535505 -189.335828 
L 149.617707 -184.883517 
L 147.699908 -179.715875 
L 145.78211 -174.017765 
L 143.864312 -167.969088 
L 141.946514 -161.744034 
L 140.028715 -155.509897 
L 138.110917 -149.423753 
L 136.193119 -143.626125 
L 134.275321 -138.231808 
L 132.357522 -133.319232 
L 130.439724 -128.92059 
L 128.521926 -125.015364 
L 126.604128 -121.529513 
L 124.686329 -118.341677 
L 122.768531 -115.29637 
L 120.850733 -112.22262 
L 118.932935 -108.955347 
L 117.015136 -105.356101 
L 115.097338 -101.329866 
L 113.17954 -96.835412 
L 111.261742 -91.88794 
L 109.343943 -86.554195 
L 107.426145 -80.941486 
L 105.508347 -75.182925 
L 103.590548 -69.421472 
L 101.67275 -63.795177 
L 99.754952 -58.425391 
L 97.837154 -53.408918 
L 95.919355 -48.814294 
L 94.001557 -44.681769 
L 92.083759 -41.026114 
L 90.165961 -37.841223 
L 88.248162 -35.105445 
L 86.330364 -32.786726 
L 84.412566 -30.846854 
L 82.494768 -29.244415 
L 80.576969 -27.936373 
L 78.659171 -26.878536 
L 76.741373 -26.025392 
L 74.823575 -25.329963 
L 72.905776 -24.744241 
L 70.987978 -24.220596 
L 69.07018 -23.714201 
L 67.152382 -23.186147 
L 65.234583 -22.606677 
L 63.316785 -21.957795 
L 61.398987 -21.234625 
L 59.481189 -20.445127 
L 57.56339 -19.608133 
L 55.645592 -18.750036 
L 53.727794 -17.900718 
L 51.809996 -17.089447 
L 49.892197 -16.341366 
L 47.974399 -15.675073 
L 46.056601 -15.101475 
L 44.138802 -14.623866 
L 42.221004 -14.238971 
L 40.303206 -13.938587 
L 38.385408 -13.711441 
L 36.467609 -13.54493 
L 34.549811 -13.426552 
L 32.632013 -13.344902 
L 30.714215 -13.290246 
z
" id="meafd8fb629" style="stroke:#ffffff;stroke-opacity:0.25;stroke-width:1.5;"/>
    </defs>
    <g clip-path="url(#p313a247edb)">
     <use style="fill:#de8f05;fill-opacity:0.25;stroke:#ffffff;stroke-opacity:0.25;stroke-width:1.5;" x="0" xlink:href="#meafd8fb629" y="243.84"/>
    </g>
   </g>
   <g id="line2d_1">
    <path clip-path="url(#p313a247edb)" d="M 23.345455 230.554696 
L 25.395041 230.502355 
L 27.444628 230.423904 
L 29.494215 230.30991 
L 31.543802 230.149414 
L 33.593388 229.930585 
L 35.642975 229.641863 
L 37.692562 229.273559 
L 39.742149 228.819833 
L 41.791736 228.280791 
L 43.841322 227.664364 
L 45.890909 226.987506 
L 47.940496 226.276282 
L 49.990083 225.564493 
L 52.039669 224.8907 
L 54.089256 224.293781 
L 56.138843 223.807487 
L 58.18843 223.454697 
L 60.238017 223.242258 
L 62.287603 223.157285 
L 64.33719 223.165654 
L 66.386777 223.21312 
L 68.436364 223.229149 
L 70.48595 223.133162 
L 72.535537 222.842561 
L 74.585124 222.281688 
L 76.634711 221.390653 
L 78.684298 220.132982 
L 80.733884 218.501052 
L 82.783471 216.51845 
L 84.833058 214.23872 
L 86.882645 211.740385 
L 88.932231 209.118676 
L 90.981818 206.474954 
L 93.031405 203.905316 
L 95.080992 201.490085 
L 97.130579 199.285893 
L 99.180165 197.321585 
L 101.229752 195.598522 
L 103.279339 194.094931 
L 105.328926 192.77311 
L 107.378512 191.587675 
L 109.428099 190.492763 
L 111.477686 189.446369 
L 113.527273 188.410607 
L 115.57686 187.347717 
L 117.626446 186.212685 
L 119.676033 184.944327 
L 121.72562 183.457328 
L 123.775207 181.637798 
L 125.824793 179.344465 
L 127.87438 176.416582 
L 129.923967 172.688291 
L 131.973554 168.007717 
L 134.02314 162.257872 
L 136.072727 155.375799 
L 138.122314 147.36645 
L 140.171901 138.308653 
L 142.221488 128.351967 
L 144.271074 117.705025 
L 146.320661 106.617584 
L 148.370248 95.359707 
L 150.419835 84.201901 
L 152.469421 73.399575 
L 154.519008 63.184034 
L 156.568595 53.760586 
L 158.618182 45.312738 
L 160.667769 38.010124 
L 162.717355 32.017093 
L 164.766942 27.498896 
L 166.816529 24.623019 
L 168.866116 23.554286 
L 170.915702 24.443652 
L 172.965289 27.411889 
L 175.014876 32.530404 
L 177.064463 39.802161 
L 179.11405 49.145945 
L 181.163636 60.38698 
L 183.213223 73.256253 
L 185.26281 87.399732 
L 187.312397 102.397296 
L 189.361983 117.789664 
L 191.41157 133.110341 
L 193.461157 147.918716 
L 195.510744 161.830212 
L 197.560331 174.539883 
L 199.609917 185.836897 
L 201.659504 195.60885 
L 203.709091 203.836365 
L 205.758678 210.579787 
L 207.808264 215.960661 
L 209.857851 220.140979 
L 211.907438 223.302995 
L 213.957025 225.631751 
L 216.006612 227.301657 
L 218.056198 228.467573 
L 220.105785 229.260159 
L 222.155372 229.784752 
L 224.204959 230.122809 
L 226.254545 230.33491 
" style="fill:none;stroke:#0173b2;stroke-linecap:round;stroke-width:4;"/>
   </g>
   <g id="line2d_2">
    <path clip-path="url(#p313a247edb)" d="M 30.714215 230.549754 
L 32.632013 230.495098 
L 34.549811 230.413448 
L 36.467609 230.29507 
L 38.385408 230.128559 
L 40.303206 229.901413 
L 42.221004 229.601029 
L 44.138802 229.216134 
L 46.056601 228.738525 
L 47.974399 228.164927 
L 49.892197 227.498634 
L 51.809996 226.750553 
L 53.727794 225.939282 
L 55.645592 225.089964 
L 57.56339 224.231867 
L 59.481189 223.394873 
L 61.398987 222.605375 
L 63.316785 221.882205 
L 65.234583 221.233323 
L 67.152382 220.653853 
L 69.07018 220.125799 
L 70.987978 219.619404 
L 72.905776 219.095759 
L 74.823575 218.510037 
L 76.741373 217.814608 
L 78.659171 216.961464 
L 80.576969 215.903627 
L 82.494768 214.595585 
L 84.412566 212.993146 
L 86.330364 211.053274 
L 88.248162 208.734555 
L 90.165961 205.998777 
L 92.083759 202.813886 
L 94.001557 199.158231 
L 95.919355 195.025706 
L 97.837154 190.431082 
L 99.754952 185.414609 
L 101.67275 180.044823 
L 103.590548 174.418528 
L 105.508347 168.657075 
L 107.426145 162.898514 
L 109.343943 157.285805 
L 111.261742 151.95206 
L 113.17954 147.004588 
L 115.097338 142.510134 
L 117.015136 138.483899 
L 118.932935 134.884653 
L 120.850733 131.61738 
L 122.768531 128.54363 
L 124.686329 125.498323 
L 126.604128 122.310487 
L 128.521926 118.824636 
L 130.439724 114.91941 
L 132.357522 110.520768 
L 134.275321 105.608192 
L 136.193119 100.213875 
L 138.110917 94.416247 
L 140.028715 88.330103 
L 141.946514 82.095966 
L 143.864312 75.870912 
L 145.78211 69.822235 
L 147.699908 64.124125 
L 149.617707 58.956483 
L 151.535505 54.504172 
L 153.453303 50.954795 
L 155.371101 48.493421 
L 157.2889 47.293523 
L 159.206698 47.504549 
L 161.124496 49.237641 
L 163.042294 52.551932 
L 164.960093 57.444068 
L 166.877891 63.84335 
L 168.795689 71.613873 
L 170.713487 80.56373 
L 172.631286 90.459962 
L 174.549084 101.046791 
L 176.466882 112.064195 
L 178.384681 123.264037 
L 180.302479 134.42177 
L 182.220277 145.342924 
L 184.138075 155.86482 
L 186.055874 165.854853 
L 187.973672 175.207151 
L 189.89147 183.839259 
L 191.809268 191.68997 
L 193.727067 198.718649 
L 195.644865 204.905688 
L 197.562663 210.253279 
L 199.480461 214.785589 
L 201.39826 218.547585 
L 203.316058 221.602215 
L 205.233856 224.026081 
L 207.151654 225.904103 
L 209.069453 227.323913 
L 210.987251 228.370676 
L 212.905049 229.122912 
L 214.822847 229.649642 
L 216.740646 230.008915 
L 218.658444 230.247567 
L 220.576242 230.401927 
" style="fill:none;stroke:#de8f05;stroke-linecap:round;stroke-width:4;"/>
   </g>
   <g id="patch_3">
    <path d="M 13.2 230.64 
L 13.2 13.2 
" style="fill:none;stroke:#262626;stroke-linecap:square;stroke-linejoin:miter;stroke-width:1.875;"/>
   </g>
   <g id="patch_4">
    <path d="M 13.2 230.64 
L 236.4 230.64 
" style="fill:none;stroke:#262626;stroke-linecap:square;stroke-linejoin:miter;stroke-width:1.875;"/>
   </g>
  </g>
 </g>
 <defs>
  <clipPath id="p313a247edb">
   <rect height="217.44" width="223.2" x="13.2" y="13.2"/>
  </clipPath>
 </defs>
</svg>
