<?xml version="1.0" encoding="utf-8" standalone="no"?>
<!DOCTYPE svg PUBLIC "-//W3C//DTD SVG 1.1//EN"
  "http://www.w3.org/Graphics/SVG/1.1/DTD/svg11.dtd">
<!-- Created with matplotlib (http://matplotlib.org/) -->
<svg height="80pt" version="1.1" viewBox="0 0 249 80" width="249pt" xmlns="http://www.w3.org/2000/svg" xmlns:xlink="http://www.w3.org/1999/xlink">
 <defs>
  <style type="text/css">
*{stroke-linecap:butt;stroke-linejoin:round;}
  </style>
 </defs>
 <g id="figure_1">
  <g id="patch_1">
   <path d="M 0 80.76 
L 249.6 80.76 
L 249.6 0 
L 0 0 
z
" style="fill:none;"/>
  </g>
  <g id="axes_1">
   <g id="patch_2">
    <path d="M 13.2 67.56 
L 236.4 67.56 
L 236.4 13.2 
L 13.2 13.2 
z
" style="fill:none;"/>
   </g>
   <g id="matplotlib.axis_1"/>
   <g id="matplotlib.axis_2">
    <g id="ytick_1">
     <g id="line2d_1">
      <path clip-path="url(#pa439e223ed)" d="M 13.2 14.265882 
L 236.4 14.265882 
" style="fill:none;stroke:#cccccc;stroke-linecap:round;stroke-width:1.5;"/>
     </g>
    </g>
   </g>
   <g id="line2d_2">
    <path clip-path="url(#pa439e223ed)" d="M 27.212945 65.720396 
L 29.204518 63.677732 
L 31.196091 64.046002 
L 33.187663 62.148615 
L 35.179236 62.993101 
L 37.170808 62.423237 
L 39.162381 63.956402 
L 41.153953 63.675801 
L 43.145526 63.193045 
L 45.137098 64.87471 
L 47.128671 63.735277 
L 49.120243 61.414631 
L 51.111816 63.933697 
L 53.103388 63.975539 
L 55.094961 63.194607 
L 57.086534 60.029639 
L 59.078106 60.890677 
L 61.069679 62.057277 
L 63.061251 62.988626 
L 65.052824 61.709547 
L 67.044396 62.551985 
L 69.035969 62.233609 
L 71.027541 58.980989 
L 73.019114 63.17848 
L 75.010686 60.795904 
L 77.002259 59.46457 
L 78.993832 61.74962 
L 80.985404 59.832208 
L 82.976977 60.515911 
L 84.968549 58.358948 
L 86.960122 59.254857 
L 88.951694 60.067546 
L 90.943267 59.595108 
L 92.934839 59.975954 
L 94.926412 58.456413 
L 96.917984 58.943775 
L 98.909557 58.567718 
L 100.901129 57.442829 
L 102.892702 56.802006 
L 104.884275 57.293844 
L 106.875847 54.266057 
L 108.86742 57.209917 
L 110.858992 56.046487 
L 112.850565 56.142065 
L 114.842137 58.069612 
L 116.83371 53.776365 
L 118.825282 53.289702 
L 120.816855 53.009498 
L 122.808427 54.307666 
L 124.8 52.972763 
L 126.791573 52.245476 
L 128.783145 52.446718 
L 130.774718 51.68853 
L 132.76629 51.023743 
L 134.757863 50.85277 
L 136.749435 47.304043 
L 138.741008 47.623814 
L 140.73258 48.184119 
L 142.724153 46.26606 
L 144.715725 46.759188 
L 146.707298 45.036259 
L 148.698871 45.694918 
L 150.690443 44.125509 
L 152.682016 43.454718 
L 154.673588 41.802278 
L 156.665161 41.104535 
L 158.656733 40.466737 
L 160.648306 40.550401 
L 162.639878 38.997243 
L 164.631451 37.411196 
L 166.623023 37.390706 
L 168.614596 37.741259 
L 170.606168 34.685335 
L 172.597741 33.724507 
L 174.589314 34.658886 
L 176.580886 33.000802 
L 178.572459 31.917618 
L 180.564031 30.547536 
L 182.555604 31.285252 
L 184.547176 29.973605 
L 186.538749 29.41237 
L 188.530321 28.27686 
L 190.521894 26.596791 
L 192.513466 27.638743 
L 194.505039 25.981878 
L 196.496612 25.165103 
L 198.488184 24.46266 
L 200.479757 24.64214 
L 202.471329 23.051139 
L 204.462902 23.070183 
L 206.454474 23.610672 
L 208.446047 21.93347 
L 210.437619 21.281814 
L 212.429192 21.385529 
L 214.420764 19.961885 
L 216.412337 19.806763 
L 218.403909 19.553123 
L 220.395482 17.81379 
L 222.387055 18.688359 
" style="fill:none;stroke:#1a1a1a;stroke-linecap:round;stroke-width:4;"/>
   </g>
   <g id="patch_3">
    <path d="M 13.2 67.56 
L 13.2 13.2 
" style="fill:none;stroke:#262626;stroke-linecap:square;stroke-linejoin:miter;stroke-width:1.875;"/>
   </g>
   <g id="patch_4">
    <path d="M 13.2 67.56 
L 236.4 67.56 
" style="fill:none;stroke:#262626;stroke-linecap:square;stroke-linejoin:miter;stroke-width:1.875;"/>
   </g>
  </g>
 </g>
 <defs>
  <clipPath id="pa439e223ed">
   <rect height="54.36" width="223.2" x="13.2" y="13.2"/>
  </clipPath>
 </defs>
</svg>
