<?xml version="1.0" encoding="utf-8" standalone="no"?>
<!DOCTYPE svg PUBLIC "-//W3C//DTD SVG 1.1//EN"
  "http://www.w3.org/Graphics/SVG/1.1/DTD/svg11.dtd">
<!-- Created with matplotlib (https://matplotlib.org/) -->
<svg height="80.76pt" version="1.1" viewBox="0 0 249.6 80.76" width="249.6pt" xmlns="http://www.w3.org/2000/svg" xmlns:xlink="http://www.w3.org/1999/xlink">
 <defs>
  <style type="text/css">
*{stroke-linecap:butt;stroke-linejoin:round;}
  </style>
 </defs>
 <g id="figure_1">
  <g id="patch_1">
   <path d="M 0 80.76 
L 249.6 80.76 
L 249.6 0 
L 0 0 
z
" style="fill:none;"/>
  </g>
  <g id="axes_1">
   <g id="patch_2">
    <path d="M 13.2 67.56 
L 236.4 67.56 
L 236.4 13.2 
L 13.2 13.2 
z
" style="fill:none;"/>
   </g>
   <g id="matplotlib.axis_1"/>
   <g id="matplotlib.axis_2">
    <g id="ytick_1">
     <g id="line2d_1">
      <path clip-path="url(#p2a21941dd9)" d="M 13.2 14.265882 
L 236.4 14.265882 
" style="fill:none;stroke:#cccccc;stroke-linecap:round;stroke-width:1.5;"/>
     </g>
    </g>
   </g>
   <g id="line2d_2">
    <path clip-path="url(#p2a21941dd9)" d="M 26.781837 56.441902 
L 28.782208 61.357828 
L 30.782579 59.366932 
L 32.782949 60.719065 
L 34.78332 58.040459 
L 36.783691 61.830751 
L 38.784061 63.946859 
L 40.784432 62.131945 
L 42.784803 61.370863 
L 44.785173 56.422136 
L 46.785544 63.720158 
L 48.785915 61.923184 
L 50.786285 58.580093 
L 52.786656 58.071033 
L 54.787027 59.118086 
L 56.787397 63.362762 
L 58.787768 64.080172 
L 60.788139 61.320199 
L 62.788509 56.609116 
L 64.78888 59.273818 
L 66.789251 60.633169 
L 68.789621 59.838149 
L 70.789992 59.244663 
L 72.790363 58.820996 
L 74.790733 58.96596 
L 76.791104 60.871794 
L 78.791475 62.304417 
L 80.791845 60.308164 
L 82.792216 62.89065 
L 84.792587 61.927383 
L 86.792957 59.77365 
L 88.793328 59.954113 
L 90.793699 62.74772 
L 92.794069 59.244113 
L 94.79444 59.9335 
L 96.794811 60.508148 
L 98.795181 60.619328 
L 100.795552 61.35057 
L 102.795923 60.063752 
L 104.796293 61.909922 
L 106.796664 59.763923 
L 108.797035 61.041144 
L 110.797405 62.576961 
L 112.797776 60.362171 
L 114.798147 59.805814 
L 116.798517 60.445976 
L 118.798888 60.960217 
L 120.799259 61.173103 
L 122.799629 63.35125 
L 124.8 59.528376 
L 126.800371 61.432622 
L 128.800741 60.356199 
L 130.801112 59.783634 
L 132.801483 60.518058 
L 134.801853 61.459105 
L 136.802224 61.947755 
L 138.802595 61.113737 
L 140.802965 60.932472 
L 142.803336 60.06106 
L 144.803707 58.883905 
L 146.804077 60.109108 
L 148.804448 60.420745 
L 150.804819 59.896678 
L 152.805189 60.298935 
L 154.80556 59.555461 
L 156.805931 59.183882 
L 158.806301 58.095986 
L 160.806672 58.102396 
L 162.807043 57.000581 
L 164.807413 56.349486 
L 166.807784 55.538604 
L 168.808155 54.887566 
L 170.808525 54.00604 
L 172.808896 54.015494 
L 174.809267 52.503993 
L 176.809637 51.885688 
L 178.810008 50.400217 
L 180.810379 49.504623 
L 182.810749 45.881847 
L 184.81112 45.739011 
L 186.811491 44.170253 
L 188.811861 41.939355 
L 190.812232 39.59538 
L 192.812603 37.270675 
L 194.812973 34.931167 
L 196.813344 32.295389 
L 198.813715 29.736172 
L 200.814085 27.913176 
L 202.814456 26.661711 
L 204.814827 25.187165 
L 206.815197 22.69209 
L 208.815568 22.367134 
L 210.815939 21.185295 
L 212.816309 19.957884 
L 214.81668 18.928423 
L 216.817051 18.231667 
L 218.817421 17.705875 
L 220.817792 17.141405 
L 222.818163 16.018345 
" style="fill:none;stroke:#1a1a1a;stroke-linecap:round;stroke-width:4;"/>
   </g>
   <g id="patch_3">
    <path d="M 13.2 67.56 
L 13.2 13.2 
" style="fill:none;stroke:#262626;stroke-linecap:square;stroke-linejoin:miter;stroke-width:1.875;"/>
   </g>
   <g id="patch_4">
    <path d="M 13.2 67.56 
L 236.4 67.56 
" style="fill:none;stroke:#262626;stroke-linecap:square;stroke-linejoin:miter;stroke-width:1.875;"/>
   </g>
  </g>
 </g>
 <defs>
  <clipPath id="p2a21941dd9">
   <rect height="54.36" width="223.2" x="13.2" y="13.2"/>
  </clipPath>
 </defs>
</svg>
