<?xml version="1.0" encoding="utf-8" standalone="no"?>
<!DOCTYPE svg PUBLIC "-//W3C//DTD SVG 1.1//EN"
  "http://www.w3.org/Graphics/SVG/1.1/DTD/svg11.dtd">
<!-- Created with matplotlib (https://matplotlib.org/) -->
<svg height="80.76pt" version="1.1" viewBox="0 0 249.6 80.76" width="249.6pt" xmlns="http://www.w3.org/2000/svg" xmlns:xlink="http://www.w3.org/1999/xlink">
 <defs>
  <style type="text/css">
*{stroke-linecap:butt;stroke-linejoin:round;}
  </style>
 </defs>
 <g id="figure_1">
  <g id="patch_1">
   <path d="M 0 80.76 
L 249.6 80.76 
L 249.6 0 
L 0 0 
z
" style="fill:none;"/>
  </g>
  <g id="axes_1">
   <g id="patch_2">
    <path d="M 13.2 67.56 
L 236.4 67.56 
L 236.4 13.2 
L 13.2 13.2 
z
" style="fill:none;"/>
   </g>
   <g id="matplotlib.axis_1"/>
   <g id="matplotlib.axis_2">
    <g id="ytick_1">
     <g id="line2d_1">
      <path clip-path="url(#pb0aca8a9f4)" d="M 13.2 14.265882 
L 236.4 14.265882 
" style="fill:none;stroke:#cccccc;stroke-linecap:round;stroke-width:1.5;"/>
     </g>
    </g>
   </g>
   <g id="line2d_2">
    <path clip-path="url(#pb0aca8a9f4)" d="M 26.266836 41.204331 
L 28.277717 37.59205 
L 30.288597 46.315926 
L 32.299478 44.036755 
L 34.310359 43.873955 
L 36.32124 44.217813 
L 38.332121 40.422911 
L 40.343002 44.456101 
L 42.353883 40.352794 
L 44.364764 43.104297 
L 46.375645 41.028121 
L 48.386526 39.87011 
L 50.397407 41.968461 
L 52.408287 43.023137 
L 54.419168 40.065145 
L 56.430049 38.530349 
L 58.44093 38.283801 
L 60.451811 36.121993 
L 62.462692 39.798562 
L 64.473573 38.48099 
L 66.484454 40.665975 
L 68.495335 39.915563 
L 70.506216 38.725743 
L 72.517096 39.209328 
L 74.527977 38.761153 
L 76.538858 38.25468 
L 78.549739 34.661565 
L 80.56062 37.224291 
L 82.571501 36.704448 
L 84.582382 35.120608 
L 86.593263 36.491463 
L 88.604144 37.180017 
L 90.615025 37.181845 
L 92.625906 35.156069 
L 94.636786 35.635892 
L 96.647667 34.490069 
L 98.658548 35.216564 
L 100.669429 35.867516 
L 102.68031 34.924867 
L 104.691191 35.725877 
L 106.702072 33.16953 
L 108.712953 34.3926 
L 110.723834 36.018539 
L 112.734715 34.198742 
L 114.745595 33.538422 
L 116.756476 35.140047 
L 118.767357 34.591377 
L 120.778238 35.083957 
L 122.789119 32.943549 
L 124.8 34.03826 
L 126.810881 33.870559 
L 128.821762 34.152523 
L 130.832643 34.337811 
L 132.843524 35.708501 
L 134.854405 35.168444 
L 136.865285 35.762452 
L 138.876166 35.410098 
L 140.887047 35.573371 
L 142.897928 34.868551 
L 144.908809 36.048877 
L 146.91969 35.346764 
L 148.930571 35.833775 
L 150.941452 37.792444 
L 152.952333 37.99462 
L 154.963214 38.265781 
L 156.974094 36.252538 
L 158.984975 39.448238 
L 160.995856 40.250644 
L 163.006737 39.60614 
L 165.017618 39.485701 
L 167.028499 39.885134 
L 169.03938 39.81833 
L 171.050261 41.243216 
L 173.061142 40.788742 
L 175.072023 41.587135 
L 177.082904 42.190806 
L 179.093784 42.39182 
L 181.104665 44.636601 
L 183.115546 42.817088 
L 185.126427 43.95744 
L 187.137308 43.645096 
L 189.148189 46.195276 
L 191.15907 45.150822 
L 193.169951 47.318929 
L 195.180832 47.414039 
L 197.191713 46.500867 
L 199.202593 47.144469 
L 201.213474 49.210832 
L 203.224355 47.998154 
L 205.235236 50.759291 
L 207.246117 54.68259 
L 209.256998 49.892408 
L 211.267879 52.873098 
L 213.27876 55.106744 
L 215.289641 50.724729 
L 217.300522 51.994527 
L 219.311403 54.514685 
L 221.322283 54.568048 
L 223.333164 48.525181 
" style="fill:none;stroke:#1a1a1a;stroke-linecap:round;stroke-width:4;"/>
   </g>
   <g id="patch_3">
    <path d="M 13.2 67.56 
L 13.2 13.2 
" style="fill:none;stroke:#262626;stroke-linecap:square;stroke-linejoin:miter;stroke-width:1.875;"/>
   </g>
   <g id="patch_4">
    <path d="M 13.2 67.56 
L 236.4 67.56 
" style="fill:none;stroke:#262626;stroke-linecap:square;stroke-linejoin:miter;stroke-width:1.875;"/>
   </g>
  </g>
 </g>
 <defs>
  <clipPath id="pb0aca8a9f4">
   <rect height="54.36" width="223.2" x="13.2" y="13.2"/>
  </clipPath>
 </defs>
</svg>
