<?xml version="1.0" encoding="utf-8" standalone="no"?>
<!DOCTYPE svg PUBLIC "-//W3C//DTD SVG 1.1//EN"
  "http://www.w3.org/Graphics/SVG/1.1/DTD/svg11.dtd">
<!-- Created with matplotlib (http://matplotlib.org/) -->
<svg height="80pt" version="1.1" viewBox="0 0 249 80" width="249pt" xmlns="http://www.w3.org/2000/svg" xmlns:xlink="http://www.w3.org/1999/xlink">
 <defs>
  <style type="text/css">
*{stroke-linecap:butt;stroke-linejoin:round;}
  </style>
 </defs>
 <g id="figure_1">
  <g id="patch_1">
   <path d="M 0 80.76 
L 249.6 80.76 
L 249.6 0 
L 0 0 
z
" style="fill:none;"/>
  </g>
  <g id="axes_1">
   <g id="patch_2">
    <path d="M 13.2 67.56 
L 236.4 67.56 
L 236.4 13.2 
L 13.2 13.2 
z
" style="fill:none;"/>
   </g>
   <g id="matplotlib.axis_1"/>
   <g id="matplotlib.axis_2">
    <g id="ytick_1">
     <g id="line2d_1">
      <path clip-path="url(#p9ad31b7d1a)" d="M 13.2 14.265882 
L 236.4 14.265882 
" style="fill:none;stroke:#cccccc;stroke-linecap:round;stroke-width:1.5;"/>
     </g>
    </g>
   </g>
   <g id="line2d_2">
    <path clip-path="url(#p9ad31b7d1a)" d="M 27.554074 61.964589 
L 29.538685 62.555584 
L 31.523296 64.307609 
L 33.507907 61.024814 
L 35.492517 63.114435 
L 37.477128 64.779577 
L 39.461739 61.353482 
L 41.44635 57.097303 
L 43.43096 63.474735 
L 45.415571 62.09916 
L 47.400182 59.4538 
L 49.384792 63.398381 
L 51.369403 61.073511 
L 53.354014 63.190717 
L 55.338625 59.484386 
L 57.323235 62.217284 
L 59.307846 61.628301 
L 61.292457 56.024306 
L 63.277068 60.692051 
L 65.261678 59.964802 
L 67.246289 60.723835 
L 69.2309 63.616219 
L 71.21551 61.225736 
L 73.200121 60.730392 
L 75.184732 61.371916 
L 77.169343 58.092477 
L 79.153953 57.533091 
L 81.138564 57.264231 
L 83.123175 58.89413 
L 85.107785 59.10046 
L 87.092396 57.383408 
L 89.077007 59.040284 
L 91.061618 55.797045 
L 93.046228 57.774869 
L 95.030839 61.608269 
L 97.01545 60.74942 
L 99.000061 62.149023 
L 100.984671 61.151136 
L 102.969282 61.141451 
L 104.953893 62.621119 
L 106.938503 60.705459 
L 108.923114 60.759705 
L 110.907725 62.105713 
L 112.892336 59.702911 
L 114.876946 62.434769 
L 116.861557 60.551309 
L 118.846168 61.425664 
L 120.830779 61.982922 
L 122.815389 60.91846 
L 124.8 61.510362 
L 126.784611 60.478003 
L 128.769221 61.504549 
L 130.753832 60.763541 
L 132.738443 61.334499 
L 134.723054 61.528721 
L 136.707664 60.375815 
L 138.692275 59.853153 
L 140.676886 58.965646 
L 142.661497 59.643962 
L 144.646107 58.395197 
L 146.630718 60.673259 
L 148.615329 60.209811 
L 150.599939 60.239673 
L 152.58455 59.780417 
L 154.569161 59.910567 
L 156.553772 59.784426 
L 158.538382 58.983347 
L 160.522993 57.263843 
L 162.507604 56.906098 
L 164.492215 55.923148 
L 166.476825 55.065413 
L 168.461436 53.091771 
L 170.446047 53.233509 
L 172.430657 51.466061 
L 174.415268 50.21089 
L 176.399879 49.563408 
L 178.38449 47.154494 
L 180.3691 45.171561 
L 182.353711 43.620546 
L 184.338322 42.449369 
L 186.322932 40.476441 
L 188.307543 38.746815 
L 190.292154 35.474037 
L 192.276765 33.304858 
L 194.261375 33.946906 
L 196.245986 32.345912 
L 198.230597 29.592611 
L 200.215208 28.577593 
L 202.199818 26.36635 
L 204.184429 25.216831 
L 206.16904 23.63513 
L 208.15365 22.104602 
L 210.138261 20.943661 
L 212.122872 20.575978 
L 214.107483 19.791025 
L 216.092093 18.970819 
L 218.076704 18.275467 
L 220.061315 17.95616 
L 222.045926 17.130684 
" style="fill:none;stroke:#1a1a1a;stroke-linecap:round;stroke-width:4;"/>
   </g>
   <g id="patch_3">
    <path d="M 13.2 67.56 
L 13.2 13.2 
" style="fill:none;stroke:#262626;stroke-linecap:square;stroke-linejoin:miter;stroke-width:1.875;"/>
   </g>
   <g id="patch_4">
    <path d="M 13.2 67.56 
L 236.4 67.56 
" style="fill:none;stroke:#262626;stroke-linecap:square;stroke-linejoin:miter;stroke-width:1.875;"/>
   </g>
  </g>
 </g>
 <defs>
  <clipPath id="p9ad31b7d1a">
   <rect height="54.36" width="223.2" x="13.2" y="13.2"/>
  </clipPath>
 </defs>
</svg>
