<?xml version="1.0" encoding="utf-8" standalone="no"?>
<!DOCTYPE svg PUBLIC "-//W3C//DTD SVG 1.1//EN"
  "http://www.w3.org/Graphics/SVG/1.1/DTD/svg11.dtd">
<!-- Created with matplotlib (http://matplotlib.org/) -->
<svg height="80pt" version="1.1" viewBox="0 0 249 80" width="249pt" xmlns="http://www.w3.org/2000/svg" xmlns:xlink="http://www.w3.org/1999/xlink">
 <defs>
  <style type="text/css">
*{stroke-linecap:butt;stroke-linejoin:round;}
  </style>
 </defs>
 <g id="figure_1">
  <g id="patch_1">
   <path d="M 0 80.76 
L 249.6 80.76 
L 249.6 0 
L 0 0 
z
" style="fill:none;"/>
  </g>
  <g id="axes_1">
   <g id="patch_2">
    <path d="M 13.2 67.56 
L 236.4 67.56 
L 236.4 13.2 
L 13.2 13.2 
z
" style="fill:none;"/>
   </g>
   <g id="matplotlib.axis_1"/>
   <g id="matplotlib.axis_2">
    <g id="ytick_1">
     <g id="line2d_1">
      <path clip-path="url(#pea35df7950)" d="M 13.2 14.265882 
L 236.4 14.265882 
" style="fill:none;stroke:#cccccc;stroke-linecap:round;stroke-width:1.5;"/>
     </g>
    </g>
   </g>
   <g id="line2d_2">
    <path clip-path="url(#pea35df7950)" d="M 26.781888 56.441902 
L 28.782257 61.357828 
L 30.782627 59.366932 
L 32.782997 60.719065 
L 34.783366 58.040459 
L 36.783736 61.830751 
L 38.784105 63.946859 
L 40.784475 62.131945 
L 42.784845 61.370863 
L 44.785214 56.422136 
L 46.785584 63.720158 
L 48.785954 61.923184 
L 50.786323 58.580093 
L 52.786693 58.071033 
L 54.787063 59.118086 
L 56.787432 63.362762 
L 58.787802 64.080172 
L 60.788172 61.320199 
L 62.788541 56.609116 
L 64.788911 59.273818 
L 66.78928 60.633169 
L 68.78965 59.838149 
L 70.79002 59.244663 
L 72.790389 58.820996 
L 74.790759 58.96596 
L 76.791129 60.871794 
L 78.791498 62.304417 
L 80.791868 60.308164 
L 82.792238 62.89065 
L 84.792607 61.927383 
L 86.792977 59.77365 
L 88.793346 59.954113 
L 90.793716 62.74772 
L 92.794086 59.244113 
L 94.794455 59.9335 
L 96.794825 60.508148 
L 98.795195 60.619328 
L 100.795564 61.35057 
L 102.795934 60.063752 
L 104.796304 61.909922 
L 106.796673 59.763923 
L 108.797043 61.041144 
L 110.797413 62.576961 
L 112.797782 60.362171 
L 114.798152 59.805814 
L 116.798521 60.445976 
L 118.798891 60.960217 
L 120.799261 61.173103 
L 122.79963 63.35125 
L 124.8 59.528376 
L 126.80037 61.432622 
L 128.800739 60.356199 
L 130.801109 59.783634 
L 132.801479 60.518058 
L 134.801848 61.658534 
L 136.802218 61.750566 
L 138.802587 61.113737 
L 140.802957 60.932472 
L 142.803327 60.06106 
L 144.803696 58.883905 
L 146.804066 60.087697 
L 148.804436 60.438901 
L 150.804805 59.896678 
L 152.805175 60.298935 
L 154.805545 59.555461 
L 156.805914 59.183882 
L 158.806284 58.095986 
L 160.806654 58.102396 
L 162.807023 57.000581 
L 164.807393 56.349486 
L 166.807762 55.538604 
L 168.808132 54.869558 
L 170.808502 54.023925 
L 172.808871 54.015494 
L 174.809241 52.503993 
L 176.809611 51.885688 
L 178.80998 50.360528 
L 180.81035 49.54098 
L 182.81072 45.881847 
L 184.811089 45.739011 
L 186.811459 44.170253 
L 188.811828 41.919403 
L 190.812198 39.597094 
L 192.812568 37.28397 
L 194.812937 34.912671 
L 196.813307 32.314376 
L 198.813677 29.736172 
L 200.814046 27.913176 
L 202.814416 26.661711 
L 204.814786 25.187165 
L 206.815155 22.69209 
L 208.815525 22.367134 
L 210.815895 21.185295 
L 212.816264 19.957884 
L 214.816634 18.928423 
L 216.817003 18.231667 
L 218.817373 17.705875 
L 220.817743 17.141405 
L 222.818112 16.018345 
" style="fill:none;stroke:#1a1a1a;stroke-linecap:round;stroke-width:4;"/>
   </g>
   <g id="patch_3">
    <path d="M 13.2 67.56 
L 13.2 13.2 
" style="fill:none;stroke:#262626;stroke-linecap:square;stroke-linejoin:miter;stroke-width:1.875;"/>
   </g>
   <g id="patch_4">
    <path d="M 13.2 67.56 
L 236.4 67.56 
" style="fill:none;stroke:#262626;stroke-linecap:square;stroke-linejoin:miter;stroke-width:1.875;"/>
   </g>
  </g>
 </g>
 <defs>
  <clipPath id="pea35df7950">
   <rect height="54.36" width="223.2" x="13.2" y="13.2"/>
  </clipPath>
 </defs>
</svg>
