<?xml version="1.0" encoding="utf-8" standalone="no"?>
<!DOCTYPE svg PUBLIC "-//W3C//DTD SVG 1.1//EN"
  "http://www.w3.org/Graphics/SVG/1.1/DTD/svg11.dtd">
<!-- Created with matplotlib (https://matplotlib.org/) -->
<svg height="269.308906pt" version="1.1" viewBox="0 0 787.540156 269.308906" width="787.540156pt" xmlns="http://www.w3.org/2000/svg" xmlns:xlink="http://www.w3.org/1999/xlink">
 <defs>
  <style type="text/css">
*{stroke-linecap:butt;stroke-linejoin:round;}
  </style>
 </defs>
 <g id="figure_1">
  <g id="patch_1">
   <path d="M 0 269.308906 
L 787.540156 269.308906 
L 787.540156 0 
L 0 0 
z
" style="fill:none;"/>
  </g>
  <g id="axes_1">
   <g id="patch_2">
    <path d="M 45.940156 233.64 
L 375.667429 233.64 
L 375.667429 16.2 
L 45.940156 16.2 
z
" style="fill:none;"/>
   </g>
   <g id="matplotlib.axis_1">
    <g id="xtick_1">
     <g id="text_1">
      <!-- 1 -->
      <defs>
       <path d="M 12.40625 8.296875 
L 28.515625 8.296875 
L 28.515625 63.921875 
L 10.984375 60.40625 
L 10.984375 69.390625 
L 28.421875 72.90625 
L 38.28125 72.90625 
L 38.28125 8.296875 
L 54.390625 8.296875 
L 54.390625 0 
L 12.40625 0 
z
" id="DejaVuSans-49"/>
      </defs>
      <g style="fill:#262626;" transform="translate(55.678697 258.677422)scale(0.165 -0.165)">
       <use xlink:href="#DejaVuSans-49"/>
      </g>
     </g>
    </g>
    <g id="xtick_2">
     <g id="text_2">
      <!-- 3 -->
      <defs>
       <path d="M 40.578125 39.3125 
Q 47.65625 37.796875 51.625 33 
Q 55.609375 28.21875 55.609375 21.1875 
Q 55.609375 10.40625 48.1875 4.484375 
Q 40.765625 -1.421875 27.09375 -1.421875 
Q 22.515625 -1.421875 17.65625 -0.515625 
Q 12.796875 0.390625 7.625 2.203125 
L 7.625 11.71875 
Q 11.71875 9.328125 16.59375 8.109375 
Q 21.484375 6.890625 26.8125 6.890625 
Q 36.078125 6.890625 40.9375 10.546875 
Q 45.796875 14.203125 45.796875 21.1875 
Q 45.796875 27.640625 41.28125 31.265625 
Q 36.765625 34.90625 28.71875 34.90625 
L 20.21875 34.90625 
L 20.21875 43.015625 
L 29.109375 43.015625 
Q 36.375 43.015625 40.234375 45.921875 
Q 44.09375 48.828125 44.09375 54.296875 
Q 44.09375 59.90625 40.109375 62.90625 
Q 36.140625 65.921875 28.71875 65.921875 
Q 24.65625 65.921875 20.015625 65.03125 
Q 15.375 64.15625 9.8125 62.3125 
L 9.8125 71.09375 
Q 15.4375 72.65625 20.34375 73.4375 
Q 25.25 74.21875 29.59375 74.21875 
Q 40.828125 74.21875 47.359375 69.109375 
Q 53.90625 64.015625 53.90625 55.328125 
Q 53.90625 49.265625 50.4375 45.09375 
Q 46.96875 40.921875 40.578125 39.3125 
z
" id="DejaVuSans-51"/>
      </defs>
      <g style="fill:#262626;" transform="translate(98.500421 258.677422)scale(0.165 -0.165)">
       <use xlink:href="#DejaVuSans-51"/>
      </g>
     </g>
    </g>
    <g id="xtick_3">
     <g id="text_3">
      <!-- 5 -->
      <defs>
       <path d="M 10.796875 72.90625 
L 49.515625 72.90625 
L 49.515625 64.59375 
L 19.828125 64.59375 
L 19.828125 46.734375 
Q 21.96875 47.46875 24.109375 47.828125 
Q 26.265625 48.1875 28.421875 48.1875 
Q 40.625 48.1875 47.75 41.5 
Q 54.890625 34.8125 54.890625 23.390625 
Q 54.890625 11.625 47.5625 5.09375 
Q 40.234375 -1.421875 26.90625 -1.421875 
Q 22.3125 -1.421875 17.546875 -0.640625 
Q 12.796875 0.140625 7.71875 1.703125 
L 7.71875 11.625 
Q 12.109375 9.234375 16.796875 8.0625 
Q 21.484375 6.890625 26.703125 6.890625 
Q 35.15625 6.890625 40.078125 11.328125 
Q 45.015625 15.765625 45.015625 23.390625 
Q 45.015625 31 40.078125 35.4375 
Q 35.15625 39.890625 26.703125 39.890625 
Q 22.75 39.890625 18.8125 39.015625 
Q 14.890625 38.140625 10.796875 36.28125 
z
" id="DejaVuSans-53"/>
      </defs>
      <g style="fill:#262626;" transform="translate(141.322145 258.677422)scale(0.165 -0.165)">
       <use xlink:href="#DejaVuSans-53"/>
      </g>
     </g>
    </g>
    <g id="xtick_4">
     <g id="text_4">
      <!-- 7 -->
      <defs>
       <path d="M 8.203125 72.90625 
L 55.078125 72.90625 
L 55.078125 68.703125 
L 28.609375 0 
L 18.3125 0 
L 43.21875 64.59375 
L 8.203125 64.59375 
z
" id="DejaVuSans-55"/>
      </defs>
      <g style="fill:#262626;" transform="translate(184.143868 258.677422)scale(0.165 -0.165)">
       <use xlink:href="#DejaVuSans-55"/>
      </g>
     </g>
    </g>
    <g id="xtick_5">
     <g id="text_5">
      <!-- 9 -->
      <defs>
       <path d="M 10.984375 1.515625 
L 10.984375 10.5 
Q 14.703125 8.734375 18.5 7.8125 
Q 22.3125 6.890625 25.984375 6.890625 
Q 35.75 6.890625 40.890625 13.453125 
Q 46.046875 20.015625 46.78125 33.40625 
Q 43.953125 29.203125 39.59375 26.953125 
Q 35.25 24.703125 29.984375 24.703125 
Q 19.046875 24.703125 12.671875 31.3125 
Q 6.296875 37.9375 6.296875 49.421875 
Q 6.296875 60.640625 12.9375 67.421875 
Q 19.578125 74.21875 30.609375 74.21875 
Q 43.265625 74.21875 49.921875 64.515625 
Q 56.59375 54.828125 56.59375 36.375 
Q 56.59375 19.140625 48.40625 8.859375 
Q 40.234375 -1.421875 26.421875 -1.421875 
Q 22.703125 -1.421875 18.890625 -0.6875 
Q 15.09375 0.046875 10.984375 1.515625 
z
M 30.609375 32.421875 
Q 37.25 32.421875 41.125 36.953125 
Q 45.015625 41.5 45.015625 49.421875 
Q 45.015625 57.28125 41.125 61.84375 
Q 37.25 66.40625 30.609375 66.40625 
Q 23.96875 66.40625 20.09375 61.84375 
Q 16.21875 57.28125 16.21875 49.421875 
Q 16.21875 41.5 20.09375 36.953125 
Q 23.96875 32.421875 30.609375 32.421875 
z
" id="DejaVuSans-57"/>
      </defs>
      <g style="fill:#262626;" transform="translate(226.965592 258.677422)scale(0.165 -0.165)">
       <use xlink:href="#DejaVuSans-57"/>
      </g>
     </g>
    </g>
    <g id="xtick_6">
     <g id="text_6">
      <!-- 11 -->
      <g style="fill:#262626;" transform="translate(264.538253 258.677422)scale(0.165 -0.165)">
       <use xlink:href="#DejaVuSans-49"/>
       <use x="63.623047" xlink:href="#DejaVuSans-49"/>
      </g>
     </g>
    </g>
    <g id="xtick_7">
     <g id="text_7">
      <!-- 13 -->
      <g style="fill:#262626;" transform="translate(307.359977 258.677422)scale(0.165 -0.165)">
       <use xlink:href="#DejaVuSans-49"/>
       <use x="63.623047" xlink:href="#DejaVuSans-51"/>
      </g>
     </g>
    </g>
    <g id="xtick_8">
     <g id="text_8">
      <!-- 15 -->
      <g style="fill:#262626;" transform="translate(350.181701 258.677422)scale(0.165 -0.165)">
       <use xlink:href="#DejaVuSans-49"/>
       <use x="63.623047" xlink:href="#DejaVuSans-53"/>
      </g>
     </g>
    </g>
   </g>
   <g id="matplotlib.axis_2">
    <g id="ytick_1">
     <g id="text_9">
      <!-- 0.0 -->
      <defs>
       <path d="M 31.78125 66.40625 
Q 24.171875 66.40625 20.328125 58.90625 
Q 16.5 51.421875 16.5 36.375 
Q 16.5 21.390625 20.328125 13.890625 
Q 24.171875 6.390625 31.78125 6.390625 
Q 39.453125 6.390625 43.28125 13.890625 
Q 47.125 21.390625 47.125 36.375 
Q 47.125 51.421875 43.28125 58.90625 
Q 39.453125 66.40625 31.78125 66.40625 
z
M 31.78125 74.21875 
Q 44.046875 74.21875 50.515625 64.515625 
Q 56.984375 54.828125 56.984375 36.375 
Q 56.984375 17.96875 50.515625 8.265625 
Q 44.046875 -1.421875 31.78125 -1.421875 
Q 19.53125 -1.421875 13.0625 8.265625 
Q 6.59375 17.96875 6.59375 36.375 
Q 6.59375 54.828125 13.0625 64.515625 
Q 19.53125 74.21875 31.78125 74.21875 
z
" id="DejaVuSans-48"/>
       <path d="M 10.6875 12.40625 
L 21 12.40625 
L 21 0 
L 10.6875 0 
z
" id="DejaVuSans-46"/>
      </defs>
      <g style="fill:#262626;" transform="translate(7.2 229.140023)scale(0.165 -0.165)">
       <use xlink:href="#DejaVuSans-48"/>
       <use x="63.623047" xlink:href="#DejaVuSans-46"/>
       <use x="95.410156" xlink:href="#DejaVuSans-48"/>
      </g>
     </g>
    </g>
    <g id="ytick_2">
     <g id="text_10">
      <!-- 0.2 -->
      <defs>
       <path d="M 19.1875 8.296875 
L 53.609375 8.296875 
L 53.609375 0 
L 7.328125 0 
L 7.328125 8.296875 
Q 12.9375 14.109375 22.625 23.890625 
Q 32.328125 33.6875 34.8125 36.53125 
Q 39.546875 41.84375 41.421875 45.53125 
Q 43.3125 49.21875 43.3125 52.78125 
Q 43.3125 58.59375 39.234375 62.25 
Q 35.15625 65.921875 28.609375 65.921875 
Q 23.96875 65.921875 18.8125 64.3125 
Q 13.671875 62.703125 7.8125 59.421875 
L 7.8125 69.390625 
Q 13.765625 71.78125 18.9375 73 
Q 24.125 74.21875 28.421875 74.21875 
Q 39.75 74.21875 46.484375 68.546875 
Q 53.21875 62.890625 53.21875 53.421875 
Q 53.21875 48.921875 51.53125 44.890625 
Q 49.859375 40.875 45.40625 35.40625 
Q 44.1875 33.984375 37.640625 27.21875 
Q 31.109375 20.453125 19.1875 8.296875 
z
" id="DejaVuSans-50"/>
      </defs>
      <g style="fill:#262626;" transform="translate(7.2 179.358987)scale(0.165 -0.165)">
       <use xlink:href="#DejaVuSans-48"/>
       <use x="63.623047" xlink:href="#DejaVuSans-46"/>
       <use x="95.410156" xlink:href="#DejaVuSans-50"/>
      </g>
     </g>
    </g>
    <g id="ytick_3">
     <g id="text_11">
      <!-- 0.4 -->
      <defs>
       <path d="M 37.796875 64.3125 
L 12.890625 25.390625 
L 37.796875 25.390625 
z
M 35.203125 72.90625 
L 47.609375 72.90625 
L 47.609375 25.390625 
L 58.015625 25.390625 
L 58.015625 17.1875 
L 47.609375 17.1875 
L 47.609375 0 
L 37.796875 0 
L 37.796875 17.1875 
L 4.890625 17.1875 
L 4.890625 26.703125 
z
" id="DejaVuSans-52"/>
      </defs>
      <g style="fill:#262626;" transform="translate(7.2 129.577951)scale(0.165 -0.165)">
       <use xlink:href="#DejaVuSans-48"/>
       <use x="63.623047" xlink:href="#DejaVuSans-46"/>
       <use x="95.410156" xlink:href="#DejaVuSans-52"/>
      </g>
     </g>
    </g>
    <g id="ytick_4">
     <g id="text_12">
      <!-- 0.6 -->
      <defs>
       <path d="M 33.015625 40.375 
Q 26.375 40.375 22.484375 35.828125 
Q 18.609375 31.296875 18.609375 23.390625 
Q 18.609375 15.53125 22.484375 10.953125 
Q 26.375 6.390625 33.015625 6.390625 
Q 39.65625 6.390625 43.53125 10.953125 
Q 47.40625 15.53125 47.40625 23.390625 
Q 47.40625 31.296875 43.53125 35.828125 
Q 39.65625 40.375 33.015625 40.375 
z
M 52.59375 71.296875 
L 52.59375 62.3125 
Q 48.875 64.0625 45.09375 64.984375 
Q 41.3125 65.921875 37.59375 65.921875 
Q 27.828125 65.921875 22.671875 59.328125 
Q 17.53125 52.734375 16.796875 39.40625 
Q 19.671875 43.65625 24.015625 45.921875 
Q 28.375 48.1875 33.59375 48.1875 
Q 44.578125 48.1875 50.953125 41.515625 
Q 57.328125 34.859375 57.328125 23.390625 
Q 57.328125 12.15625 50.6875 5.359375 
Q 44.046875 -1.421875 33.015625 -1.421875 
Q 20.359375 -1.421875 13.671875 8.265625 
Q 6.984375 17.96875 6.984375 36.375 
Q 6.984375 53.65625 15.1875 63.9375 
Q 23.390625 74.21875 37.203125 74.21875 
Q 40.921875 74.21875 44.703125 73.484375 
Q 48.484375 72.75 52.59375 71.296875 
z
" id="DejaVuSans-54"/>
      </defs>
      <g style="fill:#262626;" transform="translate(7.2 79.796914)scale(0.165 -0.165)">
       <use xlink:href="#DejaVuSans-48"/>
       <use x="63.623047" xlink:href="#DejaVuSans-46"/>
       <use x="95.410156" xlink:href="#DejaVuSans-54"/>
      </g>
     </g>
    </g>
    <g id="ytick_5">
     <g id="text_13">
      <!-- 0.8 -->
      <defs>
       <path d="M 31.78125 34.625 
Q 24.75 34.625 20.71875 30.859375 
Q 16.703125 27.09375 16.703125 20.515625 
Q 16.703125 13.921875 20.71875 10.15625 
Q 24.75 6.390625 31.78125 6.390625 
Q 38.8125 6.390625 42.859375 10.171875 
Q 46.921875 13.96875 46.921875 20.515625 
Q 46.921875 27.09375 42.890625 30.859375 
Q 38.875 34.625 31.78125 34.625 
z
M 21.921875 38.8125 
Q 15.578125 40.375 12.03125 44.71875 
Q 8.5 49.078125 8.5 55.328125 
Q 8.5 64.0625 14.71875 69.140625 
Q 20.953125 74.21875 31.78125 74.21875 
Q 42.671875 74.21875 48.875 69.140625 
Q 55.078125 64.0625 55.078125 55.328125 
Q 55.078125 49.078125 51.53125 44.71875 
Q 48 40.375 41.703125 38.8125 
Q 48.828125 37.15625 52.796875 32.3125 
Q 56.78125 27.484375 56.78125 20.515625 
Q 56.78125 9.90625 50.3125 4.234375 
Q 43.84375 -1.421875 31.78125 -1.421875 
Q 19.734375 -1.421875 13.25 4.234375 
Q 6.78125 9.90625 6.78125 20.515625 
Q 6.78125 27.484375 10.78125 32.3125 
Q 14.796875 37.15625 21.921875 38.8125 
z
M 18.3125 54.390625 
Q 18.3125 48.734375 21.84375 45.5625 
Q 25.390625 42.390625 31.78125 42.390625 
Q 38.140625 42.390625 41.71875 45.5625 
Q 45.3125 48.734375 45.3125 54.390625 
Q 45.3125 60.0625 41.71875 63.234375 
Q 38.140625 66.40625 31.78125 66.40625 
Q 25.390625 66.40625 21.84375 63.234375 
Q 18.3125 60.0625 18.3125 54.390625 
z
" id="DejaVuSans-56"/>
      </defs>
      <g style="fill:#262626;" transform="translate(7.2 30.015878)scale(0.165 -0.165)">
       <use xlink:href="#DejaVuSans-48"/>
       <use x="63.623047" xlink:href="#DejaVuSans-46"/>
       <use x="95.410156" xlink:href="#DejaVuSans-56"/>
      </g>
     </g>
    </g>
   </g>
   <g id="LineCollection_1">
    <path clip-path="url(#p6ad9eb04ce)" d="M 60.92776 177.65628 
L 60.92776 165.677017 
" style="fill:none;stroke:#808080;stroke-width:2.25;"/>
    <path clip-path="url(#p6ad9eb04ce)" d="M 82.338621 178.725298 
L 82.338621 175.380011 
" style="fill:none;stroke:#808080;stroke-width:2.25;"/>
    <path clip-path="url(#p6ad9eb04ce)" d="M 103.749483 194.260851 
L 103.749483 191.399126 
" style="fill:none;stroke:#808080;stroke-width:2.25;"/>
    <path clip-path="url(#p6ad9eb04ce)" d="M 125.160345 207.347774 
L 125.160345 204.822087 
" style="fill:none;stroke:#808080;stroke-width:2.25;"/>
    <path clip-path="url(#p6ad9eb04ce)" d="M 146.571207 215.274891 
L 146.571207 213.108193 
" style="fill:none;stroke:#808080;stroke-width:2.25;"/>
    <path clip-path="url(#p6ad9eb04ce)" d="M 167.982069 219.605282 
L 167.982069 217.682211 
" style="fill:none;stroke:#808080;stroke-width:2.25;"/>
    <path clip-path="url(#p6ad9eb04ce)" d="M 189.392931 221.989803 
L 189.392931 220.402555 
" style="fill:none;stroke:#808080;stroke-width:2.25;"/>
    <path clip-path="url(#p6ad9eb04ce)" d="M 210.803793 222.757198 
L 210.803793 221.160609 
" style="fill:none;stroke:#808080;stroke-width:2.25;"/>
    <path clip-path="url(#p6ad9eb04ce)" d="M 232.214654 223.251791 
L 232.214654 221.696878 
" style="fill:none;stroke:#808080;stroke-width:2.25;"/>
    <path clip-path="url(#p6ad9eb04ce)" d="M 253.625516 222.871313 
L 253.625516 222.871313 
" style="fill:none;stroke:#808080;stroke-width:2.25;"/>
    <path clip-path="url(#p6ad9eb04ce)" d="M 275.036378 222.871313 
L 275.036378 222.871313 
" style="fill:none;stroke:#808080;stroke-width:2.25;"/>
    <path clip-path="url(#p6ad9eb04ce)" d="M 296.44724 222.871313 
L 296.44724 222.871313 
" style="fill:none;stroke:#808080;stroke-width:2.25;"/>
    <path clip-path="url(#p6ad9eb04ce)" d="M 317.858102 222.871313 
L 317.858102 222.871313 
" style="fill:none;stroke:#808080;stroke-width:2.25;"/>
    <path clip-path="url(#p6ad9eb04ce)" d="M 339.268964 222.871313 
L 339.268964 222.871313 
" style="fill:none;stroke:#808080;stroke-width:2.25;"/>
    <path clip-path="url(#p6ad9eb04ce)" d="M 360.679826 222.871313 
L 360.679826 222.871313 
" style="fill:none;stroke:#808080;stroke-width:2.25;"/>
   </g>
   <g id="LineCollection_2">
    <path clip-path="url(#p6ad9eb04ce)" d="M 60.92776 82.679665 
L 60.92776 26.083636 
" style="fill:none;stroke:#1a1a1a;stroke-width:2.25;"/>
    <path clip-path="url(#p6ad9eb04ce)" d="M 82.338621 153.77772 
L 82.338621 116.454841 
" style="fill:none;stroke:#1a1a1a;stroke-width:2.25;"/>
    <path clip-path="url(#p6ad9eb04ce)" d="M 103.749483 186.750161 
L 103.749483 160.348014 
" style="fill:none;stroke:#1a1a1a;stroke-width:2.25;"/>
    <path clip-path="url(#p6ad9eb04ce)" d="M 125.160345 205.213469 
L 125.160345 188.377594 
" style="fill:none;stroke:#1a1a1a;stroke-width:2.25;"/>
    <path clip-path="url(#p6ad9eb04ce)" d="M 146.571207 211.084483 
L 146.571207 196.830607 
" style="fill:none;stroke:#1a1a1a;stroke-width:2.25;"/>
    <path clip-path="url(#p6ad9eb04ce)" d="M 167.982069 215.877433 
L 167.982069 203.137119 
" style="fill:none;stroke:#1a1a1a;stroke-width:2.25;"/>
    <path clip-path="url(#p6ad9eb04ce)" d="M 189.392931 219.24578 
L 189.392931 207.990884 
" style="fill:none;stroke:#1a1a1a;stroke-width:2.25;"/>
    <path clip-path="url(#p6ad9eb04ce)" d="M 210.803793 222.116229 
L 210.803793 212.312524 
" style="fill:none;stroke:#1a1a1a;stroke-width:2.25;"/>
    <path clip-path="url(#p6ad9eb04ce)" d="M 232.214654 219.772088 
L 232.214654 206.638096 
" style="fill:none;stroke:#1a1a1a;stroke-width:2.25;"/>
    <path clip-path="url(#p6ad9eb04ce)" d="M 253.625516 222.871313 
L 253.625516 222.871313 
" style="fill:none;stroke:#1a1a1a;stroke-width:2.25;"/>
    <path clip-path="url(#p6ad9eb04ce)" d="M 275.036378 223.756364 
L 275.036378 206.429687 
" style="fill:none;stroke:#1a1a1a;stroke-width:2.25;"/>
    <path clip-path="url(#p6ad9eb04ce)" d="M 296.44724 222.871313 
L 296.44724 222.871313 
" style="fill:none;stroke:#1a1a1a;stroke-width:2.25;"/>
    <path clip-path="url(#p6ad9eb04ce)" d="M 317.858102 222.871313 
L 317.858102 222.871313 
" style="fill:none;stroke:#1a1a1a;stroke-width:2.25;"/>
    <path clip-path="url(#p6ad9eb04ce)" d="M 339.268964 222.871313 
L 339.268964 222.871313 
" style="fill:none;stroke:#1a1a1a;stroke-width:2.25;"/>
    <path clip-path="url(#p6ad9eb04ce)" d="M 360.679826 222.871313 
L 360.679826 222.871313 
" style="fill:none;stroke:#1a1a1a;stroke-width:2.25;"/>
   </g>
   <g id="line2d_1">
    <path clip-path="url(#p6ad9eb04ce)" d="M 60.92776 171.666649 
L 82.338621 177.052655 
L 103.749483 192.829988 
L 125.160345 206.084931 
L 146.571207 214.191542 
L 167.982069 218.643747 
L 189.392931 221.196179 
L 210.803793 221.958903 
L 232.214654 222.474335 
L 253.625516 222.871313 
L 275.036378 222.871313 
L 296.44724 222.871313 
L 317.858102 222.871313 
L 339.268964 222.871313 
L 360.679826 222.871313 
" style="fill:none;stroke:#808080;stroke-linecap:round;stroke-width:2.25;"/>
    <defs>
     <path d="M 0 4.5 
C 1.193414 4.5 2.338109 4.025852 3.181981 3.181981 
C 4.025852 2.338109 4.5 1.193414 4.5 0 
C 4.5 -1.193414 4.025852 -2.338109 3.181981 -3.181981 
C 2.338109 -4.025852 1.193414 -4.5 0 -4.5 
C -1.193414 -4.5 -2.338109 -4.025852 -3.181981 -3.181981 
C -4.025852 -2.338109 -4.5 -1.193414 -4.5 0 
C -4.5 1.193414 -4.025852 2.338109 -3.181981 3.181981 
C -2.338109 4.025852 -1.193414 4.5 0 4.5 
z
" id="m7fc12c1092" style="stroke:#808080;"/>
    </defs>
    <g clip-path="url(#p6ad9eb04ce)">
     <use style="fill:#808080;stroke:#808080;" x="60.92776" xlink:href="#m7fc12c1092" y="171.666649"/>
     <use style="fill:#808080;stroke:#808080;" x="82.338621" xlink:href="#m7fc12c1092" y="177.052655"/>
     <use style="fill:#808080;stroke:#808080;" x="103.749483" xlink:href="#m7fc12c1092" y="192.829988"/>
     <use style="fill:#808080;stroke:#808080;" x="125.160345" xlink:href="#m7fc12c1092" y="206.084931"/>
     <use style="fill:#808080;stroke:#808080;" x="146.571207" xlink:href="#m7fc12c1092" y="214.191542"/>
     <use style="fill:#808080;stroke:#808080;" x="167.982069" xlink:href="#m7fc12c1092" y="218.643747"/>
     <use style="fill:#808080;stroke:#808080;" x="189.392931" xlink:href="#m7fc12c1092" y="221.196179"/>
     <use style="fill:#808080;stroke:#808080;" x="210.803793" xlink:href="#m7fc12c1092" y="221.958903"/>
     <use style="fill:#808080;stroke:#808080;" x="232.214654" xlink:href="#m7fc12c1092" y="222.474335"/>
     <use style="fill:#808080;stroke:#808080;" x="253.625516" xlink:href="#m7fc12c1092" y="222.871313"/>
     <use style="fill:#808080;stroke:#808080;" x="275.036378" xlink:href="#m7fc12c1092" y="222.871313"/>
     <use style="fill:#808080;stroke:#808080;" x="296.44724" xlink:href="#m7fc12c1092" y="222.871313"/>
     <use style="fill:#808080;stroke:#808080;" x="317.858102" xlink:href="#m7fc12c1092" y="222.871313"/>
     <use style="fill:#808080;stroke:#808080;" x="339.268964" xlink:href="#m7fc12c1092" y="222.871313"/>
     <use style="fill:#808080;stroke:#808080;" x="360.679826" xlink:href="#m7fc12c1092" y="222.871313"/>
    </g>
   </g>
   <g id="line2d_2">
    <path clip-path="url(#p6ad9eb04ce)" d="M 60.92776 54.381651 
L 82.338621 135.11628 
L 103.749483 173.549087 
L 125.160345 196.795532 
L 146.571207 203.957545 
L 167.982069 209.507276 
L 189.392931 213.618332 
L 210.803793 217.214377 
L 232.214654 213.205092 
L 253.625516 222.871313 
L 275.036378 215.093026 
L 296.44724 222.871313 
L 317.858102 222.871313 
L 339.268964 222.871313 
L 360.679826 222.871313 
" style="fill:none;stroke:#1a1a1a;stroke-linecap:round;stroke-width:2.25;"/>
    <defs>
     <path d="M 0 4.5 
C 1.193414 4.5 2.338109 4.025852 3.181981 3.181981 
C 4.025852 2.338109 4.5 1.193414 4.5 0 
C 4.5 -1.193414 4.025852 -2.338109 3.181981 -3.181981 
C 2.338109 -4.025852 1.193414 -4.5 0 -4.5 
C -1.193414 -4.5 -2.338109 -4.025852 -3.181981 -3.181981 
C -4.025852 -2.338109 -4.5 -1.193414 -4.5 0 
C -4.5 1.193414 -4.025852 2.338109 -3.181981 3.181981 
C -2.338109 4.025852 -1.193414 4.5 0 4.5 
z
" id="mbde11cb2d9" style="stroke:#1a1a1a;"/>
    </defs>
    <g clip-path="url(#p6ad9eb04ce)">
     <use style="fill:#1a1a1a;stroke:#1a1a1a;" x="60.92776" xlink:href="#mbde11cb2d9" y="54.381651"/>
     <use style="fill:#1a1a1a;stroke:#1a1a1a;" x="82.338621" xlink:href="#mbde11cb2d9" y="135.11628"/>
     <use style="fill:#1a1a1a;stroke:#1a1a1a;" x="103.749483" xlink:href="#mbde11cb2d9" y="173.549087"/>
     <use style="fill:#1a1a1a;stroke:#1a1a1a;" x="125.160345" xlink:href="#mbde11cb2d9" y="196.795532"/>
     <use style="fill:#1a1a1a;stroke:#1a1a1a;" x="146.571207" xlink:href="#mbde11cb2d9" y="203.957545"/>
     <use style="fill:#1a1a1a;stroke:#1a1a1a;" x="167.982069" xlink:href="#mbde11cb2d9" y="209.507276"/>
     <use style="fill:#1a1a1a;stroke:#1a1a1a;" x="189.392931" xlink:href="#mbde11cb2d9" y="213.618332"/>
     <use style="fill:#1a1a1a;stroke:#1a1a1a;" x="210.803793" xlink:href="#mbde11cb2d9" y="217.214377"/>
     <use style="fill:#1a1a1a;stroke:#1a1a1a;" x="232.214654" xlink:href="#mbde11cb2d9" y="213.205092"/>
     <use style="fill:#1a1a1a;stroke:#1a1a1a;" x="253.625516" xlink:href="#mbde11cb2d9" y="222.871313"/>
     <use style="fill:#1a1a1a;stroke:#1a1a1a;" x="275.036378" xlink:href="#mbde11cb2d9" y="215.093026"/>
     <use style="fill:#1a1a1a;stroke:#1a1a1a;" x="296.44724" xlink:href="#mbde11cb2d9" y="222.871313"/>
     <use style="fill:#1a1a1a;stroke:#1a1a1a;" x="317.858102" xlink:href="#mbde11cb2d9" y="222.871313"/>
     <use style="fill:#1a1a1a;stroke:#1a1a1a;" x="339.268964" xlink:href="#mbde11cb2d9" y="222.871313"/>
     <use style="fill:#1a1a1a;stroke:#1a1a1a;" x="360.679826" xlink:href="#mbde11cb2d9" y="222.871313"/>
    </g>
   </g>
   <g id="patch_3">
    <path d="M 45.940156 233.64 
L 45.940156 16.2 
" style="fill:none;stroke:#262626;stroke-linecap:square;stroke-linejoin:miter;stroke-width:1.875;"/>
   </g>
   <g id="patch_4">
    <path d="M 375.667429 233.64 
L 375.667429 16.2 
" style="fill:none;stroke:#262626;stroke-linecap:square;stroke-linejoin:miter;stroke-width:1.875;"/>
   </g>
   <g id="patch_5">
    <path d="M 45.940156 233.64 
L 375.667429 233.64 
" style="fill:none;stroke:#262626;stroke-linecap:square;stroke-linejoin:miter;stroke-width:1.875;"/>
   </g>
   <g id="patch_6">
    <path d="M 45.940156 16.2 
L 375.667429 16.2 
" style="fill:none;stroke:#262626;stroke-linecap:square;stroke-linejoin:miter;stroke-width:1.875;"/>
   </g>
  </g>
  <g id="axes_2">
   <g id="patch_7">
    <path d="M 441.612884 233.64 
L 771.340156 233.64 
L 771.340156 16.2 
L 441.612884 16.2 
z
" style="fill:none;"/>
   </g>
   <g id="matplotlib.axis_3">
    <g id="xtick_9">
     <g id="text_14">
      <!-- 1 -->
      <g style="fill:#262626;" transform="translate(451.351424 258.677422)scale(0.165 -0.165)">
       <use xlink:href="#DejaVuSans-49"/>
      </g>
     </g>
    </g>
    <g id="xtick_10">
     <g id="text_15">
      <!-- 3 -->
      <g style="fill:#262626;" transform="translate(494.173148 258.677422)scale(0.165 -0.165)">
       <use xlink:href="#DejaVuSans-51"/>
      </g>
     </g>
    </g>
    <g id="xtick_11">
     <g id="text_16">
      <!-- 5 -->
      <g style="fill:#262626;" transform="translate(536.994872 258.677422)scale(0.165 -0.165)">
       <use xlink:href="#DejaVuSans-53"/>
      </g>
     </g>
    </g>
    <g id="xtick_12">
     <g id="text_17">
      <!-- 7 -->
      <g style="fill:#262626;" transform="translate(579.816596 258.677422)scale(0.165 -0.165)">
       <use xlink:href="#DejaVuSans-55"/>
      </g>
     </g>
    </g>
    <g id="xtick_13">
     <g id="text_18">
      <!-- 9 -->
      <g style="fill:#262626;" transform="translate(622.638319 258.677422)scale(0.165 -0.165)">
       <use xlink:href="#DejaVuSans-57"/>
      </g>
     </g>
    </g>
    <g id="xtick_14">
     <g id="text_19">
      <!-- 11 -->
      <g style="fill:#262626;" transform="translate(660.21098 258.677422)scale(0.165 -0.165)">
       <use xlink:href="#DejaVuSans-49"/>
       <use x="63.623047" xlink:href="#DejaVuSans-49"/>
      </g>
     </g>
    </g>
    <g id="xtick_15">
     <g id="text_20">
      <!-- 13 -->
      <g style="fill:#262626;" transform="translate(703.032704 258.677422)scale(0.165 -0.165)">
       <use xlink:href="#DejaVuSans-49"/>
       <use x="63.623047" xlink:href="#DejaVuSans-51"/>
      </g>
     </g>
    </g>
    <g id="xtick_16">
     <g id="text_21">
      <!-- 15 -->
      <g style="fill:#262626;" transform="translate(745.854428 258.677422)scale(0.165 -0.165)">
       <use xlink:href="#DejaVuSans-49"/>
       <use x="63.623047" xlink:href="#DejaVuSans-53"/>
      </g>
     </g>
    </g>
   </g>
   <g id="matplotlib.axis_4">
    <g id="ytick_6">
     <g id="text_22">
      <!-- 0.0 -->
      <g style="fill:#262626;" transform="translate(402.872727 228.914307)scale(0.165 -0.165)">
       <use xlink:href="#DejaVuSans-48"/>
       <use x="63.623047" xlink:href="#DejaVuSans-46"/>
       <use x="95.410156" xlink:href="#DejaVuSans-48"/>
      </g>
     </g>
    </g>
    <g id="ytick_7">
     <g id="text_23">
      <!-- 0.2 -->
      <g style="fill:#262626;" transform="translate(402.872727 166.437519)scale(0.165 -0.165)">
       <use xlink:href="#DejaVuSans-48"/>
       <use x="63.623047" xlink:href="#DejaVuSans-46"/>
       <use x="95.410156" xlink:href="#DejaVuSans-50"/>
      </g>
     </g>
    </g>
    <g id="ytick_8">
     <g id="text_24">
      <!-- 0.4 -->
      <g style="fill:#262626;" transform="translate(402.872727 103.960731)scale(0.165 -0.165)">
       <use xlink:href="#DejaVuSans-48"/>
       <use x="63.623047" xlink:href="#DejaVuSans-46"/>
       <use x="95.410156" xlink:href="#DejaVuSans-52"/>
      </g>
     </g>
    </g>
    <g id="ytick_9">
     <g id="text_25">
      <!-- 0.6 -->
      <g style="fill:#262626;" transform="translate(402.872727 41.483943)scale(0.165 -0.165)">
       <use xlink:href="#DejaVuSans-48"/>
       <use x="63.623047" xlink:href="#DejaVuSans-46"/>
       <use x="95.410156" xlink:href="#DejaVuSans-54"/>
      </g>
     </g>
    </g>
   </g>
   <g id="LineCollection_3">
    <path clip-path="url(#pda0708cc8e)" d="M 456.600487 222.867291 
L 456.600487 221.271193 
" style="fill:none;stroke:#808080;stroke-width:2.25;"/>
    <path clip-path="url(#pda0708cc8e)" d="M 478.011349 222.29336 
L 478.011349 221.824284 
" style="fill:none;stroke:#808080;stroke-width:2.25;"/>
    <path clip-path="url(#pda0708cc8e)" d="M 499.422211 222.360946 
L 499.422211 221.917411 
" style="fill:none;stroke:#808080;stroke-width:2.25;"/>
    <path clip-path="url(#pda0708cc8e)" d="M 520.833072 222.518951 
L 520.833072 222.106604 
" style="fill:none;stroke:#808080;stroke-width:2.25;"/>
    <path clip-path="url(#pda0708cc8e)" d="M 542.243934 222.689529 
L 542.243934 222.510122 
" style="fill:none;stroke:#808080;stroke-width:2.25;"/>
    <path clip-path="url(#pda0708cc8e)" d="M 563.654796 222.645596 
L 563.654796 222.645596 
" style="fill:none;stroke:#808080;stroke-width:2.25;"/>
    <path clip-path="url(#pda0708cc8e)" d="M 585.065658 222.645596 
L 585.065658 222.645596 
" style="fill:none;stroke:#808080;stroke-width:2.25;"/>
    <path clip-path="url(#pda0708cc8e)" d="M 606.47652 222.645596 
L 606.47652 222.645596 
" style="fill:none;stroke:#808080;stroke-width:2.25;"/>
    <path clip-path="url(#pda0708cc8e)" d="M 627.887382 222.645596 
L 627.887382 222.645596 
" style="fill:none;stroke:#808080;stroke-width:2.25;"/>
    <path clip-path="url(#pda0708cc8e)" d="M 649.298244 222.645596 
L 649.298244 222.645596 
" style="fill:none;stroke:#808080;stroke-width:2.25;"/>
    <path clip-path="url(#pda0708cc8e)" d="M 670.709105 222.645596 
L 670.709105 222.645596 
" style="fill:none;stroke:#808080;stroke-width:2.25;"/>
    <path clip-path="url(#pda0708cc8e)" d="M 692.119967 222.645596 
L 692.119967 222.645596 
" style="fill:none;stroke:#808080;stroke-width:2.25;"/>
    <path clip-path="url(#pda0708cc8e)" d="M 713.530829 222.645596 
L 713.530829 222.645596 
" style="fill:none;stroke:#808080;stroke-width:2.25;"/>
    <path clip-path="url(#pda0708cc8e)" d="M 734.941691 222.645596 
L 734.941691 222.645596 
" style="fill:none;stroke:#808080;stroke-width:2.25;"/>
    <path clip-path="url(#pda0708cc8e)" d="M 756.352553 222.645596 
L 756.352553 222.645596 
" style="fill:none;stroke:#808080;stroke-width:2.25;"/>
   </g>
   <g id="LineCollection_4">
    <path clip-path="url(#pda0708cc8e)" d="M 456.600487 102.017709 
L 456.600487 26.083636 
" style="fill:none;stroke:#1a1a1a;stroke-width:2.25;"/>
    <path clip-path="url(#pda0708cc8e)" d="M 478.011349 181.891612 
L 478.011349 143.25191 
" style="fill:none;stroke:#1a1a1a;stroke-width:2.25;"/>
    <path clip-path="url(#pda0708cc8e)" d="M 499.422211 199.926812 
L 499.422211 173.386514 
" style="fill:none;stroke:#1a1a1a;stroke-width:2.25;"/>
    <path clip-path="url(#pda0708cc8e)" d="M 520.833072 210.425226 
L 520.833072 193.214775 
" style="fill:none;stroke:#1a1a1a;stroke-width:2.25;"/>
    <path clip-path="url(#pda0708cc8e)" d="M 542.243934 210.957753 
L 542.243934 194.454638 
" style="fill:none;stroke:#1a1a1a;stroke-width:2.25;"/>
    <path clip-path="url(#pda0708cc8e)" d="M 563.654796 214.676169 
L 563.654796 199.166976 
" style="fill:none;stroke:#1a1a1a;stroke-width:2.25;"/>
    <path clip-path="url(#pda0708cc8e)" d="M 585.065658 218.907207 
L 585.065658 205.480971 
" style="fill:none;stroke:#1a1a1a;stroke-width:2.25;"/>
    <path clip-path="url(#pda0708cc8e)" d="M 606.47652 222.481169 
L 606.47652 211.450608 
" style="fill:none;stroke:#1a1a1a;stroke-width:2.25;"/>
    <path clip-path="url(#pda0708cc8e)" d="M 627.887382 219.75954 
L 627.887382 204.301676 
" style="fill:none;stroke:#1a1a1a;stroke-width:2.25;"/>
    <path clip-path="url(#pda0708cc8e)" d="M 649.298244 222.645596 
L 649.298244 222.645596 
" style="fill:none;stroke:#1a1a1a;stroke-width:2.25;"/>
    <path clip-path="url(#pda0708cc8e)" d="M 670.709105 223.756364 
L 670.709105 202.010833 
" style="fill:none;stroke:#1a1a1a;stroke-width:2.25;"/>
    <path clip-path="url(#pda0708cc8e)" d="M 692.119967 222.645596 
L 692.119967 222.645596 
" style="fill:none;stroke:#1a1a1a;stroke-width:2.25;"/>
    <path clip-path="url(#pda0708cc8e)" d="M 713.530829 222.645596 
L 713.530829 222.645596 
" style="fill:none;stroke:#1a1a1a;stroke-width:2.25;"/>
    <path clip-path="url(#pda0708cc8e)" d="M 734.941691 222.645596 
L 734.941691 222.645596 
" style="fill:none;stroke:#1a1a1a;stroke-width:2.25;"/>
    <path clip-path="url(#pda0708cc8e)" d="M 756.352553 222.645596 
L 756.352553 222.645596 
" style="fill:none;stroke:#1a1a1a;stroke-width:2.25;"/>
   </g>
   <g id="line2d_3">
    <path clip-path="url(#pda0708cc8e)" d="M 456.600487 222.069242 
L 478.011349 222.058822 
L 499.422211 222.139178 
L 520.833072 222.312777 
L 542.243934 222.599826 
L 563.654796 222.645596 
L 585.065658 222.645596 
L 606.47652 222.645596 
L 627.887382 222.645596 
L 649.298244 222.645596 
L 670.709105 222.645596 
L 692.119967 222.645596 
L 713.530829 222.645596 
L 734.941691 222.645596 
L 756.352553 222.645596 
" style="fill:none;stroke:#808080;stroke-linecap:round;stroke-width:2.25;"/>
    <g clip-path="url(#pda0708cc8e)">
     <use style="fill:#808080;stroke:#808080;" x="456.600487" xlink:href="#m7fc12c1092" y="222.069242"/>
     <use style="fill:#808080;stroke:#808080;" x="478.011349" xlink:href="#m7fc12c1092" y="222.058822"/>
     <use style="fill:#808080;stroke:#808080;" x="499.422211" xlink:href="#m7fc12c1092" y="222.139178"/>
     <use style="fill:#808080;stroke:#808080;" x="520.833072" xlink:href="#m7fc12c1092" y="222.312777"/>
     <use style="fill:#808080;stroke:#808080;" x="542.243934" xlink:href="#m7fc12c1092" y="222.599826"/>
     <use style="fill:#808080;stroke:#808080;" x="563.654796" xlink:href="#m7fc12c1092" y="222.645596"/>
     <use style="fill:#808080;stroke:#808080;" x="585.065658" xlink:href="#m7fc12c1092" y="222.645596"/>
     <use style="fill:#808080;stroke:#808080;" x="606.47652" xlink:href="#m7fc12c1092" y="222.645596"/>
     <use style="fill:#808080;stroke:#808080;" x="627.887382" xlink:href="#m7fc12c1092" y="222.645596"/>
     <use style="fill:#808080;stroke:#808080;" x="649.298244" xlink:href="#m7fc12c1092" y="222.645596"/>
     <use style="fill:#808080;stroke:#808080;" x="670.709105" xlink:href="#m7fc12c1092" y="222.645596"/>
     <use style="fill:#808080;stroke:#808080;" x="692.119967" xlink:href="#m7fc12c1092" y="222.645596"/>
     <use style="fill:#808080;stroke:#808080;" x="713.530829" xlink:href="#m7fc12c1092" y="222.645596"/>
     <use style="fill:#808080;stroke:#808080;" x="734.941691" xlink:href="#m7fc12c1092" y="222.645596"/>
     <use style="fill:#808080;stroke:#808080;" x="756.352553" xlink:href="#m7fc12c1092" y="222.645596"/>
    </g>
   </g>
   <g id="line2d_4">
    <path clip-path="url(#pda0708cc8e)" d="M 456.600487 64.050672 
L 478.011349 162.571761 
L 499.422211 186.656663 
L 520.833072 201.82 
L 542.243934 202.706196 
L 563.654796 206.921572 
L 585.065658 212.194089 
L 606.47652 216.965888 
L 627.887382 212.030608 
L 649.298244 222.645596 
L 670.709105 212.883598 
L 692.119967 222.645596 
L 713.530829 222.645596 
L 734.941691 222.645596 
L 756.352553 222.645596 
" style="fill:none;stroke:#1a1a1a;stroke-linecap:round;stroke-width:2.25;"/>
    <g clip-path="url(#pda0708cc8e)">
     <use style="fill:#1a1a1a;stroke:#1a1a1a;" x="456.600487" xlink:href="#mbde11cb2d9" y="64.050672"/>
     <use style="fill:#1a1a1a;stroke:#1a1a1a;" x="478.011349" xlink:href="#mbde11cb2d9" y="162.571761"/>
     <use style="fill:#1a1a1a;stroke:#1a1a1a;" x="499.422211" xlink:href="#mbde11cb2d9" y="186.656663"/>
     <use style="fill:#1a1a1a;stroke:#1a1a1a;" x="520.833072" xlink:href="#mbde11cb2d9" y="201.82"/>
     <use style="fill:#1a1a1a;stroke:#1a1a1a;" x="542.243934" xlink:href="#mbde11cb2d9" y="202.706196"/>
     <use style="fill:#1a1a1a;stroke:#1a1a1a;" x="563.654796" xlink:href="#mbde11cb2d9" y="206.921572"/>
     <use style="fill:#1a1a1a;stroke:#1a1a1a;" x="585.065658" xlink:href="#mbde11cb2d9" y="212.194089"/>
     <use style="fill:#1a1a1a;stroke:#1a1a1a;" x="606.47652" xlink:href="#mbde11cb2d9" y="216.965888"/>
     <use style="fill:#1a1a1a;stroke:#1a1a1a;" x="627.887382" xlink:href="#mbde11cb2d9" y="212.030608"/>
     <use style="fill:#1a1a1a;stroke:#1a1a1a;" x="649.298244" xlink:href="#mbde11cb2d9" y="222.645596"/>
     <use style="fill:#1a1a1a;stroke:#1a1a1a;" x="670.709105" xlink:href="#mbde11cb2d9" y="212.883598"/>
     <use style="fill:#1a1a1a;stroke:#1a1a1a;" x="692.119967" xlink:href="#mbde11cb2d9" y="222.645596"/>
     <use style="fill:#1a1a1a;stroke:#1a1a1a;" x="713.530829" xlink:href="#mbde11cb2d9" y="222.645596"/>
     <use style="fill:#1a1a1a;stroke:#1a1a1a;" x="734.941691" xlink:href="#mbde11cb2d9" y="222.645596"/>
     <use style="fill:#1a1a1a;stroke:#1a1a1a;" x="756.352553" xlink:href="#mbde11cb2d9" y="222.645596"/>
    </g>
   </g>
   <g id="patch_8">
    <path d="M 441.612884 233.64 
L 441.612884 16.2 
" style="fill:none;stroke:#262626;stroke-linecap:square;stroke-linejoin:miter;stroke-width:1.875;"/>
   </g>
   <g id="patch_9">
    <path d="M 771.340156 233.64 
L 771.340156 16.2 
" style="fill:none;stroke:#262626;stroke-linecap:square;stroke-linejoin:miter;stroke-width:1.875;"/>
   </g>
   <g id="patch_10">
    <path d="M 441.612884 233.64 
L 771.340156 233.64 
" style="fill:none;stroke:#262626;stroke-linecap:square;stroke-linejoin:miter;stroke-width:1.875;"/>
   </g>
   <g id="patch_11">
    <path d="M 441.612884 16.2 
L 771.340156 16.2 
" style="fill:none;stroke:#262626;stroke-linecap:square;stroke-linejoin:miter;stroke-width:1.875;"/>
   </g>
  </g>
 </g>
 <defs>
  <clipPath id="p6ad9eb04ce">
   <rect height="217.44" width="329.727273" x="45.940156" y="16.2"/>
  </clipPath>
  <clipPath id="pda0708cc8e">
   <rect height="217.44" width="329.727273" x="441.612884" y="16.2"/>
  </clipPath>
 </defs>
</svg>
