<?xml version="1.0" encoding="utf-8" standalone="no"?>
<!DOCTYPE svg PUBLIC "-//W3C//DTD SVG 1.1//EN"
  "http://www.w3.org/Graphics/SVG/1.1/DTD/svg11.dtd">
<!-- Created with matplotlib (https://matplotlib.org/) -->
<svg height="281.729531pt" version="1.1" viewBox="0 0 1278.164766 281.729531" width="1278.164766pt" xmlns="http://www.w3.org/2000/svg" xmlns:xlink="http://www.w3.org/1999/xlink">
 <defs>
  <style type="text/css">
*{stroke-linecap:butt;stroke-linejoin:round;}
  </style>
 </defs>
 <g id="figure_1">
  <g id="patch_1">
   <path d="M -0 281.729531 
L 1278.164766 281.729531 
L 1278.164766 0 
L -0 0 
z
" style="fill:none;"/>
  </g>
  <g id="axes_1">
   <g id="patch_2">
    <path d="M 260.564766 230.64 
L 555.97653 230.64 
L 555.97653 13.2 
L 260.564766 13.2 
z
" style="fill:none;"/>
   </g>
   <g id="matplotlib.axis_1">
    <g id="xtick_1">
     <g id="line2d_1">
      <path clip-path="url(#p0289b15760)" d="M 260.564766 230.64 
L 260.564766 13.2 
" style="fill:none;stroke:#cccccc;stroke-linecap:round;stroke-width:1.5;"/>
     </g>
     <g id="text_1">
      <!-- 0 -->
      <defs>
       <path d="M 31.78125 66.40625 
Q 24.171875 66.40625 20.328125 58.90625 
Q 16.5 51.421875 16.5 36.375 
Q 16.5 21.390625 20.328125 13.890625 
Q 24.171875 6.390625 31.78125 6.390625 
Q 39.453125 6.390625 43.28125 13.890625 
Q 47.125 21.390625 47.125 36.375 
Q 47.125 51.421875 43.28125 58.90625 
Q 39.453125 66.40625 31.78125 66.40625 
z
M 31.78125 74.21875 
Q 44.046875 74.21875 50.515625 64.515625 
Q 56.984375 54.828125 56.984375 36.375 
Q 56.984375 17.96875 50.515625 8.265625 
Q 44.046875 -1.421875 31.78125 -1.421875 
Q 19.53125 -1.421875 13.0625 8.265625 
Q 6.59375 17.96875 6.59375 36.375 
Q 6.59375 54.828125 13.0625 64.515625 
Q 19.53125 74.21875 31.78125 74.21875 
z
" id="DejaVuSans-48"/>
      </defs>
      <g style="fill:#262626;" transform="translate(255.315703 249.677422)scale(0.165 -0.165)">
       <use xlink:href="#DejaVuSans-48"/>
      </g>
     </g>
    </g>
    <g id="xtick_2">
     <g id="line2d_2">
      <path clip-path="url(#p0289b15760)" d="M 362.058641 230.64 
L 362.058641 13.2 
" style="fill:none;stroke:#cccccc;stroke-linecap:round;stroke-width:1.5;"/>
     </g>
     <g id="text_2">
      <!-- 2 -->
      <defs>
       <path d="M 19.1875 8.296875 
L 53.609375 8.296875 
L 53.609375 0 
L 7.328125 0 
L 7.328125 8.296875 
Q 12.9375 14.109375 22.625 23.890625 
Q 32.328125 33.6875 34.8125 36.53125 
Q 39.546875 41.84375 41.421875 45.53125 
Q 43.3125 49.21875 43.3125 52.78125 
Q 43.3125 58.59375 39.234375 62.25 
Q 35.15625 65.921875 28.609375 65.921875 
Q 23.96875 65.921875 18.8125 64.3125 
Q 13.671875 62.703125 7.8125 59.421875 
L 7.8125 69.390625 
Q 13.765625 71.78125 18.9375 73 
Q 24.125 74.21875 28.421875 74.21875 
Q 39.75 74.21875 46.484375 68.546875 
Q 53.21875 62.890625 53.21875 53.421875 
Q 53.21875 48.921875 51.53125 44.890625 
Q 49.859375 40.875 45.40625 35.40625 
Q 44.1875 33.984375 37.640625 27.21875 
Q 31.109375 20.453125 19.1875 8.296875 
z
" id="DejaVuSans-50"/>
      </defs>
      <g style="fill:#262626;" transform="translate(356.809578 249.677422)scale(0.165 -0.165)">
       <use xlink:href="#DejaVuSans-50"/>
      </g>
     </g>
    </g>
    <g id="xtick_3">
     <g id="line2d_3">
      <path clip-path="url(#p0289b15760)" d="M 463.552516 230.64 
L 463.552516 13.2 
" style="fill:none;stroke:#cccccc;stroke-linecap:round;stroke-width:1.5;"/>
     </g>
     <g id="text_3">
      <!-- 4 -->
      <defs>
       <path d="M 37.796875 64.3125 
L 12.890625 25.390625 
L 37.796875 25.390625 
z
M 35.203125 72.90625 
L 47.609375 72.90625 
L 47.609375 25.390625 
L 58.015625 25.390625 
L 58.015625 17.1875 
L 47.609375 17.1875 
L 47.609375 0 
L 37.796875 0 
L 37.796875 17.1875 
L 4.890625 17.1875 
L 4.890625 26.703125 
z
" id="DejaVuSans-52"/>
      </defs>
      <g style="fill:#262626;" transform="translate(458.303453 249.677422)scale(0.165 -0.165)">
       <use xlink:href="#DejaVuSans-52"/>
      </g>
     </g>
    </g>
    <g id="text_4">
     <!-- log10(labeled data points used for training) -->
     <defs>
      <path d="M 9.421875 75.984375 
L 18.40625 75.984375 
L 18.40625 0 
L 9.421875 0 
z
" id="DejaVuSans-108"/>
      <path d="M 30.609375 48.390625 
Q 23.390625 48.390625 19.1875 42.75 
Q 14.984375 37.109375 14.984375 27.296875 
Q 14.984375 17.484375 19.15625 11.84375 
Q 23.34375 6.203125 30.609375 6.203125 
Q 37.796875 6.203125 41.984375 11.859375 
Q 46.1875 17.53125 46.1875 27.296875 
Q 46.1875 37.015625 41.984375 42.703125 
Q 37.796875 48.390625 30.609375 48.390625 
z
M 30.609375 56 
Q 42.328125 56 49.015625 48.375 
Q 55.71875 40.765625 55.71875 27.296875 
Q 55.71875 13.875 49.015625 6.21875 
Q 42.328125 -1.421875 30.609375 -1.421875 
Q 18.84375 -1.421875 12.171875 6.21875 
Q 5.515625 13.875 5.515625 27.296875 
Q 5.515625 40.765625 12.171875 48.375 
Q 18.84375 56 30.609375 56 
z
" id="DejaVuSans-111"/>
      <path d="M 45.40625 27.984375 
Q 45.40625 37.75 41.375 43.109375 
Q 37.359375 48.484375 30.078125 48.484375 
Q 22.859375 48.484375 18.828125 43.109375 
Q 14.796875 37.75 14.796875 27.984375 
Q 14.796875 18.265625 18.828125 12.890625 
Q 22.859375 7.515625 30.078125 7.515625 
Q 37.359375 7.515625 41.375 12.890625 
Q 45.40625 18.265625 45.40625 27.984375 
z
M 54.390625 6.78125 
Q 54.390625 -7.171875 48.1875 -13.984375 
Q 42 -20.796875 29.203125 -20.796875 
Q 24.46875 -20.796875 20.265625 -20.09375 
Q 16.0625 -19.390625 12.109375 -17.921875 
L 12.109375 -9.1875 
Q 16.0625 -11.328125 19.921875 -12.34375 
Q 23.78125 -13.375 27.78125 -13.375 
Q 36.625 -13.375 41.015625 -8.765625 
Q 45.40625 -4.15625 45.40625 5.171875 
L 45.40625 9.625 
Q 42.625 4.78125 38.28125 2.390625 
Q 33.9375 0 27.875 0 
Q 17.828125 0 11.671875 7.65625 
Q 5.515625 15.328125 5.515625 27.984375 
Q 5.515625 40.671875 11.671875 48.328125 
Q 17.828125 56 27.875 56 
Q 33.9375 56 38.28125 53.609375 
Q 42.625 51.21875 45.40625 46.390625 
L 45.40625 54.6875 
L 54.390625 54.6875 
z
" id="DejaVuSans-103"/>
      <path d="M 12.40625 8.296875 
L 28.515625 8.296875 
L 28.515625 63.921875 
L 10.984375 60.40625 
L 10.984375 69.390625 
L 28.421875 72.90625 
L 38.28125 72.90625 
L 38.28125 8.296875 
L 54.390625 8.296875 
L 54.390625 0 
L 12.40625 0 
z
" id="DejaVuSans-49"/>
      <path d="M 31 75.875 
Q 24.46875 64.65625 21.28125 53.65625 
Q 18.109375 42.671875 18.109375 31.390625 
Q 18.109375 20.125 21.3125 9.0625 
Q 24.515625 -2 31 -13.1875 
L 23.1875 -13.1875 
Q 15.875 -1.703125 12.234375 9.375 
Q 8.59375 20.453125 8.59375 31.390625 
Q 8.59375 42.28125 12.203125 53.3125 
Q 15.828125 64.359375 23.1875 75.875 
z
" id="DejaVuSans-40"/>
      <path d="M 34.28125 27.484375 
Q 23.390625 27.484375 19.1875 25 
Q 14.984375 22.515625 14.984375 16.5 
Q 14.984375 11.71875 18.140625 8.90625 
Q 21.296875 6.109375 26.703125 6.109375 
Q 34.1875 6.109375 38.703125 11.40625 
Q 43.21875 16.703125 43.21875 25.484375 
L 43.21875 27.484375 
z
M 52.203125 31.203125 
L 52.203125 0 
L 43.21875 0 
L 43.21875 8.296875 
Q 40.140625 3.328125 35.546875 0.953125 
Q 30.953125 -1.421875 24.3125 -1.421875 
Q 15.921875 -1.421875 10.953125 3.296875 
Q 6 8.015625 6 15.921875 
Q 6 25.140625 12.171875 29.828125 
Q 18.359375 34.515625 30.609375 34.515625 
L 43.21875 34.515625 
L 43.21875 35.40625 
Q 43.21875 41.609375 39.140625 45 
Q 35.0625 48.390625 27.6875 48.390625 
Q 23 48.390625 18.546875 47.265625 
Q 14.109375 46.140625 10.015625 43.890625 
L 10.015625 52.203125 
Q 14.9375 54.109375 19.578125 55.046875 
Q 24.21875 56 28.609375 56 
Q 40.484375 56 46.34375 49.84375 
Q 52.203125 43.703125 52.203125 31.203125 
z
" id="DejaVuSans-97"/>
      <path d="M 48.6875 27.296875 
Q 48.6875 37.203125 44.609375 42.84375 
Q 40.53125 48.484375 33.40625 48.484375 
Q 26.265625 48.484375 22.1875 42.84375 
Q 18.109375 37.203125 18.109375 27.296875 
Q 18.109375 17.390625 22.1875 11.75 
Q 26.265625 6.109375 33.40625 6.109375 
Q 40.53125 6.109375 44.609375 11.75 
Q 48.6875 17.390625 48.6875 27.296875 
z
M 18.109375 46.390625 
Q 20.953125 51.265625 25.265625 53.625 
Q 29.59375 56 35.59375 56 
Q 45.5625 56 51.78125 48.09375 
Q 58.015625 40.1875 58.015625 27.296875 
Q 58.015625 14.40625 51.78125 6.484375 
Q 45.5625 -1.421875 35.59375 -1.421875 
Q 29.59375 -1.421875 25.265625 0.953125 
Q 20.953125 3.328125 18.109375 8.203125 
L 18.109375 0 
L 9.078125 0 
L 9.078125 75.984375 
L 18.109375 75.984375 
z
" id="DejaVuSans-98"/>
      <path d="M 56.203125 29.59375 
L 56.203125 25.203125 
L 14.890625 25.203125 
Q 15.484375 15.921875 20.484375 11.0625 
Q 25.484375 6.203125 34.421875 6.203125 
Q 39.59375 6.203125 44.453125 7.46875 
Q 49.3125 8.734375 54.109375 11.28125 
L 54.109375 2.78125 
Q 49.265625 0.734375 44.1875 -0.34375 
Q 39.109375 -1.421875 33.890625 -1.421875 
Q 20.796875 -1.421875 13.15625 6.1875 
Q 5.515625 13.8125 5.515625 26.8125 
Q 5.515625 40.234375 12.765625 48.109375 
Q 20.015625 56 32.328125 56 
Q 43.359375 56 49.78125 48.890625 
Q 56.203125 41.796875 56.203125 29.59375 
z
M 47.21875 32.234375 
Q 47.125 39.59375 43.09375 43.984375 
Q 39.0625 48.390625 32.421875 48.390625 
Q 24.90625 48.390625 20.390625 44.140625 
Q 15.875 39.890625 15.1875 32.171875 
z
" id="DejaVuSans-101"/>
      <path d="M 45.40625 46.390625 
L 45.40625 75.984375 
L 54.390625 75.984375 
L 54.390625 0 
L 45.40625 0 
L 45.40625 8.203125 
Q 42.578125 3.328125 38.25 0.953125 
Q 33.9375 -1.421875 27.875 -1.421875 
Q 17.96875 -1.421875 11.734375 6.484375 
Q 5.515625 14.40625 5.515625 27.296875 
Q 5.515625 40.1875 11.734375 48.09375 
Q 17.96875 56 27.875 56 
Q 33.9375 56 38.25 53.625 
Q 42.578125 51.265625 45.40625 46.390625 
z
M 14.796875 27.296875 
Q 14.796875 17.390625 18.875 11.75 
Q 22.953125 6.109375 30.078125 6.109375 
Q 37.203125 6.109375 41.296875 11.75 
Q 45.40625 17.390625 45.40625 27.296875 
Q 45.40625 37.203125 41.296875 42.84375 
Q 37.203125 48.484375 30.078125 48.484375 
Q 22.953125 48.484375 18.875 42.84375 
Q 14.796875 37.203125 14.796875 27.296875 
z
" id="DejaVuSans-100"/>
      <path id="DejaVuSans-32"/>
      <path d="M 18.3125 70.21875 
L 18.3125 54.6875 
L 36.8125 54.6875 
L 36.8125 47.703125 
L 18.3125 47.703125 
L 18.3125 18.015625 
Q 18.3125 11.328125 20.140625 9.421875 
Q 21.96875 7.515625 27.59375 7.515625 
L 36.8125 7.515625 
L 36.8125 0 
L 27.59375 0 
Q 17.1875 0 13.234375 3.875 
Q 9.28125 7.765625 9.28125 18.015625 
L 9.28125 47.703125 
L 2.6875 47.703125 
L 2.6875 54.6875 
L 9.28125 54.6875 
L 9.28125 70.21875 
z
" id="DejaVuSans-116"/>
      <path d="M 18.109375 8.203125 
L 18.109375 -20.796875 
L 9.078125 -20.796875 
L 9.078125 54.6875 
L 18.109375 54.6875 
L 18.109375 46.390625 
Q 20.953125 51.265625 25.265625 53.625 
Q 29.59375 56 35.59375 56 
Q 45.5625 56 51.78125 48.09375 
Q 58.015625 40.1875 58.015625 27.296875 
Q 58.015625 14.40625 51.78125 6.484375 
Q 45.5625 -1.421875 35.59375 -1.421875 
Q 29.59375 -1.421875 25.265625 0.953125 
Q 20.953125 3.328125 18.109375 8.203125 
z
M 48.6875 27.296875 
Q 48.6875 37.203125 44.609375 42.84375 
Q 40.53125 48.484375 33.40625 48.484375 
Q 26.265625 48.484375 22.1875 42.84375 
Q 18.109375 37.203125 18.109375 27.296875 
Q 18.109375 17.390625 22.1875 11.75 
Q 26.265625 6.109375 33.40625 6.109375 
Q 40.53125 6.109375 44.609375 11.75 
Q 48.6875 17.390625 48.6875 27.296875 
z
" id="DejaVuSans-112"/>
      <path d="M 9.421875 54.6875 
L 18.40625 54.6875 
L 18.40625 0 
L 9.421875 0 
z
M 9.421875 75.984375 
L 18.40625 75.984375 
L 18.40625 64.59375 
L 9.421875 64.59375 
z
" id="DejaVuSans-105"/>
      <path d="M 54.890625 33.015625 
L 54.890625 0 
L 45.90625 0 
L 45.90625 32.71875 
Q 45.90625 40.484375 42.875 44.328125 
Q 39.84375 48.1875 33.796875 48.1875 
Q 26.515625 48.1875 22.3125 43.546875 
Q 18.109375 38.921875 18.109375 30.90625 
L 18.109375 0 
L 9.078125 0 
L 9.078125 54.6875 
L 18.109375 54.6875 
L 18.109375 46.1875 
Q 21.34375 51.125 25.703125 53.5625 
Q 30.078125 56 35.796875 56 
Q 45.21875 56 50.046875 50.171875 
Q 54.890625 44.34375 54.890625 33.015625 
z
" id="DejaVuSans-110"/>
      <path d="M 44.28125 53.078125 
L 44.28125 44.578125 
Q 40.484375 46.53125 36.375 47.5 
Q 32.28125 48.484375 27.875 48.484375 
Q 21.1875 48.484375 17.84375 46.4375 
Q 14.5 44.390625 14.5 40.28125 
Q 14.5 37.15625 16.890625 35.375 
Q 19.28125 33.59375 26.515625 31.984375 
L 29.59375 31.296875 
Q 39.15625 29.25 43.1875 25.515625 
Q 47.21875 21.78125 47.21875 15.09375 
Q 47.21875 7.46875 41.1875 3.015625 
Q 35.15625 -1.421875 24.609375 -1.421875 
Q 20.21875 -1.421875 15.453125 -0.5625 
Q 10.6875 0.296875 5.421875 2 
L 5.421875 11.28125 
Q 10.40625 8.6875 15.234375 7.390625 
Q 20.0625 6.109375 24.8125 6.109375 
Q 31.15625 6.109375 34.5625 8.28125 
Q 37.984375 10.453125 37.984375 14.40625 
Q 37.984375 18.0625 35.515625 20.015625 
Q 33.0625 21.96875 24.703125 23.78125 
L 21.578125 24.515625 
Q 13.234375 26.265625 9.515625 29.90625 
Q 5.8125 33.546875 5.8125 39.890625 
Q 5.8125 47.609375 11.28125 51.796875 
Q 16.75 56 26.8125 56 
Q 31.78125 56 36.171875 55.265625 
Q 40.578125 54.546875 44.28125 53.078125 
z
" id="DejaVuSans-115"/>
      <path d="M 8.5 21.578125 
L 8.5 54.6875 
L 17.484375 54.6875 
L 17.484375 21.921875 
Q 17.484375 14.15625 20.5 10.265625 
Q 23.53125 6.390625 29.59375 6.390625 
Q 36.859375 6.390625 41.078125 11.03125 
Q 45.3125 15.671875 45.3125 23.6875 
L 45.3125 54.6875 
L 54.296875 54.6875 
L 54.296875 0 
L 45.3125 0 
L 45.3125 8.40625 
Q 42.046875 3.421875 37.71875 1 
Q 33.40625 -1.421875 27.6875 -1.421875 
Q 18.265625 -1.421875 13.375 4.4375 
Q 8.5 10.296875 8.5 21.578125 
z
M 31.109375 56 
z
" id="DejaVuSans-117"/>
      <path d="M 37.109375 75.984375 
L 37.109375 68.5 
L 28.515625 68.5 
Q 23.6875 68.5 21.796875 66.546875 
Q 19.921875 64.59375 19.921875 59.515625 
L 19.921875 54.6875 
L 34.71875 54.6875 
L 34.71875 47.703125 
L 19.921875 47.703125 
L 19.921875 0 
L 10.890625 0 
L 10.890625 47.703125 
L 2.296875 47.703125 
L 2.296875 54.6875 
L 10.890625 54.6875 
L 10.890625 58.5 
Q 10.890625 67.625 15.140625 71.796875 
Q 19.390625 75.984375 28.609375 75.984375 
z
" id="DejaVuSans-102"/>
      <path d="M 41.109375 46.296875 
Q 39.59375 47.171875 37.8125 47.578125 
Q 36.03125 48 33.890625 48 
Q 26.265625 48 22.1875 43.046875 
Q 18.109375 38.09375 18.109375 28.8125 
L 18.109375 0 
L 9.078125 0 
L 9.078125 54.6875 
L 18.109375 54.6875 
L 18.109375 46.1875 
Q 20.953125 51.171875 25.484375 53.578125 
Q 30.03125 56 36.53125 56 
Q 37.453125 56 38.578125 55.875 
Q 39.703125 55.765625 41.0625 55.515625 
z
" id="DejaVuSans-114"/>
      <path d="M 8.015625 75.875 
L 15.828125 75.875 
Q 23.140625 64.359375 26.78125 53.3125 
Q 30.421875 42.28125 30.421875 31.390625 
Q 30.421875 20.453125 26.78125 9.375 
Q 23.140625 -1.703125 15.828125 -13.1875 
L 8.015625 -13.1875 
Q 14.5 -2 17.703125 9.0625 
Q 20.90625 20.125 20.90625 31.390625 
Q 20.90625 42.671875 17.703125 53.65625 
Q 14.5 64.65625 8.015625 75.875 
z
" id="DejaVuSans-41"/>
     </defs>
     <g style="fill:#262626;" transform="translate(211.956742 270.786094)scale(0.18 -0.18)">
      <use xlink:href="#DejaVuSans-108"/>
      <use x="27.783203" xlink:href="#DejaVuSans-111"/>
      <use x="88.964844" xlink:href="#DejaVuSans-103"/>
      <use x="152.441406" xlink:href="#DejaVuSans-49"/>
      <use x="216.064453" xlink:href="#DejaVuSans-48"/>
      <use x="279.6875" xlink:href="#DejaVuSans-40"/>
      <use x="318.701172" xlink:href="#DejaVuSans-108"/>
      <use x="346.484375" xlink:href="#DejaVuSans-97"/>
      <use x="407.763672" xlink:href="#DejaVuSans-98"/>
      <use x="471.240234" xlink:href="#DejaVuSans-101"/>
      <use x="532.763672" xlink:href="#DejaVuSans-108"/>
      <use x="560.546875" xlink:href="#DejaVuSans-101"/>
      <use x="622.070312" xlink:href="#DejaVuSans-100"/>
      <use x="685.546875" xlink:href="#DejaVuSans-32"/>
      <use x="717.333984" xlink:href="#DejaVuSans-100"/>
      <use x="780.810547" xlink:href="#DejaVuSans-97"/>
      <use x="842.089844" xlink:href="#DejaVuSans-116"/>
      <use x="881.298828" xlink:href="#DejaVuSans-97"/>
      <use x="942.578125" xlink:href="#DejaVuSans-32"/>
      <use x="974.365234" xlink:href="#DejaVuSans-112"/>
      <use x="1037.841797" xlink:href="#DejaVuSans-111"/>
      <use x="1099.023438" xlink:href="#DejaVuSans-105"/>
      <use x="1126.806641" xlink:href="#DejaVuSans-110"/>
      <use x="1190.185547" xlink:href="#DejaVuSans-116"/>
      <use x="1229.394531" xlink:href="#DejaVuSans-115"/>
      <use x="1281.494141" xlink:href="#DejaVuSans-32"/>
      <use x="1313.28125" xlink:href="#DejaVuSans-117"/>
      <use x="1376.660156" xlink:href="#DejaVuSans-115"/>
      <use x="1428.759766" xlink:href="#DejaVuSans-101"/>
      <use x="1490.283203" xlink:href="#DejaVuSans-100"/>
      <use x="1553.759766" xlink:href="#DejaVuSans-32"/>
      <use x="1585.546875" xlink:href="#DejaVuSans-102"/>
      <use x="1620.751953" xlink:href="#DejaVuSans-111"/>
      <use x="1681.933594" xlink:href="#DejaVuSans-114"/>
      <use x="1723.046875" xlink:href="#DejaVuSans-32"/>
      <use x="1754.833984" xlink:href="#DejaVuSans-116"/>
      <use x="1794.042969" xlink:href="#DejaVuSans-114"/>
      <use x="1835.15625" xlink:href="#DejaVuSans-97"/>
      <use x="1896.435547" xlink:href="#DejaVuSans-105"/>
      <use x="1924.21875" xlink:href="#DejaVuSans-110"/>
      <use x="1987.597656" xlink:href="#DejaVuSans-105"/>
      <use x="2015.380859" xlink:href="#DejaVuSans-110"/>
      <use x="2078.759766" xlink:href="#DejaVuSans-103"/>
      <use x="2142.236328" xlink:href="#DejaVuSans-41"/>
     </g>
    </g>
   </g>
   <g id="matplotlib.axis_2">
    <g id="ytick_1">
     <g id="line2d_4">
      <path clip-path="url(#p0289b15760)" d="M 260.564766 21.563077 
L 555.97653 21.563077 
" style="fill:none;stroke:#cccccc;stroke-linecap:round;stroke-width:1.5;"/>
     </g>
     <g id="text_5">
      <!-- This work (GFP) -->
      <defs>
       <path d="M -0.296875 72.90625 
L 61.375 72.90625 
L 61.375 64.59375 
L 35.5 64.59375 
L 35.5 0 
L 25.59375 0 
L 25.59375 64.59375 
L -0.296875 64.59375 
z
" id="DejaVuSans-84"/>
       <path d="M 54.890625 33.015625 
L 54.890625 0 
L 45.90625 0 
L 45.90625 32.71875 
Q 45.90625 40.484375 42.875 44.328125 
Q 39.84375 48.1875 33.796875 48.1875 
Q 26.515625 48.1875 22.3125 43.546875 
Q 18.109375 38.921875 18.109375 30.90625 
L 18.109375 0 
L 9.078125 0 
L 9.078125 75.984375 
L 18.109375 75.984375 
L 18.109375 46.1875 
Q 21.34375 51.125 25.703125 53.5625 
Q 30.078125 56 35.796875 56 
Q 45.21875 56 50.046875 50.171875 
Q 54.890625 44.34375 54.890625 33.015625 
z
" id="DejaVuSans-104"/>
       <path d="M 4.203125 54.6875 
L 13.1875 54.6875 
L 24.421875 12.015625 
L 35.59375 54.6875 
L 46.1875 54.6875 
L 57.421875 12.015625 
L 68.609375 54.6875 
L 77.59375 54.6875 
L 63.28125 0 
L 52.6875 0 
L 40.921875 44.828125 
L 29.109375 0 
L 18.5 0 
z
" id="DejaVuSans-119"/>
       <path d="M 9.078125 75.984375 
L 18.109375 75.984375 
L 18.109375 31.109375 
L 44.921875 54.6875 
L 56.390625 54.6875 
L 27.390625 29.109375 
L 57.625 0 
L 45.90625 0 
L 18.109375 26.703125 
L 18.109375 0 
L 9.078125 0 
z
" id="DejaVuSans-107"/>
       <path d="M 59.515625 10.40625 
L 59.515625 29.984375 
L 43.40625 29.984375 
L 43.40625 38.09375 
L 69.28125 38.09375 
L 69.28125 6.78125 
Q 63.578125 2.734375 56.6875 0.65625 
Q 49.8125 -1.421875 42 -1.421875 
Q 24.90625 -1.421875 15.25 8.5625 
Q 5.609375 18.5625 5.609375 36.375 
Q 5.609375 54.25 15.25 64.234375 
Q 24.90625 74.21875 42 74.21875 
Q 49.125 74.21875 55.546875 72.453125 
Q 61.96875 70.703125 67.390625 67.28125 
L 67.390625 56.78125 
Q 61.921875 61.421875 55.765625 63.765625 
Q 49.609375 66.109375 42.828125 66.109375 
Q 29.4375 66.109375 22.71875 58.640625 
Q 16.015625 51.171875 16.015625 36.375 
Q 16.015625 21.625 22.71875 14.15625 
Q 29.4375 6.6875 42.828125 6.6875 
Q 48.046875 6.6875 52.140625 7.59375 
Q 56.25 8.5 59.515625 10.40625 
z
" id="DejaVuSans-71"/>
       <path d="M 9.8125 72.90625 
L 51.703125 72.90625 
L 51.703125 64.59375 
L 19.671875 64.59375 
L 19.671875 43.109375 
L 48.578125 43.109375 
L 48.578125 34.8125 
L 19.671875 34.8125 
L 19.671875 0 
L 9.8125 0 
z
" id="DejaVuSans-70"/>
       <path d="M 19.671875 64.796875 
L 19.671875 37.40625 
L 32.078125 37.40625 
Q 38.96875 37.40625 42.71875 40.96875 
Q 46.484375 44.53125 46.484375 51.125 
Q 46.484375 57.671875 42.71875 61.234375 
Q 38.96875 64.796875 32.078125 64.796875 
z
M 9.8125 72.90625 
L 32.078125 72.90625 
Q 44.34375 72.90625 50.609375 67.359375 
Q 56.890625 61.8125 56.890625 51.125 
Q 56.890625 40.328125 50.609375 34.8125 
Q 44.34375 29.296875 32.078125 29.296875 
L 19.671875 29.296875 
L 19.671875 0 
L 9.8125 0 
z
" id="DejaVuSans-80"/>
      </defs>
      <g style="fill:#262626;" transform="translate(124.83625 27.831788)scale(0.165 -0.165)">
       <use xlink:href="#DejaVuSans-84"/>
       <use x="61.083984" xlink:href="#DejaVuSans-104"/>
       <use x="124.462891" xlink:href="#DejaVuSans-105"/>
       <use x="152.246094" xlink:href="#DejaVuSans-115"/>
       <use x="204.345703" xlink:href="#DejaVuSans-32"/>
       <use x="236.132812" xlink:href="#DejaVuSans-119"/>
       <use x="317.919922" xlink:href="#DejaVuSans-111"/>
       <use x="379.101562" xlink:href="#DejaVuSans-114"/>
       <use x="420.214844" xlink:href="#DejaVuSans-107"/>
       <use x="478.125" xlink:href="#DejaVuSans-32"/>
       <use x="509.912109" xlink:href="#DejaVuSans-40"/>
       <use x="548.925781" xlink:href="#DejaVuSans-71"/>
       <use x="626.416016" xlink:href="#DejaVuSans-70"/>
       <use x="683.935547" xlink:href="#DejaVuSans-80"/>
       <use x="744.238281" xlink:href="#DejaVuSans-41"/>
      </g>
     </g>
    </g>
    <g id="ytick_2">
     <g id="line2d_5">
      <path clip-path="url(#p0289b15760)" d="M 260.564766 38.289231 
L 555.97653 38.289231 
" style="fill:none;stroke:#cccccc;stroke-linecap:round;stroke-width:1.5;"/>
     </g>
     <g id="text_6">
      <!-- This work (beta-lactamase) -->
      <defs>
       <path d="M 4.890625 31.390625 
L 31.203125 31.390625 
L 31.203125 23.390625 
L 4.890625 23.390625 
z
" id="DejaVuSans-45"/>
       <path d="M 48.78125 52.59375 
L 48.78125 44.1875 
Q 44.96875 46.296875 41.140625 47.34375 
Q 37.3125 48.390625 33.40625 48.390625 
Q 24.65625 48.390625 19.8125 42.84375 
Q 14.984375 37.3125 14.984375 27.296875 
Q 14.984375 17.28125 19.8125 11.734375 
Q 24.65625 6.203125 33.40625 6.203125 
Q 37.3125 6.203125 41.140625 7.25 
Q 44.96875 8.296875 48.78125 10.40625 
L 48.78125 2.09375 
Q 45.015625 0.34375 40.984375 -0.53125 
Q 36.96875 -1.421875 32.421875 -1.421875 
Q 20.0625 -1.421875 12.78125 6.34375 
Q 5.515625 14.109375 5.515625 27.296875 
Q 5.515625 40.671875 12.859375 48.328125 
Q 20.21875 56 33.015625 56 
Q 37.15625 56 41.109375 55.140625 
Q 45.0625 54.296875 48.78125 52.59375 
z
" id="DejaVuSans-99"/>
       <path d="M 52 44.1875 
Q 55.375 50.25 60.0625 53.125 
Q 64.75 56 71.09375 56 
Q 79.640625 56 84.28125 50.015625 
Q 88.921875 44.046875 88.921875 33.015625 
L 88.921875 0 
L 79.890625 0 
L 79.890625 32.71875 
Q 79.890625 40.578125 77.09375 44.375 
Q 74.3125 48.1875 68.609375 48.1875 
Q 61.625 48.1875 57.5625 43.546875 
Q 53.515625 38.921875 53.515625 30.90625 
L 53.515625 0 
L 44.484375 0 
L 44.484375 32.71875 
Q 44.484375 40.625 41.703125 44.40625 
Q 38.921875 48.1875 33.109375 48.1875 
Q 26.21875 48.1875 22.15625 43.53125 
Q 18.109375 38.875 18.109375 30.90625 
L 18.109375 0 
L 9.078125 0 
L 9.078125 54.6875 
L 18.109375 54.6875 
L 18.109375 46.1875 
Q 21.1875 51.21875 25.484375 53.609375 
Q 29.78125 56 35.6875 56 
Q 41.65625 56 45.828125 52.96875 
Q 50 49.953125 52 44.1875 
z
" id="DejaVuSans-109"/>
      </defs>
      <g style="fill:#262626;" transform="translate(28.620625 44.557942)scale(0.165 -0.165)">
       <use xlink:href="#DejaVuSans-84"/>
       <use x="61.083984" xlink:href="#DejaVuSans-104"/>
       <use x="124.462891" xlink:href="#DejaVuSans-105"/>
       <use x="152.246094" xlink:href="#DejaVuSans-115"/>
       <use x="204.345703" xlink:href="#DejaVuSans-32"/>
       <use x="236.132812" xlink:href="#DejaVuSans-119"/>
       <use x="317.919922" xlink:href="#DejaVuSans-111"/>
       <use x="379.101562" xlink:href="#DejaVuSans-114"/>
       <use x="420.214844" xlink:href="#DejaVuSans-107"/>
       <use x="478.125" xlink:href="#DejaVuSans-32"/>
       <use x="509.912109" xlink:href="#DejaVuSans-40"/>
       <use x="548.925781" xlink:href="#DejaVuSans-98"/>
       <use x="612.402344" xlink:href="#DejaVuSans-101"/>
       <use x="673.925781" xlink:href="#DejaVuSans-116"/>
       <use x="713.134766" xlink:href="#DejaVuSans-97"/>
       <use x="774.414062" xlink:href="#DejaVuSans-45"/>
       <use x="810.498047" xlink:href="#DejaVuSans-108"/>
       <use x="838.28125" xlink:href="#DejaVuSans-97"/>
       <use x="899.560547" xlink:href="#DejaVuSans-99"/>
       <use x="954.541016" xlink:href="#DejaVuSans-116"/>
       <use x="993.75" xlink:href="#DejaVuSans-97"/>
       <use x="1055.029297" xlink:href="#DejaVuSans-109"/>
       <use x="1152.441406" xlink:href="#DejaVuSans-97"/>
       <use x="1213.720703" xlink:href="#DejaVuSans-115"/>
       <use x="1265.820312" xlink:href="#DejaVuSans-101"/>
       <use x="1327.34375" xlink:href="#DejaVuSans-41"/>
      </g>
     </g>
    </g>
    <g id="ytick_3">
     <g id="line2d_6">
      <path clip-path="url(#p0289b15760)" d="M 260.564766 55.015385 
L 555.97653 55.015385 
" style="fill:none;stroke:#cccccc;stroke-linecap:round;stroke-width:1.5;"/>
     </g>
     <g id="text_7">
      <!-- Ogden (2019) -->
      <defs>
       <path d="M 39.40625 66.21875 
Q 28.65625 66.21875 22.328125 58.203125 
Q 16.015625 50.203125 16.015625 36.375 
Q 16.015625 22.609375 22.328125 14.59375 
Q 28.65625 6.59375 39.40625 6.59375 
Q 50.140625 6.59375 56.421875 14.59375 
Q 62.703125 22.609375 62.703125 36.375 
Q 62.703125 50.203125 56.421875 58.203125 
Q 50.140625 66.21875 39.40625 66.21875 
z
M 39.40625 74.21875 
Q 54.734375 74.21875 63.90625 63.9375 
Q 73.09375 53.65625 73.09375 36.375 
Q 73.09375 19.140625 63.90625 8.859375 
Q 54.734375 -1.421875 39.40625 -1.421875 
Q 24.03125 -1.421875 14.8125 8.828125 
Q 5.609375 19.09375 5.609375 36.375 
Q 5.609375 53.65625 14.8125 63.9375 
Q 24.03125 74.21875 39.40625 74.21875 
z
" id="DejaVuSans-79"/>
       <path d="M 10.984375 1.515625 
L 10.984375 10.5 
Q 14.703125 8.734375 18.5 7.8125 
Q 22.3125 6.890625 25.984375 6.890625 
Q 35.75 6.890625 40.890625 13.453125 
Q 46.046875 20.015625 46.78125 33.40625 
Q 43.953125 29.203125 39.59375 26.953125 
Q 35.25 24.703125 29.984375 24.703125 
Q 19.046875 24.703125 12.671875 31.3125 
Q 6.296875 37.9375 6.296875 49.421875 
Q 6.296875 60.640625 12.9375 67.421875 
Q 19.578125 74.21875 30.609375 74.21875 
Q 43.265625 74.21875 49.921875 64.515625 
Q 56.59375 54.828125 56.59375 36.375 
Q 56.59375 19.140625 48.40625 8.859375 
Q 40.234375 -1.421875 26.421875 -1.421875 
Q 22.703125 -1.421875 18.890625 -0.6875 
Q 15.09375 0.046875 10.984375 1.515625 
z
M 30.609375 32.421875 
Q 37.25 32.421875 41.125 36.953125 
Q 45.015625 41.5 45.015625 49.421875 
Q 45.015625 57.28125 41.125 61.84375 
Q 37.25 66.40625 30.609375 66.40625 
Q 23.96875 66.40625 20.09375 61.84375 
Q 16.21875 57.28125 16.21875 49.421875 
Q 16.21875 41.5 20.09375 36.953125 
Q 23.96875 32.421875 30.609375 32.421875 
z
" id="DejaVuSans-57"/>
      </defs>
      <g style="fill:#262626;" transform="translate(139.405234 61.284096)scale(0.165 -0.165)">
       <use xlink:href="#DejaVuSans-79"/>
       <use x="78.710938" xlink:href="#DejaVuSans-103"/>
       <use x="142.1875" xlink:href="#DejaVuSans-100"/>
       <use x="205.664062" xlink:href="#DejaVuSans-101"/>
       <use x="267.1875" xlink:href="#DejaVuSans-110"/>
       <use x="330.566406" xlink:href="#DejaVuSans-32"/>
       <use x="362.353516" xlink:href="#DejaVuSans-40"/>
       <use x="401.367188" xlink:href="#DejaVuSans-50"/>
       <use x="464.990234" xlink:href="#DejaVuSans-48"/>
       <use x="528.613281" xlink:href="#DejaVuSans-49"/>
       <use x="592.236328" xlink:href="#DejaVuSans-57"/>
       <use x="655.859375" xlink:href="#DejaVuSans-41"/>
      </g>
     </g>
    </g>
    <g id="ytick_4">
     <g id="line2d_7">
      <path clip-path="url(#p0289b15760)" d="M 260.564766 71.741538 
L 555.97653 71.741538 
" style="fill:none;stroke:#cccccc;stroke-linecap:round;stroke-width:1.5;"/>
     </g>
     <g id="text_8">
      <!-- Bedbrook (2019) -->
      <defs>
       <path d="M 19.671875 34.8125 
L 19.671875 8.109375 
L 35.5 8.109375 
Q 43.453125 8.109375 47.28125 11.40625 
Q 51.125 14.703125 51.125 21.484375 
Q 51.125 28.328125 47.28125 31.5625 
Q 43.453125 34.8125 35.5 34.8125 
z
M 19.671875 64.796875 
L 19.671875 42.828125 
L 34.28125 42.828125 
Q 41.5 42.828125 45.03125 45.53125 
Q 48.578125 48.25 48.578125 53.8125 
Q 48.578125 59.328125 45.03125 62.0625 
Q 41.5 64.796875 34.28125 64.796875 
z
M 9.8125 72.90625 
L 35.015625 72.90625 
Q 46.296875 72.90625 52.390625 68.21875 
Q 58.5 63.53125 58.5 54.890625 
Q 58.5 48.1875 55.375 44.234375 
Q 52.25 40.28125 46.1875 39.3125 
Q 53.46875 37.75 57.5 32.78125 
Q 61.53125 27.828125 61.53125 20.40625 
Q 61.53125 10.640625 54.890625 5.3125 
Q 48.25 0 35.984375 0 
L 9.8125 0 
z
" id="DejaVuSans-66"/>
      </defs>
      <g style="fill:#262626;" transform="translate(115.005859 78.010249)scale(0.165 -0.165)">
       <use xlink:href="#DejaVuSans-66"/>
       <use x="68.603516" xlink:href="#DejaVuSans-101"/>
       <use x="130.126953" xlink:href="#DejaVuSans-100"/>
       <use x="193.603516" xlink:href="#DejaVuSans-98"/>
       <use x="257.080078" xlink:href="#DejaVuSans-114"/>
       <use x="298.162109" xlink:href="#DejaVuSans-111"/>
       <use x="359.34375" xlink:href="#DejaVuSans-111"/>
       <use x="420.525391" xlink:href="#DejaVuSans-107"/>
       <use x="478.435547" xlink:href="#DejaVuSans-32"/>
       <use x="510.222656" xlink:href="#DejaVuSans-40"/>
       <use x="549.236328" xlink:href="#DejaVuSans-50"/>
       <use x="612.859375" xlink:href="#DejaVuSans-48"/>
       <use x="676.482422" xlink:href="#DejaVuSans-49"/>
       <use x="740.105469" xlink:href="#DejaVuSans-57"/>
       <use x="803.728516" xlink:href="#DejaVuSans-41"/>
      </g>
     </g>
    </g>
    <g id="ytick_5">
     <g id="line2d_8">
      <path clip-path="url(#p0289b15760)" d="M 260.564766 88.467692 
L 555.97653 88.467692 
" style="fill:none;stroke:#cccccc;stroke-linecap:round;stroke-width:1.5;"/>
     </g>
     <g id="text_9">
      <!-- Wu (2019) -->
      <defs>
       <path d="M 3.328125 72.90625 
L 13.28125 72.90625 
L 28.609375 11.28125 
L 43.890625 72.90625 
L 54.984375 72.90625 
L 70.3125 11.28125 
L 85.59375 72.90625 
L 95.609375 72.90625 
L 77.296875 0 
L 64.890625 0 
L 49.515625 63.28125 
L 33.984375 0 
L 21.578125 0 
z
" id="DejaVuSans-87"/>
      </defs>
      <g style="fill:#262626;" transform="translate(167.189687 94.736403)scale(0.165 -0.165)">
       <use xlink:href="#DejaVuSans-87"/>
       <use x="98.830078" xlink:href="#DejaVuSans-117"/>
       <use x="162.208984" xlink:href="#DejaVuSans-32"/>
       <use x="193.996094" xlink:href="#DejaVuSans-40"/>
       <use x="233.009766" xlink:href="#DejaVuSans-50"/>
       <use x="296.632812" xlink:href="#DejaVuSans-48"/>
       <use x="360.255859" xlink:href="#DejaVuSans-49"/>
       <use x="423.878906" xlink:href="#DejaVuSans-57"/>
       <use x="487.501953" xlink:href="#DejaVuSans-41"/>
      </g>
     </g>
    </g>
    <g id="ytick_6">
     <g id="line2d_9">
      <path clip-path="url(#p0289b15760)" d="M 260.564766 105.193846 
L 555.97653 105.193846 
" style="fill:none;stroke:#cccccc;stroke-linecap:round;stroke-width:1.5;"/>
     </g>
     <g id="text_10">
      <!-- Cadet (2018) -->
      <defs>
       <path d="M 64.40625 67.28125 
L 64.40625 56.890625 
Q 59.421875 61.53125 53.78125 63.8125 
Q 48.140625 66.109375 41.796875 66.109375 
Q 29.296875 66.109375 22.65625 58.46875 
Q 16.015625 50.828125 16.015625 36.375 
Q 16.015625 21.96875 22.65625 14.328125 
Q 29.296875 6.6875 41.796875 6.6875 
Q 48.140625 6.6875 53.78125 8.984375 
Q 59.421875 11.28125 64.40625 15.921875 
L 64.40625 5.609375 
Q 59.234375 2.09375 53.4375 0.328125 
Q 47.65625 -1.421875 41.21875 -1.421875 
Q 24.65625 -1.421875 15.125 8.703125 
Q 5.609375 18.84375 5.609375 36.375 
Q 5.609375 53.953125 15.125 64.078125 
Q 24.65625 74.21875 41.21875 74.21875 
Q 47.75 74.21875 53.53125 72.484375 
Q 59.328125 70.75 64.40625 67.28125 
z
" id="DejaVuSans-67"/>
       <path d="M 31.78125 34.625 
Q 24.75 34.625 20.71875 30.859375 
Q 16.703125 27.09375 16.703125 20.515625 
Q 16.703125 13.921875 20.71875 10.15625 
Q 24.75 6.390625 31.78125 6.390625 
Q 38.8125 6.390625 42.859375 10.171875 
Q 46.921875 13.96875 46.921875 20.515625 
Q 46.921875 27.09375 42.890625 30.859375 
Q 38.875 34.625 31.78125 34.625 
z
M 21.921875 38.8125 
Q 15.578125 40.375 12.03125 44.71875 
Q 8.5 49.078125 8.5 55.328125 
Q 8.5 64.0625 14.71875 69.140625 
Q 20.953125 74.21875 31.78125 74.21875 
Q 42.671875 74.21875 48.875 69.140625 
Q 55.078125 64.0625 55.078125 55.328125 
Q 55.078125 49.078125 51.53125 44.71875 
Q 48 40.375 41.703125 38.8125 
Q 48.828125 37.15625 52.796875 32.3125 
Q 56.78125 27.484375 56.78125 20.515625 
Q 56.78125 9.90625 50.3125 4.234375 
Q 43.84375 -1.421875 31.78125 -1.421875 
Q 19.734375 -1.421875 13.25 4.234375 
Q 6.78125 9.90625 6.78125 20.515625 
Q 6.78125 27.484375 10.78125 32.3125 
Q 14.796875 37.15625 21.921875 38.8125 
z
M 18.3125 54.390625 
Q 18.3125 48.734375 21.84375 45.5625 
Q 25.390625 42.390625 31.78125 42.390625 
Q 38.140625 42.390625 41.71875 45.5625 
Q 45.3125 48.734375 45.3125 54.390625 
Q 45.3125 60.0625 41.71875 63.234375 
Q 38.140625 66.40625 31.78125 66.40625 
Q 25.390625 66.40625 21.84375 63.234375 
Q 18.3125 60.0625 18.3125 54.390625 
z
" id="DejaVuSans-56"/>
      </defs>
      <g style="fill:#262626;" transform="translate(145.224063 111.462557)scale(0.165 -0.165)">
       <use xlink:href="#DejaVuSans-67"/>
       <use x="69.824219" xlink:href="#DejaVuSans-97"/>
       <use x="131.103516" xlink:href="#DejaVuSans-100"/>
       <use x="194.580078" xlink:href="#DejaVuSans-101"/>
       <use x="256.103516" xlink:href="#DejaVuSans-116"/>
       <use x="295.3125" xlink:href="#DejaVuSans-32"/>
       <use x="327.099609" xlink:href="#DejaVuSans-40"/>
       <use x="366.113281" xlink:href="#DejaVuSans-50"/>
       <use x="429.736328" xlink:href="#DejaVuSans-48"/>
       <use x="493.359375" xlink:href="#DejaVuSans-49"/>
       <use x="556.982422" xlink:href="#DejaVuSans-56"/>
       <use x="620.605469" xlink:href="#DejaVuSans-41"/>
      </g>
     </g>
    </g>
    <g id="ytick_7">
     <g id="line2d_10">
      <path clip-path="url(#p0289b15760)" d="M 260.564766 121.92 
L 555.97653 121.92 
" style="fill:none;stroke:#cccccc;stroke-linecap:round;stroke-width:1.5;"/>
     </g>
     <g id="text_11">
      <!-- Saito (2018) -->
      <defs>
       <path d="M 53.515625 70.515625 
L 53.515625 60.890625 
Q 47.90625 63.578125 42.921875 64.890625 
Q 37.9375 66.21875 33.296875 66.21875 
Q 25.25 66.21875 20.875 63.09375 
Q 16.5 59.96875 16.5 54.203125 
Q 16.5 49.359375 19.40625 46.890625 
Q 22.3125 44.4375 30.421875 42.921875 
L 36.375 41.703125 
Q 47.40625 39.59375 52.65625 34.296875 
Q 57.90625 29 57.90625 20.125 
Q 57.90625 9.515625 50.796875 4.046875 
Q 43.703125 -1.421875 29.984375 -1.421875 
Q 24.8125 -1.421875 18.96875 -0.25 
Q 13.140625 0.921875 6.890625 3.21875 
L 6.890625 13.375 
Q 12.890625 10.015625 18.65625 8.296875 
Q 24.421875 6.59375 29.984375 6.59375 
Q 38.421875 6.59375 43.015625 9.90625 
Q 47.609375 13.234375 47.609375 19.390625 
Q 47.609375 24.75 44.3125 27.78125 
Q 41.015625 30.8125 33.5 32.328125 
L 27.484375 33.5 
Q 16.453125 35.6875 11.515625 40.375 
Q 6.59375 45.0625 6.59375 53.421875 
Q 6.59375 63.09375 13.40625 68.65625 
Q 20.21875 74.21875 32.171875 74.21875 
Q 37.3125 74.21875 42.625 73.28125 
Q 47.953125 72.359375 53.515625 70.515625 
z
" id="DejaVuSans-83"/>
      </defs>
      <g style="fill:#262626;" transform="translate(152.218516 128.188711)scale(0.165 -0.165)">
       <use xlink:href="#DejaVuSans-83"/>
       <use x="63.476562" xlink:href="#DejaVuSans-97"/>
       <use x="124.755859" xlink:href="#DejaVuSans-105"/>
       <use x="152.539062" xlink:href="#DejaVuSans-116"/>
       <use x="191.748047" xlink:href="#DejaVuSans-111"/>
       <use x="252.929688" xlink:href="#DejaVuSans-32"/>
       <use x="284.716797" xlink:href="#DejaVuSans-40"/>
       <use x="323.730469" xlink:href="#DejaVuSans-50"/>
       <use x="387.353516" xlink:href="#DejaVuSans-48"/>
       <use x="450.976562" xlink:href="#DejaVuSans-49"/>
       <use x="514.599609" xlink:href="#DejaVuSans-56"/>
       <use x="578.222656" xlink:href="#DejaVuSans-41"/>
      </g>
     </g>
    </g>
    <g id="ytick_8">
     <g id="line2d_11">
      <path clip-path="url(#p0289b15760)" d="M 260.564766 138.646154 
L 555.97653 138.646154 
" style="fill:none;stroke:#cccccc;stroke-linecap:round;stroke-width:1.5;"/>
     </g>
     <g id="text_12">
      <!-- Biswas (2018) -->
      <g style="fill:#262626;" transform="translate(137.2525 144.914865)scale(0.165 -0.165)">
       <use xlink:href="#DejaVuSans-66"/>
       <use x="68.603516" xlink:href="#DejaVuSans-105"/>
       <use x="96.386719" xlink:href="#DejaVuSans-115"/>
       <use x="148.486328" xlink:href="#DejaVuSans-119"/>
       <use x="230.273438" xlink:href="#DejaVuSans-97"/>
       <use x="291.552734" xlink:href="#DejaVuSans-115"/>
       <use x="343.652344" xlink:href="#DejaVuSans-32"/>
       <use x="375.439453" xlink:href="#DejaVuSans-40"/>
       <use x="414.453125" xlink:href="#DejaVuSans-50"/>
       <use x="478.076172" xlink:href="#DejaVuSans-48"/>
       <use x="541.699219" xlink:href="#DejaVuSans-49"/>
       <use x="605.322266" xlink:href="#DejaVuSans-56"/>
       <use x="668.945312" xlink:href="#DejaVuSans-41"/>
      </g>
     </g>
    </g>
    <g id="ytick_9">
     <g id="line2d_12">
      <path clip-path="url(#p0289b15760)" d="M 260.564766 155.372308 
L 555.97653 155.372308 
" style="fill:none;stroke:#cccccc;stroke-linecap:round;stroke-width:1.5;"/>
     </g>
     <g id="text_13">
      <!-- Romero (2013) -->
      <defs>
       <path d="M 44.390625 34.1875 
Q 47.5625 33.109375 50.5625 29.59375 
Q 53.5625 26.078125 56.59375 19.921875 
L 66.609375 0 
L 56 0 
L 46.6875 18.703125 
Q 43.0625 26.03125 39.671875 28.421875 
Q 36.28125 30.8125 30.421875 30.8125 
L 19.671875 30.8125 
L 19.671875 0 
L 9.8125 0 
L 9.8125 72.90625 
L 32.078125 72.90625 
Q 44.578125 72.90625 50.734375 67.671875 
Q 56.890625 62.453125 56.890625 51.90625 
Q 56.890625 45.015625 53.6875 40.46875 
Q 50.484375 35.9375 44.390625 34.1875 
z
M 19.671875 64.796875 
L 19.671875 38.921875 
L 32.078125 38.921875 
Q 39.203125 38.921875 42.84375 42.21875 
Q 46.484375 45.515625 46.484375 51.90625 
Q 46.484375 58.296875 42.84375 61.546875 
Q 39.203125 64.796875 32.078125 64.796875 
z
" id="DejaVuSans-82"/>
       <path d="M 40.578125 39.3125 
Q 47.65625 37.796875 51.625 33 
Q 55.609375 28.21875 55.609375 21.1875 
Q 55.609375 10.40625 48.1875 4.484375 
Q 40.765625 -1.421875 27.09375 -1.421875 
Q 22.515625 -1.421875 17.65625 -0.515625 
Q 12.796875 0.390625 7.625 2.203125 
L 7.625 11.71875 
Q 11.71875 9.328125 16.59375 8.109375 
Q 21.484375 6.890625 26.8125 6.890625 
Q 36.078125 6.890625 40.9375 10.546875 
Q 45.796875 14.203125 45.796875 21.1875 
Q 45.796875 27.640625 41.28125 31.265625 
Q 36.765625 34.90625 28.71875 34.90625 
L 20.21875 34.90625 
L 20.21875 43.015625 
L 29.109375 43.015625 
Q 36.375 43.015625 40.234375 45.921875 
Q 44.09375 48.828125 44.09375 54.296875 
Q 44.09375 59.90625 40.109375 62.90625 
Q 36.140625 65.921875 28.71875 65.921875 
Q 24.65625 65.921875 20.015625 65.03125 
Q 15.375 64.15625 9.8125 62.3125 
L 9.8125 71.09375 
Q 15.4375 72.65625 20.34375 73.4375 
Q 25.25 74.21875 29.59375 74.21875 
Q 40.828125 74.21875 47.359375 69.109375 
Q 53.90625 64.015625 53.90625 55.328125 
Q 53.90625 49.265625 50.4375 45.09375 
Q 46.96875 40.921875 40.578125 39.3125 
z
" id="DejaVuSans-51"/>
      </defs>
      <g style="fill:#262626;" transform="translate(129.304141 161.641019)scale(0.165 -0.165)">
       <use xlink:href="#DejaVuSans-82"/>
       <use x="69.419922" xlink:href="#DejaVuSans-111"/>
       <use x="130.601562" xlink:href="#DejaVuSans-109"/>
       <use x="228.013672" xlink:href="#DejaVuSans-101"/>
       <use x="289.537109" xlink:href="#DejaVuSans-114"/>
       <use x="330.619141" xlink:href="#DejaVuSans-111"/>
       <use x="391.800781" xlink:href="#DejaVuSans-32"/>
       <use x="423.587891" xlink:href="#DejaVuSans-40"/>
       <use x="462.601562" xlink:href="#DejaVuSans-50"/>
       <use x="526.224609" xlink:href="#DejaVuSans-48"/>
       <use x="589.847656" xlink:href="#DejaVuSans-49"/>
       <use x="653.470703" xlink:href="#DejaVuSans-51"/>
       <use x="717.09375" xlink:href="#DejaVuSans-41"/>
      </g>
     </g>
    </g>
    <g id="ytick_10">
     <g id="line2d_13">
      <path clip-path="url(#p0289b15760)" d="M 260.564766 172.098462 
L 555.97653 172.098462 
" style="fill:none;stroke:#cccccc;stroke-linecap:round;stroke-width:1.5;"/>
     </g>
     <g id="text_14">
      <!-- Bedbrook (2017) -->
      <defs>
       <path d="M 8.203125 72.90625 
L 55.078125 72.90625 
L 55.078125 68.703125 
L 28.609375 0 
L 18.3125 0 
L 43.21875 64.59375 
L 8.203125 64.59375 
z
" id="DejaVuSans-55"/>
      </defs>
      <g style="fill:#262626;" transform="translate(115.005859 178.367172)scale(0.165 -0.165)">
       <use xlink:href="#DejaVuSans-66"/>
       <use x="68.603516" xlink:href="#DejaVuSans-101"/>
       <use x="130.126953" xlink:href="#DejaVuSans-100"/>
       <use x="193.603516" xlink:href="#DejaVuSans-98"/>
       <use x="257.080078" xlink:href="#DejaVuSans-114"/>
       <use x="298.162109" xlink:href="#DejaVuSans-111"/>
       <use x="359.34375" xlink:href="#DejaVuSans-111"/>
       <use x="420.525391" xlink:href="#DejaVuSans-107"/>
       <use x="478.435547" xlink:href="#DejaVuSans-32"/>
       <use x="510.222656" xlink:href="#DejaVuSans-40"/>
       <use x="549.236328" xlink:href="#DejaVuSans-50"/>
       <use x="612.859375" xlink:href="#DejaVuSans-48"/>
       <use x="676.482422" xlink:href="#DejaVuSans-49"/>
       <use x="740.105469" xlink:href="#DejaVuSans-55"/>
       <use x="803.728516" xlink:href="#DejaVuSans-41"/>
      </g>
     </g>
    </g>
    <g id="ytick_11">
     <g id="line2d_14">
      <path clip-path="url(#p0289b15760)" d="M 260.564766 188.824615 
L 555.97653 188.824615 
" style="fill:none;stroke:#cccccc;stroke-linecap:round;stroke-width:1.5;"/>
     </g>
     <g id="text_15">
      <!-- Liao (2007) -->
      <defs>
       <path d="M 9.8125 72.90625 
L 19.671875 72.90625 
L 19.671875 8.296875 
L 55.171875 8.296875 
L 55.171875 0 
L 9.8125 0 
z
" id="DejaVuSans-76"/>
      </defs>
      <g style="fill:#262626;" transform="translate(159.968359 195.093326)scale(0.165 -0.165)">
       <use xlink:href="#DejaVuSans-76"/>
       <use x="55.712891" xlink:href="#DejaVuSans-105"/>
       <use x="83.496094" xlink:href="#DejaVuSans-97"/>
       <use x="144.775391" xlink:href="#DejaVuSans-111"/>
       <use x="205.957031" xlink:href="#DejaVuSans-32"/>
       <use x="237.744141" xlink:href="#DejaVuSans-40"/>
       <use x="276.757812" xlink:href="#DejaVuSans-50"/>
       <use x="340.380859" xlink:href="#DejaVuSans-48"/>
       <use x="404.003906" xlink:href="#DejaVuSans-48"/>
       <use x="467.626953" xlink:href="#DejaVuSans-55"/>
       <use x="531.25" xlink:href="#DejaVuSans-41"/>
      </g>
     </g>
    </g>
    <g id="ytick_12">
     <g id="line2d_15">
      <path clip-path="url(#p0289b15760)" d="M 260.564766 205.550769 
L 555.97653 205.550769 
" style="fill:none;stroke:#cccccc;stroke-linecap:round;stroke-width:1.5;"/>
     </g>
     <g id="text_16">
      <!-- Repecka (2019) -->
      <g style="fill:#262626;" transform="translate(122.982578 211.81948)scale(0.165 -0.165)">
       <use xlink:href="#DejaVuSans-82"/>
       <use x="69.419922" xlink:href="#DejaVuSans-101"/>
       <use x="130.943359" xlink:href="#DejaVuSans-112"/>
       <use x="194.419922" xlink:href="#DejaVuSans-101"/>
       <use x="255.943359" xlink:href="#DejaVuSans-99"/>
       <use x="310.923828" xlink:href="#DejaVuSans-107"/>
       <use x="368.818359" xlink:href="#DejaVuSans-97"/>
       <use x="430.097656" xlink:href="#DejaVuSans-32"/>
       <use x="461.884766" xlink:href="#DejaVuSans-40"/>
       <use x="500.898438" xlink:href="#DejaVuSans-50"/>
       <use x="564.521484" xlink:href="#DejaVuSans-48"/>
       <use x="628.144531" xlink:href="#DejaVuSans-49"/>
       <use x="691.767578" xlink:href="#DejaVuSans-57"/>
       <use x="755.390625" xlink:href="#DejaVuSans-41"/>
      </g>
     </g>
    </g>
    <g id="ytick_13">
     <g id="line2d_16">
      <path clip-path="url(#p0289b15760)" d="M 260.564766 222.276923 
L 555.97653 222.276923 
" style="fill:none;stroke:#cccccc;stroke-linecap:round;stroke-width:1.5;"/>
     </g>
     <g id="text_17">
      <!-- Riesselman (2019) -->
      <g style="fill:#262626;" transform="translate(99.183906 228.545634)scale(0.165 -0.165)">
       <use xlink:href="#DejaVuSans-82"/>
       <use x="69.482422" xlink:href="#DejaVuSans-105"/>
       <use x="97.265625" xlink:href="#DejaVuSans-101"/>
       <use x="158.789062" xlink:href="#DejaVuSans-115"/>
       <use x="210.888672" xlink:href="#DejaVuSans-115"/>
       <use x="262.988281" xlink:href="#DejaVuSans-101"/>
       <use x="324.511719" xlink:href="#DejaVuSans-108"/>
       <use x="352.294922" xlink:href="#DejaVuSans-109"/>
       <use x="449.707031" xlink:href="#DejaVuSans-97"/>
       <use x="510.986328" xlink:href="#DejaVuSans-110"/>
       <use x="574.365234" xlink:href="#DejaVuSans-32"/>
       <use x="606.152344" xlink:href="#DejaVuSans-40"/>
       <use x="645.166016" xlink:href="#DejaVuSans-50"/>
       <use x="708.789062" xlink:href="#DejaVuSans-48"/>
       <use x="772.412109" xlink:href="#DejaVuSans-49"/>
       <use x="836.035156" xlink:href="#DejaVuSans-57"/>
       <use x="899.658203" xlink:href="#DejaVuSans-41"/>
      </g>
     </g>
    </g>
    <g id="text_18">
     <!-- study -->
     <defs>
      <path d="M 32.171875 -5.078125 
Q 28.375 -14.84375 24.75 -17.8125 
Q 21.140625 -20.796875 15.09375 -20.796875 
L 7.90625 -20.796875 
L 7.90625 -13.28125 
L 13.1875 -13.28125 
Q 16.890625 -13.28125 18.9375 -11.515625 
Q 21 -9.765625 23.484375 -3.21875 
L 25.09375 0.875 
L 2.984375 54.6875 
L 12.5 54.6875 
L 29.59375 11.921875 
L 46.6875 54.6875 
L 56.203125 54.6875 
z
" id="DejaVuSans-121"/>
     </defs>
     <g style="fill:#262626;" transform="translate(20.877187 146.880937)rotate(-90)scale(0.18 -0.18)">
      <use xlink:href="#DejaVuSans-115"/>
      <use x="52.099609" xlink:href="#DejaVuSans-116"/>
      <use x="91.308594" xlink:href="#DejaVuSans-117"/>
      <use x="154.6875" xlink:href="#DejaVuSans-100"/>
      <use x="218.164062" xlink:href="#DejaVuSans-121"/>
     </g>
    </g>
   </g>
   <g id="patch_3">
    <path clip-path="url(#p0289b15760)" d="M 260.564766 14.872615 
L 331.50594 14.872615 
L 331.50594 28.253538 
L 260.564766 28.253538 
z
" style="fill:#808080;stroke:#ffffff;stroke-linejoin:miter;stroke-width:1.5;"/>
   </g>
   <g id="patch_4">
    <path clip-path="url(#p0289b15760)" d="M 260.564766 31.598769 
L 361.387347 31.598769 
L 361.387347 44.979692 
L 260.564766 44.979692 
z
" style="fill:#808080;stroke:#ffffff;stroke-linejoin:miter;stroke-width:1.5;"/>
   </g>
   <g id="patch_5">
    <path clip-path="url(#p0289b15760)" d="M 260.564766 48.324923 
L 399.266157 48.324923 
L 399.266157 61.705846 
L 260.564766 61.705846 
z
" style="fill:#808080;stroke:#ffffff;stroke-linejoin:miter;stroke-width:1.5;"/>
   </g>
   <g id="patch_6">
    <path clip-path="url(#p0289b15760)" d="M 260.564766 65.051077 
L 372.961308 65.051077 
L 372.961308 78.432 
L 260.564766 78.432 
z
" style="fill:#808080;stroke:#ffffff;stroke-linejoin:miter;stroke-width:1.5;"/>
   </g>
   <g id="patch_7">
    <path clip-path="url(#p0289b15760)" d="M 260.564766 81.777231 
L 395.010396 81.777231 
L 395.010396 95.158154 
L 260.564766 95.158154 
z
" style="fill:#808080;stroke:#ffffff;stroke-linejoin:miter;stroke-width:1.5;"/>
   </g>
   <g id="patch_8">
    <path clip-path="url(#p0289b15760)" d="M 260.564766 98.503385 
L 340.146201 98.503385 
L 340.146201 111.884308 
L 260.564766 111.884308 
z
" style="fill:#808080;stroke:#ffffff;stroke-linejoin:miter;stroke-width:1.5;"/>
   </g>
   <g id="patch_9">
    <path clip-path="url(#p0289b15760)" d="M 260.564766 115.229538 
L 371.859123 115.229538 
L 371.859123 128.610462 
L 260.564766 128.610462 
z
" style="fill:#808080;stroke:#ffffff;stroke-linejoin:miter;stroke-width:1.5;"/>
   </g>
   <g id="patch_10">
    <path clip-path="url(#p0289b15760)" d="M 260.564766 131.955692 
L 541.909303 131.955692 
L 541.909303 145.336615 
L 260.564766 145.336615 
z
" style="fill:#808080;stroke:#ffffff;stroke-linejoin:miter;stroke-width:1.5;"/>
   </g>
   <g id="patch_11">
    <path clip-path="url(#p0289b15760)" d="M 260.564766 148.681846 
L 385.599789 148.681846 
L 385.599789 162.062769 
L 260.564766 162.062769 
z
" style="fill:#808080;stroke:#ffffff;stroke-linejoin:miter;stroke-width:1.5;"/>
   </g>
   <g id="patch_12">
    <path clip-path="url(#p0289b15760)" d="M 260.564766 165.408 
L 379.335137 165.408 
L 379.335137 178.788923 
L 260.564766 178.788923 
z
" style="fill:#808080;stroke:#ffffff;stroke-linejoin:miter;stroke-width:1.5;"/>
   </g>
   <g id="patch_13">
    <path clip-path="url(#p0289b15760)" d="M 260.564766 182.134154 
L 342.408607 182.134154 
L 342.408607 195.515077 
L 260.564766 195.515077 
z
" style="fill:#808080;stroke:#ffffff;stroke-linejoin:miter;stroke-width:1.5;"/>
   </g>
   <g id="patch_14">
    <path clip-path="url(#p0289b15760)" d="M 260.564766 198.860308 
L 260.564766 198.860308 
L 260.564766 212.241231 
L 260.564766 212.241231 
z
" style="fill:#808080;stroke:#ffffff;stroke-linejoin:miter;stroke-width:1.5;"/>
   </g>
   <g id="patch_15">
    <path clip-path="url(#p0289b15760)" d="M 260.564766 215.586462 
L 260.564766 215.586462 
L 260.564766 228.967385 
L 260.564766 228.967385 
z
" style="fill:#808080;stroke:#ffffff;stroke-linejoin:miter;stroke-width:1.5;"/>
   </g>
   <g id="line2d_17">
    <path clip-path="url(#p0289b15760)" d="M 0 0 
" style="fill:none;stroke:#424242;stroke-linecap:round;stroke-width:4.05;"/>
   </g>
   <g id="line2d_18">
    <path clip-path="url(#p0289b15760)" d="M 0 0 
" style="fill:none;stroke:#424242;stroke-linecap:round;stroke-width:4.05;"/>
   </g>
   <g id="line2d_19">
    <path clip-path="url(#p0289b15760)" d="M 0 0 
" style="fill:none;stroke:#424242;stroke-linecap:round;stroke-width:4.05;"/>
   </g>
   <g id="line2d_20">
    <path clip-path="url(#p0289b15760)" d="M 0 0 
" style="fill:none;stroke:#424242;stroke-linecap:round;stroke-width:4.05;"/>
   </g>
   <g id="line2d_21">
    <path clip-path="url(#p0289b15760)" d="M 0 0 
" style="fill:none;stroke:#424242;stroke-linecap:round;stroke-width:4.05;"/>
   </g>
   <g id="line2d_22">
    <path clip-path="url(#p0289b15760)" d="M 0 0 
" style="fill:none;stroke:#424242;stroke-linecap:round;stroke-width:4.05;"/>
   </g>
   <g id="line2d_23">
    <path clip-path="url(#p0289b15760)" d="M 0 0 
" style="fill:none;stroke:#424242;stroke-linecap:round;stroke-width:4.05;"/>
   </g>
   <g id="line2d_24">
    <path clip-path="url(#p0289b15760)" d="M 0 0 
" style="fill:none;stroke:#424242;stroke-linecap:round;stroke-width:4.05;"/>
   </g>
   <g id="line2d_25">
    <path clip-path="url(#p0289b15760)" d="M 0 0 
" style="fill:none;stroke:#424242;stroke-linecap:round;stroke-width:4.05;"/>
   </g>
   <g id="line2d_26">
    <path clip-path="url(#p0289b15760)" d="M 0 0 
" style="fill:none;stroke:#424242;stroke-linecap:round;stroke-width:4.05;"/>
   </g>
   <g id="line2d_27">
    <path clip-path="url(#p0289b15760)" d="M 0 0 
" style="fill:none;stroke:#424242;stroke-linecap:round;stroke-width:4.05;"/>
   </g>
   <g id="line2d_28">
    <path clip-path="url(#p0289b15760)" d="M 0 0 
" style="fill:none;stroke:#424242;stroke-linecap:round;stroke-width:4.05;"/>
   </g>
   <g id="line2d_29">
    <path clip-path="url(#p0289b15760)" d="M 0 0 
" style="fill:none;stroke:#424242;stroke-linecap:round;stroke-width:4.05;"/>
   </g>
   <g id="line2d_30">
    <path clip-path="url(#p0289b15760)" d="M 331.50594 230.64 
L 331.50594 13.2 
" style="fill:none;stroke:#4c72b0;stroke-linecap:round;stroke-width:3;"/>
   </g>
   <g id="patch_16">
    <path d="M 260.564766 230.64 
L 260.564766 13.2 
" style="fill:none;stroke:#262626;stroke-linecap:square;stroke-linejoin:miter;stroke-width:1.875;"/>
   </g>
   <g id="patch_17">
    <path d="M 260.564766 230.64 
L 555.97653 230.64 
" style="fill:none;stroke:#262626;stroke-linecap:square;stroke-linejoin:miter;stroke-width:1.875;"/>
   </g>
  </g>
  <g id="axes_2">
   <g id="patch_18">
    <path d="M 615.058883 230.64 
L 910.470648 230.64 
L 910.470648 13.2 
L 615.058883 13.2 
z
" style="fill:none;"/>
   </g>
   <g id="matplotlib.axis_3">
    <g id="xtick_4">
     <g id="line2d_31">
      <path clip-path="url(#pa097742e26)" d="M 615.058883 230.64 
L 615.058883 13.2 
" style="fill:none;stroke:#cccccc;stroke-linecap:round;stroke-width:1.5;"/>
     </g>
     <g id="text_19">
      <!-- 0 -->
      <g style="fill:#262626;" transform="translate(609.809821 249.677422)scale(0.165 -0.165)">
       <use xlink:href="#DejaVuSans-48"/>
      </g>
     </g>
    </g>
    <g id="xtick_5">
     <g id="line2d_32">
      <path clip-path="url(#pa097742e26)" d="M 685.395018 230.64 
L 685.395018 13.2 
" style="fill:none;stroke:#cccccc;stroke-linecap:round;stroke-width:1.5;"/>
     </g>
     <g id="text_20">
      <!-- 25 -->
      <defs>
       <path d="M 10.796875 72.90625 
L 49.515625 72.90625 
L 49.515625 64.59375 
L 19.828125 64.59375 
L 19.828125 46.734375 
Q 21.96875 47.46875 24.109375 47.828125 
Q 26.265625 48.1875 28.421875 48.1875 
Q 40.625 48.1875 47.75 41.5 
Q 54.890625 34.8125 54.890625 23.390625 
Q 54.890625 11.625 47.5625 5.09375 
Q 40.234375 -1.421875 26.90625 -1.421875 
Q 22.3125 -1.421875 17.546875 -0.640625 
Q 12.796875 0.140625 7.71875 1.703125 
L 7.71875 11.625 
Q 12.109375 9.234375 16.796875 8.0625 
Q 21.484375 6.890625 26.703125 6.890625 
Q 35.15625 6.890625 40.078125 11.328125 
Q 45.015625 15.765625 45.015625 23.390625 
Q 45.015625 31 40.078125 35.4375 
Q 35.15625 39.890625 26.703125 39.890625 
Q 22.75 39.890625 18.8125 39.015625 
Q 14.890625 38.140625 10.796875 36.28125 
z
" id="DejaVuSans-53"/>
      </defs>
      <g style="fill:#262626;" transform="translate(674.896893 249.677422)scale(0.165 -0.165)">
       <use xlink:href="#DejaVuSans-50"/>
       <use x="63.623047" xlink:href="#DejaVuSans-53"/>
      </g>
     </g>
    </g>
    <g id="xtick_6">
     <g id="line2d_33">
      <path clip-path="url(#pa097742e26)" d="M 755.731152 230.64 
L 755.731152 13.2 
" style="fill:none;stroke:#cccccc;stroke-linecap:round;stroke-width:1.5;"/>
     </g>
     <g id="text_21">
      <!-- 50 -->
      <g style="fill:#262626;" transform="translate(745.233027 249.677422)scale(0.165 -0.165)">
       <use xlink:href="#DejaVuSans-53"/>
       <use x="63.623047" xlink:href="#DejaVuSans-48"/>
      </g>
     </g>
    </g>
    <g id="xtick_7">
     <g id="line2d_34">
      <path clip-path="url(#pa097742e26)" d="M 826.067287 230.64 
L 826.067287 13.2 
" style="fill:none;stroke:#cccccc;stroke-linecap:round;stroke-width:1.5;"/>
     </g>
     <g id="text_22">
      <!-- 75 -->
      <g style="fill:#262626;" transform="translate(815.569162 249.677422)scale(0.165 -0.165)">
       <use xlink:href="#DejaVuSans-55"/>
       <use x="63.623047" xlink:href="#DejaVuSans-53"/>
      </g>
     </g>
    </g>
    <g id="xtick_8">
     <g id="line2d_35">
      <path clip-path="url(#pa097742e26)" d="M 896.403421 230.64 
L 896.403421 13.2 
" style="fill:none;stroke:#cccccc;stroke-linecap:round;stroke-width:1.5;"/>
     </g>
     <g id="text_23">
      <!-- 100 -->
      <g style="fill:#262626;" transform="translate(880.656234 249.677422)scale(0.165 -0.165)">
       <use xlink:href="#DejaVuSans-49"/>
       <use x="63.623047" xlink:href="#DejaVuSans-48"/>
       <use x="127.246094" xlink:href="#DejaVuSans-48"/>
      </g>
     </g>
    </g>
    <g id="text_24">
     <!-- log10(search space) -->
     <g style="fill:#262626;" transform="translate(671.213672 270.786094)scale(0.18 -0.18)">
      <use xlink:href="#DejaVuSans-108"/>
      <use x="27.783203" xlink:href="#DejaVuSans-111"/>
      <use x="88.964844" xlink:href="#DejaVuSans-103"/>
      <use x="152.441406" xlink:href="#DejaVuSans-49"/>
      <use x="216.064453" xlink:href="#DejaVuSans-48"/>
      <use x="279.6875" xlink:href="#DejaVuSans-40"/>
      <use x="318.701172" xlink:href="#DejaVuSans-115"/>
      <use x="370.800781" xlink:href="#DejaVuSans-101"/>
      <use x="432.324219" xlink:href="#DejaVuSans-97"/>
      <use x="493.603516" xlink:href="#DejaVuSans-114"/>
      <use x="534.685547" xlink:href="#DejaVuSans-99"/>
      <use x="589.666016" xlink:href="#DejaVuSans-104"/>
      <use x="653.044922" xlink:href="#DejaVuSans-32"/>
      <use x="684.832031" xlink:href="#DejaVuSans-115"/>
      <use x="736.931641" xlink:href="#DejaVuSans-112"/>
      <use x="800.408203" xlink:href="#DejaVuSans-97"/>
      <use x="861.6875" xlink:href="#DejaVuSans-99"/>
      <use x="916.667969" xlink:href="#DejaVuSans-101"/>
      <use x="978.191406" xlink:href="#DejaVuSans-41"/>
     </g>
    </g>
   </g>
   <g id="matplotlib.axis_4">
    <g id="ytick_14">
     <g id="line2d_36">
      <path clip-path="url(#pa097742e26)" d="M 615.058883 21.563077 
L 910.470648 21.563077 
" style="fill:none;stroke:#cccccc;stroke-linecap:round;stroke-width:1.5;"/>
     </g>
    </g>
    <g id="ytick_15">
     <g id="line2d_37">
      <path clip-path="url(#pa097742e26)" d="M 615.058883 38.289231 
L 910.470648 38.289231 
" style="fill:none;stroke:#cccccc;stroke-linecap:round;stroke-width:1.5;"/>
     </g>
    </g>
    <g id="ytick_16">
     <g id="line2d_38">
      <path clip-path="url(#pa097742e26)" d="M 615.058883 55.015385 
L 910.470648 55.015385 
" style="fill:none;stroke:#cccccc;stroke-linecap:round;stroke-width:1.5;"/>
     </g>
    </g>
    <g id="ytick_17">
     <g id="line2d_39">
      <path clip-path="url(#pa097742e26)" d="M 615.058883 71.741538 
L 910.470648 71.741538 
" style="fill:none;stroke:#cccccc;stroke-linecap:round;stroke-width:1.5;"/>
     </g>
    </g>
    <g id="ytick_18">
     <g id="line2d_40">
      <path clip-path="url(#pa097742e26)" d="M 615.058883 88.467692 
L 910.470648 88.467692 
" style="fill:none;stroke:#cccccc;stroke-linecap:round;stroke-width:1.5;"/>
     </g>
    </g>
    <g id="ytick_19">
     <g id="line2d_41">
      <path clip-path="url(#pa097742e26)" d="M 615.058883 105.193846 
L 910.470648 105.193846 
" style="fill:none;stroke:#cccccc;stroke-linecap:round;stroke-width:1.5;"/>
     </g>
    </g>
    <g id="ytick_20">
     <g id="line2d_42">
      <path clip-path="url(#pa097742e26)" d="M 615.058883 121.92 
L 910.470648 121.92 
" style="fill:none;stroke:#cccccc;stroke-linecap:round;stroke-width:1.5;"/>
     </g>
    </g>
    <g id="ytick_21">
     <g id="line2d_43">
      <path clip-path="url(#pa097742e26)" d="M 615.058883 138.646154 
L 910.470648 138.646154 
" style="fill:none;stroke:#cccccc;stroke-linecap:round;stroke-width:1.5;"/>
     </g>
    </g>
    <g id="ytick_22">
     <g id="line2d_44">
      <path clip-path="url(#pa097742e26)" d="M 615.058883 155.372308 
L 910.470648 155.372308 
" style="fill:none;stroke:#cccccc;stroke-linecap:round;stroke-width:1.5;"/>
     </g>
    </g>
    <g id="ytick_23">
     <g id="line2d_45">
      <path clip-path="url(#pa097742e26)" d="M 615.058883 172.098462 
L 910.470648 172.098462 
" style="fill:none;stroke:#cccccc;stroke-linecap:round;stroke-width:1.5;"/>
     </g>
    </g>
    <g id="ytick_24">
     <g id="line2d_46">
      <path clip-path="url(#pa097742e26)" d="M 615.058883 188.824615 
L 910.470648 188.824615 
" style="fill:none;stroke:#cccccc;stroke-linecap:round;stroke-width:1.5;"/>
     </g>
    </g>
    <g id="ytick_25">
     <g id="line2d_47">
      <path clip-path="url(#pa097742e26)" d="M 615.058883 205.550769 
L 910.470648 205.550769 
" style="fill:none;stroke:#cccccc;stroke-linecap:round;stroke-width:1.5;"/>
     </g>
    </g>
    <g id="ytick_26">
     <g id="line2d_48">
      <path clip-path="url(#pa097742e26)" d="M 615.058883 222.276923 
L 910.470648 222.276923 
" style="fill:none;stroke:#cccccc;stroke-linecap:round;stroke-width:1.5;"/>
     </g>
    </g>
   </g>
   <g id="patch_19">
    <path clip-path="url(#pa097742e26)" d="M 615.058883 14.872615 
L 713.529472 14.872615 
L 713.529472 28.253538 
L 615.058883 28.253538 
z
" style="fill:#808080;stroke:#ffffff;stroke-linejoin:miter;stroke-width:1.5;"/>
   </g>
   <g id="patch_20">
    <path clip-path="url(#pa097742e26)" d="M 615.058883 31.598769 
L 665.7009 31.598769 
L 665.7009 44.979692 
L 615.058883 44.979692 
z
" style="fill:#808080;stroke:#ffffff;stroke-linejoin:miter;stroke-width:1.5;"/>
   </g>
   <g id="patch_21">
    <path clip-path="url(#pa097742e26)" d="M 615.058883 48.324923 
L 634.753001 48.324923 
L 634.753001 61.705846 
L 615.058883 61.705846 
z
" style="fill:#808080;stroke:#ffffff;stroke-linejoin:miter;stroke-width:1.5;"/>
   </g>
   <g id="patch_22">
    <path clip-path="url(#pa097742e26)" d="M 615.058883 65.051077 
L 629.12611 65.051077 
L 629.12611 78.432 
L 615.058883 78.432 
z
" style="fill:#808080;stroke:#ffffff;stroke-linejoin:miter;stroke-width:1.5;"/>
   </g>
   <g id="patch_23">
    <path clip-path="url(#pa097742e26)" d="M 615.058883 81.777231 
L 634.753001 81.777231 
L 634.753001 95.158154 
L 615.058883 95.158154 
z
" style="fill:#808080;stroke:#ffffff;stroke-linejoin:miter;stroke-width:1.5;"/>
   </g>
   <g id="patch_24">
    <path clip-path="url(#pa097742e26)" d="M 615.058883 98.503385 
L 620.685774 98.503385 
L 620.685774 111.884308 
L 615.058883 111.884308 
z
" style="fill:#808080;stroke:#ffffff;stroke-linejoin:miter;stroke-width:1.5;"/>
   </g>
   <g id="patch_25">
    <path clip-path="url(#pa097742e26)" d="M 615.058883 115.229538 
L 629.12611 115.229538 
L 629.12611 128.610462 
L 615.058883 128.610462 
z
" style="fill:#808080;stroke:#ffffff;stroke-linejoin:miter;stroke-width:1.5;"/>
   </g>
   <g id="patch_26">
    <path clip-path="url(#pa097742e26)" d="M 615.058883 131.955692 
L 812.00006 131.955692 
L 812.00006 145.336615 
L 615.058883 145.336615 
z
" style="fill:#808080;stroke:#ffffff;stroke-linejoin:miter;stroke-width:1.5;"/>
   </g>
   <g id="patch_27">
    <path clip-path="url(#pa097742e26)" d="M 615.058883 148.681846 
L 643.193337 148.681846 
L 643.193337 162.062769 
L 615.058883 162.062769 
z
" style="fill:#808080;stroke:#ffffff;stroke-linejoin:miter;stroke-width:1.5;"/>
   </g>
   <g id="patch_28">
    <path clip-path="url(#pa097742e26)" d="M 615.058883 165.408 
L 629.12611 165.408 
L 629.12611 178.788923 
L 615.058883 178.788923 
z
" style="fill:#808080;stroke:#ffffff;stroke-linejoin:miter;stroke-width:1.5;"/>
   </g>
   <g id="patch_29">
    <path clip-path="url(#pa097742e26)" d="M 615.058883 182.134154 
L 629.12611 182.134154 
L 629.12611 195.515077 
L 615.058883 195.515077 
z
" style="fill:#808080;stroke:#ffffff;stroke-linejoin:miter;stroke-width:1.5;"/>
   </g>
   <g id="patch_30">
    <path clip-path="url(#pa097742e26)" d="M 615.058883 198.860308 
L 896.403421 198.860308 
L 896.403421 212.241231 
L 615.058883 212.241231 
z
" style="fill:#808080;stroke:#ffffff;stroke-linejoin:miter;stroke-width:1.5;"/>
   </g>
   <g id="patch_31">
    <path clip-path="url(#pa097742e26)" d="M 615.058883 215.586462 
L 713.529472 215.586462 
L 713.529472 228.967385 
L 615.058883 228.967385 
z
" style="fill:#808080;stroke:#ffffff;stroke-linejoin:miter;stroke-width:1.5;"/>
   </g>
   <g id="line2d_49">
    <path clip-path="url(#pa097742e26)" d="M 0 0 
" style="fill:none;stroke:#424242;stroke-linecap:round;stroke-width:4.05;"/>
   </g>
   <g id="line2d_50">
    <path clip-path="url(#pa097742e26)" d="M 0 0 
" style="fill:none;stroke:#424242;stroke-linecap:round;stroke-width:4.05;"/>
   </g>
   <g id="line2d_51">
    <path clip-path="url(#pa097742e26)" d="M 0 0 
" style="fill:none;stroke:#424242;stroke-linecap:round;stroke-width:4.05;"/>
   </g>
   <g id="line2d_52">
    <path clip-path="url(#pa097742e26)" d="M 0 0 
" style="fill:none;stroke:#424242;stroke-linecap:round;stroke-width:4.05;"/>
   </g>
   <g id="line2d_53">
    <path clip-path="url(#pa097742e26)" d="M 0 0 
" style="fill:none;stroke:#424242;stroke-linecap:round;stroke-width:4.05;"/>
   </g>
   <g id="line2d_54">
    <path clip-path="url(#pa097742e26)" d="M 0 0 
" style="fill:none;stroke:#424242;stroke-linecap:round;stroke-width:4.05;"/>
   </g>
   <g id="line2d_55">
    <path clip-path="url(#pa097742e26)" d="M 0 0 
" style="fill:none;stroke:#424242;stroke-linecap:round;stroke-width:4.05;"/>
   </g>
   <g id="line2d_56">
    <path clip-path="url(#pa097742e26)" d="M 0 0 
" style="fill:none;stroke:#424242;stroke-linecap:round;stroke-width:4.05;"/>
   </g>
   <g id="line2d_57">
    <path clip-path="url(#pa097742e26)" d="M 0 0 
" style="fill:none;stroke:#424242;stroke-linecap:round;stroke-width:4.05;"/>
   </g>
   <g id="line2d_58">
    <path clip-path="url(#pa097742e26)" d="M 0 0 
" style="fill:none;stroke:#424242;stroke-linecap:round;stroke-width:4.05;"/>
   </g>
   <g id="line2d_59">
    <path clip-path="url(#pa097742e26)" d="M 0 0 
" style="fill:none;stroke:#424242;stroke-linecap:round;stroke-width:4.05;"/>
   </g>
   <g id="line2d_60">
    <path clip-path="url(#pa097742e26)" d="M 0 0 
" style="fill:none;stroke:#424242;stroke-linecap:round;stroke-width:4.05;"/>
   </g>
   <g id="line2d_61">
    <path clip-path="url(#pa097742e26)" d="M 0 0 
" style="fill:none;stroke:#424242;stroke-linecap:round;stroke-width:4.05;"/>
   </g>
   <g id="line2d_62">
    <path clip-path="url(#pa097742e26)" d="M 713.529472 230.64 
L 713.529472 13.2 
" style="fill:none;stroke:#4c72b0;stroke-linecap:round;stroke-width:3;"/>
   </g>
   <g id="patch_32">
    <path d="M 615.058883 230.64 
L 615.058883 13.2 
" style="fill:none;stroke:#262626;stroke-linecap:square;stroke-linejoin:miter;stroke-width:1.875;"/>
   </g>
   <g id="patch_33">
    <path d="M 615.058883 230.64 
L 910.470648 230.64 
" style="fill:none;stroke:#262626;stroke-linecap:square;stroke-linejoin:miter;stroke-width:1.875;"/>
   </g>
  </g>
  <g id="axes_3">
   <g id="patch_34">
    <path d="M 969.553001 230.64 
L 1264.964766 230.64 
L 1264.964766 13.2 
L 969.553001 13.2 
z
" style="fill:none;"/>
   </g>
   <g id="matplotlib.axis_5">
    <g id="xtick_9">
     <g id="line2d_63">
      <path clip-path="url(#p872f405975)" d="M 969.553001 230.64 
L 969.553001 13.2 
" style="fill:none;stroke:#cccccc;stroke-linecap:round;stroke-width:1.5;"/>
     </g>
     <g id="text_25">
      <!-- 0.0 -->
      <defs>
       <path d="M 10.6875 12.40625 
L 21 12.40625 
L 21 0 
L 10.6875 0 
z
" id="DejaVuSans-46"/>
      </defs>
      <g style="fill:#262626;" transform="translate(956.432923 249.677422)scale(0.165 -0.165)">
       <use xlink:href="#DejaVuSans-48"/>
       <use x="63.623047" xlink:href="#DejaVuSans-46"/>
       <use x="95.410156" xlink:href="#DejaVuSans-48"/>
      </g>
     </g>
    </g>
    <g id="xtick_10">
     <g id="line2d_64">
      <path clip-path="url(#p872f405975)" d="M 1039.889135 230.64 
L 1039.889135 13.2 
" style="fill:none;stroke:#cccccc;stroke-linecap:round;stroke-width:1.5;"/>
     </g>
     <g id="text_26">
      <!-- 0.2 -->
      <g style="fill:#262626;" transform="translate(1026.769057 249.677422)scale(0.165 -0.165)">
       <use xlink:href="#DejaVuSans-48"/>
       <use x="63.623047" xlink:href="#DejaVuSans-46"/>
       <use x="95.410156" xlink:href="#DejaVuSans-50"/>
      </g>
     </g>
    </g>
    <g id="xtick_11">
     <g id="line2d_65">
      <path clip-path="url(#p872f405975)" d="M 1110.22527 230.64 
L 1110.22527 13.2 
" style="fill:none;stroke:#cccccc;stroke-linecap:round;stroke-width:1.5;"/>
     </g>
     <g id="text_27">
      <!-- 0.4 -->
      <g style="fill:#262626;" transform="translate(1097.105192 249.677422)scale(0.165 -0.165)">
       <use xlink:href="#DejaVuSans-48"/>
       <use x="63.623047" xlink:href="#DejaVuSans-46"/>
       <use x="95.410156" xlink:href="#DejaVuSans-52"/>
      </g>
     </g>
    </g>
    <g id="xtick_12">
     <g id="line2d_66">
      <path clip-path="url(#p872f405975)" d="M 1180.561404 230.64 
L 1180.561404 13.2 
" style="fill:none;stroke:#cccccc;stroke-linecap:round;stroke-width:1.5;"/>
     </g>
     <g id="text_28">
      <!-- 0.6 -->
      <defs>
       <path d="M 33.015625 40.375 
Q 26.375 40.375 22.484375 35.828125 
Q 18.609375 31.296875 18.609375 23.390625 
Q 18.609375 15.53125 22.484375 10.953125 
Q 26.375 6.390625 33.015625 6.390625 
Q 39.65625 6.390625 43.53125 10.953125 
Q 47.40625 15.53125 47.40625 23.390625 
Q 47.40625 31.296875 43.53125 35.828125 
Q 39.65625 40.375 33.015625 40.375 
z
M 52.59375 71.296875 
L 52.59375 62.3125 
Q 48.875 64.0625 45.09375 64.984375 
Q 41.3125 65.921875 37.59375 65.921875 
Q 27.828125 65.921875 22.671875 59.328125 
Q 17.53125 52.734375 16.796875 39.40625 
Q 19.671875 43.65625 24.015625 45.921875 
Q 28.375 48.1875 33.59375 48.1875 
Q 44.578125 48.1875 50.953125 41.515625 
Q 57.328125 34.859375 57.328125 23.390625 
Q 57.328125 12.15625 50.6875 5.359375 
Q 44.046875 -1.421875 33.015625 -1.421875 
Q 20.359375 -1.421875 13.671875 8.265625 
Q 6.984375 17.96875 6.984375 36.375 
Q 6.984375 53.65625 15.1875 63.9375 
Q 23.390625 74.21875 37.203125 74.21875 
Q 40.921875 74.21875 44.703125 73.484375 
Q 48.484375 72.75 52.59375 71.296875 
z
" id="DejaVuSans-54"/>
      </defs>
      <g style="fill:#262626;" transform="translate(1167.441326 249.677422)scale(0.165 -0.165)">
       <use xlink:href="#DejaVuSans-48"/>
       <use x="63.623047" xlink:href="#DejaVuSans-46"/>
       <use x="95.410156" xlink:href="#DejaVuSans-54"/>
      </g>
     </g>
    </g>
    <g id="xtick_13">
     <g id="line2d_67">
      <path clip-path="url(#p872f405975)" d="M 1250.897539 230.64 
L 1250.897539 13.2 
" style="fill:none;stroke:#cccccc;stroke-linecap:round;stroke-width:1.5;"/>
     </g>
     <g id="text_29">
      <!-- 0.8 -->
      <g style="fill:#262626;" transform="translate(1237.777461 249.677422)scale(0.165 -0.165)">
       <use xlink:href="#DejaVuSans-48"/>
       <use x="63.623047" xlink:href="#DejaVuSans-46"/>
       <use x="95.410156" xlink:href="#DejaVuSans-56"/>
      </g>
     </g>
    </g>
    <g id="text_30">
     <!-- hit rate (frac improved) -->
     <defs>
      <path d="M 2.984375 54.6875 
L 12.5 54.6875 
L 29.59375 8.796875 
L 46.6875 54.6875 
L 56.203125 54.6875 
L 35.6875 0 
L 23.484375 0 
z
" id="DejaVuSans-118"/>
     </defs>
     <g style="fill:#262626;" transform="translate(1011.546852 270.786094)scale(0.18 -0.18)">
      <use xlink:href="#DejaVuSans-104"/>
      <use x="63.378906" xlink:href="#DejaVuSans-105"/>
      <use x="91.162109" xlink:href="#DejaVuSans-116"/>
      <use x="130.371094" xlink:href="#DejaVuSans-32"/>
      <use x="162.158203" xlink:href="#DejaVuSans-114"/>
      <use x="203.271484" xlink:href="#DejaVuSans-97"/>
      <use x="264.550781" xlink:href="#DejaVuSans-116"/>
      <use x="303.759766" xlink:href="#DejaVuSans-101"/>
      <use x="365.283203" xlink:href="#DejaVuSans-32"/>
      <use x="397.070312" xlink:href="#DejaVuSans-40"/>
      <use x="436.083984" xlink:href="#DejaVuSans-102"/>
      <use x="471.289062" xlink:href="#DejaVuSans-114"/>
      <use x="512.402344" xlink:href="#DejaVuSans-97"/>
      <use x="573.681641" xlink:href="#DejaVuSans-99"/>
      <use x="628.662109" xlink:href="#DejaVuSans-32"/>
      <use x="660.449219" xlink:href="#DejaVuSans-105"/>
      <use x="688.232422" xlink:href="#DejaVuSans-109"/>
      <use x="785.644531" xlink:href="#DejaVuSans-112"/>
      <use x="849.121094" xlink:href="#DejaVuSans-114"/>
      <use x="890.203125" xlink:href="#DejaVuSans-111"/>
      <use x="951.384766" xlink:href="#DejaVuSans-118"/>
      <use x="1010.564453" xlink:href="#DejaVuSans-101"/>
      <use x="1072.087891" xlink:href="#DejaVuSans-100"/>
      <use x="1135.564453" xlink:href="#DejaVuSans-41"/>
     </g>
    </g>
   </g>
   <g id="matplotlib.axis_6">
    <g id="ytick_27">
     <g id="line2d_68">
      <path clip-path="url(#p872f405975)" d="M 969.553001 21.563077 
L 1264.964766 21.563077 
" style="fill:none;stroke:#cccccc;stroke-linecap:round;stroke-width:1.5;"/>
     </g>
    </g>
    <g id="ytick_28">
     <g id="line2d_69">
      <path clip-path="url(#p872f405975)" d="M 969.553001 38.289231 
L 1264.964766 38.289231 
" style="fill:none;stroke:#cccccc;stroke-linecap:round;stroke-width:1.5;"/>
     </g>
    </g>
    <g id="ytick_29">
     <g id="line2d_70">
      <path clip-path="url(#p872f405975)" d="M 969.553001 55.015385 
L 1264.964766 55.015385 
" style="fill:none;stroke:#cccccc;stroke-linecap:round;stroke-width:1.5;"/>
     </g>
    </g>
    <g id="ytick_30">
     <g id="line2d_71">
      <path clip-path="url(#p872f405975)" d="M 969.553001 71.741538 
L 1264.964766 71.741538 
" style="fill:none;stroke:#cccccc;stroke-linecap:round;stroke-width:1.5;"/>
     </g>
    </g>
    <g id="ytick_31">
     <g id="line2d_72">
      <path clip-path="url(#p872f405975)" d="M 969.553001 88.467692 
L 1264.964766 88.467692 
" style="fill:none;stroke:#cccccc;stroke-linecap:round;stroke-width:1.5;"/>
     </g>
    </g>
    <g id="ytick_32">
     <g id="line2d_73">
      <path clip-path="url(#p872f405975)" d="M 969.553001 105.193846 
L 1264.964766 105.193846 
" style="fill:none;stroke:#cccccc;stroke-linecap:round;stroke-width:1.5;"/>
     </g>
    </g>
    <g id="ytick_33">
     <g id="line2d_74">
      <path clip-path="url(#p872f405975)" d="M 969.553001 121.92 
L 1264.964766 121.92 
" style="fill:none;stroke:#cccccc;stroke-linecap:round;stroke-width:1.5;"/>
     </g>
    </g>
    <g id="ytick_34">
     <g id="line2d_75">
      <path clip-path="url(#p872f405975)" d="M 969.553001 138.646154 
L 1264.964766 138.646154 
" style="fill:none;stroke:#cccccc;stroke-linecap:round;stroke-width:1.5;"/>
     </g>
    </g>
    <g id="ytick_35">
     <g id="line2d_76">
      <path clip-path="url(#p872f405975)" d="M 969.553001 155.372308 
L 1264.964766 155.372308 
" style="fill:none;stroke:#cccccc;stroke-linecap:round;stroke-width:1.5;"/>
     </g>
    </g>
    <g id="ytick_36">
     <g id="line2d_77">
      <path clip-path="url(#p872f405975)" d="M 969.553001 172.098462 
L 1264.964766 172.098462 
" style="fill:none;stroke:#cccccc;stroke-linecap:round;stroke-width:1.5;"/>
     </g>
    </g>
    <g id="ytick_37">
     <g id="line2d_78">
      <path clip-path="url(#p872f405975)" d="M 969.553001 188.824615 
L 1264.964766 188.824615 
" style="fill:none;stroke:#cccccc;stroke-linecap:round;stroke-width:1.5;"/>
     </g>
    </g>
    <g id="ytick_38">
     <g id="line2d_79">
      <path clip-path="url(#p872f405975)" d="M 969.553001 205.550769 
L 1264.964766 205.550769 
" style="fill:none;stroke:#cccccc;stroke-linecap:round;stroke-width:1.5;"/>
     </g>
    </g>
    <g id="ytick_39">
     <g id="line2d_80">
      <path clip-path="url(#p872f405975)" d="M 969.553001 222.276923 
L 1264.964766 222.276923 
" style="fill:none;stroke:#cccccc;stroke-linecap:round;stroke-width:1.5;"/>
     </g>
    </g>
   </g>
   <g id="patch_35">
    <path clip-path="url(#p872f405975)" d="M 969.553001 14.872615 
L 1004.721068 14.872615 
L 1004.721068 28.253538 
L 969.553001 28.253538 
z
" style="fill:#808080;stroke:#ffffff;stroke-linejoin:miter;stroke-width:1.5;"/>
   </g>
   <g id="patch_36">
    <path clip-path="url(#p872f405975)" d="M 969.553001 31.598769 
L 1057.473169 31.598769 
L 1057.473169 44.979692 
L 969.553001 44.979692 
z
" style="fill:#808080;stroke:#ffffff;stroke-linejoin:miter;stroke-width:1.5;"/>
   </g>
   <g id="patch_37">
    <path clip-path="url(#p872f405975)" d="M 969.553001 48.324923 
L 1057.473169 48.324923 
L 1057.473169 61.705846 
L 969.553001 61.705846 
z
" style="fill:#808080;stroke:#ffffff;stroke-linejoin:miter;stroke-width:1.5;"/>
   </g>
   <g id="patch_38">
    <path clip-path="url(#p872f405975)" d="M 969.553001 65.051077 
L 1064.506782 65.051077 
L 1064.506782 78.432 
L 969.553001 78.432 
z
" style="fill:#808080;stroke:#ffffff;stroke-linejoin:miter;stroke-width:1.5;"/>
   </g>
   <g id="patch_39">
    <path clip-path="url(#p872f405975)" d="z
" style="fill:#808080;stroke:#ffffff;stroke-linejoin:miter;stroke-width:1.5;"/>
   </g>
   <g id="patch_40">
    <path clip-path="url(#p872f405975)" d="M 969.553001 98.503385 
L 1250.897539 98.503385 
L 1250.897539 111.884308 
L 969.553001 111.884308 
z
" style="fill:#808080;stroke:#ffffff;stroke-linejoin:miter;stroke-width:1.5;"/>
   </g>
   <g id="patch_41">
    <path clip-path="url(#p872f405975)" d="M 969.553001 115.229538 
L 1036.372329 115.229538 
L 1036.372329 128.610462 
L 969.553001 128.610462 
z
" style="fill:#808080;stroke:#ffffff;stroke-linejoin:miter;stroke-width:1.5;"/>
   </g>
   <g id="patch_42">
    <path clip-path="url(#p872f405975)" d="M 969.553001 131.955692 
L 987.137035 131.955692 
L 987.137035 145.336615 
L 969.553001 145.336615 
z
" style="fill:#808080;stroke:#ffffff;stroke-linejoin:miter;stroke-width:1.5;"/>
   </g>
   <g id="patch_43">
    <path clip-path="url(#p872f405975)" d="M 969.553001 148.681846 
L 1050.439556 148.681846 
L 1050.439556 162.062769 
L 969.553001 162.062769 
z
" style="fill:#808080;stroke:#ffffff;stroke-linejoin:miter;stroke-width:1.5;"/>
   </g>
   <g id="patch_44">
    <path clip-path="url(#p872f405975)" d="M 969.553001 165.408 
L 1233.313505 165.408 
L 1233.313505 178.788923 
L 969.553001 178.788923 
z
" style="fill:#808080;stroke:#ffffff;stroke-linejoin:miter;stroke-width:1.5;"/>
   </g>
   <g id="patch_45">
    <path clip-path="url(#p872f405975)" d="M 969.553001 182.134154 
L 1141.87653 182.134154 
L 1141.87653 195.515077 
L 969.553001 195.515077 
z
" style="fill:#808080;stroke:#ffffff;stroke-linejoin:miter;stroke-width:1.5;"/>
   </g>
   <g id="patch_46">
    <path clip-path="url(#p872f405975)" d="M 969.553001 198.860308 
L 969.553001 198.860308 
L 969.553001 212.241231 
L 969.553001 212.241231 
z
" style="fill:#808080;stroke:#ffffff;stroke-linejoin:miter;stroke-width:1.5;"/>
   </g>
   <g id="patch_47">
    <path clip-path="url(#p872f405975)" d="M 969.553001 215.586462 
L 969.553001 215.586462 
L 969.553001 228.967385 
L 969.553001 228.967385 
z
" style="fill:#808080;stroke:#ffffff;stroke-linejoin:miter;stroke-width:1.5;"/>
   </g>
   <g id="line2d_81">
    <path clip-path="url(#p872f405975)" d="M 0 0 
" style="fill:none;stroke:#424242;stroke-linecap:round;stroke-width:4.05;"/>
   </g>
   <g id="line2d_82">
    <path clip-path="url(#p872f405975)" d="M 0 0 
" style="fill:none;stroke:#424242;stroke-linecap:round;stroke-width:4.05;"/>
   </g>
   <g id="line2d_83">
    <path clip-path="url(#p872f405975)" d="M 0 0 
" style="fill:none;stroke:#424242;stroke-linecap:round;stroke-width:4.05;"/>
   </g>
   <g id="line2d_84">
    <path clip-path="url(#p872f405975)" d="M 0 0 
" style="fill:none;stroke:#424242;stroke-linecap:round;stroke-width:4.05;"/>
   </g>
   <g id="line2d_85">
    <path clip-path="url(#p872f405975)" d="M 0 0 
" style="fill:none;stroke:#424242;stroke-linecap:round;stroke-width:4.05;"/>
   </g>
   <g id="line2d_86">
    <path clip-path="url(#p872f405975)" d="M 0 0 
" style="fill:none;stroke:#424242;stroke-linecap:round;stroke-width:4.05;"/>
   </g>
   <g id="line2d_87">
    <path clip-path="url(#p872f405975)" d="M 0 0 
" style="fill:none;stroke:#424242;stroke-linecap:round;stroke-width:4.05;"/>
   </g>
   <g id="line2d_88">
    <path clip-path="url(#p872f405975)" d="M 0 0 
" style="fill:none;stroke:#424242;stroke-linecap:round;stroke-width:4.05;"/>
   </g>
   <g id="line2d_89">
    <path clip-path="url(#p872f405975)" d="M 0 0 
" style="fill:none;stroke:#424242;stroke-linecap:round;stroke-width:4.05;"/>
   </g>
   <g id="line2d_90">
    <path clip-path="url(#p872f405975)" d="M 0 0 
" style="fill:none;stroke:#424242;stroke-linecap:round;stroke-width:4.05;"/>
   </g>
   <g id="line2d_91">
    <path clip-path="url(#p872f405975)" d="M 0 0 
" style="fill:none;stroke:#424242;stroke-linecap:round;stroke-width:4.05;"/>
   </g>
   <g id="line2d_92">
    <path clip-path="url(#p872f405975)" d="M 0 0 
" style="fill:none;stroke:#424242;stroke-linecap:round;stroke-width:4.05;"/>
   </g>
   <g id="line2d_93">
    <path clip-path="url(#p872f405975)" d="M 0 0 
" style="fill:none;stroke:#424242;stroke-linecap:round;stroke-width:4.05;"/>
   </g>
   <g id="line2d_94">
    <path clip-path="url(#p872f405975)" d="M 1057.473169 230.64 
L 1057.473169 13.2 
" style="fill:none;stroke:#4c72b0;stroke-linecap:round;stroke-width:3;"/>
   </g>
   <g id="patch_48">
    <path d="M 969.553001 230.64 
L 969.553001 13.2 
" style="fill:none;stroke:#262626;stroke-linecap:square;stroke-linejoin:miter;stroke-width:1.875;"/>
   </g>
   <g id="patch_49">
    <path d="M 969.553001 230.64 
L 1264.964766 230.64 
" style="fill:none;stroke:#262626;stroke-linecap:square;stroke-linejoin:miter;stroke-width:1.875;"/>
   </g>
  </g>
 </g>
 <defs>
  <clipPath id="p0289b15760">
   <rect height="217.44" width="295.411765" x="260.564766" y="13.2"/>
  </clipPath>
  <clipPath id="pa097742e26">
   <rect height="217.44" width="295.411765" x="615.058883" y="13.2"/>
  </clipPath>
  <clipPath id="p872f405975">
   <rect height="217.44" width="295.411765" x="969.553001" y="13.2"/>
  </clipPath>
 </defs>
</svg>
