<?xml version="1.0" encoding="utf-8" standalone="no"?>
<!DOCTYPE svg PUBLIC "-//W3C//DTD SVG 1.1//EN"
  "http://www.w3.org/Graphics/SVG/1.1/DTD/svg11.dtd">
<!-- Created with matplotlib (http://matplotlib.org/) -->
<svg height="294pt" version="1.1" viewBox="0 0 871 294" width="871pt" xmlns="http://www.w3.org/2000/svg" xmlns:xlink="http://www.w3.org/1999/xlink">
 <defs>
  <style type="text/css">
*{stroke-linecap:butt;stroke-linejoin:round;}
  </style>
 </defs>
 <g id="figure_1">
  <g id="patch_1">
   <path d="M 0 294.003125 
L 871.153125 294.003125 
L 871.153125 0 
L 0 0 
z
" style="fill:none;"/>
  </g>
  <g id="axes_1">
   <g id="patch_2">
    <path d="M 76.340625 242.8975 
L 522.740625 242.8975 
L 522.740625 25.4575 
L 76.340625 25.4575 
z
" style="fill:none;"/>
   </g>
   <g id="patch_3">
    <path clip-path="url(#p71ebe04237)" d="M 105.453668 242.8975 
L 108.219408 242.8975 
L 108.219408 237.086531 
L 105.453668 237.086531 
z
" style="fill:#0000ff;opacity:0.7;"/>
   </g>
   <g id="patch_4">
    <path clip-path="url(#p71ebe04237)" d="M 108.219408 242.8975 
L 110.985147 242.8975 
L 110.985147 238.119592 
L 108.219408 238.119592 
z
" style="fill:#0000ff;opacity:0.7;"/>
   </g>
   <g id="patch_5">
    <path clip-path="url(#p71ebe04237)" d="M 110.985147 242.8975 
L 113.750886 242.8975 
L 113.750886 241.950527 
L 110.985147 241.950527 
z
" style="fill:#0000ff;opacity:0.7;"/>
   </g>
   <g id="patch_6">
    <path clip-path="url(#p71ebe04237)" d="M 113.750886 242.8975 
L 116.516625 242.8975 
L 116.516625 242.07966 
L 113.750886 242.07966 
z
" style="fill:#0000ff;opacity:0.7;"/>
   </g>
   <g id="patch_7">
    <path clip-path="url(#p71ebe04237)" d="M 116.516625 242.8975 
L 119.282364 242.8975 
L 119.282364 241.649218 
L 116.516625 241.649218 
z
" style="fill:#0000ff;opacity:0.7;"/>
   </g>
   <g id="patch_8">
    <path clip-path="url(#p71ebe04237)" d="M 119.282364 242.8975 
L 122.048103 242.8975 
L 122.048103 240.487024 
L 119.282364 240.487024 
z
" style="fill:#0000ff;opacity:0.7;"/>
   </g>
   <g id="patch_9">
    <path clip-path="url(#p71ebe04237)" d="M 122.048103 242.8975 
L 124.813842 242.8975 
L 124.813842 241.390953 
L 122.048103 241.390953 
z
" style="fill:#0000ff;opacity:0.7;"/>
   </g>
   <g id="patch_10">
    <path clip-path="url(#p71ebe04237)" d="M 124.813842 242.8975 
L 127.579582 242.8975 
L 127.579582 241.046599 
L 124.813842 241.046599 
z
" style="fill:#0000ff;opacity:0.7;"/>
   </g>
   <g id="patch_11">
    <path clip-path="url(#p71ebe04237)" d="M 127.579582 242.8975 
L 130.345321 242.8975 
L 130.345321 241.864439 
L 127.579582 241.864439 
z
" style="fill:#0000ff;opacity:0.7;"/>
   </g>
   <g id="patch_12">
    <path clip-path="url(#p71ebe04237)" d="M 130.345321 242.8975 
L 133.11106 242.8975 
L 133.11106 241.520085 
L 130.345321 241.520085 
z
" style="fill:#0000ff;opacity:0.7;"/>
   </g>
   <g id="patch_13">
    <path clip-path="url(#p71ebe04237)" d="M 133.11106 242.8975 
L 135.876799 242.8975 
L 135.876799 242.251837 
L 133.11106 242.251837 
z
" style="fill:#0000ff;opacity:0.7;"/>
   </g>
   <g id="patch_14">
    <path clip-path="url(#p71ebe04237)" d="M 135.876799 242.8975 
L 138.642538 242.8975 
L 138.642538 241.864439 
L 135.876799 241.864439 
z
" style="fill:#0000ff;opacity:0.7;"/>
   </g>
   <g id="patch_15">
    <path clip-path="url(#p71ebe04237)" d="M 138.642538 242.8975 
L 141.408277 242.8975 
L 141.408277 242.036616 
L 138.642538 242.036616 
z
" style="fill:#0000ff;opacity:0.7;"/>
   </g>
   <g id="patch_16">
    <path clip-path="url(#p71ebe04237)" d="M 141.408277 242.8975 
L 144.174016 242.8975 
L 144.174016 242.165748 
L 141.408277 242.165748 
z
" style="fill:#0000ff;opacity:0.7;"/>
   </g>
   <g id="patch_17">
    <path clip-path="url(#p71ebe04237)" d="M 144.174016 242.8975 
L 146.939755 242.8975 
L 146.939755 241.347908 
L 144.174016 241.347908 
z
" style="fill:#0000ff;opacity:0.7;"/>
   </g>
   <g id="patch_18">
    <path clip-path="url(#p71ebe04237)" d="M 146.939755 242.8975 
L 149.705495 242.8975 
L 149.705495 240.487024 
L 146.939755 240.487024 
z
" style="fill:#0000ff;opacity:0.7;"/>
   </g>
   <g id="patch_19">
    <path clip-path="url(#p71ebe04237)" d="M 149.705495 242.8975 
L 152.471234 242.8975 
L 152.471234 241.563129 
L 149.705495 241.563129 
z
" style="fill:#0000ff;opacity:0.7;"/>
   </g>
   <g id="patch_20">
    <path clip-path="url(#p71ebe04237)" d="M 152.471234 242.8975 
L 155.236973 242.8975 
L 155.236973 242.337925 
L 152.471234 242.337925 
z
" style="fill:#0000ff;opacity:0.7;"/>
   </g>
   <g id="patch_21">
    <path clip-path="url(#p71ebe04237)" d="M 155.236973 242.8975 
L 158.002712 242.8975 
L 158.002712 242.424014 
L 155.236973 242.424014 
z
" style="fill:#0000ff;opacity:0.7;"/>
   </g>
   <g id="patch_22">
    <path clip-path="url(#p71ebe04237)" d="M 158.002712 242.8975 
L 160.768451 242.8975 
L 160.768451 242.510102 
L 158.002712 242.510102 
z
" style="fill:#0000ff;opacity:0.7;"/>
   </g>
   <g id="patch_23">
    <path clip-path="url(#p71ebe04237)" d="M 160.768451 242.8975 
L 163.53419 242.8975 
L 163.53419 242.294881 
L 160.768451 242.294881 
z
" style="fill:#0000ff;opacity:0.7;"/>
   </g>
   <g id="patch_24">
    <path clip-path="url(#p71ebe04237)" d="M 163.53419 242.8975 
L 166.299929 242.8975 
L 166.299929 242.510102 
L 163.53419 242.510102 
z
" style="fill:#0000ff;opacity:0.7;"/>
   </g>
   <g id="patch_25">
    <path clip-path="url(#p71ebe04237)" d="M 166.299929 242.8975 
L 169.065668 242.8975 
L 169.065668 242.208793 
L 166.299929 242.208793 
z
" style="fill:#0000ff;opacity:0.7;"/>
   </g>
   <g id="patch_26">
    <path clip-path="url(#p71ebe04237)" d="M 169.065668 242.8975 
L 171.831408 242.8975 
L 171.831408 242.251837 
L 169.065668 242.251837 
z
" style="fill:#0000ff;opacity:0.7;"/>
   </g>
   <g id="patch_27">
    <path clip-path="url(#p71ebe04237)" d="M 171.831408 242.8975 
L 174.597147 242.8975 
L 174.597147 242.208793 
L 171.831408 242.208793 
z
" style="fill:#0000ff;opacity:0.7;"/>
   </g>
   <g id="patch_28">
    <path clip-path="url(#p71ebe04237)" d="M 174.597147 242.8975 
L 177.362886 242.8975 
L 177.362886 242.294881 
L 174.597147 242.294881 
z
" style="fill:#0000ff;opacity:0.7;"/>
   </g>
   <g id="patch_29">
    <path clip-path="url(#p71ebe04237)" d="M 177.362886 242.8975 
L 180.128625 242.8975 
L 180.128625 242.510102 
L 177.362886 242.510102 
z
" style="fill:#0000ff;opacity:0.7;"/>
   </g>
   <g id="patch_30">
    <path clip-path="url(#p71ebe04237)" d="M 180.128625 242.8975 
L 182.894364 242.8975 
L 182.894364 242.380969 
L 180.128625 242.380969 
z
" style="fill:#0000ff;opacity:0.7;"/>
   </g>
   <g id="patch_31">
    <path clip-path="url(#p71ebe04237)" d="M 182.894364 242.8975 
L 185.660103 242.8975 
L 185.660103 242.424014 
L 182.894364 242.424014 
z
" style="fill:#0000ff;opacity:0.7;"/>
   </g>
   <g id="patch_32">
    <path clip-path="url(#p71ebe04237)" d="M 185.660103 242.8975 
L 188.425842 242.8975 
L 188.425842 241.821395 
L 185.660103 241.821395 
z
" style="fill:#0000ff;opacity:0.7;"/>
   </g>
   <g id="patch_33">
    <path clip-path="url(#p71ebe04237)" d="M 188.425842 242.8975 
L 191.191582 242.8975 
L 191.191582 242.122704 
L 188.425842 242.122704 
z
" style="fill:#0000ff;opacity:0.7;"/>
   </g>
   <g id="patch_34">
    <path clip-path="url(#p71ebe04237)" d="M 191.191582 242.8975 
L 193.957321 242.8975 
L 193.957321 242.337925 
L 191.191582 242.337925 
z
" style="fill:#0000ff;opacity:0.7;"/>
   </g>
   <g id="patch_35">
    <path clip-path="url(#p71ebe04237)" d="M 193.957321 242.8975 
L 196.72306 242.8975 
L 196.72306 241.433997 
L 193.957321 241.433997 
z
" style="fill:#0000ff;opacity:0.7;"/>
   </g>
   <g id="patch_36">
    <path clip-path="url(#p71ebe04237)" d="M 196.72306 242.8975 
L 199.488799 242.8975 
L 199.488799 242.251837 
L 196.72306 242.251837 
z
" style="fill:#0000ff;opacity:0.7;"/>
   </g>
   <g id="patch_37">
    <path clip-path="url(#p71ebe04237)" d="M 199.488799 242.8975 
L 202.254538 242.8975 
L 202.254538 241.520085 
L 199.488799 241.520085 
z
" style="fill:#0000ff;opacity:0.7;"/>
   </g>
   <g id="patch_38">
    <path clip-path="url(#p71ebe04237)" d="M 202.254538 242.8975 
L 205.020277 242.8975 
L 205.020277 234.676055 
L 202.254538 234.676055 
z
" style="fill:#0000ff;opacity:0.7;"/>
   </g>
   <g id="patch_39">
    <path clip-path="url(#p71ebe04237)" d="M 205.020277 242.8975 
L 207.786016 242.8975 
L 207.786016 238.033504 
L 205.020277 238.033504 
z
" style="fill:#0000ff;opacity:0.7;"/>
   </g>
   <g id="patch_40">
    <path clip-path="url(#p71ebe04237)" d="M 207.786016 242.8975 
L 210.551755 242.8975 
L 210.551755 240.831378 
L 207.786016 240.831378 
z
" style="fill:#0000ff;opacity:0.7;"/>
   </g>
   <g id="patch_41">
    <path clip-path="url(#p71ebe04237)" d="M 210.551755 242.8975 
L 213.317495 242.8975 
L 213.317495 240.616157 
L 210.551755 240.616157 
z
" style="fill:#0000ff;opacity:0.7;"/>
   </g>
   <g id="patch_42">
    <path clip-path="url(#p71ebe04237)" d="M 213.317495 242.8975 
L 216.083234 242.8975 
L 216.083234 241.735306 
L 213.317495 241.735306 
z
" style="fill:#0000ff;opacity:0.7;"/>
   </g>
   <g id="patch_43">
    <path clip-path="url(#p71ebe04237)" d="M 216.083234 242.8975 
L 218.848973 242.8975 
L 218.848973 241.563129 
L 216.083234 241.563129 
z
" style="fill:#0000ff;opacity:0.7;"/>
   </g>
   <g id="patch_44">
    <path clip-path="url(#p71ebe04237)" d="M 218.848973 242.8975 
L 221.614712 242.8975 
L 221.614712 241.304864 
L 218.848973 241.304864 
z
" style="fill:#0000ff;opacity:0.7;"/>
   </g>
   <g id="patch_45">
    <path clip-path="url(#p71ebe04237)" d="M 221.614712 242.8975 
L 224.380451 242.8975 
L 224.380451 241.993572 
L 221.614712 241.993572 
z
" style="fill:#0000ff;opacity:0.7;"/>
   </g>
   <g id="patch_46">
    <path clip-path="url(#p71ebe04237)" d="M 224.380451 242.8975 
L 227.14619 242.8975 
L 227.14619 241.649218 
L 224.380451 241.649218 
z
" style="fill:#0000ff;opacity:0.7;"/>
   </g>
   <g id="patch_47">
    <path clip-path="url(#p71ebe04237)" d="M 227.14619 242.8975 
L 229.911929 242.8975 
L 229.911929 241.132687 
L 227.14619 241.132687 
z
" style="fill:#0000ff;opacity:0.7;"/>
   </g>
   <g id="patch_48">
    <path clip-path="url(#p71ebe04237)" d="M 229.911929 242.8975 
L 232.677668 242.8975 
L 232.677668 241.175731 
L 229.911929 241.175731 
z
" style="fill:#0000ff;opacity:0.7;"/>
   </g>
   <g id="patch_49">
    <path clip-path="url(#p71ebe04237)" d="M 232.677668 242.8975 
L 235.443408 242.8975 
L 235.443408 241.907483 
L 232.677668 241.907483 
z
" style="fill:#0000ff;opacity:0.7;"/>
   </g>
   <g id="patch_50">
    <path clip-path="url(#p71ebe04237)" d="M 235.443408 242.8975 
L 238.209147 242.8975 
L 238.209147 242.294881 
L 235.443408 242.294881 
z
" style="fill:#0000ff;opacity:0.7;"/>
   </g>
   <g id="patch_51">
    <path clip-path="url(#p71ebe04237)" d="M 238.209147 242.8975 
L 240.974886 242.8975 
L 240.974886 242.251837 
L 238.209147 242.251837 
z
" style="fill:#0000ff;opacity:0.7;"/>
   </g>
   <g id="patch_52">
    <path clip-path="url(#p71ebe04237)" d="M 240.974886 242.8975 
L 243.740625 242.8975 
L 243.740625 241.692262 
L 240.974886 241.692262 
z
" style="fill:#0000ff;opacity:0.7;"/>
   </g>
   <g id="patch_53">
    <path clip-path="url(#p71ebe04237)" d="M 243.740625 242.8975 
L 246.506364 242.8975 
L 246.506364 242.036616 
L 243.740625 242.036616 
z
" style="fill:#0000ff;opacity:0.7;"/>
   </g>
   <g id="patch_54">
    <path clip-path="url(#p71ebe04237)" d="M 246.506364 242.8975 
L 249.272103 242.8975 
L 249.272103 241.950527 
L 246.506364 241.950527 
z
" style="fill:#0000ff;opacity:0.7;"/>
   </g>
   <g id="patch_55">
    <path clip-path="url(#p71ebe04237)" d="M 249.272103 242.8975 
L 252.037842 242.8975 
L 252.037842 241.347908 
L 249.272103 241.347908 
z
" style="fill:#0000ff;opacity:0.7;"/>
   </g>
   <g id="patch_56">
    <path clip-path="url(#p71ebe04237)" d="M 252.037842 242.8975 
L 254.803582 242.8975 
L 254.803582 242.07966 
L 252.037842 242.07966 
z
" style="fill:#0000ff;opacity:0.7;"/>
   </g>
   <g id="patch_57">
    <path clip-path="url(#p71ebe04237)" d="M 254.803582 242.8975 
L 257.569321 242.8975 
L 257.569321 240.14267 
L 254.803582 240.14267 
z
" style="fill:#0000ff;opacity:0.7;"/>
   </g>
   <g id="patch_58">
    <path clip-path="url(#p71ebe04237)" d="M 257.569321 242.8975 
L 260.33506 242.8975 
L 260.33506 239.238742 
L 257.569321 239.238742 
z
" style="fill:#0000ff;opacity:0.7;"/>
   </g>
   <g id="patch_59">
    <path clip-path="url(#p71ebe04237)" d="M 260.33506 242.8975 
L 263.100799 242.8975 
L 263.100799 237.301752 
L 260.33506 237.301752 
z
" style="fill:#0000ff;opacity:0.7;"/>
   </g>
   <g id="patch_60">
    <path clip-path="url(#p71ebe04237)" d="M 263.100799 242.8975 
L 265.866538 242.8975 
L 265.866538 236.613045 
L 263.100799 236.613045 
z
" style="fill:#0000ff;opacity:0.7;"/>
   </g>
   <g id="patch_61">
    <path clip-path="url(#p71ebe04237)" d="M 265.866538 242.8975 
L 268.632277 242.8975 
L 268.632277 231.275562 
L 265.866538 231.275562 
z
" style="fill:#0000ff;opacity:0.7;"/>
   </g>
   <g id="patch_62">
    <path clip-path="url(#p71ebe04237)" d="M 268.632277 242.8975 
L 271.398016 242.8975 
L 271.398016 235.536939 
L 268.632277 235.536939 
z
" style="fill:#0000ff;opacity:0.7;"/>
   </g>
   <g id="patch_63">
    <path clip-path="url(#p71ebe04237)" d="M 271.398016 242.8975 
L 274.163755 242.8975 
L 274.163755 228.3916 
L 271.398016 228.3916 
z
" style="fill:#0000ff;opacity:0.7;"/>
   </g>
   <g id="patch_64">
    <path clip-path="url(#p71ebe04237)" d="M 274.163755 242.8975 
L 276.929495 242.8975 
L 276.929495 227.875069 
L 274.163755 227.875069 
z
" style="fill:#0000ff;opacity:0.7;"/>
   </g>
   <g id="patch_65">
    <path clip-path="url(#p71ebe04237)" d="M 276.929495 242.8975 
L 279.695234 242.8975 
L 279.695234 217.200104 
L 276.929495 217.200104 
z
" style="fill:#0000ff;opacity:0.7;"/>
   </g>
   <g id="patch_66">
    <path clip-path="url(#p71ebe04237)" d="M 279.695234 242.8975 
L 282.460973 242.8975 
L 282.460973 209.882588 
L 279.695234 209.882588 
z
" style="fill:#0000ff;opacity:0.7;"/>
   </g>
   <g id="patch_67">
    <path clip-path="url(#p71ebe04237)" d="M 282.460973 242.8975 
L 285.226712 242.8975 
L 285.226712 218.577519 
L 282.460973 218.577519 
z
" style="fill:#0000ff;opacity:0.7;"/>
   </g>
   <g id="patch_68">
    <path clip-path="url(#p71ebe04237)" d="M 285.226712 242.8975 
L 287.992451 242.8975 
L 287.992451 219.567536 
L 285.226712 219.567536 
z
" style="fill:#0000ff;opacity:0.7;"/>
   </g>
   <g id="patch_69">
    <path clip-path="url(#p71ebe04237)" d="M 287.992451 242.8975 
L 290.75819 242.8975 
L 290.75819 224.603709 
L 287.992451 224.603709 
z
" style="fill:#0000ff;opacity:0.7;"/>
   </g>
   <g id="patch_70">
    <path clip-path="url(#p71ebe04237)" d="M 290.75819 242.8975 
L 293.523929 242.8975 
L 293.523929 217.845767 
L 290.75819 217.845767 
z
" style="fill:#0000ff;opacity:0.7;"/>
   </g>
   <g id="patch_71">
    <path clip-path="url(#p71ebe04237)" d="M 293.523929 242.8975 
L 296.289668 242.8975 
L 296.289668 218.620563 
L 293.523929 218.620563 
z
" style="fill:#0000ff;opacity:0.7;"/>
   </g>
   <g id="patch_72">
    <path clip-path="url(#p71ebe04237)" d="M 296.289668 242.8975 
L 299.055408 242.8975 
L 299.055408 224.044134 
L 296.289668 224.044134 
z
" style="fill:#0000ff;opacity:0.7;"/>
   </g>
   <g id="patch_73">
    <path clip-path="url(#p71ebe04237)" d="M 299.055408 242.8975 
L 301.821147 242.8975 
L 301.821147 229.20944 
L 299.055408 229.20944 
z
" style="fill:#0000ff;opacity:0.7;"/>
   </g>
   <g id="patch_74">
    <path clip-path="url(#p71ebe04237)" d="M 301.821147 242.8975 
L 304.586886 242.8975 
L 304.586886 229.941192 
L 301.821147 229.941192 
z
" style="fill:#0000ff;opacity:0.7;"/>
   </g>
   <g id="patch_75">
    <path clip-path="url(#p71ebe04237)" d="M 304.586886 242.8975 
L 307.352625 242.8975 
L 307.352625 231.533827 
L 304.586886 231.533827 
z
" style="fill:#0000ff;opacity:0.7;"/>
   </g>
   <g id="patch_76">
    <path clip-path="url(#p71ebe04237)" d="M 307.352625 242.8975 
L 310.118364 242.8975 
L 310.118364 230.371634 
L 307.352625 230.371634 
z
" style="fill:#0000ff;opacity:0.7;"/>
   </g>
   <g id="patch_77">
    <path clip-path="url(#p71ebe04237)" d="M 310.118364 242.8975 
L 312.884103 242.8975 
L 312.884103 224.173267 
L 310.118364 224.173267 
z
" style="fill:#0000ff;opacity:0.7;"/>
   </g>
   <g id="patch_78">
    <path clip-path="url(#p71ebe04237)" d="M 312.884103 242.8975 
L 315.649842 242.8975 
L 315.649842 206.180785 
L 312.884103 206.180785 
z
" style="fill:#0000ff;opacity:0.7;"/>
   </g>
   <g id="patch_79">
    <path clip-path="url(#p71ebe04237)" d="M 315.649842 242.8975 
L 318.415582 242.8975 
L 318.415582 166.063578 
L 315.649842 166.063578 
z
" style="fill:#0000ff;opacity:0.7;"/>
   </g>
   <g id="patch_80">
    <path clip-path="url(#p71ebe04237)" d="M 318.415582 242.8975 
L 321.181321 242.8975 
L 321.181321 117.16535 
L 318.415582 117.16535 
z
" style="fill:#0000ff;opacity:0.7;"/>
   </g>
   <g id="patch_81">
    <path clip-path="url(#p71ebe04237)" d="M 321.181321 242.8975 
L 323.94706 242.8975 
L 323.94706 80.061238 
L 321.181321 80.061238 
z
" style="fill:#0000ff;opacity:0.7;"/>
   </g>
   <g id="patch_82">
    <path clip-path="url(#p71ebe04237)" d="M 323.94706 242.8975 
L 326.712799 242.8975 
L 326.712799 133.048665 
L 323.94706 133.048665 
z
" style="fill:#0000ff;opacity:0.7;"/>
   </g>
   <g id="patch_83">
    <path clip-path="url(#p71ebe04237)" d="M 326.712799 242.8975 
L 329.478538 242.8975 
L 329.478538 70.37629 
L 326.712799 70.37629 
z
" style="fill:#0000ff;opacity:0.7;"/>
   </g>
   <g id="patch_84">
    <path clip-path="url(#p71ebe04237)" d="M 329.478538 242.8975 
L 332.244277 242.8975 
L 332.244277 90.564026 
L 329.478538 90.564026 
z
" style="fill:#0000ff;opacity:0.7;"/>
   </g>
   <g id="patch_85">
    <path clip-path="url(#p71ebe04237)" d="M 332.244277 242.8975 
L 335.010016 242.8975 
L 335.010016 113.980079 
L 332.244277 113.980079 
z
" style="fill:#0000ff;opacity:0.7;"/>
   </g>
   <g id="patch_86">
    <path clip-path="url(#p71ebe04237)" d="M 335.010016 242.8975 
L 337.775755 242.8975 
L 337.775755 123.708071 
L 335.010016 123.708071 
z
" style="fill:#0000ff;opacity:0.7;"/>
   </g>
   <g id="patch_87">
    <path clip-path="url(#p71ebe04237)" d="M 337.775755 242.8975 
L 340.541495 242.8975 
L 340.541495 108.384331 
L 337.775755 108.384331 
z
" style="fill:#0000ff;opacity:0.7;"/>
   </g>
   <g id="patch_88">
    <path clip-path="url(#p71ebe04237)" d="M 340.541495 242.8975 
L 343.307234 242.8975 
L 343.307234 80.233415 
L 340.541495 80.233415 
z
" style="fill:#0000ff;opacity:0.7;"/>
   </g>
   <g id="patch_89">
    <path clip-path="url(#p71ebe04237)" d="M 343.307234 242.8975 
L 346.072973 242.8975 
L 346.072973 153.451623 
L 343.307234 153.451623 
z
" style="fill:#0000ff;opacity:0.7;"/>
   </g>
   <g id="patch_90">
    <path clip-path="url(#p71ebe04237)" d="M 346.072973 242.8975 
L 348.838712 242.8975 
L 348.838712 124.224602 
L 346.072973 124.224602 
z
" style="fill:#0000ff;opacity:0.7;"/>
   </g>
   <g id="patch_91">
    <path clip-path="url(#p71ebe04237)" d="M 348.838712 242.8975 
L 351.604451 242.8975 
L 351.604451 139.247032 
L 348.838712 139.247032 
z
" style="fill:#0000ff;opacity:0.7;"/>
   </g>
   <g id="patch_92">
    <path clip-path="url(#p71ebe04237)" d="M 351.604451 242.8975 
L 354.37019 242.8975 
L 354.37019 149.965042 
L 351.604451 149.965042 
z
" style="fill:#0000ff;opacity:0.7;"/>
   </g>
   <g id="patch_93">
    <path clip-path="url(#p71ebe04237)" d="M 354.37019 242.8975 
L 357.135929 242.8975 
L 357.135929 159.34868 
L 354.37019 159.34868 
z
" style="fill:#0000ff;opacity:0.7;"/>
   </g>
   <g id="patch_94">
    <path clip-path="url(#p71ebe04237)" d="M 357.135929 242.8975 
L 359.901668 242.8975 
L 359.901668 152.762916 
L 357.135929 152.762916 
z
" style="fill:#0000ff;opacity:0.7;"/>
   </g>
   <g id="patch_95">
    <path clip-path="url(#p71ebe04237)" d="M 359.901668 242.8975 
L 362.667408 242.8975 
L 362.667408 147.855875 
L 359.901668 147.855875 
z
" style="fill:#0000ff;opacity:0.7;"/>
   </g>
   <g id="patch_96">
    <path clip-path="url(#p71ebe04237)" d="M 362.667408 242.8975 
L 365.433147 242.8975 
L 365.433147 172.563254 
L 362.667408 172.563254 
z
" style="fill:#0000ff;opacity:0.7;"/>
   </g>
   <g id="patch_97">
    <path clip-path="url(#p71ebe04237)" d="M 365.433147 242.8975 
L 368.198886 242.8975 
L 368.198886 121.340639 
L 365.433147 121.340639 
z
" style="fill:#0000ff;opacity:0.7;"/>
   </g>
   <g id="patch_98">
    <path clip-path="url(#p71ebe04237)" d="M 368.198886 242.8975 
L 370.964625 242.8975 
L 370.964625 119.317561 
L 368.198886 119.317561 
z
" style="fill:#0000ff;opacity:0.7;"/>
   </g>
   <g id="patch_99">
    <path clip-path="url(#p71ebe04237)" d="M 370.964625 242.8975 
L 373.730364 242.8975 
L 373.730364 129.21773 
L 370.964625 129.21773 
z
" style="fill:#0000ff;opacity:0.7;"/>
   </g>
   <g id="patch_100">
    <path clip-path="url(#p71ebe04237)" d="M 373.730364 242.8975 
L 376.496103 242.8975 
L 376.496103 121.900214 
L 373.730364 121.900214 
z
" style="fill:#0000ff;opacity:0.7;"/>
   </g>
   <g id="patch_101">
    <path clip-path="url(#p71ebe04237)" d="M 376.496103 242.8975 
L 379.261842 242.8975 
L 379.261842 113.506592 
L 376.496103 113.506592 
z
" style="fill:#0000ff;opacity:0.7;"/>
   </g>
   <g id="patch_102">
    <path clip-path="url(#p71ebe04237)" d="M 379.261842 242.8975 
L 382.027582 242.8975 
L 382.027582 81.30952 
L 379.261842 81.30952 
z
" style="fill:#0000ff;opacity:0.7;"/>
   </g>
   <g id="patch_103">
    <path clip-path="url(#p71ebe04237)" d="M 105.453668 242.8975 
L 108.219408 242.8975 
L 108.219408 242.8975 
L 105.453668 242.8975 
z
" style="fill:#ff0000;opacity:0.3;"/>
   </g>
   <g id="patch_104">
    <path clip-path="url(#p71ebe04237)" d="M 108.219408 242.8975 
L 110.985147 242.8975 
L 110.985147 242.8975 
L 108.219408 242.8975 
z
" style="fill:#ff0000;opacity:0.3;"/>
   </g>
   <g id="patch_105">
    <path clip-path="url(#p71ebe04237)" d="M 110.985147 242.8975 
L 113.750886 242.8975 
L 113.750886 242.8975 
L 110.985147 242.8975 
z
" style="fill:#ff0000;opacity:0.3;"/>
   </g>
   <g id="patch_106">
    <path clip-path="url(#p71ebe04237)" d="M 113.750886 242.8975 
L 116.516625 242.8975 
L 116.516625 242.8975 
L 113.750886 242.8975 
z
" style="fill:#ff0000;opacity:0.3;"/>
   </g>
   <g id="patch_107">
    <path clip-path="url(#p71ebe04237)" d="M 116.516625 242.8975 
L 119.282364 242.8975 
L 119.282364 242.8975 
L 116.516625 242.8975 
z
" style="fill:#ff0000;opacity:0.3;"/>
   </g>
   <g id="patch_108">
    <path clip-path="url(#p71ebe04237)" d="M 119.282364 242.8975 
L 122.048103 242.8975 
L 122.048103 242.8975 
L 119.282364 242.8975 
z
" style="fill:#ff0000;opacity:0.3;"/>
   </g>
   <g id="patch_109">
    <path clip-path="url(#p71ebe04237)" d="M 122.048103 242.8975 
L 124.813842 242.8975 
L 124.813842 242.8975 
L 122.048103 242.8975 
z
" style="fill:#ff0000;opacity:0.3;"/>
   </g>
   <g id="patch_110">
    <path clip-path="url(#p71ebe04237)" d="M 124.813842 242.8975 
L 127.579582 242.8975 
L 127.579582 242.8975 
L 124.813842 242.8975 
z
" style="fill:#ff0000;opacity:0.3;"/>
   </g>
   <g id="patch_111">
    <path clip-path="url(#p71ebe04237)" d="M 127.579582 242.8975 
L 130.345321 242.8975 
L 130.345321 242.8975 
L 127.579582 242.8975 
z
" style="fill:#ff0000;opacity:0.3;"/>
   </g>
   <g id="patch_112">
    <path clip-path="url(#p71ebe04237)" d="M 130.345321 242.8975 
L 133.11106 242.8975 
L 133.11106 242.8975 
L 130.345321 242.8975 
z
" style="fill:#ff0000;opacity:0.3;"/>
   </g>
   <g id="patch_113">
    <path clip-path="url(#p71ebe04237)" d="M 133.11106 242.8975 
L 135.876799 242.8975 
L 135.876799 242.8975 
L 133.11106 242.8975 
z
" style="fill:#ff0000;opacity:0.3;"/>
   </g>
   <g id="patch_114">
    <path clip-path="url(#p71ebe04237)" d="M 135.876799 242.8975 
L 138.642538 242.8975 
L 138.642538 242.8975 
L 135.876799 242.8975 
z
" style="fill:#ff0000;opacity:0.3;"/>
   </g>
   <g id="patch_115">
    <path clip-path="url(#p71ebe04237)" d="M 138.642538 242.8975 
L 141.408277 242.8975 
L 141.408277 242.8975 
L 138.642538 242.8975 
z
" style="fill:#ff0000;opacity:0.3;"/>
   </g>
   <g id="patch_116">
    <path clip-path="url(#p71ebe04237)" d="M 141.408277 242.8975 
L 144.174016 242.8975 
L 144.174016 242.8975 
L 141.408277 242.8975 
z
" style="fill:#ff0000;opacity:0.3;"/>
   </g>
   <g id="patch_117">
    <path clip-path="url(#p71ebe04237)" d="M 144.174016 242.8975 
L 146.939755 242.8975 
L 146.939755 242.8975 
L 144.174016 242.8975 
z
" style="fill:#ff0000;opacity:0.3;"/>
   </g>
   <g id="patch_118">
    <path clip-path="url(#p71ebe04237)" d="M 146.939755 242.8975 
L 149.705495 242.8975 
L 149.705495 242.8975 
L 146.939755 242.8975 
z
" style="fill:#ff0000;opacity:0.3;"/>
   </g>
   <g id="patch_119">
    <path clip-path="url(#p71ebe04237)" d="M 149.705495 242.8975 
L 152.471234 242.8975 
L 152.471234 242.8975 
L 149.705495 242.8975 
z
" style="fill:#ff0000;opacity:0.3;"/>
   </g>
   <g id="patch_120">
    <path clip-path="url(#p71ebe04237)" d="M 152.471234 242.8975 
L 155.236973 242.8975 
L 155.236973 242.8975 
L 152.471234 242.8975 
z
" style="fill:#ff0000;opacity:0.3;"/>
   </g>
   <g id="patch_121">
    <path clip-path="url(#p71ebe04237)" d="M 155.236973 242.8975 
L 158.002712 242.8975 
L 158.002712 242.8975 
L 155.236973 242.8975 
z
" style="fill:#ff0000;opacity:0.3;"/>
   </g>
   <g id="patch_122">
    <path clip-path="url(#p71ebe04237)" d="M 158.002712 242.8975 
L 160.768451 242.8975 
L 160.768451 242.8975 
L 158.002712 242.8975 
z
" style="fill:#ff0000;opacity:0.3;"/>
   </g>
   <g id="patch_123">
    <path clip-path="url(#p71ebe04237)" d="M 160.768451 242.8975 
L 163.53419 242.8975 
L 163.53419 242.8975 
L 160.768451 242.8975 
z
" style="fill:#ff0000;opacity:0.3;"/>
   </g>
   <g id="patch_124">
    <path clip-path="url(#p71ebe04237)" d="M 163.53419 242.8975 
L 166.299929 242.8975 
L 166.299929 242.8975 
L 163.53419 242.8975 
z
" style="fill:#ff0000;opacity:0.3;"/>
   </g>
   <g id="patch_125">
    <path clip-path="url(#p71ebe04237)" d="M 166.299929 242.8975 
L 169.065668 242.8975 
L 169.065668 242.8975 
L 166.299929 242.8975 
z
" style="fill:#ff0000;opacity:0.3;"/>
   </g>
   <g id="patch_126">
    <path clip-path="url(#p71ebe04237)" d="M 169.065668 242.8975 
L 171.831408 242.8975 
L 171.831408 242.8975 
L 169.065668 242.8975 
z
" style="fill:#ff0000;opacity:0.3;"/>
   </g>
   <g id="patch_127">
    <path clip-path="url(#p71ebe04237)" d="M 171.831408 242.8975 
L 174.597147 242.8975 
L 174.597147 242.8975 
L 171.831408 242.8975 
z
" style="fill:#ff0000;opacity:0.3;"/>
   </g>
   <g id="patch_128">
    <path clip-path="url(#p71ebe04237)" d="M 174.597147 242.8975 
L 177.362886 242.8975 
L 177.362886 242.8975 
L 174.597147 242.8975 
z
" style="fill:#ff0000;opacity:0.3;"/>
   </g>
   <g id="patch_129">
    <path clip-path="url(#p71ebe04237)" d="M 177.362886 242.8975 
L 180.128625 242.8975 
L 180.128625 242.8975 
L 177.362886 242.8975 
z
" style="fill:#ff0000;opacity:0.3;"/>
   </g>
   <g id="patch_130">
    <path clip-path="url(#p71ebe04237)" d="M 180.128625 242.8975 
L 182.894364 242.8975 
L 182.894364 242.8975 
L 180.128625 242.8975 
z
" style="fill:#ff0000;opacity:0.3;"/>
   </g>
   <g id="patch_131">
    <path clip-path="url(#p71ebe04237)" d="M 182.894364 242.8975 
L 185.660103 242.8975 
L 185.660103 242.8975 
L 182.894364 242.8975 
z
" style="fill:#ff0000;opacity:0.3;"/>
   </g>
   <g id="patch_132">
    <path clip-path="url(#p71ebe04237)" d="M 185.660103 242.8975 
L 188.425842 242.8975 
L 188.425842 242.8975 
L 185.660103 242.8975 
z
" style="fill:#ff0000;opacity:0.3;"/>
   </g>
   <g id="patch_133">
    <path clip-path="url(#p71ebe04237)" d="M 188.425842 242.8975 
L 191.191582 242.8975 
L 191.191582 242.8975 
L 188.425842 242.8975 
z
" style="fill:#ff0000;opacity:0.3;"/>
   </g>
   <g id="patch_134">
    <path clip-path="url(#p71ebe04237)" d="M 191.191582 242.8975 
L 193.957321 242.8975 
L 193.957321 242.8975 
L 191.191582 242.8975 
z
" style="fill:#ff0000;opacity:0.3;"/>
   </g>
   <g id="patch_135">
    <path clip-path="url(#p71ebe04237)" d="M 193.957321 242.8975 
L 196.72306 242.8975 
L 196.72306 242.8975 
L 193.957321 242.8975 
z
" style="fill:#ff0000;opacity:0.3;"/>
   </g>
   <g id="patch_136">
    <path clip-path="url(#p71ebe04237)" d="M 196.72306 242.8975 
L 199.488799 242.8975 
L 199.488799 242.8975 
L 196.72306 242.8975 
z
" style="fill:#ff0000;opacity:0.3;"/>
   </g>
   <g id="patch_137">
    <path clip-path="url(#p71ebe04237)" d="M 199.488799 242.8975 
L 202.254538 242.8975 
L 202.254538 242.8975 
L 199.488799 242.8975 
z
" style="fill:#ff0000;opacity:0.3;"/>
   </g>
   <g id="patch_138">
    <path clip-path="url(#p71ebe04237)" d="M 202.254538 242.8975 
L 205.020277 242.8975 
L 205.020277 242.8975 
L 202.254538 242.8975 
z
" style="fill:#ff0000;opacity:0.3;"/>
   </g>
   <g id="patch_139">
    <path clip-path="url(#p71ebe04237)" d="M 205.020277 242.8975 
L 207.786016 242.8975 
L 207.786016 242.8975 
L 205.020277 242.8975 
z
" style="fill:#ff0000;opacity:0.3;"/>
   </g>
   <g id="patch_140">
    <path clip-path="url(#p71ebe04237)" d="M 207.786016 242.8975 
L 210.551755 242.8975 
L 210.551755 242.8975 
L 207.786016 242.8975 
z
" style="fill:#ff0000;opacity:0.3;"/>
   </g>
   <g id="patch_141">
    <path clip-path="url(#p71ebe04237)" d="M 210.551755 242.8975 
L 213.317495 242.8975 
L 213.317495 242.8975 
L 210.551755 242.8975 
z
" style="fill:#ff0000;opacity:0.3;"/>
   </g>
   <g id="patch_142">
    <path clip-path="url(#p71ebe04237)" d="M 213.317495 242.8975 
L 216.083234 242.8975 
L 216.083234 242.8975 
L 213.317495 242.8975 
z
" style="fill:#ff0000;opacity:0.3;"/>
   </g>
   <g id="patch_143">
    <path clip-path="url(#p71ebe04237)" d="M 216.083234 242.8975 
L 218.848973 242.8975 
L 218.848973 242.8975 
L 216.083234 242.8975 
z
" style="fill:#ff0000;opacity:0.3;"/>
   </g>
   <g id="patch_144">
    <path clip-path="url(#p71ebe04237)" d="M 218.848973 242.8975 
L 221.614712 242.8975 
L 221.614712 242.8975 
L 218.848973 242.8975 
z
" style="fill:#ff0000;opacity:0.3;"/>
   </g>
   <g id="patch_145">
    <path clip-path="url(#p71ebe04237)" d="M 221.614712 242.8975 
L 224.380451 242.8975 
L 224.380451 242.8975 
L 221.614712 242.8975 
z
" style="fill:#ff0000;opacity:0.3;"/>
   </g>
   <g id="patch_146">
    <path clip-path="url(#p71ebe04237)" d="M 224.380451 242.8975 
L 227.14619 242.8975 
L 227.14619 242.8975 
L 224.380451 242.8975 
z
" style="fill:#ff0000;opacity:0.3;"/>
   </g>
   <g id="patch_147">
    <path clip-path="url(#p71ebe04237)" d="M 227.14619 242.8975 
L 229.911929 242.8975 
L 229.911929 242.8975 
L 227.14619 242.8975 
z
" style="fill:#ff0000;opacity:0.3;"/>
   </g>
   <g id="patch_148">
    <path clip-path="url(#p71ebe04237)" d="M 229.911929 242.8975 
L 232.677668 242.8975 
L 232.677668 242.8975 
L 229.911929 242.8975 
z
" style="fill:#ff0000;opacity:0.3;"/>
   </g>
   <g id="patch_149">
    <path clip-path="url(#p71ebe04237)" d="M 232.677668 242.8975 
L 235.443408 242.8975 
L 235.443408 242.8975 
L 232.677668 242.8975 
z
" style="fill:#ff0000;opacity:0.3;"/>
   </g>
   <g id="patch_150">
    <path clip-path="url(#p71ebe04237)" d="M 235.443408 242.8975 
L 238.209147 242.8975 
L 238.209147 242.8975 
L 235.443408 242.8975 
z
" style="fill:#ff0000;opacity:0.3;"/>
   </g>
   <g id="patch_151">
    <path clip-path="url(#p71ebe04237)" d="M 238.209147 242.8975 
L 240.974886 242.8975 
L 240.974886 242.8975 
L 238.209147 242.8975 
z
" style="fill:#ff0000;opacity:0.3;"/>
   </g>
   <g id="patch_152">
    <path clip-path="url(#p71ebe04237)" d="M 240.974886 242.8975 
L 243.740625 242.8975 
L 243.740625 242.8975 
L 240.974886 242.8975 
z
" style="fill:#ff0000;opacity:0.3;"/>
   </g>
   <g id="patch_153">
    <path clip-path="url(#p71ebe04237)" d="M 243.740625 242.8975 
L 246.506364 242.8975 
L 246.506364 242.8975 
L 243.740625 242.8975 
z
" style="fill:#ff0000;opacity:0.3;"/>
   </g>
   <g id="patch_154">
    <path clip-path="url(#p71ebe04237)" d="M 246.506364 242.8975 
L 249.272103 242.8975 
L 249.272103 242.8975 
L 246.506364 242.8975 
z
" style="fill:#ff0000;opacity:0.3;"/>
   </g>
   <g id="patch_155">
    <path clip-path="url(#p71ebe04237)" d="M 249.272103 242.8975 
L 252.037842 242.8975 
L 252.037842 242.8975 
L 249.272103 242.8975 
z
" style="fill:#ff0000;opacity:0.3;"/>
   </g>
   <g id="patch_156">
    <path clip-path="url(#p71ebe04237)" d="M 252.037842 242.8975 
L 254.803582 242.8975 
L 254.803582 242.8975 
L 252.037842 242.8975 
z
" style="fill:#ff0000;opacity:0.3;"/>
   </g>
   <g id="patch_157">
    <path clip-path="url(#p71ebe04237)" d="M 254.803582 242.8975 
L 257.569321 242.8975 
L 257.569321 242.8975 
L 254.803582 242.8975 
z
" style="fill:#ff0000;opacity:0.3;"/>
   </g>
   <g id="patch_158">
    <path clip-path="url(#p71ebe04237)" d="M 257.569321 242.8975 
L 260.33506 242.8975 
L 260.33506 242.8975 
L 257.569321 242.8975 
z
" style="fill:#ff0000;opacity:0.3;"/>
   </g>
   <g id="patch_159">
    <path clip-path="url(#p71ebe04237)" d="M 260.33506 242.8975 
L 263.100799 242.8975 
L 263.100799 242.8975 
L 260.33506 242.8975 
z
" style="fill:#ff0000;opacity:0.3;"/>
   </g>
   <g id="patch_160">
    <path clip-path="url(#p71ebe04237)" d="M 263.100799 242.8975 
L 265.866538 242.8975 
L 265.866538 242.8975 
L 263.100799 242.8975 
z
" style="fill:#ff0000;opacity:0.3;"/>
   </g>
   <g id="patch_161">
    <path clip-path="url(#p71ebe04237)" d="M 265.866538 242.8975 
L 268.632277 242.8975 
L 268.632277 242.8975 
L 265.866538 242.8975 
z
" style="fill:#ff0000;opacity:0.3;"/>
   </g>
   <g id="patch_162">
    <path clip-path="url(#p71ebe04237)" d="M 268.632277 242.8975 
L 271.398016 242.8975 
L 271.398016 242.8975 
L 268.632277 242.8975 
z
" style="fill:#ff0000;opacity:0.3;"/>
   </g>
   <g id="patch_163">
    <path clip-path="url(#p71ebe04237)" d="M 271.398016 242.8975 
L 274.163755 242.8975 
L 274.163755 242.8975 
L 271.398016 242.8975 
z
" style="fill:#ff0000;opacity:0.3;"/>
   </g>
   <g id="patch_164">
    <path clip-path="url(#p71ebe04237)" d="M 274.163755 242.8975 
L 276.929495 242.8975 
L 276.929495 242.854456 
L 274.163755 242.854456 
z
" style="fill:#ff0000;opacity:0.3;"/>
   </g>
   <g id="patch_165">
    <path clip-path="url(#p71ebe04237)" d="M 276.929495 242.8975 
L 279.695234 242.8975 
L 279.695234 242.8975 
L 276.929495 242.8975 
z
" style="fill:#ff0000;opacity:0.3;"/>
   </g>
   <g id="patch_166">
    <path clip-path="url(#p71ebe04237)" d="M 279.695234 242.8975 
L 282.460973 242.8975 
L 282.460973 242.8975 
L 279.695234 242.8975 
z
" style="fill:#ff0000;opacity:0.3;"/>
   </g>
   <g id="patch_167">
    <path clip-path="url(#p71ebe04237)" d="M 282.460973 242.8975 
L 285.226712 242.8975 
L 285.226712 242.8975 
L 282.460973 242.8975 
z
" style="fill:#ff0000;opacity:0.3;"/>
   </g>
   <g id="patch_168">
    <path clip-path="url(#p71ebe04237)" d="M 285.226712 242.8975 
L 287.992451 242.8975 
L 287.992451 242.811412 
L 285.226712 242.811412 
z
" style="fill:#ff0000;opacity:0.3;"/>
   </g>
   <g id="patch_169">
    <path clip-path="url(#p71ebe04237)" d="M 287.992451 242.8975 
L 290.75819 242.8975 
L 290.75819 242.8975 
L 287.992451 242.8975 
z
" style="fill:#ff0000;opacity:0.3;"/>
   </g>
   <g id="patch_170">
    <path clip-path="url(#p71ebe04237)" d="M 290.75819 242.8975 
L 293.523929 242.8975 
L 293.523929 242.8975 
L 290.75819 242.8975 
z
" style="fill:#ff0000;opacity:0.3;"/>
   </g>
   <g id="patch_171">
    <path clip-path="url(#p71ebe04237)" d="M 293.523929 242.8975 
L 296.289668 242.8975 
L 296.289668 242.8975 
L 293.523929 242.8975 
z
" style="fill:#ff0000;opacity:0.3;"/>
   </g>
   <g id="patch_172">
    <path clip-path="url(#p71ebe04237)" d="M 296.289668 242.8975 
L 299.055408 242.8975 
L 299.055408 242.854456 
L 296.289668 242.854456 
z
" style="fill:#ff0000;opacity:0.3;"/>
   </g>
   <g id="patch_173">
    <path clip-path="url(#p71ebe04237)" d="M 299.055408 242.8975 
L 301.821147 242.8975 
L 301.821147 242.8975 
L 299.055408 242.8975 
z
" style="fill:#ff0000;opacity:0.3;"/>
   </g>
   <g id="patch_174">
    <path clip-path="url(#p71ebe04237)" d="M 301.821147 242.8975 
L 304.586886 242.8975 
L 304.586886 242.8975 
L 301.821147 242.8975 
z
" style="fill:#ff0000;opacity:0.3;"/>
   </g>
   <g id="patch_175">
    <path clip-path="url(#p71ebe04237)" d="M 304.586886 242.8975 
L 307.352625 242.8975 
L 307.352625 242.8975 
L 304.586886 242.8975 
z
" style="fill:#ff0000;opacity:0.3;"/>
   </g>
   <g id="patch_176">
    <path clip-path="url(#p71ebe04237)" d="M 307.352625 242.8975 
L 310.118364 242.8975 
L 310.118364 242.510102 
L 307.352625 242.510102 
z
" style="fill:#ff0000;opacity:0.3;"/>
   </g>
   <g id="patch_177">
    <path clip-path="url(#p71ebe04237)" d="M 310.118364 242.8975 
L 312.884103 242.8975 
L 312.884103 239.583096 
L 310.118364 239.583096 
z
" style="fill:#ff0000;opacity:0.3;"/>
   </g>
   <g id="patch_178">
    <path clip-path="url(#p71ebe04237)" d="M 312.884103 242.8975 
L 315.649842 242.8975 
L 315.649842 226.669831 
L 312.884103 226.669831 
z
" style="fill:#ff0000;opacity:0.3;"/>
   </g>
   <g id="patch_179">
    <path clip-path="url(#p71ebe04237)" d="M 315.649842 242.8975 
L 318.415582 242.8975 
L 318.415582 195.118422 
L 315.649842 195.118422 
z
" style="fill:#ff0000;opacity:0.3;"/>
   </g>
   <g id="patch_180">
    <path clip-path="url(#p71ebe04237)" d="M 318.415582 242.8975 
L 321.181321 242.8975 
L 321.181321 148.41545 
L 318.415582 148.41545 
z
" style="fill:#ff0000;opacity:0.3;"/>
   </g>
   <g id="patch_181">
    <path clip-path="url(#p71ebe04237)" d="M 321.181321 242.8975 
L 323.94706 242.8975 
L 323.94706 128.313802 
L 321.181321 128.313802 
z
" style="fill:#ff0000;opacity:0.3;"/>
   </g>
   <g id="patch_182">
    <path clip-path="url(#p71ebe04237)" d="M 323.94706 242.8975 
L 326.712799 242.8975 
L 326.712799 161.845245 
L 323.94706 161.845245 
z
" style="fill:#ff0000;opacity:0.3;"/>
   </g>
   <g id="patch_183">
    <path clip-path="url(#p71ebe04237)" d="M 326.712799 242.8975 
L 329.478538 242.8975 
L 329.478538 118.499721 
L 326.712799 118.499721 
z
" style="fill:#ff0000;opacity:0.3;"/>
   </g>
   <g id="patch_184">
    <path clip-path="url(#p71ebe04237)" d="M 329.478538 242.8975 
L 332.244277 242.8975 
L 332.244277 105.371236 
L 329.478538 105.371236 
z
" style="fill:#ff0000;opacity:0.3;"/>
   </g>
   <g id="patch_185">
    <path clip-path="url(#p71ebe04237)" d="M 332.244277 242.8975 
L 335.010016 242.8975 
L 335.010016 86.948312 
L 332.244277 86.948312 
z
" style="fill:#ff0000;opacity:0.3;"/>
   </g>
   <g id="patch_186">
    <path clip-path="url(#p71ebe04237)" d="M 335.010016 242.8975 
L 337.775755 242.8975 
L 337.775755 76.703789 
L 335.010016 76.703789 
z
" style="fill:#ff0000;opacity:0.3;"/>
   </g>
   <g id="patch_187">
    <path clip-path="url(#p71ebe04237)" d="M 337.775755 242.8975 
L 340.541495 242.8975 
L 340.541495 66.889708 
L 337.775755 66.889708 
z
" style="fill:#ff0000;opacity:0.3;"/>
   </g>
   <g id="patch_188">
    <path clip-path="url(#p71ebe04237)" d="M 340.541495 242.8975 
L 343.307234 242.8975 
L 343.307234 53.718179 
L 340.541495 53.718179 
z
" style="fill:#ff0000;opacity:0.3;"/>
   </g>
   <g id="patch_189">
    <path clip-path="url(#p71ebe04237)" d="M 343.307234 242.8975 
L 346.072973 242.8975 
L 346.072973 114.281388 
L 343.307234 114.281388 
z
" style="fill:#ff0000;opacity:0.3;"/>
   </g>
   <g id="patch_190">
    <path clip-path="url(#p71ebe04237)" d="M 346.072973 242.8975 
L 348.838712 242.8975 
L 348.838712 35.811786 
L 346.072973 35.811786 
z
" style="fill:#ff0000;opacity:0.3;"/>
   </g>
   <g id="patch_191">
    <path clip-path="url(#p71ebe04237)" d="M 348.838712 242.8975 
L 351.604451 242.8975 
L 351.604451 51.006393 
L 348.838712 51.006393 
z
" style="fill:#ff0000;opacity:0.3;"/>
   </g>
   <g id="patch_192">
    <path clip-path="url(#p71ebe04237)" d="M 351.604451 242.8975 
L 354.37019 242.8975 
L 354.37019 81.739962 
L 351.604451 81.739962 
z
" style="fill:#ff0000;opacity:0.3;"/>
   </g>
   <g id="patch_193">
    <path clip-path="url(#p71ebe04237)" d="M 354.37019 242.8975 
L 357.135929 242.8975 
L 357.135929 116.691864 
L 354.37019 116.691864 
z
" style="fill:#ff0000;opacity:0.3;"/>
   </g>
   <g id="patch_194">
    <path clip-path="url(#p71ebe04237)" d="M 357.135929 242.8975 
L 359.901668 242.8975 
L 359.901668 139.677474 
L 357.135929 139.677474 
z
" style="fill:#ff0000;opacity:0.3;"/>
   </g>
   <g id="patch_195">
    <path clip-path="url(#p71ebe04237)" d="M 359.901668 242.8975 
L 362.667408 242.8975 
L 362.667408 143.594498 
L 359.901668 143.594498 
z
" style="fill:#ff0000;opacity:0.3;"/>
   </g>
   <g id="patch_196">
    <path clip-path="url(#p71ebe04237)" d="M 362.667408 242.8975 
L 365.433147 242.8975 
L 365.433147 172.52021 
L 362.667408 172.52021 
z
" style="fill:#ff0000;opacity:0.3;"/>
   </g>
   <g id="patch_197">
    <path clip-path="url(#p71ebe04237)" d="M 365.433147 242.8975 
L 368.198886 242.8975 
L 368.198886 130.33688 
L 365.433147 130.33688 
z
" style="fill:#ff0000;opacity:0.3;"/>
   </g>
   <g id="patch_198">
    <path clip-path="url(#p71ebe04237)" d="M 368.198886 242.8975 
L 370.964625 242.8975 
L 370.964625 130.33688 
L 368.198886 130.33688 
z
" style="fill:#ff0000;opacity:0.3;"/>
   </g>
   <g id="patch_199">
    <path clip-path="url(#p71ebe04237)" d="M 370.964625 242.8975 
L 373.730364 242.8975 
L 373.730364 132.187781 
L 370.964625 132.187781 
z
" style="fill:#ff0000;opacity:0.3;"/>
   </g>
   <g id="patch_200">
    <path clip-path="url(#p71ebe04237)" d="M 373.730364 242.8975 
L 376.496103 242.8975 
L 376.496103 134.038682 
L 373.730364 134.038682 
z
" style="fill:#ff0000;opacity:0.3;"/>
   </g>
   <g id="patch_201">
    <path clip-path="url(#p71ebe04237)" d="M 376.496103 242.8975 
L 379.261842 242.8975 
L 379.261842 135.459141 
L 376.496103 135.459141 
z
" style="fill:#ff0000;opacity:0.3;"/>
   </g>
   <g id="patch_202">
    <path clip-path="url(#p71ebe04237)" d="M 379.261842 242.8975 
L 382.027582 242.8975 
L 382.027582 142.475348 
L 379.261842 142.475348 
z
" style="fill:#ff0000;opacity:0.3;"/>
   </g>
   <g id="matplotlib.axis_1">
    <g id="xtick_1">
     <g id="line2d_1">
      <defs>
       <path d="M 0 0 
L 0 3.5 
" id="mdee2f4a99f" style="stroke:#000000;stroke-width:0.8;"/>
      </defs>
      <g>
       <use style="stroke:#000000;stroke-width:0.8;" x="105.453668" xlink:href="#mdee2f4a99f" y="242.8975"/>
      </g>
     </g>
     <g id="text_1">
      <!-- 0 -->
      <defs>
       <path d="M 31.78125 66.40625 
Q 24.171875 66.40625 20.328125 58.90625 
Q 16.5 51.421875 16.5 36.375 
Q 16.5 21.390625 20.328125 13.890625 
Q 24.171875 6.390625 31.78125 6.390625 
Q 39.453125 6.390625 43.28125 13.890625 
Q 47.125 21.390625 47.125 36.375 
Q 47.125 51.421875 43.28125 58.90625 
Q 39.453125 66.40625 31.78125 66.40625 
z
M 31.78125 74.21875 
Q 44.046875 74.21875 50.515625 64.515625 
Q 56.984375 54.828125 56.984375 36.375 
Q 56.984375 17.96875 50.515625 8.265625 
Q 44.046875 -1.421875 31.78125 -1.421875 
Q 19.53125 -1.421875 13.0625 8.265625 
Q 6.59375 17.96875 6.59375 36.375 
Q 6.59375 54.828125 13.0625 64.515625 
Q 19.53125 74.21875 31.78125 74.21875 
z
" id="DejaVuSans-30"/>
      </defs>
      <g transform="translate(100.363668 262.055)scale(0.16 -0.16)">
       <use xlink:href="#DejaVuSans-30"/>
      </g>
     </g>
    </g>
    <g id="xtick_2">
     <g id="line2d_2">
      <g>
       <use style="stroke:#000000;stroke-width:0.8;" x="202.497147" xlink:href="#mdee2f4a99f" y="242.8975"/>
      </g>
     </g>
     <g id="text_2">
      <!-- 100 -->
      <defs>
       <path d="M 12.40625 8.296875 
L 28.515625 8.296875 
L 28.515625 63.921875 
L 10.984375 60.40625 
L 10.984375 69.390625 
L 28.421875 72.90625 
L 38.28125 72.90625 
L 38.28125 8.296875 
L 54.390625 8.296875 
L 54.390625 0 
L 12.40625 0 
z
" id="DejaVuSans-31"/>
      </defs>
      <g transform="translate(187.227147 262.055)scale(0.16 -0.16)">
       <use xlink:href="#DejaVuSans-31"/>
       <use x="63.623047" xlink:href="#DejaVuSans-30"/>
       <use x="127.246094" xlink:href="#DejaVuSans-30"/>
      </g>
     </g>
    </g>
    <g id="xtick_3">
     <g id="line2d_3">
      <g>
       <use style="stroke:#000000;stroke-width:0.8;" x="299.540625" xlink:href="#mdee2f4a99f" y="242.8975"/>
      </g>
     </g>
     <g id="text_3">
      <!-- 200 -->
      <defs>
       <path d="M 19.1875 8.296875 
L 53.609375 8.296875 
L 53.609375 0 
L 7.328125 0 
L 7.328125 8.296875 
Q 12.9375 14.109375 22.625 23.890625 
Q 32.328125 33.6875 34.8125 36.53125 
Q 39.546875 41.84375 41.421875 45.53125 
Q 43.3125 49.21875 43.3125 52.78125 
Q 43.3125 58.59375 39.234375 62.25 
Q 35.15625 65.921875 28.609375 65.921875 
Q 23.96875 65.921875 18.8125 64.3125 
Q 13.671875 62.703125 7.8125 59.421875 
L 7.8125 69.390625 
Q 13.765625 71.78125 18.9375 73 
Q 24.125 74.21875 28.421875 74.21875 
Q 39.75 74.21875 46.484375 68.546875 
Q 53.21875 62.890625 53.21875 53.421875 
Q 53.21875 48.921875 51.53125 44.890625 
Q 49.859375 40.875 45.40625 35.40625 
Q 44.1875 33.984375 37.640625 27.21875 
Q 31.109375 20.453125 19.1875 8.296875 
z
" id="DejaVuSans-32"/>
      </defs>
      <g transform="translate(284.270625 262.055)scale(0.16 -0.16)">
       <use xlink:href="#DejaVuSans-32"/>
       <use x="63.623047" xlink:href="#DejaVuSans-30"/>
       <use x="127.246094" xlink:href="#DejaVuSans-30"/>
      </g>
     </g>
    </g>
    <g id="xtick_4">
     <g id="line2d_4">
      <g>
       <use style="stroke:#000000;stroke-width:0.8;" x="396.584103" xlink:href="#mdee2f4a99f" y="242.8975"/>
      </g>
     </g>
     <g id="text_4">
      <!-- 300 -->
      <defs>
       <path d="M 40.578125 39.3125 
Q 47.65625 37.796875 51.625 33 
Q 55.609375 28.21875 55.609375 21.1875 
Q 55.609375 10.40625 48.1875 4.484375 
Q 40.765625 -1.421875 27.09375 -1.421875 
Q 22.515625 -1.421875 17.65625 -0.515625 
Q 12.796875 0.390625 7.625 2.203125 
L 7.625 11.71875 
Q 11.71875 9.328125 16.59375 8.109375 
Q 21.484375 6.890625 26.8125 6.890625 
Q 36.078125 6.890625 40.9375 10.546875 
Q 45.796875 14.203125 45.796875 21.1875 
Q 45.796875 27.640625 41.28125 31.265625 
Q 36.765625 34.90625 28.71875 34.90625 
L 20.21875 34.90625 
L 20.21875 43.015625 
L 29.109375 43.015625 
Q 36.375 43.015625 40.234375 45.921875 
Q 44.09375 48.828125 44.09375 54.296875 
Q 44.09375 59.90625 40.109375 62.90625 
Q 36.140625 65.921875 28.71875 65.921875 
Q 24.65625 65.921875 20.015625 65.03125 
Q 15.375 64.15625 9.8125 62.3125 
L 9.8125 71.09375 
Q 15.4375 72.65625 20.34375 73.4375 
Q 25.25 74.21875 29.59375 74.21875 
Q 40.828125 74.21875 47.359375 69.109375 
Q 53.90625 64.015625 53.90625 55.328125 
Q 53.90625 49.265625 50.4375 45.09375 
Q 46.96875 40.921875 40.578125 39.3125 
z
" id="DejaVuSans-33"/>
      </defs>
      <g transform="translate(381.314103 262.055)scale(0.16 -0.16)">
       <use xlink:href="#DejaVuSans-33"/>
       <use x="63.623047" xlink:href="#DejaVuSans-30"/>
       <use x="127.246094" xlink:href="#DejaVuSans-30"/>
      </g>
     </g>
    </g>
    <g id="xtick_5">
     <g id="line2d_5">
      <g>
       <use style="stroke:#000000;stroke-width:0.8;" x="493.627582" xlink:href="#mdee2f4a99f" y="242.8975"/>
      </g>
     </g>
     <g id="text_5">
      <!-- 400 -->
      <defs>
       <path d="M 37.796875 64.3125 
L 12.890625 25.390625 
L 37.796875 25.390625 
z
M 35.203125 72.90625 
L 47.609375 72.90625 
L 47.609375 25.390625 
L 58.015625 25.390625 
L 58.015625 17.1875 
L 47.609375 17.1875 
L 47.609375 0 
L 37.796875 0 
L 37.796875 17.1875 
L 4.890625 17.1875 
L 4.890625 26.703125 
z
" id="DejaVuSans-34"/>
      </defs>
      <g transform="translate(478.357582 262.055)scale(0.16 -0.16)">
       <use xlink:href="#DejaVuSans-34"/>
       <use x="63.623047" xlink:href="#DejaVuSans-30"/>
       <use x="127.246094" xlink:href="#DejaVuSans-30"/>
      </g>
     </g>
    </g>
    <g id="xtick_6">
     <g id="line2d_6">
      <g>
       <use style="stroke:#000000;stroke-width:0.8;" x="382.998016" xlink:href="#mdee2f4a99f" y="242.8975"/>
      </g>
     </g>
    </g>
    <g id="text_6">
     <!-- Edit distance to wild-type -->
     <defs>
      <path d="M 9.8125 72.90625 
L 55.90625 72.90625 
L 55.90625 64.59375 
L 19.671875 64.59375 
L 19.671875 43.015625 
L 54.390625 43.015625 
L 54.390625 34.71875 
L 19.671875 34.71875 
L 19.671875 8.296875 
L 56.78125 8.296875 
L 56.78125 0 
L 9.8125 0 
z
" id="DejaVuSans-45"/>
      <path d="M 45.40625 46.390625 
L 45.40625 75.984375 
L 54.390625 75.984375 
L 54.390625 0 
L 45.40625 0 
L 45.40625 8.203125 
Q 42.578125 3.328125 38.25 0.953125 
Q 33.9375 -1.421875 27.875 -1.421875 
Q 17.96875 -1.421875 11.734375 6.484375 
Q 5.515625 14.40625 5.515625 27.296875 
Q 5.515625 40.1875 11.734375 48.09375 
Q 17.96875 56 27.875 56 
Q 33.9375 56 38.25 53.625 
Q 42.578125 51.265625 45.40625 46.390625 
z
M 14.796875 27.296875 
Q 14.796875 17.390625 18.875 11.75 
Q 22.953125 6.109375 30.078125 6.109375 
Q 37.203125 6.109375 41.296875 11.75 
Q 45.40625 17.390625 45.40625 27.296875 
Q 45.40625 37.203125 41.296875 42.84375 
Q 37.203125 48.484375 30.078125 48.484375 
Q 22.953125 48.484375 18.875 42.84375 
Q 14.796875 37.203125 14.796875 27.296875 
z
" id="DejaVuSans-64"/>
      <path d="M 9.421875 54.6875 
L 18.40625 54.6875 
L 18.40625 0 
L 9.421875 0 
z
M 9.421875 75.984375 
L 18.40625 75.984375 
L 18.40625 64.59375 
L 9.421875 64.59375 
z
" id="DejaVuSans-69"/>
      <path d="M 18.3125 70.21875 
L 18.3125 54.6875 
L 36.8125 54.6875 
L 36.8125 47.703125 
L 18.3125 47.703125 
L 18.3125 18.015625 
Q 18.3125 11.328125 20.140625 9.421875 
Q 21.96875 7.515625 27.59375 7.515625 
L 36.8125 7.515625 
L 36.8125 0 
L 27.59375 0 
Q 17.1875 0 13.234375 3.875 
Q 9.28125 7.765625 9.28125 18.015625 
L 9.28125 47.703125 
L 2.6875 47.703125 
L 2.6875 54.6875 
L 9.28125 54.6875 
L 9.28125 70.21875 
z
" id="DejaVuSans-74"/>
      <path id="DejaVuSans-20"/>
      <path d="M 44.28125 53.078125 
L 44.28125 44.578125 
Q 40.484375 46.53125 36.375 47.5 
Q 32.28125 48.484375 27.875 48.484375 
Q 21.1875 48.484375 17.84375 46.4375 
Q 14.5 44.390625 14.5 40.28125 
Q 14.5 37.15625 16.890625 35.375 
Q 19.28125 33.59375 26.515625 31.984375 
L 29.59375 31.296875 
Q 39.15625 29.25 43.1875 25.515625 
Q 47.21875 21.78125 47.21875 15.09375 
Q 47.21875 7.46875 41.1875 3.015625 
Q 35.15625 -1.421875 24.609375 -1.421875 
Q 20.21875 -1.421875 15.453125 -0.5625 
Q 10.6875 0.296875 5.421875 2 
L 5.421875 11.28125 
Q 10.40625 8.6875 15.234375 7.390625 
Q 20.0625 6.109375 24.8125 6.109375 
Q 31.15625 6.109375 34.5625 8.28125 
Q 37.984375 10.453125 37.984375 14.40625 
Q 37.984375 18.0625 35.515625 20.015625 
Q 33.0625 21.96875 24.703125 23.78125 
L 21.578125 24.515625 
Q 13.234375 26.265625 9.515625 29.90625 
Q 5.8125 33.546875 5.8125 39.890625 
Q 5.8125 47.609375 11.28125 51.796875 
Q 16.75 56 26.8125 56 
Q 31.78125 56 36.171875 55.265625 
Q 40.578125 54.546875 44.28125 53.078125 
z
" id="DejaVuSans-73"/>
      <path d="M 34.28125 27.484375 
Q 23.390625 27.484375 19.1875 25 
Q 14.984375 22.515625 14.984375 16.5 
Q 14.984375 11.71875 18.140625 8.90625 
Q 21.296875 6.109375 26.703125 6.109375 
Q 34.1875 6.109375 38.703125 11.40625 
Q 43.21875 16.703125 43.21875 25.484375 
L 43.21875 27.484375 
z
M 52.203125 31.203125 
L 52.203125 0 
L 43.21875 0 
L 43.21875 8.296875 
Q 40.140625 3.328125 35.546875 0.953125 
Q 30.953125 -1.421875 24.3125 -1.421875 
Q 15.921875 -1.421875 10.953125 3.296875 
Q 6 8.015625 6 15.921875 
Q 6 25.140625 12.171875 29.828125 
Q 18.359375 34.515625 30.609375 34.515625 
L 43.21875 34.515625 
L 43.21875 35.40625 
Q 43.21875 41.609375 39.140625 45 
Q 35.0625 48.390625 27.6875 48.390625 
Q 23 48.390625 18.546875 47.265625 
Q 14.109375 46.140625 10.015625 43.890625 
L 10.015625 52.203125 
Q 14.9375 54.109375 19.578125 55.046875 
Q 24.21875 56 28.609375 56 
Q 40.484375 56 46.34375 49.84375 
Q 52.203125 43.703125 52.203125 31.203125 
z
" id="DejaVuSans-61"/>
      <path d="M 54.890625 33.015625 
L 54.890625 0 
L 45.90625 0 
L 45.90625 32.71875 
Q 45.90625 40.484375 42.875 44.328125 
Q 39.84375 48.1875 33.796875 48.1875 
Q 26.515625 48.1875 22.3125 43.546875 
Q 18.109375 38.921875 18.109375 30.90625 
L 18.109375 0 
L 9.078125 0 
L 9.078125 54.6875 
L 18.109375 54.6875 
L 18.109375 46.1875 
Q 21.34375 51.125 25.703125 53.5625 
Q 30.078125 56 35.796875 56 
Q 45.21875 56 50.046875 50.171875 
Q 54.890625 44.34375 54.890625 33.015625 
z
" id="DejaVuSans-6e"/>
      <path d="M 48.78125 52.59375 
L 48.78125 44.1875 
Q 44.96875 46.296875 41.140625 47.34375 
Q 37.3125 48.390625 33.40625 48.390625 
Q 24.65625 48.390625 19.8125 42.84375 
Q 14.984375 37.3125 14.984375 27.296875 
Q 14.984375 17.28125 19.8125 11.734375 
Q 24.65625 6.203125 33.40625 6.203125 
Q 37.3125 6.203125 41.140625 7.25 
Q 44.96875 8.296875 48.78125 10.40625 
L 48.78125 2.09375 
Q 45.015625 0.34375 40.984375 -0.53125 
Q 36.96875 -1.421875 32.421875 -1.421875 
Q 20.0625 -1.421875 12.78125 6.34375 
Q 5.515625 14.109375 5.515625 27.296875 
Q 5.515625 40.671875 12.859375 48.328125 
Q 20.21875 56 33.015625 56 
Q 37.15625 56 41.109375 55.140625 
Q 45.0625 54.296875 48.78125 52.59375 
z
" id="DejaVuSans-63"/>
      <path d="M 56.203125 29.59375 
L 56.203125 25.203125 
L 14.890625 25.203125 
Q 15.484375 15.921875 20.484375 11.0625 
Q 25.484375 6.203125 34.421875 6.203125 
Q 39.59375 6.203125 44.453125 7.46875 
Q 49.3125 8.734375 54.109375 11.28125 
L 54.109375 2.78125 
Q 49.265625 0.734375 44.1875 -0.34375 
Q 39.109375 -1.421875 33.890625 -1.421875 
Q 20.796875 -1.421875 13.15625 6.1875 
Q 5.515625 13.8125 5.515625 26.8125 
Q 5.515625 40.234375 12.765625 48.109375 
Q 20.015625 56 32.328125 56 
Q 43.359375 56 49.78125 48.890625 
Q 56.203125 41.796875 56.203125 29.59375 
z
M 47.21875 32.234375 
Q 47.125 39.59375 43.09375 43.984375 
Q 39.0625 48.390625 32.421875 48.390625 
Q 24.90625 48.390625 20.390625 44.140625 
Q 15.875 39.890625 15.1875 32.171875 
z
" id="DejaVuSans-65"/>
      <path d="M 30.609375 48.390625 
Q 23.390625 48.390625 19.1875 42.75 
Q 14.984375 37.109375 14.984375 27.296875 
Q 14.984375 17.484375 19.15625 11.84375 
Q 23.34375 6.203125 30.609375 6.203125 
Q 37.796875 6.203125 41.984375 11.859375 
Q 46.1875 17.53125 46.1875 27.296875 
Q 46.1875 37.015625 41.984375 42.703125 
Q 37.796875 48.390625 30.609375 48.390625 
z
M 30.609375 56 
Q 42.328125 56 49.015625 48.375 
Q 55.71875 40.765625 55.71875 27.296875 
Q 55.71875 13.875 49.015625 6.21875 
Q 42.328125 -1.421875 30.609375 -1.421875 
Q 18.84375 -1.421875 12.171875 6.21875 
Q 5.515625 13.875 5.515625 27.296875 
Q 5.515625 40.765625 12.171875 48.375 
Q 18.84375 56 30.609375 56 
z
" id="DejaVuSans-6f"/>
      <path d="M 4.203125 54.6875 
L 13.1875 54.6875 
L 24.421875 12.015625 
L 35.59375 54.6875 
L 46.1875 54.6875 
L 57.421875 12.015625 
L 68.609375 54.6875 
L 77.59375 54.6875 
L 63.28125 0 
L 52.6875 0 
L 40.921875 44.828125 
L 29.109375 0 
L 18.5 0 
z
" id="DejaVuSans-77"/>
      <path d="M 9.421875 75.984375 
L 18.40625 75.984375 
L 18.40625 0 
L 9.421875 0 
z
" id="DejaVuSans-6c"/>
      <path d="M 4.890625 31.390625 
L 31.203125 31.390625 
L 31.203125 23.390625 
L 4.890625 23.390625 
z
" id="DejaVuSans-2d"/>
      <path d="M 32.171875 -5.078125 
Q 28.375 -14.84375 24.75 -17.8125 
Q 21.140625 -20.796875 15.09375 -20.796875 
L 7.90625 -20.796875 
L 7.90625 -13.28125 
L 13.1875 -13.28125 
Q 16.890625 -13.28125 18.9375 -11.515625 
Q 21 -9.765625 23.484375 -3.21875 
L 25.09375 0.875 
L 2.984375 54.6875 
L 12.5 54.6875 
L 29.59375 11.921875 
L 46.6875 54.6875 
L 56.203125 54.6875 
z
" id="DejaVuSans-79"/>
      <path d="M 18.109375 8.203125 
L 18.109375 -20.796875 
L 9.078125 -20.796875 
L 9.078125 54.6875 
L 18.109375 54.6875 
L 18.109375 46.390625 
Q 20.953125 51.265625 25.265625 53.625 
Q 29.59375 56 35.59375 56 
Q 45.5625 56 51.78125 48.09375 
Q 58.015625 40.1875 58.015625 27.296875 
Q 58.015625 14.40625 51.78125 6.484375 
Q 45.5625 -1.421875 35.59375 -1.421875 
Q 29.59375 -1.421875 25.265625 0.953125 
Q 20.953125 3.328125 18.109375 8.203125 
z
M 48.6875 27.296875 
Q 48.6875 37.203125 44.609375 42.84375 
Q 40.53125 48.484375 33.40625 48.484375 
Q 26.265625 48.484375 22.1875 42.84375 
Q 18.109375 37.203125 18.109375 27.296875 
Q 18.109375 17.390625 22.1875 11.75 
Q 26.265625 6.109375 33.40625 6.109375 
Q 40.53125 6.109375 44.609375 11.75 
Q 48.6875 17.390625 48.6875 27.296875 
z
" id="DejaVuSans-70"/>
     </defs>
     <g transform="translate(184.93125 283.059687)scale(0.18 -0.18)">
      <use xlink:href="#DejaVuSans-45"/>
      <use x="63.183594" xlink:href="#DejaVuSans-64"/>
      <use x="126.660156" xlink:href="#DejaVuSans-69"/>
      <use x="154.443359" xlink:href="#DejaVuSans-74"/>
      <use x="193.652344" xlink:href="#DejaVuSans-20"/>
      <use x="225.439453" xlink:href="#DejaVuSans-64"/>
      <use x="288.916016" xlink:href="#DejaVuSans-69"/>
      <use x="316.699219" xlink:href="#DejaVuSans-73"/>
      <use x="368.798828" xlink:href="#DejaVuSans-74"/>
      <use x="408.007812" xlink:href="#DejaVuSans-61"/>
      <use x="469.287109" xlink:href="#DejaVuSans-6e"/>
      <use x="532.666016" xlink:href="#DejaVuSans-63"/>
      <use x="587.646484" xlink:href="#DejaVuSans-65"/>
      <use x="649.169922" xlink:href="#DejaVuSans-20"/>
      <use x="680.957031" xlink:href="#DejaVuSans-74"/>
      <use x="720.166016" xlink:href="#DejaVuSans-6f"/>
      <use x="781.347656" xlink:href="#DejaVuSans-20"/>
      <use x="813.134766" xlink:href="#DejaVuSans-77"/>
      <use x="894.921875" xlink:href="#DejaVuSans-69"/>
      <use x="922.705078" xlink:href="#DejaVuSans-6c"/>
      <use x="950.488281" xlink:href="#DejaVuSans-64"/>
      <use x="1013.964844" xlink:href="#DejaVuSans-2d"/>
      <use x="1050.048828" xlink:href="#DejaVuSans-74"/>
      <use x="1089.257812" xlink:href="#DejaVuSans-79"/>
      <use x="1148.4375" xlink:href="#DejaVuSans-70"/>
      <use x="1211.914062" xlink:href="#DejaVuSans-65"/>
     </g>
    </g>
   </g>
   <g id="matplotlib.axis_2">
    <g id="ytick_1">
     <g id="line2d_7">
      <defs>
       <path d="M 0 0 
L -3.5 0 
" id="m77ae75d06e" style="stroke:#000000;stroke-width:0.8;"/>
      </defs>
      <g>
       <use style="stroke:#000000;stroke-width:0.8;" x="76.340625" xlink:href="#m77ae75d06e" y="242.8975"/>
      </g>
     </g>
     <g id="text_7">
      <!-- 0 -->
      <g transform="translate(59.160625 248.97625)scale(0.16 -0.16)">
       <use xlink:href="#DejaVuSans-30"/>
      </g>
     </g>
    </g>
    <g id="ytick_2">
     <g id="line2d_8">
      <g>
       <use style="stroke:#000000;stroke-width:0.8;" x="76.340625" xlink:href="#m77ae75d06e" y="199.853286"/>
      </g>
     </g>
     <g id="text_8">
      <!-- 1000 -->
      <g transform="translate(28.620625 205.932036)scale(0.16 -0.16)">
       <use xlink:href="#DejaVuSans-31"/>
       <use x="63.623047" xlink:href="#DejaVuSans-30"/>
       <use x="127.246094" xlink:href="#DejaVuSans-30"/>
       <use x="190.869141" xlink:href="#DejaVuSans-30"/>
      </g>
     </g>
    </g>
    <g id="ytick_3">
     <g id="line2d_9">
      <g>
       <use style="stroke:#000000;stroke-width:0.8;" x="76.340625" xlink:href="#m77ae75d06e" y="156.809072"/>
      </g>
     </g>
     <g id="text_9">
      <!-- 2000 -->
      <g transform="translate(28.620625 162.887822)scale(0.16 -0.16)">
       <use xlink:href="#DejaVuSans-32"/>
       <use x="63.623047" xlink:href="#DejaVuSans-30"/>
       <use x="127.246094" xlink:href="#DejaVuSans-30"/>
       <use x="190.869141" xlink:href="#DejaVuSans-30"/>
      </g>
     </g>
    </g>
    <g id="ytick_4">
     <g id="line2d_10">
      <g>
       <use style="stroke:#000000;stroke-width:0.8;" x="76.340625" xlink:href="#m77ae75d06e" y="113.764858"/>
      </g>
     </g>
     <g id="text_10">
      <!-- 3000 -->
      <g transform="translate(28.620625 119.843608)scale(0.16 -0.16)">
       <use xlink:href="#DejaVuSans-33"/>
       <use x="63.623047" xlink:href="#DejaVuSans-30"/>
       <use x="127.246094" xlink:href="#DejaVuSans-30"/>
       <use x="190.869141" xlink:href="#DejaVuSans-30"/>
      </g>
     </g>
    </g>
    <g id="ytick_5">
     <g id="line2d_11">
      <g>
       <use style="stroke:#000000;stroke-width:0.8;" x="76.340625" xlink:href="#m77ae75d06e" y="70.720643"/>
      </g>
     </g>
     <g id="text_11">
      <!-- 4000 -->
      <g transform="translate(28.620625 76.799393)scale(0.16 -0.16)">
       <use xlink:href="#DejaVuSans-34"/>
       <use x="63.623047" xlink:href="#DejaVuSans-30"/>
       <use x="127.246094" xlink:href="#DejaVuSans-30"/>
       <use x="190.869141" xlink:href="#DejaVuSans-30"/>
      </g>
     </g>
    </g>
    <g id="ytick_6">
     <g id="line2d_12">
      <g>
       <use style="stroke:#000000;stroke-width:0.8;" x="76.340625" xlink:href="#m77ae75d06e" y="27.676429"/>
      </g>
     </g>
     <g id="text_12">
      <!-- 5000 -->
      <defs>
       <path d="M 10.796875 72.90625 
L 49.515625 72.90625 
L 49.515625 64.59375 
L 19.828125 64.59375 
L 19.828125 46.734375 
Q 21.96875 47.46875 24.109375 47.828125 
Q 26.265625 48.1875 28.421875 48.1875 
Q 40.625 48.1875 47.75 41.5 
Q 54.890625 34.8125 54.890625 23.390625 
Q 54.890625 11.625 47.5625 5.09375 
Q 40.234375 -1.421875 26.90625 -1.421875 
Q 22.3125 -1.421875 17.546875 -0.640625 
Q 12.796875 0.140625 7.71875 1.703125 
L 7.71875 11.625 
Q 12.109375 9.234375 16.796875 8.0625 
Q 21.484375 6.890625 26.703125 6.890625 
Q 35.15625 6.890625 40.078125 11.328125 
Q 45.015625 15.765625 45.015625 23.390625 
Q 45.015625 31 40.078125 35.4375 
Q 35.15625 39.890625 26.703125 39.890625 
Q 22.75 39.890625 18.8125 39.015625 
Q 14.890625 38.140625 10.796875 36.28125 
z
" id="DejaVuSans-35"/>
      </defs>
      <g transform="translate(28.620625 33.755179)scale(0.16 -0.16)">
       <use xlink:href="#DejaVuSans-35"/>
       <use x="63.623047" xlink:href="#DejaVuSans-30"/>
       <use x="127.246094" xlink:href="#DejaVuSans-30"/>
       <use x="190.869141" xlink:href="#DejaVuSans-30"/>
      </g>
     </g>
    </g>
    <g id="text_13">
     <!-- Num. sequences -->
     <defs>
      <path d="M 9.8125 72.90625 
L 23.09375 72.90625 
L 55.421875 11.921875 
L 55.421875 72.90625 
L 64.984375 72.90625 
L 64.984375 0 
L 51.703125 0 
L 19.390625 60.984375 
L 19.390625 0 
L 9.8125 0 
z
" id="DejaVuSans-4e"/>
      <path d="M 8.5 21.578125 
L 8.5 54.6875 
L 17.484375 54.6875 
L 17.484375 21.921875 
Q 17.484375 14.15625 20.5 10.265625 
Q 23.53125 6.390625 29.59375 6.390625 
Q 36.859375 6.390625 41.078125 11.03125 
Q 45.3125 15.671875 45.3125 23.6875 
L 45.3125 54.6875 
L 54.296875 54.6875 
L 54.296875 0 
L 45.3125 0 
L 45.3125 8.40625 
Q 42.046875 3.421875 37.71875 1 
Q 33.40625 -1.421875 27.6875 -1.421875 
Q 18.265625 -1.421875 13.375 4.4375 
Q 8.5 10.296875 8.5 21.578125 
z
M 31.109375 56 
z
" id="DejaVuSans-75"/>
      <path d="M 52 44.1875 
Q 55.375 50.25 60.0625 53.125 
Q 64.75 56 71.09375 56 
Q 79.640625 56 84.28125 50.015625 
Q 88.921875 44.046875 88.921875 33.015625 
L 88.921875 0 
L 79.890625 0 
L 79.890625 32.71875 
Q 79.890625 40.578125 77.09375 44.375 
Q 74.3125 48.1875 68.609375 48.1875 
Q 61.625 48.1875 57.5625 43.546875 
Q 53.515625 38.921875 53.515625 30.90625 
L 53.515625 0 
L 44.484375 0 
L 44.484375 32.71875 
Q 44.484375 40.625 41.703125 44.40625 
Q 38.921875 48.1875 33.109375 48.1875 
Q 26.21875 48.1875 22.15625 43.53125 
Q 18.109375 38.875 18.109375 30.90625 
L 18.109375 0 
L 9.078125 0 
L 9.078125 54.6875 
L 18.109375 54.6875 
L 18.109375 46.1875 
Q 21.1875 51.21875 25.484375 53.609375 
Q 29.78125 56 35.6875 56 
Q 41.65625 56 45.828125 52.96875 
Q 50 49.953125 52 44.1875 
z
" id="DejaVuSans-6d"/>
      <path d="M 10.6875 12.40625 
L 21 12.40625 
L 21 0 
L 10.6875 0 
z
" id="DejaVuSans-2e"/>
      <path d="M 14.796875 27.296875 
Q 14.796875 17.390625 18.875 11.75 
Q 22.953125 6.109375 30.078125 6.109375 
Q 37.203125 6.109375 41.296875 11.75 
Q 45.40625 17.390625 45.40625 27.296875 
Q 45.40625 37.203125 41.296875 42.84375 
Q 37.203125 48.484375 30.078125 48.484375 
Q 22.953125 48.484375 18.875 42.84375 
Q 14.796875 37.203125 14.796875 27.296875 
z
M 45.40625 8.203125 
Q 42.578125 3.328125 38.25 0.953125 
Q 33.9375 -1.421875 27.875 -1.421875 
Q 17.96875 -1.421875 11.734375 6.484375 
Q 5.515625 14.40625 5.515625 27.296875 
Q 5.515625 40.1875 11.734375 48.09375 
Q 17.96875 56 27.875 56 
Q 33.9375 56 38.25 53.625 
Q 42.578125 51.265625 45.40625 46.390625 
L 45.40625 54.6875 
L 54.390625 54.6875 
L 54.390625 -20.796875 
L 45.40625 -20.796875 
z
" id="DejaVuSans-71"/>
     </defs>
     <g transform="translate(20.877188 209.161563)rotate(-90)scale(0.18 -0.18)">
      <use xlink:href="#DejaVuSans-4e"/>
      <use x="74.804688" xlink:href="#DejaVuSans-75"/>
      <use x="138.183594" xlink:href="#DejaVuSans-6d"/>
      <use x="235.595703" xlink:href="#DejaVuSans-2e"/>
      <use x="267.382812" xlink:href="#DejaVuSans-20"/>
      <use x="299.169922" xlink:href="#DejaVuSans-73"/>
      <use x="351.269531" xlink:href="#DejaVuSans-65"/>
      <use x="412.792969" xlink:href="#DejaVuSans-71"/>
      <use x="476.269531" xlink:href="#DejaVuSans-75"/>
      <use x="539.648438" xlink:href="#DejaVuSans-65"/>
      <use x="601.171875" xlink:href="#DejaVuSans-6e"/>
      <use x="664.550781" xlink:href="#DejaVuSans-63"/>
      <use x="719.53125" xlink:href="#DejaVuSans-65"/>
      <use x="781.054688" xlink:href="#DejaVuSans-73"/>
     </g>
    </g>
   </g>
   <g id="line2d_13">
    <path clip-path="url(#p71ebe04237)" d="M 304.392799 242.8975 
L 304.392799 25.4575 
" style="fill:none;stroke:#808080;stroke-linecap:square;stroke-width:1.5;"/>
   </g>
   <g id="patch_203">
    <path d="M 76.340625 242.8975 
L 76.340625 25.4575 
" style="fill:none;stroke:#000000;stroke-linecap:square;stroke-linejoin:miter;stroke-width:0.8;"/>
   </g>
   <g id="patch_204">
    <path d="M 522.740625 242.8975 
L 522.740625 25.4575 
" style="fill:none;stroke:#000000;stroke-linecap:square;stroke-linejoin:miter;stroke-width:0.8;"/>
   </g>
   <g id="patch_205">
    <path d="M 76.340625 242.8975 
L 522.740625 242.8975 
" style="fill:none;stroke:#000000;stroke-linecap:square;stroke-linejoin:miter;stroke-width:0.8;"/>
   </g>
   <g id="patch_206">
    <path d="M 76.340625 25.4575 
L 522.740625 25.4575 
" style="fill:none;stroke:#000000;stroke-linecap:square;stroke-linejoin:miter;stroke-width:0.8;"/>
   </g>
   <g id="text_14">
    <!-- 8354 seqs (10.9%) -->
    <defs>
     <path d="M 31.78125 34.625 
Q 24.75 34.625 20.71875 30.859375 
Q 16.703125 27.09375 16.703125 20.515625 
Q 16.703125 13.921875 20.71875 10.15625 
Q 24.75 6.390625 31.78125 6.390625 
Q 38.8125 6.390625 42.859375 10.171875 
Q 46.921875 13.96875 46.921875 20.515625 
Q 46.921875 27.09375 42.890625 30.859375 
Q 38.875 34.625 31.78125 34.625 
z
M 21.921875 38.8125 
Q 15.578125 40.375 12.03125 44.71875 
Q 8.5 49.078125 8.5 55.328125 
Q 8.5 64.0625 14.71875 69.140625 
Q 20.953125 74.21875 31.78125 74.21875 
Q 42.671875 74.21875 48.875 69.140625 
Q 55.078125 64.0625 55.078125 55.328125 
Q 55.078125 49.078125 51.53125 44.71875 
Q 48 40.375 41.703125 38.8125 
Q 48.828125 37.15625 52.796875 32.3125 
Q 56.78125 27.484375 56.78125 20.515625 
Q 56.78125 9.90625 50.3125 4.234375 
Q 43.84375 -1.421875 31.78125 -1.421875 
Q 19.734375 -1.421875 13.25 4.234375 
Q 6.78125 9.90625 6.78125 20.515625 
Q 6.78125 27.484375 10.78125 32.3125 
Q 14.796875 37.15625 21.921875 38.8125 
z
M 18.3125 54.390625 
Q 18.3125 48.734375 21.84375 45.5625 
Q 25.390625 42.390625 31.78125 42.390625 
Q 38.140625 42.390625 41.71875 45.5625 
Q 45.3125 48.734375 45.3125 54.390625 
Q 45.3125 60.0625 41.71875 63.234375 
Q 38.140625 66.40625 31.78125 66.40625 
Q 25.390625 66.40625 21.84375 63.234375 
Q 18.3125 60.0625 18.3125 54.390625 
z
" id="DejaVuSans-38"/>
     <path d="M 31 75.875 
Q 24.46875 64.65625 21.28125 53.65625 
Q 18.109375 42.671875 18.109375 31.390625 
Q 18.109375 20.125 21.3125 9.0625 
Q 24.515625 -2 31 -13.1875 
L 23.1875 -13.1875 
Q 15.875 -1.703125 12.234375 9.375 
Q 8.59375 20.453125 8.59375 31.390625 
Q 8.59375 42.28125 12.203125 53.3125 
Q 15.828125 64.359375 23.1875 75.875 
z
" id="DejaVuSans-28"/>
     <path d="M 10.984375 1.515625 
L 10.984375 10.5 
Q 14.703125 8.734375 18.5 7.8125 
Q 22.3125 6.890625 25.984375 6.890625 
Q 35.75 6.890625 40.890625 13.453125 
Q 46.046875 20.015625 46.78125 33.40625 
Q 43.953125 29.203125 39.59375 26.953125 
Q 35.25 24.703125 29.984375 24.703125 
Q 19.046875 24.703125 12.671875 31.3125 
Q 6.296875 37.9375 6.296875 49.421875 
Q 6.296875 60.640625 12.9375 67.421875 
Q 19.578125 74.21875 30.609375 74.21875 
Q 43.265625 74.21875 49.921875 64.515625 
Q 56.59375 54.828125 56.59375 36.375 
Q 56.59375 19.140625 48.40625 8.859375 
Q 40.234375 -1.421875 26.421875 -1.421875 
Q 22.703125 -1.421875 18.890625 -0.6875 
Q 15.09375 0.046875 10.984375 1.515625 
z
M 30.609375 32.421875 
Q 37.25 32.421875 41.125 36.953125 
Q 45.015625 41.5 45.015625 49.421875 
Q 45.015625 57.28125 41.125 61.84375 
Q 37.25 66.40625 30.609375 66.40625 
Q 23.96875 66.40625 20.09375 61.84375 
Q 16.21875 57.28125 16.21875 49.421875 
Q 16.21875 41.5 20.09375 36.953125 
Q 23.96875 32.421875 30.609375 32.421875 
z
" id="DejaVuSans-39"/>
     <path d="M 72.703125 32.078125 
Q 68.453125 32.078125 66.03125 28.46875 
Q 63.625 24.859375 63.625 18.40625 
Q 63.625 12.0625 66.03125 8.421875 
Q 68.453125 4.78125 72.703125 4.78125 
Q 76.859375 4.78125 79.265625 8.421875 
Q 81.6875 12.0625 81.6875 18.40625 
Q 81.6875 24.8125 79.265625 28.4375 
Q 76.859375 32.078125 72.703125 32.078125 
z
M 72.703125 38.28125 
Q 80.421875 38.28125 84.953125 32.90625 
Q 89.5 27.546875 89.5 18.40625 
Q 89.5 9.28125 84.9375 3.921875 
Q 80.375 -1.421875 72.703125 -1.421875 
Q 64.890625 -1.421875 60.34375 3.921875 
Q 55.8125 9.28125 55.8125 18.40625 
Q 55.8125 27.59375 60.375 32.9375 
Q 64.9375 38.28125 72.703125 38.28125 
z
M 22.3125 68.015625 
Q 18.109375 68.015625 15.6875 64.375 
Q 13.28125 60.75 13.28125 54.390625 
Q 13.28125 47.953125 15.671875 44.328125 
Q 18.0625 40.71875 22.3125 40.71875 
Q 26.5625 40.71875 28.96875 44.328125 
Q 31.390625 47.953125 31.390625 54.390625 
Q 31.390625 60.6875 28.953125 64.34375 
Q 26.515625 68.015625 22.3125 68.015625 
z
M 66.40625 74.21875 
L 74.21875 74.21875 
L 28.609375 -1.421875 
L 20.796875 -1.421875 
z
M 22.3125 74.21875 
Q 30.03125 74.21875 34.609375 68.875 
Q 39.203125 63.53125 39.203125 54.390625 
Q 39.203125 45.171875 34.640625 39.84375 
Q 30.078125 34.515625 22.3125 34.515625 
Q 14.546875 34.515625 10.03125 39.859375 
Q 5.515625 45.21875 5.515625 54.390625 
Q 5.515625 63.484375 10.046875 68.84375 
Q 14.59375 74.21875 22.3125 74.21875 
z
" id="DejaVuSans-25"/>
     <path d="M 8.015625 75.875 
L 15.828125 75.875 
Q 23.140625 64.359375 26.78125 53.3125 
Q 30.421875 42.28125 30.421875 31.390625 
Q 30.421875 20.453125 26.78125 9.375 
Q 23.140625 -1.703125 15.828125 -13.1875 
L 8.015625 -13.1875 
Q 14.5 -2 17.703125 9.0625 
Q 20.90625 20.125 20.90625 31.390625 
Q 20.90625 42.671875 17.703125 53.65625 
Q 14.5 64.65625 8.015625 75.875 
z
" id="DejaVuSans-29"/>
    </defs>
    <g style="fill:#0000ff;" transform="translate(81.705625 138.5925)scale(0.16 -0.16)">
     <use xlink:href="#DejaVuSans-38"/>
     <use x="63.623047" xlink:href="#DejaVuSans-33"/>
     <use x="127.246094" xlink:href="#DejaVuSans-35"/>
     <use x="190.869141" xlink:href="#DejaVuSans-34"/>
     <use x="254.492188" xlink:href="#DejaVuSans-20"/>
     <use x="286.279297" xlink:href="#DejaVuSans-73"/>
     <use x="338.378906" xlink:href="#DejaVuSans-65"/>
     <use x="399.902344" xlink:href="#DejaVuSans-71"/>
     <use x="463.378906" xlink:href="#DejaVuSans-73"/>
     <use x="515.478516" xlink:href="#DejaVuSans-20"/>
     <use x="547.265625" xlink:href="#DejaVuSans-28"/>
     <use x="586.279297" xlink:href="#DejaVuSans-31"/>
     <use x="649.902344" xlink:href="#DejaVuSans-30"/>
     <use x="713.525391" xlink:href="#DejaVuSans-2e"/>
     <use x="745.3125" xlink:href="#DejaVuSans-39"/>
     <use x="808.935547" xlink:href="#DejaVuSans-25"/>
     <use x="903.955078" xlink:href="#DejaVuSans-29"/>
    </g>
   </g>
   <g id="text_15">
    <!-- 4 seqs (0.0%) -->
    <g style="fill:#ff0000;" transform="translate(122.425625 155.9877)scale(0.16 -0.16)">
     <use xlink:href="#DejaVuSans-34"/>
     <use x="63.623047" xlink:href="#DejaVuSans-20"/>
     <use x="95.410156" xlink:href="#DejaVuSans-73"/>
     <use x="147.509766" xlink:href="#DejaVuSans-65"/>
     <use x="209.033203" xlink:href="#DejaVuSans-71"/>
     <use x="272.509766" xlink:href="#DejaVuSans-73"/>
     <use x="324.609375" xlink:href="#DejaVuSans-20"/>
     <use x="356.396484" xlink:href="#DejaVuSans-28"/>
     <use x="395.410156" xlink:href="#DejaVuSans-30"/>
     <use x="459.033203" xlink:href="#DejaVuSans-2e"/>
     <use x="490.820312" xlink:href="#DejaVuSans-30"/>
     <use x="554.443359" xlink:href="#DejaVuSans-25"/>
     <use x="649.462891" xlink:href="#DejaVuSans-29"/>
    </g>
   </g>
   <g id="text_16">
    <!-- 68381 seqs (89.1%) -->
    <defs>
     <path d="M 33.015625 40.375 
Q 26.375 40.375 22.484375 35.828125 
Q 18.609375 31.296875 18.609375 23.390625 
Q 18.609375 15.53125 22.484375 10.953125 
Q 26.375 6.390625 33.015625 6.390625 
Q 39.65625 6.390625 43.53125 10.953125 
Q 47.40625 15.53125 47.40625 23.390625 
Q 47.40625 31.296875 43.53125 35.828125 
Q 39.65625 40.375 33.015625 40.375 
z
M 52.59375 71.296875 
L 52.59375 62.3125 
Q 48.875 64.0625 45.09375 64.984375 
Q 41.3125 65.921875 37.59375 65.921875 
Q 27.828125 65.921875 22.671875 59.328125 
Q 17.53125 52.734375 16.796875 39.40625 
Q 19.671875 43.65625 24.015625 45.921875 
Q 28.375 48.1875 33.59375 48.1875 
Q 44.578125 48.1875 50.953125 41.515625 
Q 57.328125 34.859375 57.328125 23.390625 
Q 57.328125 12.15625 50.6875 5.359375 
Q 44.046875 -1.421875 33.015625 -1.421875 
Q 20.359375 -1.421875 13.671875 8.265625 
Q 6.984375 17.96875 6.984375 36.375 
Q 6.984375 53.65625 15.1875 63.9375 
Q 23.390625 74.21875 37.203125 74.21875 
Q 40.921875 74.21875 44.703125 73.484375 
Q 48.484375 72.75 52.59375 71.296875 
z
" id="DejaVuSans-36"/>
    </defs>
    <g style="fill:#0000ff;" transform="translate(406.325625 138.5925)scale(0.16 -0.16)">
     <use xlink:href="#DejaVuSans-36"/>
     <use x="63.623047" xlink:href="#DejaVuSans-38"/>
     <use x="127.246094" xlink:href="#DejaVuSans-33"/>
     <use x="190.869141" xlink:href="#DejaVuSans-38"/>
     <use x="254.492188" xlink:href="#DejaVuSans-31"/>
     <use x="318.115234" xlink:href="#DejaVuSans-20"/>
     <use x="349.902344" xlink:href="#DejaVuSans-73"/>
     <use x="402.001953" xlink:href="#DejaVuSans-65"/>
     <use x="463.525391" xlink:href="#DejaVuSans-71"/>
     <use x="527.001953" xlink:href="#DejaVuSans-73"/>
     <use x="579.101562" xlink:href="#DejaVuSans-20"/>
     <use x="610.888672" xlink:href="#DejaVuSans-28"/>
     <use x="649.902344" xlink:href="#DejaVuSans-38"/>
     <use x="713.525391" xlink:href="#DejaVuSans-39"/>
     <use x="777.148438" xlink:href="#DejaVuSans-2e"/>
     <use x="808.935547" xlink:href="#DejaVuSans-31"/>
     <use x="872.558594" xlink:href="#DejaVuSans-25"/>
     <use x="967.578125" xlink:href="#DejaVuSans-29"/>
    </g>
   </g>
   <g id="text_17">
    <!-- 76731 seqs  (100%) -->
    <defs>
     <path d="M 8.203125 72.90625 
L 55.078125 72.90625 
L 55.078125 68.703125 
L 28.609375 0 
L 18.3125 0 
L 43.21875 64.59375 
L 8.203125 64.59375 
z
" id="DejaVuSans-37"/>
    </defs>
    <g style="fill:#ff0000;" transform="translate(406.325625 155.9877)scale(0.16 -0.16)">
     <use xlink:href="#DejaVuSans-37"/>
     <use x="63.623047" xlink:href="#DejaVuSans-36"/>
     <use x="127.246094" xlink:href="#DejaVuSans-37"/>
     <use x="190.869141" xlink:href="#DejaVuSans-33"/>
     <use x="254.492188" xlink:href="#DejaVuSans-31"/>
     <use x="318.115234" xlink:href="#DejaVuSans-20"/>
     <use x="349.902344" xlink:href="#DejaVuSans-73"/>
     <use x="402.001953" xlink:href="#DejaVuSans-65"/>
     <use x="463.525391" xlink:href="#DejaVuSans-71"/>
     <use x="527.001953" xlink:href="#DejaVuSans-73"/>
     <use x="579.101562" xlink:href="#DejaVuSans-20"/>
     <use x="610.888672" xlink:href="#DejaVuSans-20"/>
     <use x="642.675781" xlink:href="#DejaVuSans-28"/>
     <use x="681.689453" xlink:href="#DejaVuSans-31"/>
     <use x="745.3125" xlink:href="#DejaVuSans-30"/>
     <use x="808.935547" xlink:href="#DejaVuSans-30"/>
     <use x="872.558594" xlink:href="#DejaVuSans-25"/>
     <use x="967.578125" xlink:href="#DejaVuSans-29"/>
    </g>
   </g>
   <g id="text_18">
    <!-- -lactamase ET -->
    <defs>
     <path d="M 18.40625 3.375 
L 18.40625 -20.796875 
L 9.375 -20.796875 
L 9.375 54.34375 
Q 9.375 76.609375 30.171875 76.609375 
Q 51.375 76.609375 51.375 57.8125 
Q 51.375 44.4375 42.96875 39.546875 
Q 56.640625 35.15625 56.640625 22.125 
Q 56.640625 -1.03125 33.109375 -1.03125 
Q 22.75 -1.03125 18.40625 3.375 
z
M 18.40625 15.09375 
Q 23.828125 6.640625 33.453125 6.640625 
Q 47.515625 6.640625 47.515625 21.96875 
Q 47.515625 35.75 24.859375 34.671875 
L 24.859375 42.96875 
Q 42.578125 42.96875 42.578125 58.59375 
Q 42.578125 69.28125 31.15625 69.28125 
Q 18.40625 69.28125 18.40625 54.046875 
z
" id="DejaVuSans-3b2"/>
     <path d="M -0.296875 72.90625 
L 61.375 72.90625 
L 61.375 64.59375 
L 35.5 64.59375 
L 35.5 0 
L 25.59375 0 
L 25.59375 64.59375 
L -0.296875 64.59375 
z
" id="DejaVuSans-54"/>
    </defs>
    <g transform="translate(237.718125 19.4575)scale(0.16 -0.16)">
     <use xlink:href="#DejaVuSans-3b2"/>
     <use x="63.818359" xlink:href="#DejaVuSans-2d"/>
     <use x="99.902344" xlink:href="#DejaVuSans-6c"/>
     <use x="127.685547" xlink:href="#DejaVuSans-61"/>
     <use x="188.964844" xlink:href="#DejaVuSans-63"/>
     <use x="243.945312" xlink:href="#DejaVuSans-74"/>
     <use x="283.154297" xlink:href="#DejaVuSans-61"/>
     <use x="344.433594" xlink:href="#DejaVuSans-6d"/>
     <use x="441.845703" xlink:href="#DejaVuSans-61"/>
     <use x="503.125" xlink:href="#DejaVuSans-73"/>
     <use x="555.224609" xlink:href="#DejaVuSans-65"/>
     <use x="616.748047" xlink:href="#DejaVuSans-20"/>
     <use x="648.535156" xlink:href="#DejaVuSans-45"/>
     <use x="711.71875" xlink:href="#DejaVuSans-54"/>
    </g>
   </g>
   <g id="legend_1">
    <g id="patch_207">
     <path d="M 556.260625 85.2275 
L 860.753125 85.2275 
Q 863.953125 85.2275 863.953125 82.0275 
L 863.953125 36.6575 
Q 863.953125 33.4575 860.753125 33.4575 
L 556.260625 33.4575 
Q 553.060625 33.4575 553.060625 36.6575 
L 553.060625 82.0275 
Q 553.060625 85.2275 556.260625 85.2275 
z
" style="fill:#ffffff;opacity:0.8;stroke:#cccccc;stroke-linejoin:miter;"/>
    </g>
    <g id="patch_208">
     <path d="M 559.460625 52.015 
L 591.460625 52.015 
L 591.460625 40.815 
L 559.460625 40.815 
z
" style="fill:#0000ff;opacity:0.7;"/>
    </g>
    <g id="text_19">
     <!-- Evotuning seqs -->
     <defs>
      <path d="M 2.984375 54.6875 
L 12.5 54.6875 
L 29.59375 8.796875 
L 46.6875 54.6875 
L 56.203125 54.6875 
L 35.6875 0 
L 23.484375 0 
z
" id="DejaVuSans-76"/>
      <path d="M 45.40625 27.984375 
Q 45.40625 37.75 41.375 43.109375 
Q 37.359375 48.484375 30.078125 48.484375 
Q 22.859375 48.484375 18.828125 43.109375 
Q 14.796875 37.75 14.796875 27.984375 
Q 14.796875 18.265625 18.828125 12.890625 
Q 22.859375 7.515625 30.078125 7.515625 
Q 37.359375 7.515625 41.375 12.890625 
Q 45.40625 18.265625 45.40625 27.984375 
z
M 54.390625 6.78125 
Q 54.390625 -7.171875 48.1875 -13.984375 
Q 42 -20.796875 29.203125 -20.796875 
Q 24.46875 -20.796875 20.265625 -20.09375 
Q 16.0625 -19.390625 12.109375 -17.921875 
L 12.109375 -9.1875 
Q 16.0625 -11.328125 19.921875 -12.34375 
Q 23.78125 -13.375 27.78125 -13.375 
Q 36.625 -13.375 41.015625 -8.765625 
Q 45.40625 -4.15625 45.40625 5.171875 
L 45.40625 9.625 
Q 42.625 4.78125 38.28125 2.390625 
Q 33.9375 0 27.875 0 
Q 17.828125 0 11.671875 7.65625 
Q 5.515625 15.328125 5.515625 27.984375 
Q 5.515625 40.671875 11.671875 48.328125 
Q 17.828125 56 27.875 56 
Q 33.9375 56 38.28125 53.609375 
Q 42.625 51.21875 45.40625 46.390625 
L 45.40625 54.6875 
L 54.390625 54.6875 
z
" id="DejaVuSans-67"/>
     </defs>
     <g transform="translate(604.260625 52.015)scale(0.16 -0.16)">
      <use xlink:href="#DejaVuSans-45"/>
      <use x="63.183594" xlink:href="#DejaVuSans-76"/>
      <use x="122.363281" xlink:href="#DejaVuSans-6f"/>
      <use x="183.544922" xlink:href="#DejaVuSans-74"/>
      <use x="222.753906" xlink:href="#DejaVuSans-75"/>
      <use x="286.132812" xlink:href="#DejaVuSans-6e"/>
      <use x="349.511719" xlink:href="#DejaVuSans-69"/>
      <use x="377.294922" xlink:href="#DejaVuSans-6e"/>
      <use x="440.673828" xlink:href="#DejaVuSans-67"/>
      <use x="504.150391" xlink:href="#DejaVuSans-20"/>
      <use x="535.9375" xlink:href="#DejaVuSans-73"/>
      <use x="588.037109" xlink:href="#DejaVuSans-65"/>
      <use x="649.560547" xlink:href="#DejaVuSans-71"/>
      <use x="713.037109" xlink:href="#DejaVuSans-73"/>
     </g>
    </g>
    <g id="patch_209">
     <path d="M 559.460625 75.5 
L 591.460625 75.5 
L 591.460625 64.3 
L 559.460625 64.3 
z
" style="fill:#ff0000;opacity:0.3;"/>
    </g>
    <g id="text_20">
     <!-- Random seqs (length-matched) -->
     <defs>
      <path d="M 44.390625 34.1875 
Q 47.5625 33.109375 50.5625 29.59375 
Q 53.5625 26.078125 56.59375 19.921875 
L 66.609375 0 
L 56 0 
L 46.6875 18.703125 
Q 43.0625 26.03125 39.671875 28.421875 
Q 36.28125 30.8125 30.421875 30.8125 
L 19.671875 30.8125 
L 19.671875 0 
L 9.8125 0 
L 9.8125 72.90625 
L 32.078125 72.90625 
Q 44.578125 72.90625 50.734375 67.671875 
Q 56.890625 62.453125 56.890625 51.90625 
Q 56.890625 45.015625 53.6875 40.46875 
Q 50.484375 35.9375 44.390625 34.1875 
z
M 19.671875 64.796875 
L 19.671875 38.921875 
L 32.078125 38.921875 
Q 39.203125 38.921875 42.84375 42.21875 
Q 46.484375 45.515625 46.484375 51.90625 
Q 46.484375 58.296875 42.84375 61.546875 
Q 39.203125 64.796875 32.078125 64.796875 
z
" id="DejaVuSans-52"/>
      <path d="M 54.890625 33.015625 
L 54.890625 0 
L 45.90625 0 
L 45.90625 32.71875 
Q 45.90625 40.484375 42.875 44.328125 
Q 39.84375 48.1875 33.796875 48.1875 
Q 26.515625 48.1875 22.3125 43.546875 
Q 18.109375 38.921875 18.109375 30.90625 
L 18.109375 0 
L 9.078125 0 
L 9.078125 75.984375 
L 18.109375 75.984375 
L 18.109375 46.1875 
Q 21.34375 51.125 25.703125 53.5625 
Q 30.078125 56 35.796875 56 
Q 45.21875 56 50.046875 50.171875 
Q 54.890625 44.34375 54.890625 33.015625 
z
" id="DejaVuSans-68"/>
     </defs>
     <g transform="translate(604.260625 75.5)scale(0.16 -0.16)">
      <use xlink:href="#DejaVuSans-52"/>
      <use x="69.451172" xlink:href="#DejaVuSans-61"/>
      <use x="130.730469" xlink:href="#DejaVuSans-6e"/>
      <use x="194.109375" xlink:href="#DejaVuSans-64"/>
      <use x="257.585938" xlink:href="#DejaVuSans-6f"/>
      <use x="318.767578" xlink:href="#DejaVuSans-6d"/>
      <use x="416.179688" xlink:href="#DejaVuSans-20"/>
      <use x="447.966797" xlink:href="#DejaVuSans-73"/>
      <use x="500.066406" xlink:href="#DejaVuSans-65"/>
      <use x="561.589844" xlink:href="#DejaVuSans-71"/>
      <use x="625.066406" xlink:href="#DejaVuSans-73"/>
      <use x="677.166016" xlink:href="#DejaVuSans-20"/>
      <use x="708.953125" xlink:href="#DejaVuSans-28"/>
      <use x="747.966797" xlink:href="#DejaVuSans-6c"/>
      <use x="775.75" xlink:href="#DejaVuSans-65"/>
      <use x="837.273438" xlink:href="#DejaVuSans-6e"/>
      <use x="900.652344" xlink:href="#DejaVuSans-67"/>
      <use x="964.128906" xlink:href="#DejaVuSans-74"/>
      <use x="1003.337891" xlink:href="#DejaVuSans-68"/>
      <use x="1066.716797" xlink:href="#DejaVuSans-2d"/>
      <use x="1102.800781" xlink:href="#DejaVuSans-6d"/>
      <use x="1200.212891" xlink:href="#DejaVuSans-61"/>
      <use x="1261.492188" xlink:href="#DejaVuSans-74"/>
      <use x="1300.701172" xlink:href="#DejaVuSans-63"/>
      <use x="1355.681641" xlink:href="#DejaVuSans-68"/>
      <use x="1419.060547" xlink:href="#DejaVuSans-65"/>
      <use x="1480.583984" xlink:href="#DejaVuSans-64"/>
      <use x="1544.060547" xlink:href="#DejaVuSans-29"/>
     </g>
    </g>
   </g>
  </g>
 </g>
 <defs>
  <clipPath id="p71ebe04237">
   <rect height="217.44" width="446.4" x="76.340625" y="25.4575"/>
  </clipPath>
 </defs>
</svg>
