<?xml version="1.0" encoding="utf-8" standalone="no"?>
<!DOCTYPE svg PUBLIC "-//W3C//DTD SVG 1.1//EN"
  "http://www.w3.org/Graphics/SVG/1.1/DTD/svg11.dtd">
<!-- Created with matplotlib (https://matplotlib.org/) -->
<svg height="418.024687pt" version="1.1" viewBox="0 0 761.013094 418.024687" width="761.013094pt" xmlns="http://www.w3.org/2000/svg" xmlns:xlink="http://www.w3.org/1999/xlink">
 <defs>
  <style type="text/css">
*{stroke-linecap:butt;stroke-linejoin:round;}
  </style>
 </defs>
 <g id="figure_1">
  <g id="patch_1">
   <path d="M 0 418.024687 
L 761.013094 418.024687 
L 761.013094 0 
L 0 0 
z
" style="fill:none;"/>
  </g>
  <g id="axes_1">
   <g id="patch_2">
    <path d="M 87.516844 344.912344 
L 645.516844 344.912344 
L 645.516844 73.112344 
L 87.516844 73.112344 
z
" style="fill:none;"/>
   </g>
   <g id="matplotlib.axis_1">
    <g id="xtick_1">
     <g id="line2d_1">
      <path clip-path="url(#p307297c76a)" d="M 157.266844 344.912344 
L 157.266844 73.112344 
" style="fill:none;stroke:#cccccc;stroke-linecap:round;stroke-width:1.5;"/>
     </g>
     <g id="text_1">
      <!-- Full AA -->
      <defs>
       <path d="M 9.8125 72.90625 
L 51.703125 72.90625 
L 51.703125 64.59375 
L 19.671875 64.59375 
L 19.671875 43.109375 
L 48.578125 43.109375 
L 48.578125 34.8125 
L 19.671875 34.8125 
L 19.671875 0 
L 9.8125 0 
z
" id="DejaVuSans-70"/>
       <path d="M 8.5 21.578125 
L 8.5 54.6875 
L 17.484375 54.6875 
L 17.484375 21.921875 
Q 17.484375 14.15625 20.5 10.265625 
Q 23.53125 6.390625 29.59375 6.390625 
Q 36.859375 6.390625 41.078125 11.03125 
Q 45.3125 15.671875 45.3125 23.6875 
L 45.3125 54.6875 
L 54.296875 54.6875 
L 54.296875 0 
L 45.3125 0 
L 45.3125 8.40625 
Q 42.046875 3.421875 37.71875 1 
Q 33.40625 -1.421875 27.6875 -1.421875 
Q 18.265625 -1.421875 13.375 4.4375 
Q 8.5 10.296875 8.5 21.578125 
z
M 31.109375 56 
z
" id="DejaVuSans-117"/>
       <path d="M 9.421875 75.984375 
L 18.40625 75.984375 
L 18.40625 0 
L 9.421875 0 
z
" id="DejaVuSans-108"/>
       <path id="DejaVuSans-32"/>
       <path d="M 34.1875 63.1875 
L 20.796875 26.90625 
L 47.609375 26.90625 
z
M 28.609375 72.90625 
L 39.796875 72.90625 
L 67.578125 0 
L 57.328125 0 
L 50.6875 18.703125 
L 17.828125 18.703125 
L 11.1875 0 
L 0.78125 0 
z
" id="DejaVuSans-65"/>
      </defs>
      <g style="fill:#262626;" transform="translate(128.804344 369.949766)scale(0.165 -0.165)">
       <use xlink:href="#DejaVuSans-70"/>
       <use x="57.441406" xlink:href="#DejaVuSans-117"/>
       <use x="120.820312" xlink:href="#DejaVuSans-108"/>
       <use x="148.603516" xlink:href="#DejaVuSans-108"/>
       <use x="176.386719" xlink:href="#DejaVuSans-32"/>
       <use x="208.173828" xlink:href="#DejaVuSans-65"/>
       <use x="276.613281" xlink:href="#DejaVuSans-65"/>
      </g>
     </g>
    </g>
    <g id="xtick_2">
     <g id="line2d_2">
      <path clip-path="url(#p307297c76a)" d="M 296.766844 344.912344 
L 296.766844 73.112344 
" style="fill:none;stroke:#cccccc;stroke-linecap:round;stroke-width:1.5;"/>
     </g>
     <g id="text_2">
      <!-- Local -->
      <defs>
       <path d="M 9.8125 72.90625 
L 19.671875 72.90625 
L 19.671875 8.296875 
L 55.171875 8.296875 
L 55.171875 0 
L 9.8125 0 
z
" id="DejaVuSans-76"/>
       <path d="M 30.609375 48.390625 
Q 23.390625 48.390625 19.1875 42.75 
Q 14.984375 37.109375 14.984375 27.296875 
Q 14.984375 17.484375 19.15625 11.84375 
Q 23.34375 6.203125 30.609375 6.203125 
Q 37.796875 6.203125 41.984375 11.859375 
Q 46.1875 17.53125 46.1875 27.296875 
Q 46.1875 37.015625 41.984375 42.703125 
Q 37.796875 48.390625 30.609375 48.390625 
z
M 30.609375 56 
Q 42.328125 56 49.015625 48.375 
Q 55.71875 40.765625 55.71875 27.296875 
Q 55.71875 13.875 49.015625 6.21875 
Q 42.328125 -1.421875 30.609375 -1.421875 
Q 18.84375 -1.421875 12.171875 6.21875 
Q 5.515625 13.875 5.515625 27.296875 
Q 5.515625 40.765625 12.171875 48.375 
Q 18.84375 56 30.609375 56 
z
" id="DejaVuSans-111"/>
       <path d="M 48.78125 52.59375 
L 48.78125 44.1875 
Q 44.96875 46.296875 41.140625 47.34375 
Q 37.3125 48.390625 33.40625 48.390625 
Q 24.65625 48.390625 19.8125 42.84375 
Q 14.984375 37.3125 14.984375 27.296875 
Q 14.984375 17.28125 19.8125 11.734375 
Q 24.65625 6.203125 33.40625 6.203125 
Q 37.3125 6.203125 41.140625 7.25 
Q 44.96875 8.296875 48.78125 10.40625 
L 48.78125 2.09375 
Q 45.015625 0.34375 40.984375 -0.53125 
Q 36.96875 -1.421875 32.421875 -1.421875 
Q 20.0625 -1.421875 12.78125 6.34375 
Q 5.515625 14.109375 5.515625 27.296875 
Q 5.515625 40.671875 12.859375 48.328125 
Q 20.21875 56 33.015625 56 
Q 37.15625 56 41.109375 55.140625 
Q 45.0625 54.296875 48.78125 52.59375 
z
" id="DejaVuSans-99"/>
       <path d="M 34.28125 27.484375 
Q 23.390625 27.484375 19.1875 25 
Q 14.984375 22.515625 14.984375 16.5 
Q 14.984375 11.71875 18.140625 8.90625 
Q 21.296875 6.109375 26.703125 6.109375 
Q 34.1875 6.109375 38.703125 11.40625 
Q 43.21875 16.703125 43.21875 25.484375 
L 43.21875 27.484375 
z
M 52.203125 31.203125 
L 52.203125 0 
L 43.21875 0 
L 43.21875 8.296875 
Q 40.140625 3.328125 35.546875 0.953125 
Q 30.953125 -1.421875 24.3125 -1.421875 
Q 15.921875 -1.421875 10.953125 3.296875 
Q 6 8.015625 6 15.921875 
Q 6 25.140625 12.171875 29.828125 
Q 18.359375 34.515625 30.609375 34.515625 
L 43.21875 34.515625 
L 43.21875 35.40625 
Q 43.21875 41.609375 39.140625 45 
Q 35.0625 48.390625 27.6875 48.390625 
Q 23 48.390625 18.546875 47.265625 
Q 14.109375 46.140625 10.015625 43.890625 
L 10.015625 52.203125 
Q 14.9375 54.109375 19.578125 55.046875 
Q 24.21875 56 28.609375 56 
Q 40.484375 56 46.34375 49.84375 
Q 52.203125 43.703125 52.203125 31.203125 
z
" id="DejaVuSans-97"/>
      </defs>
      <g style="fill:#262626;" transform="translate(275.2395 369.949766)scale(0.165 -0.165)">
       <use xlink:href="#DejaVuSans-76"/>
       <use x="55.697266" xlink:href="#DejaVuSans-111"/>
       <use x="116.878906" xlink:href="#DejaVuSans-99"/>
       <use x="171.859375" xlink:href="#DejaVuSans-97"/>
       <use x="233.138672" xlink:href="#DejaVuSans-108"/>
      </g>
      <!-- UniRep -->
      <defs>
       <path d="M 8.6875 72.90625 
L 18.609375 72.90625 
L 18.609375 28.609375 
Q 18.609375 16.890625 22.84375 11.734375 
Q 27.09375 6.59375 36.625 6.59375 
Q 46.09375 6.59375 50.34375 11.734375 
Q 54.59375 16.890625 54.59375 28.609375 
L 54.59375 72.90625 
L 64.5 72.90625 
L 64.5 27.390625 
Q 64.5 13.140625 57.4375 5.859375 
Q 50.390625 -1.421875 36.625 -1.421875 
Q 22.796875 -1.421875 15.734375 5.859375 
Q 8.6875 13.140625 8.6875 27.390625 
z
" id="DejaVuSans-85"/>
       <path d="M 54.890625 33.015625 
L 54.890625 0 
L 45.90625 0 
L 45.90625 32.71875 
Q 45.90625 40.484375 42.875 44.328125 
Q 39.84375 48.1875 33.796875 48.1875 
Q 26.515625 48.1875 22.3125 43.546875 
Q 18.109375 38.921875 18.109375 30.90625 
L 18.109375 0 
L 9.078125 0 
L 9.078125 54.6875 
L 18.109375 54.6875 
L 18.109375 46.1875 
Q 21.34375 51.125 25.703125 53.5625 
Q 30.078125 56 35.796875 56 
Q 45.21875 56 50.046875 50.171875 
Q 54.890625 44.34375 54.890625 33.015625 
z
" id="DejaVuSans-110"/>
       <path d="M 9.421875 54.6875 
L 18.40625 54.6875 
L 18.40625 0 
L 9.421875 0 
z
M 9.421875 75.984375 
L 18.40625 75.984375 
L 18.40625 64.59375 
L 9.421875 64.59375 
z
" id="DejaVuSans-105"/>
       <path d="M 44.390625 34.1875 
Q 47.5625 33.109375 50.5625 29.59375 
Q 53.5625 26.078125 56.59375 19.921875 
L 66.609375 0 
L 56 0 
L 46.6875 18.703125 
Q 43.0625 26.03125 39.671875 28.421875 
Q 36.28125 30.8125 30.421875 30.8125 
L 19.671875 30.8125 
L 19.671875 0 
L 9.8125 0 
L 9.8125 72.90625 
L 32.078125 72.90625 
Q 44.578125 72.90625 50.734375 67.671875 
Q 56.890625 62.453125 56.890625 51.90625 
Q 56.890625 45.015625 53.6875 40.46875 
Q 50.484375 35.9375 44.390625 34.1875 
z
M 19.671875 64.796875 
L 19.671875 38.921875 
L 32.078125 38.921875 
Q 39.203125 38.921875 42.84375 42.21875 
Q 46.484375 45.515625 46.484375 51.90625 
Q 46.484375 58.296875 42.84375 61.546875 
Q 39.203125 64.796875 32.078125 64.796875 
z
" id="DejaVuSans-82"/>
       <path d="M 56.203125 29.59375 
L 56.203125 25.203125 
L 14.890625 25.203125 
Q 15.484375 15.921875 20.484375 11.0625 
Q 25.484375 6.203125 34.421875 6.203125 
Q 39.59375 6.203125 44.453125 7.46875 
Q 49.3125 8.734375 54.109375 11.28125 
L 54.109375 2.78125 
Q 49.265625 0.734375 44.1875 -0.34375 
Q 39.109375 -1.421875 33.890625 -1.421875 
Q 20.796875 -1.421875 13.15625 6.1875 
Q 5.515625 13.8125 5.515625 26.8125 
Q 5.515625 40.234375 12.765625 48.109375 
Q 20.015625 56 32.328125 56 
Q 43.359375 56 49.78125 48.890625 
Q 56.203125 41.796875 56.203125 29.59375 
z
M 47.21875 32.234375 
Q 47.125 39.59375 43.09375 43.984375 
Q 39.0625 48.390625 32.421875 48.390625 
Q 24.90625 48.390625 20.390625 44.140625 
Q 15.875 39.890625 15.1875 32.171875 
z
" id="DejaVuSans-101"/>
       <path d="M 18.109375 8.203125 
L 18.109375 -20.796875 
L 9.078125 -20.796875 
L 9.078125 54.6875 
L 18.109375 54.6875 
L 18.109375 46.390625 
Q 20.953125 51.265625 25.265625 53.625 
Q 29.59375 56 35.59375 56 
Q 45.5625 56 51.78125 48.09375 
Q 58.015625 40.1875 58.015625 27.296875 
Q 58.015625 14.40625 51.78125 6.484375 
Q 45.5625 -1.421875 35.59375 -1.421875 
Q 29.59375 -1.421875 25.265625 0.953125 
Q 20.953125 3.328125 18.109375 8.203125 
z
M 48.6875 27.296875 
Q 48.6875 37.203125 44.609375 42.84375 
Q 40.53125 48.484375 33.40625 48.484375 
Q 26.265625 48.484375 22.1875 42.84375 
Q 18.109375 37.203125 18.109375 27.296875 
Q 18.109375 17.390625 22.1875 11.75 
Q 26.265625 6.109375 33.40625 6.109375 
Q 40.53125 6.109375 44.609375 11.75 
Q 48.6875 17.390625 48.6875 27.296875 
z
" id="DejaVuSans-112"/>
      </defs>
      <g style="fill:#262626;" transform="translate(267.167391 388.426156)scale(0.165 -0.165)">
       <use xlink:href="#DejaVuSans-85"/>
       <use x="73.193359" xlink:href="#DejaVuSans-110"/>
       <use x="136.572266" xlink:href="#DejaVuSans-105"/>
       <use x="164.355469" xlink:href="#DejaVuSans-82"/>
       <use x="233.775391" xlink:href="#DejaVuSans-101"/>
       <use x="295.298828" xlink:href="#DejaVuSans-112"/>
      </g>
     </g>
    </g>
    <g id="xtick_3">
     <g id="line2d_3">
      <path clip-path="url(#p307297c76a)" d="M 436.266844 344.912344 
L 436.266844 73.112344 
" style="fill:none;stroke:#cccccc;stroke-linecap:round;stroke-width:1.5;"/>
     </g>
     <g id="text_3">
      <!-- eUniRep 1 -->
      <defs>
       <path d="M 12.40625 8.296875 
L 28.515625 8.296875 
L 28.515625 63.921875 
L 10.984375 60.40625 
L 10.984375 69.390625 
L 28.421875 72.90625 
L 38.28125 72.90625 
L 38.28125 8.296875 
L 54.390625 8.296875 
L 54.390625 0 
L 12.40625 0 
z
" id="DejaVuSans-49"/>
      </defs>
      <g style="fill:#262626;" transform="translate(393.720047 369.949766)scale(0.165 -0.165)">
       <use xlink:href="#DejaVuSans-101"/>
       <use x="61.523438" xlink:href="#DejaVuSans-85"/>
       <use x="134.716797" xlink:href="#DejaVuSans-110"/>
       <use x="198.095703" xlink:href="#DejaVuSans-105"/>
       <use x="225.878906" xlink:href="#DejaVuSans-82"/>
       <use x="295.298828" xlink:href="#DejaVuSans-101"/>
       <use x="356.822266" xlink:href="#DejaVuSans-112"/>
       <use x="420.298828" xlink:href="#DejaVuSans-32"/>
       <use x="452.085938" xlink:href="#DejaVuSans-49"/>
      </g>
     </g>
    </g>
    <g id="xtick_4">
     <g id="line2d_4">
      <path clip-path="url(#p307297c76a)" d="M 575.766844 344.912344 
L 575.766844 73.112344 
" style="fill:none;stroke:#cccccc;stroke-linecap:round;stroke-width:1.5;"/>
     </g>
     <g id="text_4">
      <!-- eUniRep 2 -->
      <defs>
       <path d="M 19.1875 8.296875 
L 53.609375 8.296875 
L 53.609375 0 
L 7.328125 0 
L 7.328125 8.296875 
Q 12.9375 14.109375 22.625 23.890625 
Q 32.328125 33.6875 34.8125 36.53125 
Q 39.546875 41.84375 41.421875 45.53125 
Q 43.3125 49.21875 43.3125 52.78125 
Q 43.3125 58.59375 39.234375 62.25 
Q 35.15625 65.921875 28.609375 65.921875 
Q 23.96875 65.921875 18.8125 64.3125 
Q 13.671875 62.703125 7.8125 59.421875 
L 7.8125 69.390625 
Q 13.765625 71.78125 18.9375 73 
Q 24.125 74.21875 28.421875 74.21875 
Q 39.75 74.21875 46.484375 68.546875 
Q 53.21875 62.890625 53.21875 53.421875 
Q 53.21875 48.921875 51.53125 44.890625 
Q 49.859375 40.875 45.40625 35.40625 
Q 44.1875 33.984375 37.640625 27.21875 
Q 31.109375 20.453125 19.1875 8.296875 
z
" id="DejaVuSans-50"/>
      </defs>
      <g style="fill:#262626;" transform="translate(533.220047 369.949766)scale(0.165 -0.165)">
       <use xlink:href="#DejaVuSans-101"/>
       <use x="61.523438" xlink:href="#DejaVuSans-85"/>
       <use x="134.716797" xlink:href="#DejaVuSans-110"/>
       <use x="198.095703" xlink:href="#DejaVuSans-105"/>
       <use x="225.878906" xlink:href="#DejaVuSans-82"/>
       <use x="295.298828" xlink:href="#DejaVuSans-101"/>
       <use x="356.822266" xlink:href="#DejaVuSans-112"/>
       <use x="420.298828" xlink:href="#DejaVuSans-32"/>
       <use x="452.085938" xlink:href="#DejaVuSans-50"/>
      </g>
     </g>
    </g>
   </g>
   <g id="matplotlib.axis_2">
    <g id="ytick_1">
     <g id="line2d_5">
      <path clip-path="url(#p307297c76a)" d="M 87.516844 344.912344 
L 645.516844 344.912344 
" style="fill:none;stroke:#cccccc;stroke-linecap:round;stroke-width:1.5;"/>
     </g>
     <g id="text_5">
      <!-- 0.0 -->
      <defs>
       <path d="M 31.78125 66.40625 
Q 24.171875 66.40625 20.328125 58.90625 
Q 16.5 51.421875 16.5 36.375 
Q 16.5 21.390625 20.328125 13.890625 
Q 24.171875 6.390625 31.78125 6.390625 
Q 39.453125 6.390625 43.28125 13.890625 
Q 47.125 21.390625 47.125 36.375 
Q 47.125 51.421875 43.28125 58.90625 
Q 39.453125 66.40625 31.78125 66.40625 
z
M 31.78125 74.21875 
Q 44.046875 74.21875 50.515625 64.515625 
Q 56.984375 54.828125 56.984375 36.375 
Q 56.984375 17.96875 50.515625 8.265625 
Q 44.046875 -1.421875 31.78125 -1.421875 
Q 19.53125 -1.421875 13.0625 8.265625 
Q 6.59375 17.96875 6.59375 36.375 
Q 6.59375 54.828125 13.0625 64.515625 
Q 19.53125 74.21875 31.78125 74.21875 
z
" id="DejaVuSans-48"/>
       <path d="M 10.6875 12.40625 
L 21 12.40625 
L 21 0 
L 10.6875 0 
z
" id="DejaVuSans-46"/>
      </defs>
      <g style="fill:#262626;" transform="translate(48.776688 351.181055)scale(0.165 -0.165)">
       <use xlink:href="#DejaVuSans-48"/>
       <use x="63.623047" xlink:href="#DejaVuSans-46"/>
       <use x="95.410156" xlink:href="#DejaVuSans-48"/>
      </g>
     </g>
    </g>
    <g id="ytick_2">
     <g id="line2d_6">
      <path clip-path="url(#p307297c76a)" d="M 87.516844 290.552344 
L 645.516844 290.552344 
" style="fill:none;stroke:#cccccc;stroke-linecap:round;stroke-width:1.5;"/>
     </g>
     <g id="text_6">
      <!-- 0.2 -->
      <g style="fill:#262626;" transform="translate(48.776688 296.821055)scale(0.165 -0.165)">
       <use xlink:href="#DejaVuSans-48"/>
       <use x="63.623047" xlink:href="#DejaVuSans-46"/>
       <use x="95.410156" xlink:href="#DejaVuSans-50"/>
      </g>
     </g>
    </g>
    <g id="ytick_3">
     <g id="line2d_7">
      <path clip-path="url(#p307297c76a)" d="M 87.516844 236.192344 
L 645.516844 236.192344 
" style="fill:none;stroke:#cccccc;stroke-linecap:round;stroke-width:1.5;"/>
     </g>
     <g id="text_7">
      <!-- 0.4 -->
      <defs>
       <path d="M 37.796875 64.3125 
L 12.890625 25.390625 
L 37.796875 25.390625 
z
M 35.203125 72.90625 
L 47.609375 72.90625 
L 47.609375 25.390625 
L 58.015625 25.390625 
L 58.015625 17.1875 
L 47.609375 17.1875 
L 47.609375 0 
L 37.796875 0 
L 37.796875 17.1875 
L 4.890625 17.1875 
L 4.890625 26.703125 
z
" id="DejaVuSans-52"/>
      </defs>
      <g style="fill:#262626;" transform="translate(48.776688 242.461055)scale(0.165 -0.165)">
       <use xlink:href="#DejaVuSans-48"/>
       <use x="63.623047" xlink:href="#DejaVuSans-46"/>
       <use x="95.410156" xlink:href="#DejaVuSans-52"/>
      </g>
     </g>
    </g>
    <g id="ytick_4">
     <g id="line2d_8">
      <path clip-path="url(#p307297c76a)" d="M 87.516844 181.832344 
L 645.516844 181.832344 
" style="fill:none;stroke:#cccccc;stroke-linecap:round;stroke-width:1.5;"/>
     </g>
     <g id="text_8">
      <!-- 0.6 -->
      <defs>
       <path d="M 33.015625 40.375 
Q 26.375 40.375 22.484375 35.828125 
Q 18.609375 31.296875 18.609375 23.390625 
Q 18.609375 15.53125 22.484375 10.953125 
Q 26.375 6.390625 33.015625 6.390625 
Q 39.65625 6.390625 43.53125 10.953125 
Q 47.40625 15.53125 47.40625 23.390625 
Q 47.40625 31.296875 43.53125 35.828125 
Q 39.65625 40.375 33.015625 40.375 
z
M 52.59375 71.296875 
L 52.59375 62.3125 
Q 48.875 64.0625 45.09375 64.984375 
Q 41.3125 65.921875 37.59375 65.921875 
Q 27.828125 65.921875 22.671875 59.328125 
Q 17.53125 52.734375 16.796875 39.40625 
Q 19.671875 43.65625 24.015625 45.921875 
Q 28.375 48.1875 33.59375 48.1875 
Q 44.578125 48.1875 50.953125 41.515625 
Q 57.328125 34.859375 57.328125 23.390625 
Q 57.328125 12.15625 50.6875 5.359375 
Q 44.046875 -1.421875 33.015625 -1.421875 
Q 20.359375 -1.421875 13.671875 8.265625 
Q 6.984375 17.96875 6.984375 36.375 
Q 6.984375 53.65625 15.1875 63.9375 
Q 23.390625 74.21875 37.203125 74.21875 
Q 40.921875 74.21875 44.703125 73.484375 
Q 48.484375 72.75 52.59375 71.296875 
z
" id="DejaVuSans-54"/>
      </defs>
      <g style="fill:#262626;" transform="translate(48.776688 188.101055)scale(0.165 -0.165)">
       <use xlink:href="#DejaVuSans-48"/>
       <use x="63.623047" xlink:href="#DejaVuSans-46"/>
       <use x="95.410156" xlink:href="#DejaVuSans-54"/>
      </g>
     </g>
    </g>
    <g id="ytick_5">
     <g id="line2d_9">
      <path clip-path="url(#p307297c76a)" d="M 87.516844 127.472344 
L 645.516844 127.472344 
" style="fill:none;stroke:#cccccc;stroke-linecap:round;stroke-width:1.5;"/>
     </g>
     <g id="text_9">
      <!-- 0.8 -->
      <defs>
       <path d="M 31.78125 34.625 
Q 24.75 34.625 20.71875 30.859375 
Q 16.703125 27.09375 16.703125 20.515625 
Q 16.703125 13.921875 20.71875 10.15625 
Q 24.75 6.390625 31.78125 6.390625 
Q 38.8125 6.390625 42.859375 10.171875 
Q 46.921875 13.96875 46.921875 20.515625 
Q 46.921875 27.09375 42.890625 30.859375 
Q 38.875 34.625 31.78125 34.625 
z
M 21.921875 38.8125 
Q 15.578125 40.375 12.03125 44.71875 
Q 8.5 49.078125 8.5 55.328125 
Q 8.5 64.0625 14.71875 69.140625 
Q 20.953125 74.21875 31.78125 74.21875 
Q 42.671875 74.21875 48.875 69.140625 
Q 55.078125 64.0625 55.078125 55.328125 
Q 55.078125 49.078125 51.53125 44.71875 
Q 48 40.375 41.703125 38.8125 
Q 48.828125 37.15625 52.796875 32.3125 
Q 56.78125 27.484375 56.78125 20.515625 
Q 56.78125 9.90625 50.3125 4.234375 
Q 43.84375 -1.421875 31.78125 -1.421875 
Q 19.734375 -1.421875 13.25 4.234375 
Q 6.78125 9.90625 6.78125 20.515625 
Q 6.78125 27.484375 10.78125 32.3125 
Q 14.796875 37.15625 21.921875 38.8125 
z
M 18.3125 54.390625 
Q 18.3125 48.734375 21.84375 45.5625 
Q 25.390625 42.390625 31.78125 42.390625 
Q 38.140625 42.390625 41.71875 45.5625 
Q 45.3125 48.734375 45.3125 54.390625 
Q 45.3125 60.0625 41.71875 63.234375 
Q 38.140625 66.40625 31.78125 66.40625 
Q 25.390625 66.40625 21.84375 63.234375 
Q 18.3125 60.0625 18.3125 54.390625 
z
" id="DejaVuSans-56"/>
      </defs>
      <g style="fill:#262626;" transform="translate(48.776688 133.741055)scale(0.165 -0.165)">
       <use xlink:href="#DejaVuSans-48"/>
       <use x="63.623047" xlink:href="#DejaVuSans-46"/>
       <use x="95.410156" xlink:href="#DejaVuSans-56"/>
      </g>
     </g>
    </g>
    <g id="ytick_6">
     <g id="line2d_10">
      <path clip-path="url(#p307297c76a)" d="M 87.516844 73.112344 
L 645.516844 73.112344 
" style="fill:none;stroke:#cccccc;stroke-linecap:round;stroke-width:1.5;"/>
     </g>
     <g id="text_10">
      <!-- 1.0 -->
      <g style="fill:#262626;" transform="translate(48.776688 79.381055)scale(0.165 -0.165)">
       <use xlink:href="#DejaVuSans-49"/>
       <use x="63.623047" xlink:href="#DejaVuSans-46"/>
       <use x="95.410156" xlink:href="#DejaVuSans-48"/>
      </g>
     </g>
    </g>
    <g id="text_11">
     <!-- Fraction of mutations not found in evotuning -->
     <defs>
      <path d="M 41.109375 46.296875 
Q 39.59375 47.171875 37.8125 47.578125 
Q 36.03125 48 33.890625 48 
Q 26.265625 48 22.1875 43.046875 
Q 18.109375 38.09375 18.109375 28.8125 
L 18.109375 0 
L 9.078125 0 
L 9.078125 54.6875 
L 18.109375 54.6875 
L 18.109375 46.1875 
Q 20.953125 51.171875 25.484375 53.578125 
Q 30.03125 56 36.53125 56 
Q 37.453125 56 38.578125 55.875 
Q 39.703125 55.765625 41.0625 55.515625 
z
" id="DejaVuSans-114"/>
      <path d="M 18.3125 70.21875 
L 18.3125 54.6875 
L 36.8125 54.6875 
L 36.8125 47.703125 
L 18.3125 47.703125 
L 18.3125 18.015625 
Q 18.3125 11.328125 20.140625 9.421875 
Q 21.96875 7.515625 27.59375 7.515625 
L 36.8125 7.515625 
L 36.8125 0 
L 27.59375 0 
Q 17.1875 0 13.234375 3.875 
Q 9.28125 7.765625 9.28125 18.015625 
L 9.28125 47.703125 
L 2.6875 47.703125 
L 2.6875 54.6875 
L 9.28125 54.6875 
L 9.28125 70.21875 
z
" id="DejaVuSans-116"/>
      <path d="M 37.109375 75.984375 
L 37.109375 68.5 
L 28.515625 68.5 
Q 23.6875 68.5 21.796875 66.546875 
Q 19.921875 64.59375 19.921875 59.515625 
L 19.921875 54.6875 
L 34.71875 54.6875 
L 34.71875 47.703125 
L 19.921875 47.703125 
L 19.921875 0 
L 10.890625 0 
L 10.890625 47.703125 
L 2.296875 47.703125 
L 2.296875 54.6875 
L 10.890625 54.6875 
L 10.890625 58.5 
Q 10.890625 67.625 15.140625 71.796875 
Q 19.390625 75.984375 28.609375 75.984375 
z
" id="DejaVuSans-102"/>
      <path d="M 52 44.1875 
Q 55.375 50.25 60.0625 53.125 
Q 64.75 56 71.09375 56 
Q 79.640625 56 84.28125 50.015625 
Q 88.921875 44.046875 88.921875 33.015625 
L 88.921875 0 
L 79.890625 0 
L 79.890625 32.71875 
Q 79.890625 40.578125 77.09375 44.375 
Q 74.3125 48.1875 68.609375 48.1875 
Q 61.625 48.1875 57.5625 43.546875 
Q 53.515625 38.921875 53.515625 30.90625 
L 53.515625 0 
L 44.484375 0 
L 44.484375 32.71875 
Q 44.484375 40.625 41.703125 44.40625 
Q 38.921875 48.1875 33.109375 48.1875 
Q 26.21875 48.1875 22.15625 43.53125 
Q 18.109375 38.875 18.109375 30.90625 
L 18.109375 0 
L 9.078125 0 
L 9.078125 54.6875 
L 18.109375 54.6875 
L 18.109375 46.1875 
Q 21.1875 51.21875 25.484375 53.609375 
Q 29.78125 56 35.6875 56 
Q 41.65625 56 45.828125 52.96875 
Q 50 49.953125 52 44.1875 
z
" id="DejaVuSans-109"/>
      <path d="M 44.28125 53.078125 
L 44.28125 44.578125 
Q 40.484375 46.53125 36.375 47.5 
Q 32.28125 48.484375 27.875 48.484375 
Q 21.1875 48.484375 17.84375 46.4375 
Q 14.5 44.390625 14.5 40.28125 
Q 14.5 37.15625 16.890625 35.375 
Q 19.28125 33.59375 26.515625 31.984375 
L 29.59375 31.296875 
Q 39.15625 29.25 43.1875 25.515625 
Q 47.21875 21.78125 47.21875 15.09375 
Q 47.21875 7.46875 41.1875 3.015625 
Q 35.15625 -1.421875 24.609375 -1.421875 
Q 20.21875 -1.421875 15.453125 -0.5625 
Q 10.6875 0.296875 5.421875 2 
L 5.421875 11.28125 
Q 10.40625 8.6875 15.234375 7.390625 
Q 20.0625 6.109375 24.8125 6.109375 
Q 31.15625 6.109375 34.5625 8.28125 
Q 37.984375 10.453125 37.984375 14.40625 
Q 37.984375 18.0625 35.515625 20.015625 
Q 33.0625 21.96875 24.703125 23.78125 
L 21.578125 24.515625 
Q 13.234375 26.265625 9.515625 29.90625 
Q 5.8125 33.546875 5.8125 39.890625 
Q 5.8125 47.609375 11.28125 51.796875 
Q 16.75 56 26.8125 56 
Q 31.78125 56 36.171875 55.265625 
Q 40.578125 54.546875 44.28125 53.078125 
z
" id="DejaVuSans-115"/>
      <path d="M 45.40625 46.390625 
L 45.40625 75.984375 
L 54.390625 75.984375 
L 54.390625 0 
L 45.40625 0 
L 45.40625 8.203125 
Q 42.578125 3.328125 38.25 0.953125 
Q 33.9375 -1.421875 27.875 -1.421875 
Q 17.96875 -1.421875 11.734375 6.484375 
Q 5.515625 14.40625 5.515625 27.296875 
Q 5.515625 40.1875 11.734375 48.09375 
Q 17.96875 56 27.875 56 
Q 33.9375 56 38.25 53.625 
Q 42.578125 51.265625 45.40625 46.390625 
z
M 14.796875 27.296875 
Q 14.796875 17.390625 18.875 11.75 
Q 22.953125 6.109375 30.078125 6.109375 
Q 37.203125 6.109375 41.296875 11.75 
Q 45.40625 17.390625 45.40625 27.296875 
Q 45.40625 37.203125 41.296875 42.84375 
Q 37.203125 48.484375 30.078125 48.484375 
Q 22.953125 48.484375 18.875 42.84375 
Q 14.796875 37.203125 14.796875 27.296875 
z
" id="DejaVuSans-100"/>
      <path d="M 2.984375 54.6875 
L 12.5 54.6875 
L 29.59375 8.796875 
L 46.6875 54.6875 
L 56.203125 54.6875 
L 35.6875 0 
L 23.484375 0 
z
" id="DejaVuSans-118"/>
      <path d="M 45.40625 27.984375 
Q 45.40625 37.75 41.375 43.109375 
Q 37.359375 48.484375 30.078125 48.484375 
Q 22.859375 48.484375 18.828125 43.109375 
Q 14.796875 37.75 14.796875 27.984375 
Q 14.796875 18.265625 18.828125 12.890625 
Q 22.859375 7.515625 30.078125 7.515625 
Q 37.359375 7.515625 41.375 12.890625 
Q 45.40625 18.265625 45.40625 27.984375 
z
M 54.390625 6.78125 
Q 54.390625 -7.171875 48.1875 -13.984375 
Q 42 -20.796875 29.203125 -20.796875 
Q 24.46875 -20.796875 20.265625 -20.09375 
Q 16.0625 -19.390625 12.109375 -17.921875 
L 12.109375 -9.1875 
Q 16.0625 -11.328125 19.921875 -12.34375 
Q 23.78125 -13.375 27.78125 -13.375 
Q 36.625 -13.375 41.015625 -8.765625 
Q 45.40625 -4.15625 45.40625 5.171875 
L 45.40625 9.625 
Q 42.625 4.78125 38.28125 2.390625 
Q 33.9375 0 27.875 0 
Q 17.828125 0 11.671875 7.65625 
Q 5.515625 15.328125 5.515625 27.984375 
Q 5.515625 40.671875 11.671875 48.328125 
Q 17.828125 56 27.875 56 
Q 33.9375 56 38.28125 53.609375 
Q 42.625 51.21875 45.40625 46.390625 
L 45.40625 54.6875 
L 54.390625 54.6875 
z
" id="DejaVuSans-103"/>
     </defs>
     <g style="fill:#262626;" transform="translate(20.877187 410.824687)rotate(-90)scale(0.18 -0.18)">
      <use xlink:href="#DejaVuSans-70"/>
      <use x="57.410156" xlink:href="#DejaVuSans-114"/>
      <use x="98.523438" xlink:href="#DejaVuSans-97"/>
      <use x="159.802734" xlink:href="#DejaVuSans-99"/>
      <use x="214.783203" xlink:href="#DejaVuSans-116"/>
      <use x="253.992188" xlink:href="#DejaVuSans-105"/>
      <use x="281.775391" xlink:href="#DejaVuSans-111"/>
      <use x="342.957031" xlink:href="#DejaVuSans-110"/>
      <use x="406.335938" xlink:href="#DejaVuSans-32"/>
      <use x="438.123047" xlink:href="#DejaVuSans-111"/>
      <use x="499.304688" xlink:href="#DejaVuSans-102"/>
      <use x="534.509766" xlink:href="#DejaVuSans-32"/>
      <use x="566.296875" xlink:href="#DejaVuSans-109"/>
      <use x="663.708984" xlink:href="#DejaVuSans-117"/>
      <use x="727.087891" xlink:href="#DejaVuSans-116"/>
      <use x="766.296875" xlink:href="#DejaVuSans-97"/>
      <use x="827.576172" xlink:href="#DejaVuSans-116"/>
      <use x="866.785156" xlink:href="#DejaVuSans-105"/>
      <use x="894.568359" xlink:href="#DejaVuSans-111"/>
      <use x="955.75" xlink:href="#DejaVuSans-110"/>
      <use x="1019.128906" xlink:href="#DejaVuSans-115"/>
      <use x="1071.228516" xlink:href="#DejaVuSans-32"/>
      <use x="1103.015625" xlink:href="#DejaVuSans-110"/>
      <use x="1166.394531" xlink:href="#DejaVuSans-111"/>
      <use x="1227.576172" xlink:href="#DejaVuSans-116"/>
      <use x="1266.785156" xlink:href="#DejaVuSans-32"/>
      <use x="1298.572266" xlink:href="#DejaVuSans-102"/>
      <use x="1333.777344" xlink:href="#DejaVuSans-111"/>
      <use x="1394.958984" xlink:href="#DejaVuSans-117"/>
      <use x="1458.337891" xlink:href="#DejaVuSans-110"/>
      <use x="1521.716797" xlink:href="#DejaVuSans-100"/>
      <use x="1585.193359" xlink:href="#DejaVuSans-32"/>
      <use x="1616.980469" xlink:href="#DejaVuSans-105"/>
      <use x="1644.763672" xlink:href="#DejaVuSans-110"/>
      <use x="1708.142578" xlink:href="#DejaVuSans-32"/>
      <use x="1739.929688" xlink:href="#DejaVuSans-101"/>
      <use x="1801.453125" xlink:href="#DejaVuSans-118"/>
      <use x="1860.632812" xlink:href="#DejaVuSans-111"/>
      <use x="1921.814453" xlink:href="#DejaVuSans-116"/>
      <use x="1961.023438" xlink:href="#DejaVuSans-117"/>
      <use x="2024.402344" xlink:href="#DejaVuSans-110"/>
      <use x="2087.78125" xlink:href="#DejaVuSans-105"/>
      <use x="2115.564453" xlink:href="#DejaVuSans-110"/>
      <use x="2178.943359" xlink:href="#DejaVuSans-103"/>
     </g>
     <!-- or low-N training set sequences -->
     <defs>
      <path d="M 4.203125 54.6875 
L 13.1875 54.6875 
L 24.421875 12.015625 
L 35.59375 54.6875 
L 46.1875 54.6875 
L 57.421875 12.015625 
L 68.609375 54.6875 
L 77.59375 54.6875 
L 63.28125 0 
L 52.6875 0 
L 40.921875 44.828125 
L 29.109375 0 
L 18.5 0 
z
" id="DejaVuSans-119"/>
      <path d="M 4.890625 31.390625 
L 31.203125 31.390625 
L 31.203125 23.390625 
L 4.890625 23.390625 
z
" id="DejaVuSans-45"/>
      <path d="M 9.8125 72.90625 
L 23.09375 72.90625 
L 55.421875 11.921875 
L 55.421875 72.90625 
L 64.984375 72.90625 
L 64.984375 0 
L 51.703125 0 
L 19.390625 60.984375 
L 19.390625 0 
L 9.8125 0 
z
" id="DejaVuSans-78"/>
      <path d="M 14.796875 27.296875 
Q 14.796875 17.390625 18.875 11.75 
Q 22.953125 6.109375 30.078125 6.109375 
Q 37.203125 6.109375 41.296875 11.75 
Q 45.40625 17.390625 45.40625 27.296875 
Q 45.40625 37.203125 41.296875 42.84375 
Q 37.203125 48.484375 30.078125 48.484375 
Q 22.953125 48.484375 18.875 42.84375 
Q 14.796875 37.203125 14.796875 27.296875 
z
M 45.40625 8.203125 
Q 42.578125 3.328125 38.25 0.953125 
Q 33.9375 -1.421875 27.875 -1.421875 
Q 17.96875 -1.421875 11.734375 6.484375 
Q 5.515625 14.40625 5.515625 27.296875 
Q 5.515625 40.1875 11.734375 48.09375 
Q 17.96875 56 27.875 56 
Q 33.9375 56 38.25 53.625 
Q 42.578125 51.265625 45.40625 46.390625 
L 45.40625 54.6875 
L 54.390625 54.6875 
L 54.390625 -20.796875 
L 45.40625 -20.796875 
z
" id="DejaVuSans-113"/>
     </defs>
     <g style="fill:#262626;" transform="translate(41.03325 351.687656)rotate(-90)scale(0.18 -0.18)">
      <use xlink:href="#DejaVuSans-111"/>
      <use x="61.181641" xlink:href="#DejaVuSans-114"/>
      <use x="102.294922" xlink:href="#DejaVuSans-32"/>
      <use x="134.082031" xlink:href="#DejaVuSans-108"/>
      <use x="161.865234" xlink:href="#DejaVuSans-111"/>
      <use x="223.046875" xlink:href="#DejaVuSans-119"/>
      <use x="304.833984" xlink:href="#DejaVuSans-45"/>
      <use x="340.917969" xlink:href="#DejaVuSans-78"/>
      <use x="415.722656" xlink:href="#DejaVuSans-32"/>
      <use x="447.509766" xlink:href="#DejaVuSans-116"/>
      <use x="486.71875" xlink:href="#DejaVuSans-114"/>
      <use x="527.832031" xlink:href="#DejaVuSans-97"/>
      <use x="589.111328" xlink:href="#DejaVuSans-105"/>
      <use x="616.894531" xlink:href="#DejaVuSans-110"/>
      <use x="680.273438" xlink:href="#DejaVuSans-105"/>
      <use x="708.056641" xlink:href="#DejaVuSans-110"/>
      <use x="771.435547" xlink:href="#DejaVuSans-103"/>
      <use x="834.912109" xlink:href="#DejaVuSans-32"/>
      <use x="866.699219" xlink:href="#DejaVuSans-115"/>
      <use x="918.798828" xlink:href="#DejaVuSans-101"/>
      <use x="980.322266" xlink:href="#DejaVuSans-116"/>
      <use x="1019.53125" xlink:href="#DejaVuSans-32"/>
      <use x="1051.318359" xlink:href="#DejaVuSans-115"/>
      <use x="1103.417969" xlink:href="#DejaVuSans-101"/>
      <use x="1164.941406" xlink:href="#DejaVuSans-113"/>
      <use x="1228.417969" xlink:href="#DejaVuSans-117"/>
      <use x="1291.796875" xlink:href="#DejaVuSans-101"/>
      <use x="1353.320312" xlink:href="#DejaVuSans-110"/>
      <use x="1416.699219" xlink:href="#DejaVuSans-99"/>
      <use x="1471.679688" xlink:href="#DejaVuSans-101"/>
      <use x="1533.203125" xlink:href="#DejaVuSans-115"/>
     </g>
    </g>
   </g>
   <g id="patch_3">
    <path clip-path="url(#p307297c76a)" d="M 102.024844 92.697612 
L 156.708844 92.697612 
L 156.708844 90.696849 
L 102.024844 90.696849 
L 102.024844 92.697612 
z
" style="fill:#176d9c;fill-opacity:0.3;stroke:#363636;stroke-linejoin:miter;"/>
   </g>
   <g id="patch_4">
    <path clip-path="url(#p307297c76a)" d="M 157.824844 117.295079 
L 212.508844 117.295079 
L 212.508844 114.044305 
L 157.824844 114.044305 
L 157.824844 117.295079 
z
" style="fill:#c38820;fill-opacity:0.3;stroke:#363636;stroke-linejoin:miter;"/>
   </g>
   <g id="patch_5">
    <path clip-path="url(#p307297c76a)" d="M 241.524844 116.581237 
L 296.208844 116.581237 
L 296.208844 102.918088 
L 241.524844 102.918088 
L 241.524844 116.581237 
z
" style="fill:#176d9c;fill-opacity:0.3;stroke:#363636;stroke-linejoin:miter;"/>
   </g>
   <g id="patch_6">
    <path clip-path="url(#p307297c76a)" d="M 297.324844 167.709403 
L 352.008844 167.709403 
L 352.008844 143.521487 
L 297.324844 143.521487 
L 297.324844 167.709403 
z
" style="fill:#c38820;fill-opacity:0.3;stroke:#363636;stroke-linejoin:miter;"/>
   </g>
   <g id="patch_7">
    <path clip-path="url(#p307297c76a)" d="M 381.024844 137.023972 
L 435.708844 137.023972 
L 435.708844 128.26017 
L 381.024844 128.26017 
L 381.024844 137.023972 
z
" style="fill:#176d9c;fill-opacity:0.3;stroke:#363636;stroke-linejoin:miter;"/>
   </g>
   <g id="patch_8">
    <path clip-path="url(#p307297c76a)" d="M 436.824844 176.553289 
L 491.508844 176.553289 
L 491.508844 172.272974 
L 436.824844 172.272974 
L 436.824844 176.553289 
z
" style="fill:#c38820;fill-opacity:0.3;stroke:#363636;stroke-linejoin:miter;"/>
   </g>
   <g id="patch_9">
    <path clip-path="url(#p307297c76a)" d="M 520.524844 119.08595 
L 575.208844 119.08595 
L 575.208844 118.055651 
L 520.524844 118.055651 
L 520.524844 119.08595 
z
" style="fill:#176d9c;fill-opacity:0.3;stroke:#363636;stroke-linejoin:miter;"/>
   </g>
   <g id="patch_10">
    <path clip-path="url(#p307297c76a)" d="M 576.324844 173.56017 
L 631.008844 173.56017 
L 631.008844 160.76942 
L 576.324844 160.76942 
L 576.324844 173.56017 
z
" style="fill:#c38820;fill-opacity:0.3;stroke:#363636;stroke-linejoin:miter;"/>
   </g>
   <g id="PathCollection_1"/>
   <g id="PathCollection_2"/>
   <g id="patch_11">
    <path clip-path="url(#p307297c76a)" d="M 157.266844 344.912344 
L 157.266844 344.912344 
L 157.266844 344.912344 
L 157.266844 344.912344 
z
" style="fill:#176d9c;stroke:#363636;stroke-linejoin:miter;stroke-width:0.5;"/>
   </g>
   <g id="patch_12">
    <path clip-path="url(#p307297c76a)" d="M 157.266844 344.912344 
L 157.266844 344.912344 
L 157.266844 344.912344 
L 157.266844 344.912344 
z
" style="fill:#c38820;stroke:#363636;stroke-linejoin:miter;stroke-width:0.5;"/>
   </g>
   <g id="line2d_11">
    <path clip-path="url(#p307297c76a)" d="M 129.366844 92.697612 
L 129.366844 93.792779 
" style="fill:none;stroke:#363636;stroke-linecap:round;"/>
   </g>
   <g id="line2d_12">
    <path clip-path="url(#p307297c76a)" d="M 129.366844 90.696849 
L 129.366844 88.979364 
" style="fill:none;stroke:#363636;stroke-linecap:round;"/>
   </g>
   <g id="line2d_13">
    <path clip-path="url(#p307297c76a)" d="M 115.695844 93.792779 
L 143.037844 93.792779 
" style="fill:none;stroke:#363636;stroke-linecap:round;"/>
   </g>
   <g id="line2d_14">
    <path clip-path="url(#p307297c76a)" d="M 115.695844 88.979364 
L 143.037844 88.979364 
" style="fill:none;stroke:#363636;stroke-linecap:round;"/>
   </g>
   <g id="line2d_15"/>
   <g id="line2d_16">
    <path clip-path="url(#p307297c76a)" d="M 185.166844 117.295079 
L 185.166844 118.14805 
" style="fill:none;stroke:#363636;stroke-linecap:round;"/>
   </g>
   <g id="line2d_17">
    <path clip-path="url(#p307297c76a)" d="M 185.166844 114.044305 
L 185.166844 113.643923 
" style="fill:none;stroke:#363636;stroke-linecap:round;"/>
   </g>
   <g id="line2d_18">
    <path clip-path="url(#p307297c76a)" d="M 171.495844 118.14805 
L 198.837844 118.14805 
" style="fill:none;stroke:#363636;stroke-linecap:round;"/>
   </g>
   <g id="line2d_19">
    <path clip-path="url(#p307297c76a)" d="M 171.495844 113.643923 
L 198.837844 113.643923 
" style="fill:none;stroke:#363636;stroke-linecap:round;"/>
   </g>
   <g id="line2d_20"/>
   <g id="line2d_21">
    <path clip-path="url(#p307297c76a)" d="M 268.866844 116.581237 
L 268.866844 136.158736 
" style="fill:none;stroke:#363636;stroke-linecap:round;"/>
   </g>
   <g id="line2d_22">
    <path clip-path="url(#p307297c76a)" d="M 268.866844 102.918088 
L 268.866844 98.073568 
" style="fill:none;stroke:#363636;stroke-linecap:round;"/>
   </g>
   <g id="line2d_23">
    <path clip-path="url(#p307297c76a)" d="M 255.195844 136.158736 
L 282.537844 136.158736 
" style="fill:none;stroke:#363636;stroke-linecap:round;"/>
   </g>
   <g id="line2d_24">
    <path clip-path="url(#p307297c76a)" d="M 255.195844 98.073568 
L 282.537844 98.073568 
" style="fill:none;stroke:#363636;stroke-linecap:round;"/>
   </g>
   <g id="line2d_25"/>
   <g id="line2d_26">
    <path clip-path="url(#p307297c76a)" d="M 324.666844 167.709403 
L 324.666844 174.498058 
" style="fill:none;stroke:#363636;stroke-linecap:round;"/>
   </g>
   <g id="line2d_27">
    <path clip-path="url(#p307297c76a)" d="M 324.666844 143.521487 
L 324.666844 143.238678 
" style="fill:none;stroke:#363636;stroke-linecap:round;"/>
   </g>
   <g id="line2d_28">
    <path clip-path="url(#p307297c76a)" d="M 310.995844 174.498058 
L 338.337844 174.498058 
" style="fill:none;stroke:#363636;stroke-linecap:round;"/>
   </g>
   <g id="line2d_29">
    <path clip-path="url(#p307297c76a)" d="M 310.995844 143.238678 
L 338.337844 143.238678 
" style="fill:none;stroke:#363636;stroke-linecap:round;"/>
   </g>
   <g id="line2d_30"/>
   <g id="line2d_31">
    <path clip-path="url(#p307297c76a)" d="M 408.366844 137.023972 
L 408.366844 138.870408 
" style="fill:none;stroke:#363636;stroke-linecap:round;"/>
   </g>
   <g id="line2d_32">
    <path clip-path="url(#p307297c76a)" d="M 408.366844 128.26017 
L 408.366844 114.310375 
" style="fill:none;stroke:#363636;stroke-linecap:round;"/>
   </g>
   <g id="line2d_33">
    <path clip-path="url(#p307297c76a)" d="M 394.695844 138.870408 
L 422.037844 138.870408 
" style="fill:none;stroke:#363636;stroke-linecap:round;"/>
   </g>
   <g id="line2d_34">
    <path clip-path="url(#p307297c76a)" d="M 394.695844 114.310375 
L 422.037844 114.310375 
" style="fill:none;stroke:#363636;stroke-linecap:round;"/>
   </g>
   <g id="line2d_35"/>
   <g id="line2d_36">
    <path clip-path="url(#p307297c76a)" d="M 464.166844 176.553289 
L 464.166844 178.425164 
" style="fill:none;stroke:#363636;stroke-linecap:round;"/>
   </g>
   <g id="line2d_37">
    <path clip-path="url(#p307297c76a)" d="M 464.166844 172.272974 
L 464.166844 159.817774 
" style="fill:none;stroke:#363636;stroke-linecap:round;"/>
   </g>
   <g id="line2d_38">
    <path clip-path="url(#p307297c76a)" d="M 450.495844 178.425164 
L 477.837844 178.425164 
" style="fill:none;stroke:#363636;stroke-linecap:round;"/>
   </g>
   <g id="line2d_39">
    <path clip-path="url(#p307297c76a)" d="M 450.495844 159.817774 
L 477.837844 159.817774 
" style="fill:none;stroke:#363636;stroke-linecap:round;"/>
   </g>
   <g id="line2d_40"/>
   <g id="line2d_41">
    <path clip-path="url(#p307297c76a)" d="M 547.866844 119.08595 
L 547.866844 141.633352 
" style="fill:none;stroke:#363636;stroke-linecap:round;"/>
   </g>
   <g id="line2d_42">
    <path clip-path="url(#p307297c76a)" d="M 547.866844 118.055651 
L 547.866844 91.092241 
" style="fill:none;stroke:#363636;stroke-linecap:round;"/>
   </g>
   <g id="line2d_43">
    <path clip-path="url(#p307297c76a)" d="M 534.195844 141.633352 
L 561.537844 141.633352 
" style="fill:none;stroke:#363636;stroke-linecap:round;"/>
   </g>
   <g id="line2d_44">
    <path clip-path="url(#p307297c76a)" d="M 534.195844 91.092241 
L 561.537844 91.092241 
" style="fill:none;stroke:#363636;stroke-linecap:round;"/>
   </g>
   <g id="line2d_45"/>
   <g id="line2d_46">
    <path clip-path="url(#p307297c76a)" d="M 603.666844 173.56017 
L 603.666844 176.863957 
" style="fill:none;stroke:#363636;stroke-linecap:round;"/>
   </g>
   <g id="line2d_47">
    <path clip-path="url(#p307297c76a)" d="M 603.666844 160.76942 
L 603.666844 153.794028 
" style="fill:none;stroke:#363636;stroke-linecap:round;"/>
   </g>
   <g id="line2d_48">
    <path clip-path="url(#p307297c76a)" d="M 589.995844 176.863957 
L 617.337844 176.863957 
" style="fill:none;stroke:#363636;stroke-linecap:round;"/>
   </g>
   <g id="line2d_49">
    <path clip-path="url(#p307297c76a)" d="M 589.995844 153.794028 
L 617.337844 153.794028 
" style="fill:none;stroke:#363636;stroke-linecap:round;"/>
   </g>
   <g id="line2d_50"/>
   <g id="line2d_51">
    <path clip-path="url(#p307297c76a)" d="M 102.024844 90.783551 
L 156.708844 90.783551 
" style="fill:none;stroke:#363636;stroke-linecap:round;"/>
   </g>
   <g id="line2d_52">
    <path clip-path="url(#p307297c76a)" d="M 157.824844 114.188228 
L 212.508844 114.188228 
" style="fill:none;stroke:#363636;stroke-linecap:round;"/>
   </g>
   <g id="line2d_53">
    <path clip-path="url(#p307297c76a)" d="M 241.524844 108.345677 
L 296.208844 108.345677 
" style="fill:none;stroke:#363636;stroke-linecap:round;"/>
   </g>
   <g id="line2d_54">
    <path clip-path="url(#p307297c76a)" d="M 297.324844 159.963378 
L 352.008844 159.963378 
" style="fill:none;stroke:#363636;stroke-linecap:round;"/>
   </g>
   <g id="line2d_55">
    <path clip-path="url(#p307297c76a)" d="M 381.024844 132.775758 
L 435.708844 132.775758 
" style="fill:none;stroke:#363636;stroke-linecap:round;"/>
   </g>
   <g id="line2d_56">
    <path clip-path="url(#p307297c76a)" d="M 436.824844 174.9477 
L 491.508844 174.9477 
" style="fill:none;stroke:#363636;stroke-linecap:round;"/>
   </g>
   <g id="line2d_57">
    <path clip-path="url(#p307297c76a)" d="M 520.524844 118.319325 
L 575.208844 118.319325 
" style="fill:none;stroke:#363636;stroke-linecap:round;"/>
   </g>
   <g id="line2d_58">
    <path clip-path="url(#p307297c76a)" d="M 576.324844 160.887399 
L 631.008844 160.887399 
" style="fill:none;stroke:#363636;stroke-linecap:round;"/>
   </g>
   <g id="patch_13">
    <path d="M 87.516844 344.912344 
L 87.516844 73.112344 
" style="fill:none;stroke:#262626;stroke-linecap:square;stroke-linejoin:miter;stroke-width:1.875;"/>
   </g>
   <g id="patch_14">
    <path d="M 645.516844 344.912344 
L 645.516844 73.112344 
" style="fill:none;stroke:#262626;stroke-linecap:square;stroke-linejoin:miter;stroke-width:1.875;"/>
   </g>
   <g id="patch_15">
    <path d="M 87.516844 344.912344 
L 645.516844 344.912344 
" style="fill:none;stroke:#262626;stroke-linecap:square;stroke-linejoin:miter;stroke-width:1.875;"/>
   </g>
   <g id="patch_16">
    <path d="M 87.516844 73.112344 
L 645.516844 73.112344 
" style="fill:none;stroke:#262626;stroke-linecap:square;stroke-linejoin:miter;stroke-width:1.875;"/>
   </g>
   <g id="PathCollection_3">
    <defs>
     <path d="M 0 5 
C 1.326016 5 2.597899 4.473168 3.535534 3.535534 
C 4.473168 2.597899 5 1.326016 5 0 
C 5 -1.326016 4.473168 -2.597899 3.535534 -3.535534 
C 2.597899 -4.473168 1.326016 -5 0 -5 
C -1.326016 -5 -2.597899 -4.473168 -3.535534 -3.535534 
C -4.473168 -2.597899 -5 -1.326016 -5 0 
C -5 1.326016 -4.473168 2.597899 -3.535534 3.535534 
C -2.597899 4.473168 -1.326016 5 0 5 
z
" id="C0_0_764fa09b5b"/>
    </defs>
    <g clip-path="url(#p307297c76a)">
     <use style="fill:#0173b2;stroke:#363636;" x="127.616678" xlink:href="#C0_0_764fa09b5b" y="88.979364"/>
    </g>
    <g clip-path="url(#p307297c76a)">
     <use style="fill:#0173b2;stroke:#363636;" x="135.654308" xlink:href="#C0_0_764fa09b5b" y="90.783551"/>
    </g>
    <g clip-path="url(#p307297c76a)">
     <use style="fill:#0173b2;stroke:#363636;" x="132.603159" xlink:href="#C0_0_764fa09b5b" y="90.696849"/>
    </g>
    <g clip-path="url(#p307297c76a)">
     <use style="fill:#0173b2;stroke:#363636;" x="130.74313" xlink:href="#C0_0_764fa09b5b" y="93.792779"/>
    </g>
    <g clip-path="url(#p307297c76a)">
     <use style="fill:#0173b2;stroke:#363636;" x="124.568304" xlink:href="#C0_0_764fa09b5b" y="92.697612"/>
    </g>
   </g>
   <g id="PathCollection_4">
    <defs>
     <path d="M 0 5 
C 1.326016 5 2.597899 4.473168 3.535534 3.535534 
C 4.473168 2.597899 5 1.326016 5 0 
C 5 -1.326016 4.473168 -2.597899 3.535534 -3.535534 
C 2.597899 -4.473168 1.326016 -5 0 -5 
C -1.326016 -5 -2.597899 -4.473168 -3.535534 -3.535534 
C -4.473168 -2.597899 -5 -1.326016 -5 0 
C -5 1.326016 -4.473168 2.597899 -3.535534 3.535534 
C -2.597899 4.473168 -1.326016 5 0 5 
z
" id="C1_0_e6aebc4207"/>
    </defs>
    <g clip-path="url(#p307297c76a)">
     <use style="fill:#de8f05;stroke:#363636;" x="180.367967" xlink:href="#C1_0_e6aebc4207" y="114.044305"/>
    </g>
    <g clip-path="url(#p307297c76a)">
     <use style="fill:#de8f05;stroke:#363636;" x="179.00211" xlink:href="#C1_0_e6aebc4207" y="114.188228"/>
    </g>
    <g clip-path="url(#p307297c76a)">
     <use style="fill:#de8f05;stroke:#363636;" x="190.275001" xlink:href="#C1_0_e6aebc4207" y="118.14805"/>
    </g>
    <g clip-path="url(#p307297c76a)">
     <use style="fill:#de8f05;stroke:#363636;" x="186.577398" xlink:href="#C1_0_e6aebc4207" y="113.643923"/>
    </g>
    <g clip-path="url(#p307297c76a)">
     <use style="fill:#de8f05;stroke:#363636;" x="188.069456" xlink:href="#C1_0_e6aebc4207" y="117.295079"/>
    </g>
   </g>
   <g id="PathCollection_5">
    <defs>
     <path d="M 0 5 
C 1.326016 5 2.597899 4.473168 3.535534 3.535534 
C 4.473168 2.597899 5 1.326016 5 0 
C 5 -1.326016 4.473168 -2.597899 3.535534 -3.535534 
C 2.597899 -4.473168 1.326016 -5 0 -5 
C -1.326016 -5 -2.597899 -4.473168 -3.535534 -3.535534 
C -4.473168 -2.597899 -5 -1.326016 -5 0 
C -5 1.326016 -4.473168 2.597899 -3.535534 3.535534 
C -2.597899 4.473168 -1.326016 5 0 5 
z
" id="C2_0_a18657e747"/>
    </defs>
    <g clip-path="url(#p307297c76a)">
     <use style="fill:#0173b2;stroke:#363636;" x="262.178997" xlink:href="#C2_0_a18657e747" y="98.073568"/>
    </g>
    <g clip-path="url(#p307297c76a)">
     <use style="fill:#0173b2;stroke:#363636;" x="275.422086" xlink:href="#C2_0_a18657e747" y="108.345677"/>
    </g>
    <g clip-path="url(#p307297c76a)">
     <use style="fill:#0173b2;stroke:#363636;" x="273.504419" xlink:href="#C2_0_a18657e747" y="102.918088"/>
    </g>
    <g clip-path="url(#p307297c76a)">
     <use style="fill:#0173b2;stroke:#363636;" x="264.853974" xlink:href="#C2_0_a18657e747" y="136.158736"/>
    </g>
    <g clip-path="url(#p307297c76a)">
     <use style="fill:#0173b2;stroke:#363636;" x="264.428302" xlink:href="#C2_0_a18657e747" y="116.581237"/>
    </g>
   </g>
   <g id="PathCollection_6">
    <defs>
     <path d="M 0 5 
C 1.326016 5 2.597899 4.473168 3.535534 3.535534 
C 4.473168 2.597899 5 1.326016 5 0 
C 5 -1.326016 4.473168 -2.597899 3.535534 -3.535534 
C 2.597899 -4.473168 1.326016 -5 0 -5 
C -1.326016 -5 -2.597899 -4.473168 -3.535534 -3.535534 
C -4.473168 -2.597899 -5 -1.326016 -5 0 
C -5 1.326016 -4.473168 2.597899 -3.535534 3.535534 
C -2.597899 4.473168 -1.326016 5 0 5 
z
" id="C3_0_c262102e67"/>
    </defs>
    <g clip-path="url(#p307297c76a)">
     <use style="fill:#de8f05;stroke:#363636;" x="320.250337" xlink:href="#C3_0_c262102e67" y="174.498058"/>
    </g>
    <g clip-path="url(#p307297c76a)">
     <use style="fill:#de8f05;stroke:#363636;" x="321.936023" xlink:href="#C3_0_c262102e67" y="167.709403"/>
    </g>
    <g clip-path="url(#p307297c76a)">
     <use style="fill:#de8f05;stroke:#363636;" x="325.012196" xlink:href="#C3_0_c262102e67" y="143.238678"/>
    </g>
    <g clip-path="url(#p307297c76a)">
     <use style="fill:#de8f05;stroke:#363636;" x="323.717477" xlink:href="#C3_0_c262102e67" y="159.963378"/>
    </g>
    <g clip-path="url(#p307297c76a)">
     <use style="fill:#de8f05;stroke:#363636;" x="321.75449" xlink:href="#C3_0_c262102e67" y="143.521487"/>
    </g>
   </g>
   <g id="PathCollection_7">
    <defs>
     <path d="M 0 5 
C 1.326016 5 2.597899 4.473168 3.535534 3.535534 
C 4.473168 2.597899 5 1.326016 5 0 
C 5 -1.326016 4.473168 -2.597899 3.535534 -3.535534 
C 2.597899 -4.473168 1.326016 -5 0 -5 
C -1.326016 -5 -2.597899 -4.473168 -3.535534 -3.535534 
C -4.473168 -2.597899 -5 -1.326016 -5 0 
C -5 1.326016 -4.473168 2.597899 -3.535534 3.535534 
C -2.597899 4.473168 -1.326016 5 0 5 
z
" id="C4_0_a4e9bb5e85"/>
    </defs>
    <g clip-path="url(#p307297c76a)">
     <use style="fill:#0173b2;stroke:#363636;" x="409.927192" xlink:href="#C4_0_a4e9bb5e85" y="138.870408"/>
    </g>
    <g clip-path="url(#p307297c76a)">
     <use style="fill:#0173b2;stroke:#363636;" x="403.337783" xlink:href="#C4_0_a4e9bb5e85" y="132.775758"/>
    </g>
    <g clip-path="url(#p307297c76a)">
     <use style="fill:#0173b2;stroke:#363636;" x="405.467262" xlink:href="#C4_0_a4e9bb5e85" y="137.023972"/>
    </g>
    <g clip-path="url(#p307297c76a)">
     <use style="fill:#0173b2;stroke:#363636;" x="406.502591" xlink:href="#C4_0_a4e9bb5e85" y="128.26017"/>
    </g>
    <g clip-path="url(#p307297c76a)">
     <use style="fill:#0173b2;stroke:#363636;" x="407.75402" xlink:href="#C4_0_a4e9bb5e85" y="114.310375"/>
    </g>
   </g>
   <g id="PathCollection_8">
    <defs>
     <path d="M 0 5 
C 1.326016 5 2.597899 4.473168 3.535534 3.535534 
C 4.473168 2.597899 5 1.326016 5 0 
C 5 -1.326016 4.473168 -2.597899 3.535534 -3.535534 
C 2.597899 -4.473168 1.326016 -5 0 -5 
C -1.326016 -5 -2.597899 -4.473168 -3.535534 -3.535534 
C -4.473168 -2.597899 -5 -1.326016 -5 0 
C -5 1.326016 -4.473168 2.597899 -3.535534 3.535534 
C -2.597899 4.473168 -1.326016 5 0 5 
z
" id="C5_0_08e6d3c611"/>
    </defs>
    <g clip-path="url(#p307297c76a)">
     <use style="fill:#de8f05;stroke:#363636;" x="468.145048" xlink:href="#C5_0_08e6d3c611" y="174.9477"/>
    </g>
    <g clip-path="url(#p307297c76a)">
     <use style="fill:#de8f05;stroke:#363636;" x="459.977293" xlink:href="#C5_0_08e6d3c611" y="178.425164"/>
    </g>
    <g clip-path="url(#p307297c76a)">
     <use style="fill:#de8f05;stroke:#363636;" x="464.365414" xlink:href="#C5_0_08e6d3c611" y="159.817774"/>
    </g>
    <g clip-path="url(#p307297c76a)">
     <use style="fill:#de8f05;stroke:#363636;" x="465.456027" xlink:href="#C5_0_08e6d3c611" y="176.553289"/>
    </g>
    <g clip-path="url(#p307297c76a)">
     <use style="fill:#de8f05;stroke:#363636;" x="457.839827" xlink:href="#C5_0_08e6d3c611" y="172.272974"/>
    </g>
   </g>
   <g id="PathCollection_9">
    <defs>
     <path d="M 0 5 
C 1.326016 5 2.597899 4.473168 3.535534 3.535534 
C 4.473168 2.597899 5 1.326016 5 0 
C 5 -1.326016 4.473168 -2.597899 3.535534 -3.535534 
C 2.597899 -4.473168 1.326016 -5 0 -5 
C -1.326016 -5 -2.597899 -4.473168 -3.535534 -3.535534 
C -4.473168 -2.597899 -5 -1.326016 -5 0 
C -5 1.326016 -4.473168 2.597899 -3.535534 3.535534 
C -2.597899 4.473168 -1.326016 5 0 5 
z
" id="C6_0_dc365956b5"/>
    </defs>
    <g clip-path="url(#p307297c76a)">
     <use style="fill:#0173b2;stroke:#363636;" x="549.367094" xlink:href="#C6_0_dc365956b5" y="91.092241"/>
    </g>
    <g clip-path="url(#p307297c76a)">
     <use style="fill:#0173b2;stroke:#363636;" x="543.270655" xlink:href="#C6_0_dc365956b5" y="119.08595"/>
    </g>
    <g clip-path="url(#p307297c76a)">
     <use style="fill:#0173b2;stroke:#363636;" x="541.799313" xlink:href="#C6_0_dc365956b5" y="118.055651"/>
    </g>
    <g clip-path="url(#p307297c76a)">
     <use style="fill:#0173b2;stroke:#363636;" x="554.128797" xlink:href="#C6_0_dc365956b5" y="141.633352"/>
    </g>
    <g clip-path="url(#p307297c76a)">
     <use style="fill:#0173b2;stroke:#363636;" x="554.362411" xlink:href="#C6_0_dc365956b5" y="118.319325"/>
    </g>
   </g>
   <g id="PathCollection_10">
    <defs>
     <path d="M 0 5 
C 1.326016 5 2.597899 4.473168 3.535534 3.535534 
C 4.473168 2.597899 5 1.326016 5 0 
C 5 -1.326016 4.473168 -2.597899 3.535534 -3.535534 
C 2.597899 -4.473168 1.326016 -5 0 -5 
C -1.326016 -5 -2.597899 -4.473168 -3.535534 -3.535534 
C -4.473168 -2.597899 -5 -1.326016 -5 0 
C -5 1.326016 -4.473168 2.597899 -3.535534 3.535534 
C -2.597899 4.473168 -1.326016 5 0 5 
z
" id="C7_0_34b41b5a45"/>
    </defs>
    <g clip-path="url(#p307297c76a)">
     <use style="fill:#de8f05;stroke:#363636;" x="607.968987" xlink:href="#C7_0_34b41b5a45" y="176.863957"/>
    </g>
    <g clip-path="url(#p307297c76a)">
     <use style="fill:#de8f05;stroke:#363636;" x="600.941206" xlink:href="#C7_0_34b41b5a45" y="160.887399"/>
    </g>
    <g clip-path="url(#p307297c76a)">
     <use style="fill:#de8f05;stroke:#363636;" x="598.05437" xlink:href="#C7_0_34b41b5a45" y="153.794028"/>
    </g>
    <g clip-path="url(#p307297c76a)">
     <use style="fill:#de8f05;stroke:#363636;" x="606.236894" xlink:href="#C7_0_34b41b5a45" y="160.76942"/>
    </g>
    <g clip-path="url(#p307297c76a)">
     <use style="fill:#de8f05;stroke:#363636;" x="602.831971" xlink:href="#C7_0_34b41b5a45" y="173.56017"/>
    </g>
   </g>
   <g id="legend_1">
    <g id="patch_17">
     <path d="M 676.716844 126.500156 
L 750.513094 126.500156 
Q 753.813094 126.500156 753.813094 123.200156 
L 753.813094 76.412344 
Q 753.813094 73.112344 750.513094 73.112344 
L 676.716844 73.112344 
Q 673.416844 73.112344 673.416844 76.412344 
L 673.416844 123.200156 
Q 673.416844 126.500156 676.716844 126.500156 
z
" style="fill:#ffffff;opacity:0.8;stroke:#cccccc;stroke-linejoin:miter;stroke-width:1.5;"/>
    </g>
    <g id="patch_18">
     <path d="M 680.016844 92.249766 
L 713.016844 92.249766 
L 713.016844 80.699766 
L 680.016844 80.699766 
z
" style="fill:#176d9c;stroke:#363636;stroke-linejoin:miter;stroke-width:0.5;"/>
    </g>
    <g id="text_12">
     <!-- 24 -->
     <g style="fill:#262626;" transform="translate(726.216844 92.249766)scale(0.165 -0.165)">
      <use xlink:href="#DejaVuSans-50"/>
      <use x="63.623047" xlink:href="#DejaVuSans-52"/>
     </g>
    </g>
    <g id="patch_19">
     <path d="M 680.016844 116.468672 
L 713.016844 116.468672 
L 713.016844 104.918672 
L 680.016844 104.918672 
z
" style="fill:#c38820;stroke:#363636;stroke-linejoin:miter;stroke-width:0.5;"/>
    </g>
    <g id="text_13">
     <!-- 96 -->
     <defs>
      <path d="M 10.984375 1.515625 
L 10.984375 10.5 
Q 14.703125 8.734375 18.5 7.8125 
Q 22.3125 6.890625 25.984375 6.890625 
Q 35.75 6.890625 40.890625 13.453125 
Q 46.046875 20.015625 46.78125 33.40625 
Q 43.953125 29.203125 39.59375 26.953125 
Q 35.25 24.703125 29.984375 24.703125 
Q 19.046875 24.703125 12.671875 31.3125 
Q 6.296875 37.9375 6.296875 49.421875 
Q 6.296875 60.640625 12.9375 67.421875 
Q 19.578125 74.21875 30.609375 74.21875 
Q 43.265625 74.21875 49.921875 64.515625 
Q 56.59375 54.828125 56.59375 36.375 
Q 56.59375 19.140625 48.40625 8.859375 
Q 40.234375 -1.421875 26.421875 -1.421875 
Q 22.703125 -1.421875 18.890625 -0.6875 
Q 15.09375 0.046875 10.984375 1.515625 
z
M 30.609375 32.421875 
Q 37.25 32.421875 41.125 36.953125 
Q 45.015625 41.5 45.015625 49.421875 
Q 45.015625 57.28125 41.125 61.84375 
Q 37.25 66.40625 30.609375 66.40625 
Q 23.96875 66.40625 20.09375 61.84375 
Q 16.21875 57.28125 16.21875 49.421875 
Q 16.21875 41.5 20.09375 36.953125 
Q 23.96875 32.421875 30.609375 32.421875 
z
" id="DejaVuSans-57"/>
     </defs>
     <g style="fill:#262626;" transform="translate(726.216844 116.468672)scale(0.165 -0.165)">
      <use xlink:href="#DejaVuSans-57"/>
      <use x="63.623047" xlink:href="#DejaVuSans-54"/>
     </g>
    </g>
   </g>
  </g>
 </g>
 <defs>
  <clipPath id="p307297c76a">
   <rect height="271.8" width="558" x="87.516844" y="73.112344"/>
  </clipPath>
 </defs>
</svg>
