<?xml version="1.0" encoding="utf-8" standalone="no"?>
<!DOCTYPE svg PUBLIC "-//W3C//DTD SVG 1.1//EN"
  "http://www.w3.org/Graphics/SVG/1.1/DTD/svg11.dtd">
<!-- Created with matplotlib (https://matplotlib.org/) -->
<svg height="439.846875pt" version="1.1" viewBox="0 0 774.839578 439.846875" width="774.839578pt" xmlns="http://www.w3.org/2000/svg" xmlns:xlink="http://www.w3.org/1999/xlink">
 <defs>
  <style type="text/css">
*{stroke-linecap:butt;stroke-linejoin:round;}
  </style>
 </defs>
 <g id="figure_1">
  <g id="patch_1">
   <path d="M 0 439.846875 
L 774.839578 439.846875 
L 774.839578 0 
L 0 0 
z
" style="fill:none;"/>
  </g>
  <g id="axes_1">
   <g id="patch_2">
    <path d="M 101.343328 355.823437 
L 659.343328 355.823437 
L 659.343328 84.023437 
L 101.343328 84.023437 
z
" style="fill:none;"/>
   </g>
   <g id="matplotlib.axis_1">
    <g id="xtick_1">
     <g id="line2d_1">
      <path clip-path="url(#pc25dd034db)" d="M 171.093328 355.823437 
L 171.093328 84.023437 
" style="fill:none;stroke:#cccccc;stroke-linecap:round;stroke-width:1.5;"/>
     </g>
     <g id="text_1">
      <!-- Full AA -->
      <defs>
       <path d="M 9.8125 72.90625 
L 51.703125 72.90625 
L 51.703125 64.59375 
L 19.671875 64.59375 
L 19.671875 43.109375 
L 48.578125 43.109375 
L 48.578125 34.8125 
L 19.671875 34.8125 
L 19.671875 0 
L 9.8125 0 
z
" id="DejaVuSans-70"/>
       <path d="M 8.5 21.578125 
L 8.5 54.6875 
L 17.484375 54.6875 
L 17.484375 21.921875 
Q 17.484375 14.15625 20.5 10.265625 
Q 23.53125 6.390625 29.59375 6.390625 
Q 36.859375 6.390625 41.078125 11.03125 
Q 45.3125 15.671875 45.3125 23.6875 
L 45.3125 54.6875 
L 54.296875 54.6875 
L 54.296875 0 
L 45.3125 0 
L 45.3125 8.40625 
Q 42.046875 3.421875 37.71875 1 
Q 33.40625 -1.421875 27.6875 -1.421875 
Q 18.265625 -1.421875 13.375 4.4375 
Q 8.5 10.296875 8.5 21.578125 
z
M 31.109375 56 
z
" id="DejaVuSans-117"/>
       <path d="M 9.421875 75.984375 
L 18.40625 75.984375 
L 18.40625 0 
L 9.421875 0 
z
" id="DejaVuSans-108"/>
       <path id="DejaVuSans-32"/>
       <path d="M 34.1875 63.1875 
L 20.796875 26.90625 
L 47.609375 26.90625 
z
M 28.609375 72.90625 
L 39.796875 72.90625 
L 67.578125 0 
L 57.328125 0 
L 50.6875 18.703125 
L 17.828125 18.703125 
L 11.1875 0 
L 0.78125 0 
z
" id="DejaVuSans-65"/>
      </defs>
      <g style="fill:#262626;" transform="translate(142.630828 380.860859)scale(0.165 -0.165)">
       <use xlink:href="#DejaVuSans-70"/>
       <use x="57.441406" xlink:href="#DejaVuSans-117"/>
       <use x="120.820312" xlink:href="#DejaVuSans-108"/>
       <use x="148.603516" xlink:href="#DejaVuSans-108"/>
       <use x="176.386719" xlink:href="#DejaVuSans-32"/>
       <use x="208.173828" xlink:href="#DejaVuSans-65"/>
       <use x="276.613281" xlink:href="#DejaVuSans-65"/>
      </g>
     </g>
    </g>
    <g id="xtick_2">
     <g id="line2d_2">
      <path clip-path="url(#pc25dd034db)" d="M 310.593328 355.823437 
L 310.593328 84.023437 
" style="fill:none;stroke:#cccccc;stroke-linecap:round;stroke-width:1.5;"/>
     </g>
     <g id="text_2">
      <!-- Local -->
      <defs>
       <path d="M 9.8125 72.90625 
L 19.671875 72.90625 
L 19.671875 8.296875 
L 55.171875 8.296875 
L 55.171875 0 
L 9.8125 0 
z
" id="DejaVuSans-76"/>
       <path d="M 30.609375 48.390625 
Q 23.390625 48.390625 19.1875 42.75 
Q 14.984375 37.109375 14.984375 27.296875 
Q 14.984375 17.484375 19.15625 11.84375 
Q 23.34375 6.203125 30.609375 6.203125 
Q 37.796875 6.203125 41.984375 11.859375 
Q 46.1875 17.53125 46.1875 27.296875 
Q 46.1875 37.015625 41.984375 42.703125 
Q 37.796875 48.390625 30.609375 48.390625 
z
M 30.609375 56 
Q 42.328125 56 49.015625 48.375 
Q 55.71875 40.765625 55.71875 27.296875 
Q 55.71875 13.875 49.015625 6.21875 
Q 42.328125 -1.421875 30.609375 -1.421875 
Q 18.84375 -1.421875 12.171875 6.21875 
Q 5.515625 13.875 5.515625 27.296875 
Q 5.515625 40.765625 12.171875 48.375 
Q 18.84375 56 30.609375 56 
z
" id="DejaVuSans-111"/>
       <path d="M 48.78125 52.59375 
L 48.78125 44.1875 
Q 44.96875 46.296875 41.140625 47.34375 
Q 37.3125 48.390625 33.40625 48.390625 
Q 24.65625 48.390625 19.8125 42.84375 
Q 14.984375 37.3125 14.984375 27.296875 
Q 14.984375 17.28125 19.8125 11.734375 
Q 24.65625 6.203125 33.40625 6.203125 
Q 37.3125 6.203125 41.140625 7.25 
Q 44.96875 8.296875 48.78125 10.40625 
L 48.78125 2.09375 
Q 45.015625 0.34375 40.984375 -0.53125 
Q 36.96875 -1.421875 32.421875 -1.421875 
Q 20.0625 -1.421875 12.78125 6.34375 
Q 5.515625 14.109375 5.515625 27.296875 
Q 5.515625 40.671875 12.859375 48.328125 
Q 20.21875 56 33.015625 56 
Q 37.15625 56 41.109375 55.140625 
Q 45.0625 54.296875 48.78125 52.59375 
z
" id="DejaVuSans-99"/>
       <path d="M 34.28125 27.484375 
Q 23.390625 27.484375 19.1875 25 
Q 14.984375 22.515625 14.984375 16.5 
Q 14.984375 11.71875 18.140625 8.90625 
Q 21.296875 6.109375 26.703125 6.109375 
Q 34.1875 6.109375 38.703125 11.40625 
Q 43.21875 16.703125 43.21875 25.484375 
L 43.21875 27.484375 
z
M 52.203125 31.203125 
L 52.203125 0 
L 43.21875 0 
L 43.21875 8.296875 
Q 40.140625 3.328125 35.546875 0.953125 
Q 30.953125 -1.421875 24.3125 -1.421875 
Q 15.921875 -1.421875 10.953125 3.296875 
Q 6 8.015625 6 15.921875 
Q 6 25.140625 12.171875 29.828125 
Q 18.359375 34.515625 30.609375 34.515625 
L 43.21875 34.515625 
L 43.21875 35.40625 
Q 43.21875 41.609375 39.140625 45 
Q 35.0625 48.390625 27.6875 48.390625 
Q 23 48.390625 18.546875 47.265625 
Q 14.109375 46.140625 10.015625 43.890625 
L 10.015625 52.203125 
Q 14.9375 54.109375 19.578125 55.046875 
Q 24.21875 56 28.609375 56 
Q 40.484375 56 46.34375 49.84375 
Q 52.203125 43.703125 52.203125 31.203125 
z
" id="DejaVuSans-97"/>
      </defs>
      <g style="fill:#262626;" transform="translate(289.065984 380.860859)scale(0.165 -0.165)">
       <use xlink:href="#DejaVuSans-76"/>
       <use x="55.697266" xlink:href="#DejaVuSans-111"/>
       <use x="116.878906" xlink:href="#DejaVuSans-99"/>
       <use x="171.859375" xlink:href="#DejaVuSans-97"/>
       <use x="233.138672" xlink:href="#DejaVuSans-108"/>
      </g>
      <!-- UniRep -->
      <defs>
       <path d="M 8.6875 72.90625 
L 18.609375 72.90625 
L 18.609375 28.609375 
Q 18.609375 16.890625 22.84375 11.734375 
Q 27.09375 6.59375 36.625 6.59375 
Q 46.09375 6.59375 50.34375 11.734375 
Q 54.59375 16.890625 54.59375 28.609375 
L 54.59375 72.90625 
L 64.5 72.90625 
L 64.5 27.390625 
Q 64.5 13.140625 57.4375 5.859375 
Q 50.390625 -1.421875 36.625 -1.421875 
Q 22.796875 -1.421875 15.734375 5.859375 
Q 8.6875 13.140625 8.6875 27.390625 
z
" id="DejaVuSans-85"/>
       <path d="M 54.890625 33.015625 
L 54.890625 0 
L 45.90625 0 
L 45.90625 32.71875 
Q 45.90625 40.484375 42.875 44.328125 
Q 39.84375 48.1875 33.796875 48.1875 
Q 26.515625 48.1875 22.3125 43.546875 
Q 18.109375 38.921875 18.109375 30.90625 
L 18.109375 0 
L 9.078125 0 
L 9.078125 54.6875 
L 18.109375 54.6875 
L 18.109375 46.1875 
Q 21.34375 51.125 25.703125 53.5625 
Q 30.078125 56 35.796875 56 
Q 45.21875 56 50.046875 50.171875 
Q 54.890625 44.34375 54.890625 33.015625 
z
" id="DejaVuSans-110"/>
       <path d="M 9.421875 54.6875 
L 18.40625 54.6875 
L 18.40625 0 
L 9.421875 0 
z
M 9.421875 75.984375 
L 18.40625 75.984375 
L 18.40625 64.59375 
L 9.421875 64.59375 
z
" id="DejaVuSans-105"/>
       <path d="M 44.390625 34.1875 
Q 47.5625 33.109375 50.5625 29.59375 
Q 53.5625 26.078125 56.59375 19.921875 
L 66.609375 0 
L 56 0 
L 46.6875 18.703125 
Q 43.0625 26.03125 39.671875 28.421875 
Q 36.28125 30.8125 30.421875 30.8125 
L 19.671875 30.8125 
L 19.671875 0 
L 9.8125 0 
L 9.8125 72.90625 
L 32.078125 72.90625 
Q 44.578125 72.90625 50.734375 67.671875 
Q 56.890625 62.453125 56.890625 51.90625 
Q 56.890625 45.015625 53.6875 40.46875 
Q 50.484375 35.9375 44.390625 34.1875 
z
M 19.671875 64.796875 
L 19.671875 38.921875 
L 32.078125 38.921875 
Q 39.203125 38.921875 42.84375 42.21875 
Q 46.484375 45.515625 46.484375 51.90625 
Q 46.484375 58.296875 42.84375 61.546875 
Q 39.203125 64.796875 32.078125 64.796875 
z
" id="DejaVuSans-82"/>
       <path d="M 56.203125 29.59375 
L 56.203125 25.203125 
L 14.890625 25.203125 
Q 15.484375 15.921875 20.484375 11.0625 
Q 25.484375 6.203125 34.421875 6.203125 
Q 39.59375 6.203125 44.453125 7.46875 
Q 49.3125 8.734375 54.109375 11.28125 
L 54.109375 2.78125 
Q 49.265625 0.734375 44.1875 -0.34375 
Q 39.109375 -1.421875 33.890625 -1.421875 
Q 20.796875 -1.421875 13.15625 6.1875 
Q 5.515625 13.8125 5.515625 26.8125 
Q 5.515625 40.234375 12.765625 48.109375 
Q 20.015625 56 32.328125 56 
Q 43.359375 56 49.78125 48.890625 
Q 56.203125 41.796875 56.203125 29.59375 
z
M 47.21875 32.234375 
Q 47.125 39.59375 43.09375 43.984375 
Q 39.0625 48.390625 32.421875 48.390625 
Q 24.90625 48.390625 20.390625 44.140625 
Q 15.875 39.890625 15.1875 32.171875 
z
" id="DejaVuSans-101"/>
       <path d="M 18.109375 8.203125 
L 18.109375 -20.796875 
L 9.078125 -20.796875 
L 9.078125 54.6875 
L 18.109375 54.6875 
L 18.109375 46.390625 
Q 20.953125 51.265625 25.265625 53.625 
Q 29.59375 56 35.59375 56 
Q 45.5625 56 51.78125 48.09375 
Q 58.015625 40.1875 58.015625 27.296875 
Q 58.015625 14.40625 51.78125 6.484375 
Q 45.5625 -1.421875 35.59375 -1.421875 
Q 29.59375 -1.421875 25.265625 0.953125 
Q 20.953125 3.328125 18.109375 8.203125 
z
M 48.6875 27.296875 
Q 48.6875 37.203125 44.609375 42.84375 
Q 40.53125 48.484375 33.40625 48.484375 
Q 26.265625 48.484375 22.1875 42.84375 
Q 18.109375 37.203125 18.109375 27.296875 
Q 18.109375 17.390625 22.1875 11.75 
Q 26.265625 6.109375 33.40625 6.109375 
Q 40.53125 6.109375 44.609375 11.75 
Q 48.6875 17.390625 48.6875 27.296875 
z
" id="DejaVuSans-112"/>
      </defs>
      <g style="fill:#262626;" transform="translate(280.993875 399.33725)scale(0.165 -0.165)">
       <use xlink:href="#DejaVuSans-85"/>
       <use x="73.193359" xlink:href="#DejaVuSans-110"/>
       <use x="136.572266" xlink:href="#DejaVuSans-105"/>
       <use x="164.355469" xlink:href="#DejaVuSans-82"/>
       <use x="233.775391" xlink:href="#DejaVuSans-101"/>
       <use x="295.298828" xlink:href="#DejaVuSans-112"/>
      </g>
     </g>
    </g>
    <g id="xtick_3">
     <g id="line2d_3">
      <path clip-path="url(#pc25dd034db)" d="M 450.093328 355.823437 
L 450.093328 84.023437 
" style="fill:none;stroke:#cccccc;stroke-linecap:round;stroke-width:1.5;"/>
     </g>
     <g id="text_3">
      <!-- eUniRep 1 -->
      <defs>
       <path d="M 12.40625 8.296875 
L 28.515625 8.296875 
L 28.515625 63.921875 
L 10.984375 60.40625 
L 10.984375 69.390625 
L 28.421875 72.90625 
L 38.28125 72.90625 
L 38.28125 8.296875 
L 54.390625 8.296875 
L 54.390625 0 
L 12.40625 0 
z
" id="DejaVuSans-49"/>
      </defs>
      <g style="fill:#262626;" transform="translate(407.546531 380.860859)scale(0.165 -0.165)">
       <use xlink:href="#DejaVuSans-101"/>
       <use x="61.523438" xlink:href="#DejaVuSans-85"/>
       <use x="134.716797" xlink:href="#DejaVuSans-110"/>
       <use x="198.095703" xlink:href="#DejaVuSans-105"/>
       <use x="225.878906" xlink:href="#DejaVuSans-82"/>
       <use x="295.298828" xlink:href="#DejaVuSans-101"/>
       <use x="356.822266" xlink:href="#DejaVuSans-112"/>
       <use x="420.298828" xlink:href="#DejaVuSans-32"/>
       <use x="452.085938" xlink:href="#DejaVuSans-49"/>
      </g>
     </g>
    </g>
    <g id="xtick_4">
     <g id="line2d_4">
      <path clip-path="url(#pc25dd034db)" d="M 589.593328 355.823437 
L 589.593328 84.023437 
" style="fill:none;stroke:#cccccc;stroke-linecap:round;stroke-width:1.5;"/>
     </g>
     <g id="text_4">
      <!-- eUniRep 2 -->
      <defs>
       <path d="M 19.1875 8.296875 
L 53.609375 8.296875 
L 53.609375 0 
L 7.328125 0 
L 7.328125 8.296875 
Q 12.9375 14.109375 22.625 23.890625 
Q 32.328125 33.6875 34.8125 36.53125 
Q 39.546875 41.84375 41.421875 45.53125 
Q 43.3125 49.21875 43.3125 52.78125 
Q 43.3125 58.59375 39.234375 62.25 
Q 35.15625 65.921875 28.609375 65.921875 
Q 23.96875 65.921875 18.8125 64.3125 
Q 13.671875 62.703125 7.8125 59.421875 
L 7.8125 69.390625 
Q 13.765625 71.78125 18.9375 73 
Q 24.125 74.21875 28.421875 74.21875 
Q 39.75 74.21875 46.484375 68.546875 
Q 53.21875 62.890625 53.21875 53.421875 
Q 53.21875 48.921875 51.53125 44.890625 
Q 49.859375 40.875 45.40625 35.40625 
Q 44.1875 33.984375 37.640625 27.21875 
Q 31.109375 20.453125 19.1875 8.296875 
z
" id="DejaVuSans-50"/>
      </defs>
      <g style="fill:#262626;" transform="translate(547.046531 380.860859)scale(0.165 -0.165)">
       <use xlink:href="#DejaVuSans-101"/>
       <use x="61.523438" xlink:href="#DejaVuSans-85"/>
       <use x="134.716797" xlink:href="#DejaVuSans-110"/>
       <use x="198.095703" xlink:href="#DejaVuSans-105"/>
       <use x="225.878906" xlink:href="#DejaVuSans-82"/>
       <use x="295.298828" xlink:href="#DejaVuSans-101"/>
       <use x="356.822266" xlink:href="#DejaVuSans-112"/>
       <use x="420.298828" xlink:href="#DejaVuSans-32"/>
       <use x="452.085938" xlink:href="#DejaVuSans-50"/>
      </g>
     </g>
    </g>
   </g>
   <g id="matplotlib.axis_2">
    <g id="ytick_1">
     <g id="line2d_5">
      <path clip-path="url(#pc25dd034db)" d="M 101.343328 303.809083 
L 659.343328 303.809083 
" style="fill:none;stroke:#cccccc;stroke-linecap:round;stroke-width:1.5;"/>
     </g>
     <g id="text_5">
      <!-- −0.2 -->
      <defs>
       <path d="M 10.59375 35.5 
L 73.1875 35.5 
L 73.1875 27.203125 
L 10.59375 27.203125 
z
" id="DejaVuSans-8722"/>
       <path d="M 31.78125 66.40625 
Q 24.171875 66.40625 20.328125 58.90625 
Q 16.5 51.421875 16.5 36.375 
Q 16.5 21.390625 20.328125 13.890625 
Q 24.171875 6.390625 31.78125 6.390625 
Q 39.453125 6.390625 43.28125 13.890625 
Q 47.125 21.390625 47.125 36.375 
Q 47.125 51.421875 43.28125 58.90625 
Q 39.453125 66.40625 31.78125 66.40625 
z
M 31.78125 74.21875 
Q 44.046875 74.21875 50.515625 64.515625 
Q 56.984375 54.828125 56.984375 36.375 
Q 56.984375 17.96875 50.515625 8.265625 
Q 44.046875 -1.421875 31.78125 -1.421875 
Q 19.53125 -1.421875 13.0625 8.265625 
Q 6.59375 17.96875 6.59375 36.375 
Q 6.59375 54.828125 13.0625 64.515625 
Q 19.53125 74.21875 31.78125 74.21875 
z
" id="DejaVuSans-48"/>
       <path d="M 10.6875 12.40625 
L 21 12.40625 
L 21 0 
L 10.6875 0 
z
" id="DejaVuSans-46"/>
      </defs>
      <g style="fill:#262626;" transform="translate(48.776688 310.077794)scale(0.165 -0.165)">
       <use xlink:href="#DejaVuSans-8722"/>
       <use x="83.789062" xlink:href="#DejaVuSans-48"/>
       <use x="147.412109" xlink:href="#DejaVuSans-46"/>
       <use x="179.199219" xlink:href="#DejaVuSans-50"/>
      </g>
     </g>
    </g>
    <g id="ytick_2">
     <g id="line2d_6">
      <path clip-path="url(#pc25dd034db)" d="M 101.343328 242.55165 
L 659.343328 242.55165 
" style="fill:none;stroke:#cccccc;stroke-linecap:round;stroke-width:1.5;"/>
     </g>
     <g id="text_6">
      <!-- −0.1 -->
      <g style="fill:#262626;" transform="translate(48.776688 248.820361)scale(0.165 -0.165)">
       <use xlink:href="#DejaVuSans-8722"/>
       <use x="83.789062" xlink:href="#DejaVuSans-48"/>
       <use x="147.412109" xlink:href="#DejaVuSans-46"/>
       <use x="179.199219" xlink:href="#DejaVuSans-49"/>
      </g>
     </g>
    </g>
    <g id="ytick_3">
     <g id="line2d_7">
      <path clip-path="url(#pc25dd034db)" d="M 101.343328 181.294216 
L 659.343328 181.294216 
" style="fill:none;stroke:#cccccc;stroke-linecap:round;stroke-width:1.5;"/>
     </g>
     <g id="text_7">
      <!-- 0.0 -->
      <g style="fill:#262626;" transform="translate(62.603172 187.562927)scale(0.165 -0.165)">
       <use xlink:href="#DejaVuSans-48"/>
       <use x="63.623047" xlink:href="#DejaVuSans-46"/>
       <use x="95.410156" xlink:href="#DejaVuSans-48"/>
      </g>
     </g>
    </g>
    <g id="ytick_4">
     <g id="line2d_8">
      <path clip-path="url(#pc25dd034db)" d="M 101.343328 120.036783 
L 659.343328 120.036783 
" style="fill:none;stroke:#cccccc;stroke-linecap:round;stroke-width:1.5;"/>
     </g>
     <g id="text_8">
      <!-- 0.1 -->
      <g style="fill:#262626;" transform="translate(62.603172 126.305494)scale(0.165 -0.165)">
       <use xlink:href="#DejaVuSans-48"/>
       <use x="63.623047" xlink:href="#DejaVuSans-46"/>
       <use x="95.410156" xlink:href="#DejaVuSans-49"/>
      </g>
     </g>
    </g>
    <g id="text_9">
     <!-- Spearman corr. between mutation abundances -->
     <defs>
      <path d="M 53.515625 70.515625 
L 53.515625 60.890625 
Q 47.90625 63.578125 42.921875 64.890625 
Q 37.9375 66.21875 33.296875 66.21875 
Q 25.25 66.21875 20.875 63.09375 
Q 16.5 59.96875 16.5 54.203125 
Q 16.5 49.359375 19.40625 46.890625 
Q 22.3125 44.4375 30.421875 42.921875 
L 36.375 41.703125 
Q 47.40625 39.59375 52.65625 34.296875 
Q 57.90625 29 57.90625 20.125 
Q 57.90625 9.515625 50.796875 4.046875 
Q 43.703125 -1.421875 29.984375 -1.421875 
Q 24.8125 -1.421875 18.96875 -0.25 
Q 13.140625 0.921875 6.890625 3.21875 
L 6.890625 13.375 
Q 12.890625 10.015625 18.65625 8.296875 
Q 24.421875 6.59375 29.984375 6.59375 
Q 38.421875 6.59375 43.015625 9.90625 
Q 47.609375 13.234375 47.609375 19.390625 
Q 47.609375 24.75 44.3125 27.78125 
Q 41.015625 30.8125 33.5 32.328125 
L 27.484375 33.5 
Q 16.453125 35.6875 11.515625 40.375 
Q 6.59375 45.0625 6.59375 53.421875 
Q 6.59375 63.09375 13.40625 68.65625 
Q 20.21875 74.21875 32.171875 74.21875 
Q 37.3125 74.21875 42.625 73.28125 
Q 47.953125 72.359375 53.515625 70.515625 
z
" id="DejaVuSans-83"/>
      <path d="M 41.109375 46.296875 
Q 39.59375 47.171875 37.8125 47.578125 
Q 36.03125 48 33.890625 48 
Q 26.265625 48 22.1875 43.046875 
Q 18.109375 38.09375 18.109375 28.8125 
L 18.109375 0 
L 9.078125 0 
L 9.078125 54.6875 
L 18.109375 54.6875 
L 18.109375 46.1875 
Q 20.953125 51.171875 25.484375 53.578125 
Q 30.03125 56 36.53125 56 
Q 37.453125 56 38.578125 55.875 
Q 39.703125 55.765625 41.0625 55.515625 
z
" id="DejaVuSans-114"/>
      <path d="M 52 44.1875 
Q 55.375 50.25 60.0625 53.125 
Q 64.75 56 71.09375 56 
Q 79.640625 56 84.28125 50.015625 
Q 88.921875 44.046875 88.921875 33.015625 
L 88.921875 0 
L 79.890625 0 
L 79.890625 32.71875 
Q 79.890625 40.578125 77.09375 44.375 
Q 74.3125 48.1875 68.609375 48.1875 
Q 61.625 48.1875 57.5625 43.546875 
Q 53.515625 38.921875 53.515625 30.90625 
L 53.515625 0 
L 44.484375 0 
L 44.484375 32.71875 
Q 44.484375 40.625 41.703125 44.40625 
Q 38.921875 48.1875 33.109375 48.1875 
Q 26.21875 48.1875 22.15625 43.53125 
Q 18.109375 38.875 18.109375 30.90625 
L 18.109375 0 
L 9.078125 0 
L 9.078125 54.6875 
L 18.109375 54.6875 
L 18.109375 46.1875 
Q 21.1875 51.21875 25.484375 53.609375 
Q 29.78125 56 35.6875 56 
Q 41.65625 56 45.828125 52.96875 
Q 50 49.953125 52 44.1875 
z
" id="DejaVuSans-109"/>
      <path d="M 48.6875 27.296875 
Q 48.6875 37.203125 44.609375 42.84375 
Q 40.53125 48.484375 33.40625 48.484375 
Q 26.265625 48.484375 22.1875 42.84375 
Q 18.109375 37.203125 18.109375 27.296875 
Q 18.109375 17.390625 22.1875 11.75 
Q 26.265625 6.109375 33.40625 6.109375 
Q 40.53125 6.109375 44.609375 11.75 
Q 48.6875 17.390625 48.6875 27.296875 
z
M 18.109375 46.390625 
Q 20.953125 51.265625 25.265625 53.625 
Q 29.59375 56 35.59375 56 
Q 45.5625 56 51.78125 48.09375 
Q 58.015625 40.1875 58.015625 27.296875 
Q 58.015625 14.40625 51.78125 6.484375 
Q 45.5625 -1.421875 35.59375 -1.421875 
Q 29.59375 -1.421875 25.265625 0.953125 
Q 20.953125 3.328125 18.109375 8.203125 
L 18.109375 0 
L 9.078125 0 
L 9.078125 75.984375 
L 18.109375 75.984375 
z
" id="DejaVuSans-98"/>
      <path d="M 18.3125 70.21875 
L 18.3125 54.6875 
L 36.8125 54.6875 
L 36.8125 47.703125 
L 18.3125 47.703125 
L 18.3125 18.015625 
Q 18.3125 11.328125 20.140625 9.421875 
Q 21.96875 7.515625 27.59375 7.515625 
L 36.8125 7.515625 
L 36.8125 0 
L 27.59375 0 
Q 17.1875 0 13.234375 3.875 
Q 9.28125 7.765625 9.28125 18.015625 
L 9.28125 47.703125 
L 2.6875 47.703125 
L 2.6875 54.6875 
L 9.28125 54.6875 
L 9.28125 70.21875 
z
" id="DejaVuSans-116"/>
      <path d="M 4.203125 54.6875 
L 13.1875 54.6875 
L 24.421875 12.015625 
L 35.59375 54.6875 
L 46.1875 54.6875 
L 57.421875 12.015625 
L 68.609375 54.6875 
L 77.59375 54.6875 
L 63.28125 0 
L 52.6875 0 
L 40.921875 44.828125 
L 29.109375 0 
L 18.5 0 
z
" id="DejaVuSans-119"/>
      <path d="M 45.40625 46.390625 
L 45.40625 75.984375 
L 54.390625 75.984375 
L 54.390625 0 
L 45.40625 0 
L 45.40625 8.203125 
Q 42.578125 3.328125 38.25 0.953125 
Q 33.9375 -1.421875 27.875 -1.421875 
Q 17.96875 -1.421875 11.734375 6.484375 
Q 5.515625 14.40625 5.515625 27.296875 
Q 5.515625 40.1875 11.734375 48.09375 
Q 17.96875 56 27.875 56 
Q 33.9375 56 38.25 53.625 
Q 42.578125 51.265625 45.40625 46.390625 
z
M 14.796875 27.296875 
Q 14.796875 17.390625 18.875 11.75 
Q 22.953125 6.109375 30.078125 6.109375 
Q 37.203125 6.109375 41.296875 11.75 
Q 45.40625 17.390625 45.40625 27.296875 
Q 45.40625 37.203125 41.296875 42.84375 
Q 37.203125 48.484375 30.078125 48.484375 
Q 22.953125 48.484375 18.875 42.84375 
Q 14.796875 37.203125 14.796875 27.296875 
z
" id="DejaVuSans-100"/>
      <path d="M 44.28125 53.078125 
L 44.28125 44.578125 
Q 40.484375 46.53125 36.375 47.5 
Q 32.28125 48.484375 27.875 48.484375 
Q 21.1875 48.484375 17.84375 46.4375 
Q 14.5 44.390625 14.5 40.28125 
Q 14.5 37.15625 16.890625 35.375 
Q 19.28125 33.59375 26.515625 31.984375 
L 29.59375 31.296875 
Q 39.15625 29.25 43.1875 25.515625 
Q 47.21875 21.78125 47.21875 15.09375 
Q 47.21875 7.46875 41.1875 3.015625 
Q 35.15625 -1.421875 24.609375 -1.421875 
Q 20.21875 -1.421875 15.453125 -0.5625 
Q 10.6875 0.296875 5.421875 2 
L 5.421875 11.28125 
Q 10.40625 8.6875 15.234375 7.390625 
Q 20.0625 6.109375 24.8125 6.109375 
Q 31.15625 6.109375 34.5625 8.28125 
Q 37.984375 10.453125 37.984375 14.40625 
Q 37.984375 18.0625 35.515625 20.015625 
Q 33.0625 21.96875 24.703125 23.78125 
L 21.578125 24.515625 
Q 13.234375 26.265625 9.515625 29.90625 
Q 5.8125 33.546875 5.8125 39.890625 
Q 5.8125 47.609375 11.28125 51.796875 
Q 16.75 56 26.8125 56 
Q 31.78125 56 36.171875 55.265625 
Q 40.578125 54.546875 44.28125 53.078125 
z
" id="DejaVuSans-115"/>
     </defs>
     <g style="fill:#262626;" transform="translate(20.877187 432.646875)rotate(-90)scale(0.18 -0.18)">
      <use xlink:href="#DejaVuSans-83"/>
      <use x="63.476562" xlink:href="#DejaVuSans-112"/>
      <use x="126.953125" xlink:href="#DejaVuSans-101"/>
      <use x="188.476562" xlink:href="#DejaVuSans-97"/>
      <use x="249.755859" xlink:href="#DejaVuSans-114"/>
      <use x="290.853516" xlink:href="#DejaVuSans-109"/>
      <use x="388.265625" xlink:href="#DejaVuSans-97"/>
      <use x="449.544922" xlink:href="#DejaVuSans-110"/>
      <use x="512.923828" xlink:href="#DejaVuSans-32"/>
      <use x="544.710938" xlink:href="#DejaVuSans-99"/>
      <use x="599.691406" xlink:href="#DejaVuSans-111"/>
      <use x="660.873047" xlink:href="#DejaVuSans-114"/>
      <use x="701.970703" xlink:href="#DejaVuSans-114"/>
      <use x="742.943359" xlink:href="#DejaVuSans-46"/>
      <use x="774.730469" xlink:href="#DejaVuSans-32"/>
      <use x="806.517578" xlink:href="#DejaVuSans-98"/>
      <use x="869.994141" xlink:href="#DejaVuSans-101"/>
      <use x="931.517578" xlink:href="#DejaVuSans-116"/>
      <use x="970.726562" xlink:href="#DejaVuSans-119"/>
      <use x="1052.513672" xlink:href="#DejaVuSans-101"/>
      <use x="1114.037109" xlink:href="#DejaVuSans-101"/>
      <use x="1175.560547" xlink:href="#DejaVuSans-110"/>
      <use x="1238.939453" xlink:href="#DejaVuSans-32"/>
      <use x="1270.726562" xlink:href="#DejaVuSans-109"/>
      <use x="1368.138672" xlink:href="#DejaVuSans-117"/>
      <use x="1431.517578" xlink:href="#DejaVuSans-116"/>
      <use x="1470.726562" xlink:href="#DejaVuSans-97"/>
      <use x="1532.005859" xlink:href="#DejaVuSans-116"/>
      <use x="1571.214844" xlink:href="#DejaVuSans-105"/>
      <use x="1598.998047" xlink:href="#DejaVuSans-111"/>
      <use x="1660.179688" xlink:href="#DejaVuSans-110"/>
      <use x="1723.558594" xlink:href="#DejaVuSans-32"/>
      <use x="1755.345703" xlink:href="#DejaVuSans-97"/>
      <use x="1816.625" xlink:href="#DejaVuSans-98"/>
      <use x="1880.101562" xlink:href="#DejaVuSans-117"/>
      <use x="1943.480469" xlink:href="#DejaVuSans-110"/>
      <use x="2006.859375" xlink:href="#DejaVuSans-100"/>
      <use x="2070.335938" xlink:href="#DejaVuSans-97"/>
      <use x="2131.615234" xlink:href="#DejaVuSans-110"/>
      <use x="2194.994141" xlink:href="#DejaVuSans-99"/>
      <use x="2249.974609" xlink:href="#DejaVuSans-101"/>
      <use x="2311.498047" xlink:href="#DejaVuSans-115"/>
     </g>
     <!-- in evotuning set and designed sequences -->
     <defs>
      <path d="M 2.984375 54.6875 
L 12.5 54.6875 
L 29.59375 8.796875 
L 46.6875 54.6875 
L 56.203125 54.6875 
L 35.6875 0 
L 23.484375 0 
z
" id="DejaVuSans-118"/>
      <path d="M 45.40625 27.984375 
Q 45.40625 37.75 41.375 43.109375 
Q 37.359375 48.484375 30.078125 48.484375 
Q 22.859375 48.484375 18.828125 43.109375 
Q 14.796875 37.75 14.796875 27.984375 
Q 14.796875 18.265625 18.828125 12.890625 
Q 22.859375 7.515625 30.078125 7.515625 
Q 37.359375 7.515625 41.375 12.890625 
Q 45.40625 18.265625 45.40625 27.984375 
z
M 54.390625 6.78125 
Q 54.390625 -7.171875 48.1875 -13.984375 
Q 42 -20.796875 29.203125 -20.796875 
Q 24.46875 -20.796875 20.265625 -20.09375 
Q 16.0625 -19.390625 12.109375 -17.921875 
L 12.109375 -9.1875 
Q 16.0625 -11.328125 19.921875 -12.34375 
Q 23.78125 -13.375 27.78125 -13.375 
Q 36.625 -13.375 41.015625 -8.765625 
Q 45.40625 -4.15625 45.40625 5.171875 
L 45.40625 9.625 
Q 42.625 4.78125 38.28125 2.390625 
Q 33.9375 0 27.875 0 
Q 17.828125 0 11.671875 7.65625 
Q 5.515625 15.328125 5.515625 27.984375 
Q 5.515625 40.671875 11.671875 48.328125 
Q 17.828125 56 27.875 56 
Q 33.9375 56 38.28125 53.609375 
Q 42.625 51.21875 45.40625 46.390625 
L 45.40625 54.6875 
L 54.390625 54.6875 
z
" id="DejaVuSans-103"/>
      <path d="M 14.796875 27.296875 
Q 14.796875 17.390625 18.875 11.75 
Q 22.953125 6.109375 30.078125 6.109375 
Q 37.203125 6.109375 41.296875 11.75 
Q 45.40625 17.390625 45.40625 27.296875 
Q 45.40625 37.203125 41.296875 42.84375 
Q 37.203125 48.484375 30.078125 48.484375 
Q 22.953125 48.484375 18.875 42.84375 
Q 14.796875 37.203125 14.796875 27.296875 
z
M 45.40625 8.203125 
Q 42.578125 3.328125 38.25 0.953125 
Q 33.9375 -1.421875 27.875 -1.421875 
Q 17.96875 -1.421875 11.734375 6.484375 
Q 5.515625 14.40625 5.515625 27.296875 
Q 5.515625 40.1875 11.734375 48.09375 
Q 17.96875 56 27.875 56 
Q 33.9375 56 38.25 53.625 
Q 42.578125 51.265625 45.40625 46.390625 
L 45.40625 54.6875 
L 54.390625 54.6875 
L 54.390625 -20.796875 
L 45.40625 -20.796875 
z
" id="DejaVuSans-113"/>
     </defs>
     <g style="fill:#262626;" transform="translate(41.03325 407.510156)rotate(-90)scale(0.18 -0.18)">
      <use xlink:href="#DejaVuSans-105"/>
      <use x="27.783203" xlink:href="#DejaVuSans-110"/>
      <use x="91.162109" xlink:href="#DejaVuSans-32"/>
      <use x="122.949219" xlink:href="#DejaVuSans-101"/>
      <use x="184.472656" xlink:href="#DejaVuSans-118"/>
      <use x="243.652344" xlink:href="#DejaVuSans-111"/>
      <use x="304.833984" xlink:href="#DejaVuSans-116"/>
      <use x="344.042969" xlink:href="#DejaVuSans-117"/>
      <use x="407.421875" xlink:href="#DejaVuSans-110"/>
      <use x="470.800781" xlink:href="#DejaVuSans-105"/>
      <use x="498.583984" xlink:href="#DejaVuSans-110"/>
      <use x="561.962891" xlink:href="#DejaVuSans-103"/>
      <use x="625.439453" xlink:href="#DejaVuSans-32"/>
      <use x="657.226562" xlink:href="#DejaVuSans-115"/>
      <use x="709.326172" xlink:href="#DejaVuSans-101"/>
      <use x="770.849609" xlink:href="#DejaVuSans-116"/>
      <use x="810.058594" xlink:href="#DejaVuSans-32"/>
      <use x="841.845703" xlink:href="#DejaVuSans-97"/>
      <use x="903.125" xlink:href="#DejaVuSans-110"/>
      <use x="966.503906" xlink:href="#DejaVuSans-100"/>
      <use x="1029.980469" xlink:href="#DejaVuSans-32"/>
      <use x="1061.767578" xlink:href="#DejaVuSans-100"/>
      <use x="1125.244141" xlink:href="#DejaVuSans-101"/>
      <use x="1186.767578" xlink:href="#DejaVuSans-115"/>
      <use x="1238.867188" xlink:href="#DejaVuSans-105"/>
      <use x="1266.650391" xlink:href="#DejaVuSans-103"/>
      <use x="1330.126953" xlink:href="#DejaVuSans-110"/>
      <use x="1393.505859" xlink:href="#DejaVuSans-101"/>
      <use x="1455.029297" xlink:href="#DejaVuSans-100"/>
      <use x="1518.505859" xlink:href="#DejaVuSans-32"/>
      <use x="1550.292969" xlink:href="#DejaVuSans-115"/>
      <use x="1602.392578" xlink:href="#DejaVuSans-101"/>
      <use x="1663.916016" xlink:href="#DejaVuSans-113"/>
      <use x="1727.392578" xlink:href="#DejaVuSans-117"/>
      <use x="1790.771484" xlink:href="#DejaVuSans-101"/>
      <use x="1852.294922" xlink:href="#DejaVuSans-110"/>
      <use x="1915.673828" xlink:href="#DejaVuSans-99"/>
      <use x="1970.654297" xlink:href="#DejaVuSans-101"/>
      <use x="2032.177734" xlink:href="#DejaVuSans-115"/>
     </g>
    </g>
   </g>
   <g id="patch_3">
    <path clip-path="url(#pc25dd034db)" d="M 115.851328 255.808581 
L 170.535328 255.808581 
L 170.535328 243.120382 
L 115.851328 243.120382 
L 115.851328 255.808581 
z
" style="fill:#176d9c;fill-opacity:0.3;stroke:#363636;stroke-linejoin:miter;"/>
   </g>
   <g id="patch_4">
    <path clip-path="url(#pc25dd034db)" d="M 171.651328 310.008964 
L 226.335328 310.008964 
L 226.335328 292.840674 
L 171.651328 292.840674 
L 171.651328 310.008964 
z
" style="fill:#c38820;fill-opacity:0.3;stroke:#363636;stroke-linejoin:miter;"/>
   </g>
   <g id="patch_5">
    <path clip-path="url(#pc25dd034db)" d="M 255.351328 305.752901 
L 310.035328 305.752901 
L 310.035328 253.099216 
L 255.351328 253.099216 
L 255.351328 305.752901 
z
" style="fill:#176d9c;fill-opacity:0.3;stroke:#363636;stroke-linejoin:miter;"/>
   </g>
   <g id="patch_6">
    <path clip-path="url(#pc25dd034db)" d="M 311.151328 314.878883 
L 365.835328 314.878883 
L 365.835328 236.972803 
L 311.151328 236.972803 
L 311.151328 314.878883 
z
" style="fill:#c38820;fill-opacity:0.3;stroke:#363636;stroke-linejoin:miter;"/>
   </g>
   <g id="patch_7">
    <path clip-path="url(#pc25dd034db)" d="M 394.851328 138.869205 
L 449.535328 138.869205 
L 449.535328 135.254496 
L 394.851328 135.254496 
L 394.851328 138.869205 
z
" style="fill:#176d9c;fill-opacity:0.3;stroke:#363636;stroke-linejoin:miter;"/>
   </g>
   <g id="patch_8">
    <path clip-path="url(#pc25dd034db)" d="M 450.651328 135.319295 
L 505.335328 135.319295 
L 505.335328 129.265714 
L 450.651328 129.265714 
L 450.651328 135.319295 
z
" style="fill:#c38820;fill-opacity:0.3;stroke:#363636;stroke-linejoin:miter;"/>
   </g>
   <g id="patch_9">
    <path clip-path="url(#pc25dd034db)" d="M 534.351328 157.283723 
L 589.035328 157.283723 
L 589.035328 112.06856 
L 534.351328 112.06856 
L 534.351328 157.283723 
z
" style="fill:#176d9c;fill-opacity:0.3;stroke:#363636;stroke-linejoin:miter;"/>
   </g>
   <g id="patch_10">
    <path clip-path="url(#pc25dd034db)" d="M 590.151328 165.635923 
L 644.835328 165.635923 
L 644.835328 136.748597 
L 590.151328 136.748597 
L 590.151328 165.635923 
z
" style="fill:#c38820;fill-opacity:0.3;stroke:#363636;stroke-linejoin:miter;"/>
   </g>
   <g id="PathCollection_1"/>
   <g id="PathCollection_2"/>
   <g id="patch_11">
    <path clip-path="url(#pc25dd034db)" d="M 171.093328 181.294216 
L 171.093328 181.294216 
L 171.093328 181.294216 
L 171.093328 181.294216 
z
" style="fill:#176d9c;stroke:#363636;stroke-linejoin:miter;stroke-width:0.5;"/>
   </g>
   <g id="patch_12">
    <path clip-path="url(#pc25dd034db)" d="M 171.093328 181.294216 
L 171.093328 181.294216 
L 171.093328 181.294216 
L 171.093328 181.294216 
z
" style="fill:#c38820;stroke:#363636;stroke-linejoin:miter;stroke-width:0.5;"/>
   </g>
   <g id="line2d_9">
    <path clip-path="url(#pc25dd034db)" d="M 143.193328 255.808581 
L 143.193328 260.238847 
" style="fill:none;stroke:#363636;stroke-linecap:round;"/>
   </g>
   <g id="line2d_10">
    <path clip-path="url(#pc25dd034db)" d="M 143.193328 243.120382 
L 143.193328 232.539299 
" style="fill:none;stroke:#363636;stroke-linecap:round;"/>
   </g>
   <g id="line2d_11">
    <path clip-path="url(#pc25dd034db)" d="M 129.522328 260.238847 
L 156.864328 260.238847 
" style="fill:none;stroke:#363636;stroke-linecap:round;"/>
   </g>
   <g id="line2d_12">
    <path clip-path="url(#pc25dd034db)" d="M 129.522328 232.539299 
L 156.864328 232.539299 
" style="fill:none;stroke:#363636;stroke-linecap:round;"/>
   </g>
   <g id="line2d_13"/>
   <g id="line2d_14">
    <path clip-path="url(#pc25dd034db)" d="M 198.993328 310.008964 
L 198.993328 329.128995 
" style="fill:none;stroke:#363636;stroke-linecap:round;"/>
   </g>
   <g id="line2d_15">
    <path clip-path="url(#pc25dd034db)" d="M 198.993328 292.840674 
L 198.993328 262.006535 
" style="fill:none;stroke:#363636;stroke-linecap:round;"/>
   </g>
   <g id="line2d_16">
    <path clip-path="url(#pc25dd034db)" d="M 185.322328 329.128995 
L 212.664328 329.128995 
" style="fill:none;stroke:#363636;stroke-linecap:round;"/>
   </g>
   <g id="line2d_17">
    <path clip-path="url(#pc25dd034db)" d="M 185.322328 262.006535 
L 212.664328 262.006535 
" style="fill:none;stroke:#363636;stroke-linecap:round;"/>
   </g>
   <g id="line2d_18"/>
   <g id="line2d_19">
    <path clip-path="url(#pc25dd034db)" d="M 282.693328 305.752901 
L 282.693328 341.265753 
" style="fill:none;stroke:#363636;stroke-linecap:round;"/>
   </g>
   <g id="line2d_20">
    <path clip-path="url(#pc25dd034db)" d="M 282.693328 253.099216 
L 282.693328 220.085364 
" style="fill:none;stroke:#363636;stroke-linecap:round;"/>
   </g>
   <g id="line2d_21">
    <path clip-path="url(#pc25dd034db)" d="M 269.022328 341.265753 
L 296.364328 341.265753 
" style="fill:none;stroke:#363636;stroke-linecap:round;"/>
   </g>
   <g id="line2d_22">
    <path clip-path="url(#pc25dd034db)" d="M 269.022328 220.085364 
L 296.364328 220.085364 
" style="fill:none;stroke:#363636;stroke-linecap:round;"/>
   </g>
   <g id="line2d_23"/>
   <g id="line2d_24">
    <path clip-path="url(#pc25dd034db)" d="M 338.493328 314.878883 
L 338.493328 321.298121 
" style="fill:none;stroke:#363636;stroke-linecap:round;"/>
   </g>
   <g id="line2d_25">
    <path clip-path="url(#pc25dd034db)" d="M 338.493328 236.972803 
L 338.493328 233.025891 
" style="fill:none;stroke:#363636;stroke-linecap:round;"/>
   </g>
   <g id="line2d_26">
    <path clip-path="url(#pc25dd034db)" d="M 324.822328 321.298121 
L 352.164328 321.298121 
" style="fill:none;stroke:#363636;stroke-linecap:round;"/>
   </g>
   <g id="line2d_27">
    <path clip-path="url(#pc25dd034db)" d="M 324.822328 233.025891 
L 352.164328 233.025891 
" style="fill:none;stroke:#363636;stroke-linecap:round;"/>
   </g>
   <g id="line2d_28"/>
   <g id="line2d_29">
    <path clip-path="url(#pc25dd034db)" d="M 422.193328 138.869205 
L 422.193328 161.387111 
" style="fill:none;stroke:#363636;stroke-linecap:round;"/>
   </g>
   <g id="line2d_30">
    <path clip-path="url(#pc25dd034db)" d="M 422.193328 135.254496 
L 422.193328 98.919288 
" style="fill:none;stroke:#363636;stroke-linecap:round;"/>
   </g>
   <g id="line2d_31">
    <path clip-path="url(#pc25dd034db)" d="M 408.522328 161.387111 
L 435.864328 161.387111 
" style="fill:none;stroke:#363636;stroke-linecap:round;"/>
   </g>
   <g id="line2d_32">
    <path clip-path="url(#pc25dd034db)" d="M 408.522328 98.919288 
L 435.864328 98.919288 
" style="fill:none;stroke:#363636;stroke-linecap:round;"/>
   </g>
   <g id="line2d_33"/>
   <g id="line2d_34">
    <path clip-path="url(#pc25dd034db)" d="M 477.993328 135.319295 
L 477.993328 148.132971 
" style="fill:none;stroke:#363636;stroke-linecap:round;"/>
   </g>
   <g id="line2d_35">
    <path clip-path="url(#pc25dd034db)" d="M 477.993328 129.265714 
L 477.993328 127.814852 
" style="fill:none;stroke:#363636;stroke-linecap:round;"/>
   </g>
   <g id="line2d_36">
    <path clip-path="url(#pc25dd034db)" d="M 464.322328 148.132971 
L 491.664328 148.132971 
" style="fill:none;stroke:#363636;stroke-linecap:round;"/>
   </g>
   <g id="line2d_37">
    <path clip-path="url(#pc25dd034db)" d="M 464.322328 127.814852 
L 491.664328 127.814852 
" style="fill:none;stroke:#363636;stroke-linecap:round;"/>
   </g>
   <g id="line2d_38"/>
   <g id="line2d_39">
    <path clip-path="url(#pc25dd034db)" d="M 561.693328 157.283723 
L 561.693328 223.664641 
" style="fill:none;stroke:#363636;stroke-linecap:round;"/>
   </g>
   <g id="line2d_40">
    <path clip-path="url(#pc25dd034db)" d="M 561.693328 112.06856 
L 561.693328 106.288332 
" style="fill:none;stroke:#363636;stroke-linecap:round;"/>
   </g>
   <g id="line2d_41">
    <path clip-path="url(#pc25dd034db)" d="M 548.022328 223.664641 
L 575.364328 223.664641 
" style="fill:none;stroke:#363636;stroke-linecap:round;"/>
   </g>
   <g id="line2d_42">
    <path clip-path="url(#pc25dd034db)" d="M 548.022328 106.288332 
L 575.364328 106.288332 
" style="fill:none;stroke:#363636;stroke-linecap:round;"/>
   </g>
   <g id="line2d_43"/>
   <g id="line2d_44">
    <path clip-path="url(#pc25dd034db)" d="M 617.493328 165.635923 
L 617.493328 169.133879 
" style="fill:none;stroke:#363636;stroke-linecap:round;"/>
   </g>
   <g id="line2d_45">
    <path clip-path="url(#pc25dd034db)" d="M 617.493328 136.748597 
L 617.493328 104.8573 
" style="fill:none;stroke:#363636;stroke-linecap:round;"/>
   </g>
   <g id="line2d_46">
    <path clip-path="url(#pc25dd034db)" d="M 603.822328 169.133879 
L 631.164328 169.133879 
" style="fill:none;stroke:#363636;stroke-linecap:round;"/>
   </g>
   <g id="line2d_47">
    <path clip-path="url(#pc25dd034db)" d="M 603.822328 104.8573 
L 631.164328 104.8573 
" style="fill:none;stroke:#363636;stroke-linecap:round;"/>
   </g>
   <g id="line2d_48"/>
   <g id="line2d_49">
    <path clip-path="url(#pc25dd034db)" d="M 115.851328 244.685837 
L 170.535328 244.685837 
" style="fill:none;stroke:#363636;stroke-linecap:round;"/>
   </g>
   <g id="line2d_50">
    <path clip-path="url(#pc25dd034db)" d="M 171.651328 301.80425 
L 226.335328 301.80425 
" style="fill:none;stroke:#363636;stroke-linecap:round;"/>
   </g>
   <g id="line2d_51">
    <path clip-path="url(#pc25dd034db)" d="M 255.351328 287.06602 
L 310.035328 287.06602 
" style="fill:none;stroke:#363636;stroke-linecap:round;"/>
   </g>
   <g id="line2d_52">
    <path clip-path="url(#pc25dd034db)" d="M 311.151328 270.625668 
L 365.835328 270.625668 
" style="fill:none;stroke:#363636;stroke-linecap:round;"/>
   </g>
   <g id="line2d_53">
    <path clip-path="url(#pc25dd034db)" d="M 394.851328 137.125925 
L 449.535328 137.125925 
" style="fill:none;stroke:#363636;stroke-linecap:round;"/>
   </g>
   <g id="line2d_54">
    <path clip-path="url(#pc25dd034db)" d="M 450.651328 134.771374 
L 505.335328 134.771374 
" style="fill:none;stroke:#363636;stroke-linecap:round;"/>
   </g>
   <g id="line2d_55">
    <path clip-path="url(#pc25dd034db)" d="M 534.351328 142.273899 
L 589.035328 142.273899 
" style="fill:none;stroke:#363636;stroke-linecap:round;"/>
   </g>
   <g id="line2d_56">
    <path clip-path="url(#pc25dd034db)" d="M 590.151328 164.790666 
L 644.835328 164.790666 
" style="fill:none;stroke:#363636;stroke-linecap:round;"/>
   </g>
   <g id="patch_13">
    <path d="M 101.343328 355.823437 
L 101.343328 84.023437 
" style="fill:none;stroke:#262626;stroke-linecap:square;stroke-linejoin:miter;stroke-width:1.875;"/>
   </g>
   <g id="patch_14">
    <path d="M 659.343328 355.823437 
L 659.343328 84.023437 
" style="fill:none;stroke:#262626;stroke-linecap:square;stroke-linejoin:miter;stroke-width:1.875;"/>
   </g>
   <g id="patch_15">
    <path d="M 101.343328 355.823437 
L 659.343328 355.823437 
" style="fill:none;stroke:#262626;stroke-linecap:square;stroke-linejoin:miter;stroke-width:1.875;"/>
   </g>
   <g id="patch_16">
    <path d="M 101.343328 84.023437 
L 659.343328 84.023437 
" style="fill:none;stroke:#262626;stroke-linecap:square;stroke-linejoin:miter;stroke-width:1.875;"/>
   </g>
   <g id="PathCollection_3">
    <defs>
     <path d="M 0 5 
C 1.326016 5 2.597899 4.473168 3.535534 3.535534 
C 4.473168 2.597899 5 1.326016 5 0 
C 5 -1.326016 4.473168 -2.597899 3.535534 -3.535534 
C 2.597899 -4.473168 1.326016 -5 0 -5 
C -1.326016 -5 -2.597899 -4.473168 -3.535534 -3.535534 
C -4.473168 -2.597899 -5 -1.326016 -5 0 
C -5 1.326016 -4.473168 2.597899 -3.535534 3.535534 
C -2.597899 4.473168 -1.326016 5 0 5 
z
" id="C0_0_eeb5769dcb"/>
    </defs>
    <g clip-path="url(#pc25dd034db)">
     <use style="fill:#0173b2;stroke:#363636;" x="140.756686" xlink:href="#C0_0_eeb5769dcb" y="243.120382"/>
    </g>
    <g clip-path="url(#pc25dd034db)">
     <use style="fill:#0173b2;stroke:#363636;" x="141.640376" xlink:href="#C0_0_eeb5769dcb" y="260.238847"/>
    </g>
    <g clip-path="url(#pc25dd034db)">
     <use style="fill:#0173b2;stroke:#363636;" x="140.003647" xlink:href="#C0_0_eeb5769dcb" y="232.539299"/>
    </g>
    <g clip-path="url(#pc25dd034db)">
     <use style="fill:#0173b2;stroke:#363636;" x="147.779216" xlink:href="#C0_0_eeb5769dcb" y="255.808581"/>
    </g>
    <g clip-path="url(#pc25dd034db)">
     <use style="fill:#0173b2;stroke:#363636;" x="141.195037" xlink:href="#C0_0_eeb5769dcb" y="244.685837"/>
    </g>
   </g>
   <g id="PathCollection_4">
    <defs>
     <path d="M 0 5 
C 1.326016 5 2.597899 4.473168 3.535534 3.535534 
C 4.473168 2.597899 5 1.326016 5 0 
C 5 -1.326016 4.473168 -2.597899 3.535534 -3.535534 
C 2.597899 -4.473168 1.326016 -5 0 -5 
C -1.326016 -5 -2.597899 -4.473168 -3.535534 -3.535534 
C -4.473168 -2.597899 -5 -1.326016 -5 0 
C -5 1.326016 -4.473168 2.597899 -3.535534 3.535534 
C -2.597899 4.473168 -1.326016 5 0 5 
z
" id="C1_0_2b261e8702"/>
    </defs>
    <g clip-path="url(#pc25dd034db)">
     <use style="fill:#de8f05;stroke:#363636;" x="195.937365" xlink:href="#C1_0_2b261e8702" y="301.80425"/>
    </g>
    <g clip-path="url(#pc25dd034db)">
     <use style="fill:#de8f05;stroke:#363636;" x="199.588938" xlink:href="#C1_0_2b261e8702" y="262.006535"/>
    </g>
    <g clip-path="url(#pc25dd034db)">
     <use style="fill:#de8f05;stroke:#363636;" x="193.984221" xlink:href="#C1_0_2b261e8702" y="329.128995"/>
    </g>
    <g clip-path="url(#pc25dd034db)">
     <use style="fill:#de8f05;stroke:#363636;" x="203.208976" xlink:href="#C1_0_2b261e8702" y="292.840674"/>
    </g>
    <g clip-path="url(#pc25dd034db)">
     <use style="fill:#de8f05;stroke:#363636;" x="193.05831" xlink:href="#C1_0_2b261e8702" y="310.008964"/>
    </g>
   </g>
   <g id="PathCollection_5">
    <defs>
     <path d="M 0 5 
C 1.326016 5 2.597899 4.473168 3.535534 3.535534 
C 4.473168 2.597899 5 1.326016 5 0 
C 5 -1.326016 4.473168 -2.597899 3.535534 -3.535534 
C 2.597899 -4.473168 1.326016 -5 0 -5 
C -1.326016 -5 -2.597899 -4.473168 -3.535534 -3.535534 
C -4.473168 -2.597899 -5 -1.326016 -5 0 
C -5 1.326016 -4.473168 2.597899 -3.535534 3.535534 
C -2.597899 4.473168 -1.326016 5 0 5 
z
" id="C2_0_34a701dcea"/>
    </defs>
    <g clip-path="url(#pc25dd034db)">
     <use style="fill:#0173b2;stroke:#363636;" x="289.485401" xlink:href="#C2_0_34a701dcea" y="341.265753"/>
    </g>
    <g clip-path="url(#pc25dd034db)">
     <use style="fill:#0173b2;stroke:#363636;" x="286.491143" xlink:href="#C2_0_34a701dcea" y="287.06602"/>
    </g>
    <g clip-path="url(#pc25dd034db)">
     <use style="fill:#0173b2;stroke:#363636;" x="278.490412" xlink:href="#C2_0_34a701dcea" y="220.085364"/>
    </g>
    <g clip-path="url(#pc25dd034db)">
     <use style="fill:#0173b2;stroke:#363636;" x="275.795362" xlink:href="#C2_0_34a701dcea" y="305.752901"/>
    </g>
    <g clip-path="url(#pc25dd034db)">
     <use style="fill:#0173b2;stroke:#363636;" x="287.094015" xlink:href="#C2_0_34a701dcea" y="253.099216"/>
    </g>
   </g>
   <g id="PathCollection_6">
    <defs>
     <path d="M 0 5 
C 1.326016 5 2.597899 4.473168 3.535534 3.535534 
C 4.473168 2.597899 5 1.326016 5 0 
C 5 -1.326016 4.473168 -2.597899 3.535534 -3.535534 
C 2.597899 -4.473168 1.326016 -5 0 -5 
C -1.326016 -5 -2.597899 -4.473168 -3.535534 -3.535534 
C -4.473168 -2.597899 -5 -1.326016 -5 0 
C -5 1.326016 -4.473168 2.597899 -3.535534 3.535534 
C -2.597899 4.473168 -1.326016 5 0 5 
z
" id="C3_0_92c8813255"/>
    </defs>
    <g clip-path="url(#pc25dd034db)">
     <use style="fill:#de8f05;stroke:#363636;" x="341.378988" xlink:href="#C3_0_92c8813255" y="321.298121"/>
    </g>
    <g clip-path="url(#pc25dd034db)">
     <use style="fill:#de8f05;stroke:#363636;" x="341.687978" xlink:href="#C3_0_92c8813255" y="314.878883"/>
    </g>
    <g clip-path="url(#pc25dd034db)">
     <use style="fill:#de8f05;stroke:#363636;" x="342.277549" xlink:href="#C3_0_92c8813255" y="233.025891"/>
    </g>
    <g clip-path="url(#pc25dd034db)">
     <use style="fill:#de8f05;stroke:#363636;" x="332.551251" xlink:href="#C3_0_92c8813255" y="270.625668"/>
    </g>
    <g clip-path="url(#pc25dd034db)">
     <use style="fill:#de8f05;stroke:#363636;" x="336.518925" xlink:href="#C3_0_92c8813255" y="236.972803"/>
    </g>
   </g>
   <g id="PathCollection_7">
    <defs>
     <path d="M 0 5 
C 1.326016 5 2.597899 4.473168 3.535534 3.535534 
C 4.473168 2.597899 5 1.326016 5 0 
C 5 -1.326016 4.473168 -2.597899 3.535534 -3.535534 
C 2.597899 -4.473168 1.326016 -5 0 -5 
C -1.326016 -5 -2.597899 -4.473168 -3.535534 -3.535534 
C -4.473168 -2.597899 -5 -1.326016 -5 0 
C -5 1.326016 -4.473168 2.597899 -3.535534 3.535534 
C -2.597899 4.473168 -1.326016 5 0 5 
z
" id="C4_0_a2594bff77"/>
    </defs>
    <g clip-path="url(#pc25dd034db)">
     <use style="fill:#0173b2;stroke:#363636;" x="416.834702" xlink:href="#C4_0_a2594bff77" y="137.125925"/>
    </g>
    <g clip-path="url(#pc25dd034db)">
     <use style="fill:#0173b2;stroke:#363636;" x="427.258621" xlink:href="#C4_0_a2594bff77" y="161.387111"/>
    </g>
    <g clip-path="url(#pc25dd034db)">
     <use style="fill:#0173b2;stroke:#363636;" x="423.913337" xlink:href="#C4_0_a2594bff77" y="138.869205"/>
    </g>
    <g clip-path="url(#pc25dd034db)">
     <use style="fill:#0173b2;stroke:#363636;" x="419.834356" xlink:href="#C4_0_a2594bff77" y="135.254496"/>
    </g>
    <g clip-path="url(#pc25dd034db)">
     <use style="fill:#0173b2;stroke:#363636;" x="416.104967" xlink:href="#C4_0_a2594bff77" y="98.919288"/>
    </g>
   </g>
   <g id="PathCollection_8">
    <defs>
     <path d="M 0 5 
C 1.326016 5 2.597899 4.473168 3.535534 3.535534 
C 4.473168 2.597899 5 1.326016 5 0 
C 5 -1.326016 4.473168 -2.597899 3.535534 -3.535534 
C 2.597899 -4.473168 1.326016 -5 0 -5 
C -1.326016 -5 -2.597899 -4.473168 -3.535534 -3.535534 
C -4.473168 -2.597899 -5 -1.326016 -5 0 
C -5 1.326016 -4.473168 2.597899 -3.535534 3.535534 
C -2.597899 4.473168 -1.326016 5 0 5 
z
" id="C5_0_9499acb422"/>
    </defs>
    <g clip-path="url(#pc25dd034db)">
     <use style="fill:#de8f05;stroke:#363636;" x="475.356532" xlink:href="#C5_0_9499acb422" y="148.132971"/>
    </g>
    <g clip-path="url(#pc25dd034db)">
     <use style="fill:#de8f05;stroke:#363636;" x="475.554635" xlink:href="#C5_0_9499acb422" y="129.265714"/>
    </g>
    <g clip-path="url(#pc25dd034db)">
     <use style="fill:#de8f05;stroke:#363636;" x="481.196334" xlink:href="#C5_0_9499acb422" y="135.319295"/>
    </g>
    <g clip-path="url(#pc25dd034db)">
     <use style="fill:#de8f05;stroke:#363636;" x="479.912255" xlink:href="#C5_0_9499acb422" y="134.771374"/>
    </g>
    <g clip-path="url(#pc25dd034db)">
     <use style="fill:#de8f05;stroke:#363636;" x="483.394946" xlink:href="#C5_0_9499acb422" y="127.814852"/>
    </g>
   </g>
   <g id="PathCollection_9">
    <defs>
     <path d="M 0 5 
C 1.326016 5 2.597899 4.473168 3.535534 3.535534 
C 4.473168 2.597899 5 1.326016 5 0 
C 5 -1.326016 4.473168 -2.597899 3.535534 -3.535534 
C 2.597899 -4.473168 1.326016 -5 0 -5 
C -1.326016 -5 -2.597899 -4.473168 -3.535534 -3.535534 
C -4.473168 -2.597899 -5 -1.326016 -5 0 
C -5 1.326016 -4.473168 2.597899 -3.535534 3.535534 
C -2.597899 4.473168 -1.326016 5 0 5 
z
" id="C6_0_6513b7fe04"/>
    </defs>
    <g clip-path="url(#pc25dd034db)">
     <use style="fill:#0173b2;stroke:#363636;" x="561.305726" xlink:href="#C6_0_6513b7fe04" y="223.664641"/>
    </g>
    <g clip-path="url(#pc25dd034db)">
     <use style="fill:#0173b2;stroke:#363636;" x="556.386668" xlink:href="#C6_0_6513b7fe04" y="112.06856"/>
    </g>
    <g clip-path="url(#pc25dd034db)">
     <use style="fill:#0173b2;stroke:#363636;" x="564.668093" xlink:href="#C6_0_6513b7fe04" y="157.283723"/>
    </g>
    <g clip-path="url(#pc25dd034db)">
     <use style="fill:#0173b2;stroke:#363636;" x="565.33128" xlink:href="#C6_0_6513b7fe04" y="142.273899"/>
    </g>
    <g clip-path="url(#pc25dd034db)">
     <use style="fill:#0173b2;stroke:#363636;" x="562.548145" xlink:href="#C6_0_6513b7fe04" y="106.288332"/>
    </g>
   </g>
   <g id="PathCollection_10">
    <defs>
     <path d="M 0 5 
C 1.326016 5 2.597899 4.473168 3.535534 3.535534 
C 4.473168 2.597899 5 1.326016 5 0 
C 5 -1.326016 4.473168 -2.597899 3.535534 -3.535534 
C 2.597899 -4.473168 1.326016 -5 0 -5 
C -1.326016 -5 -2.597899 -4.473168 -3.535534 -3.535534 
C -4.473168 -2.597899 -5 -1.326016 -5 0 
C -5 1.326016 -4.473168 2.597899 -3.535534 3.535534 
C -2.597899 4.473168 -1.326016 5 0 5 
z
" id="C7_0_3483be9086"/>
    </defs>
    <g clip-path="url(#pc25dd034db)">
     <use style="fill:#de8f05;stroke:#363636;" x="621.27332" xlink:href="#C7_0_3483be9086" y="165.635923"/>
    </g>
    <g clip-path="url(#pc25dd034db)">
     <use style="fill:#de8f05;stroke:#363636;" x="617.406777" xlink:href="#C7_0_3483be9086" y="169.133879"/>
    </g>
    <g clip-path="url(#pc25dd034db)">
     <use style="fill:#de8f05;stroke:#363636;" x="617.810451" xlink:href="#C7_0_3483be9086" y="136.748597"/>
    </g>
    <g clip-path="url(#pc25dd034db)">
     <use style="fill:#de8f05;stroke:#363636;" x="616.482525" xlink:href="#C7_0_3483be9086" y="104.8573"/>
    </g>
    <g clip-path="url(#pc25dd034db)">
     <use style="fill:#de8f05;stroke:#363636;" x="610.872925" xlink:href="#C7_0_3483be9086" y="164.790666"/>
    </g>
   </g>
   <g id="legend_1">
    <g id="patch_17">
     <path d="M 690.543328 137.41125 
L 764.339578 137.41125 
Q 767.639578 137.41125 767.639578 134.11125 
L 767.639578 87.323437 
Q 767.639578 84.023437 764.339578 84.023437 
L 690.543328 84.023437 
Q 687.243328 84.023437 687.243328 87.323437 
L 687.243328 134.11125 
Q 687.243328 137.41125 690.543328 137.41125 
z
" style="fill:#ffffff;opacity:0.8;stroke:#cccccc;stroke-linejoin:miter;stroke-width:1.5;"/>
    </g>
    <g id="patch_18">
     <path d="M 693.843328 103.160859 
L 726.843328 103.160859 
L 726.843328 91.610859 
L 693.843328 91.610859 
z
" style="fill:#176d9c;stroke:#363636;stroke-linejoin:miter;stroke-width:0.5;"/>
    </g>
    <g id="text_10">
     <!-- 24 -->
     <defs>
      <path d="M 37.796875 64.3125 
L 12.890625 25.390625 
L 37.796875 25.390625 
z
M 35.203125 72.90625 
L 47.609375 72.90625 
L 47.609375 25.390625 
L 58.015625 25.390625 
L 58.015625 17.1875 
L 47.609375 17.1875 
L 47.609375 0 
L 37.796875 0 
L 37.796875 17.1875 
L 4.890625 17.1875 
L 4.890625 26.703125 
z
" id="DejaVuSans-52"/>
     </defs>
     <g style="fill:#262626;" transform="translate(740.043328 103.160859)scale(0.165 -0.165)">
      <use xlink:href="#DejaVuSans-50"/>
      <use x="63.623047" xlink:href="#DejaVuSans-52"/>
     </g>
    </g>
    <g id="patch_19">
     <path d="M 693.843328 127.379766 
L 726.843328 127.379766 
L 726.843328 115.829766 
L 693.843328 115.829766 
z
" style="fill:#c38820;stroke:#363636;stroke-linejoin:miter;stroke-width:0.5;"/>
    </g>
    <g id="text_11">
     <!-- 96 -->
     <defs>
      <path d="M 10.984375 1.515625 
L 10.984375 10.5 
Q 14.703125 8.734375 18.5 7.8125 
Q 22.3125 6.890625 25.984375 6.890625 
Q 35.75 6.890625 40.890625 13.453125 
Q 46.046875 20.015625 46.78125 33.40625 
Q 43.953125 29.203125 39.59375 26.953125 
Q 35.25 24.703125 29.984375 24.703125 
Q 19.046875 24.703125 12.671875 31.3125 
Q 6.296875 37.9375 6.296875 49.421875 
Q 6.296875 60.640625 12.9375 67.421875 
Q 19.578125 74.21875 30.609375 74.21875 
Q 43.265625 74.21875 49.921875 64.515625 
Q 56.59375 54.828125 56.59375 36.375 
Q 56.59375 19.140625 48.40625 8.859375 
Q 40.234375 -1.421875 26.421875 -1.421875 
Q 22.703125 -1.421875 18.890625 -0.6875 
Q 15.09375 0.046875 10.984375 1.515625 
z
M 30.609375 32.421875 
Q 37.25 32.421875 41.125 36.953125 
Q 45.015625 41.5 45.015625 49.421875 
Q 45.015625 57.28125 41.125 61.84375 
Q 37.25 66.40625 30.609375 66.40625 
Q 23.96875 66.40625 20.09375 61.84375 
Q 16.21875 57.28125 16.21875 49.421875 
Q 16.21875 41.5 20.09375 36.953125 
Q 23.96875 32.421875 30.609375 32.421875 
z
" id="DejaVuSans-57"/>
      <path d="M 33.015625 40.375 
Q 26.375 40.375 22.484375 35.828125 
Q 18.609375 31.296875 18.609375 23.390625 
Q 18.609375 15.53125 22.484375 10.953125 
Q 26.375 6.390625 33.015625 6.390625 
Q 39.65625 6.390625 43.53125 10.953125 
Q 47.40625 15.53125 47.40625 23.390625 
Q 47.40625 31.296875 43.53125 35.828125 
Q 39.65625 40.375 33.015625 40.375 
z
M 52.59375 71.296875 
L 52.59375 62.3125 
Q 48.875 64.0625 45.09375 64.984375 
Q 41.3125 65.921875 37.59375 65.921875 
Q 27.828125 65.921875 22.671875 59.328125 
Q 17.53125 52.734375 16.796875 39.40625 
Q 19.671875 43.65625 24.015625 45.921875 
Q 28.375 48.1875 33.59375 48.1875 
Q 44.578125 48.1875 50.953125 41.515625 
Q 57.328125 34.859375 57.328125 23.390625 
Q 57.328125 12.15625 50.6875 5.359375 
Q 44.046875 -1.421875 33.015625 -1.421875 
Q 20.359375 -1.421875 13.671875 8.265625 
Q 6.984375 17.96875 6.984375 36.375 
Q 6.984375 53.65625 15.1875 63.9375 
Q 23.390625 74.21875 37.203125 74.21875 
Q 40.921875 74.21875 44.703125 73.484375 
Q 48.484375 72.75 52.59375 71.296875 
z
" id="DejaVuSans-54"/>
     </defs>
     <g style="fill:#262626;" transform="translate(740.043328 127.379766)scale(0.165 -0.165)">
      <use xlink:href="#DejaVuSans-57"/>
      <use x="63.623047" xlink:href="#DejaVuSans-54"/>
     </g>
    </g>
   </g>
  </g>
 </g>
 <defs>
  <clipPath id="pc25dd034db">
   <rect height="271.8" width="558" x="101.343328" y="84.023437"/>
  </clipPath>
 </defs>
</svg>
