<?xml version="1.0" encoding="utf-8" standalone="no"?>
<!DOCTYPE svg PUBLIC "-//W3C//DTD SVG 1.1//EN"
  "http://www.w3.org/Graphics/SVG/1.1/DTD/svg11.dtd">
<!-- Created with matplotlib (http://matplotlib.org/) -->
<svg height="293pt" version="1.1" viewBox="0 0 871 293" width="871pt" xmlns="http://www.w3.org/2000/svg" xmlns:xlink="http://www.w3.org/1999/xlink">
 <defs>
  <style type="text/css">
*{stroke-linecap:butt;stroke-linejoin:round;}
  </style>
 </defs>
 <g id="figure_1">
  <g id="patch_1">
   <path d="M 0 293.903125 
L 871.153125 293.903125 
L 871.153125 0 
L 0 0 
z
" style="fill:none;"/>
  </g>
  <g id="axes_1">
   <g id="patch_2">
    <path d="M 76.340625 242.7975 
L 522.740625 242.7975 
L 522.740625 25.3575 
L 76.340625 25.3575 
z
" style="fill:none;"/>
   </g>
   <g id="patch_3">
    <path clip-path="url(#p949b593f2e)" d="M 106.424103 242.7975 
L 110.296138 242.7975 
L 110.296138 242.400784 
L 106.424103 242.400784 
z
" style="fill:#0000ff;opacity:0.7;"/>
   </g>
   <g id="patch_4">
    <path clip-path="url(#p949b593f2e)" d="M 110.296138 242.7975 
L 114.168173 242.7975 
L 114.168173 242.638814 
L 110.296138 242.638814 
z
" style="fill:#0000ff;opacity:0.7;"/>
   </g>
   <g id="patch_5">
    <path clip-path="url(#p949b593f2e)" d="M 114.168173 242.7975 
L 118.040208 242.7975 
L 118.040208 242.757828 
L 114.168173 242.757828 
z
" style="fill:#0000ff;opacity:0.7;"/>
   </g>
   <g id="patch_6">
    <path clip-path="url(#p949b593f2e)" d="M 118.040208 242.7975 
L 121.912242 242.7975 
L 121.912242 242.757828 
L 118.040208 242.757828 
z
" style="fill:#0000ff;opacity:0.7;"/>
   </g>
   <g id="patch_7">
    <path clip-path="url(#p949b593f2e)" d="M 121.912242 242.7975 
L 125.784277 242.7975 
L 125.784277 242.718157 
L 121.912242 242.718157 
z
" style="fill:#0000ff;opacity:0.7;"/>
   </g>
   <g id="patch_8">
    <path clip-path="url(#p949b593f2e)" d="M 125.784277 242.7975 
L 129.656312 242.7975 
L 129.656312 242.718157 
L 125.784277 242.718157 
z
" style="fill:#0000ff;opacity:0.7;"/>
   </g>
   <g id="patch_9">
    <path clip-path="url(#p949b593f2e)" d="M 129.656312 242.7975 
L 133.528347 242.7975 
L 133.528347 242.757828 
L 129.656312 242.757828 
z
" style="fill:#0000ff;opacity:0.7;"/>
   </g>
   <g id="patch_10">
    <path clip-path="url(#p949b593f2e)" d="M 133.528347 242.7975 
L 137.400382 242.7975 
L 137.400382 242.718157 
L 133.528347 242.718157 
z
" style="fill:#0000ff;opacity:0.7;"/>
   </g>
   <g id="patch_11">
    <path clip-path="url(#p949b593f2e)" d="M 137.400382 242.7975 
L 141.272416 242.7975 
L 141.272416 242.757828 
L 137.400382 242.757828 
z
" style="fill:#0000ff;opacity:0.7;"/>
   </g>
   <g id="patch_12">
    <path clip-path="url(#p949b593f2e)" d="M 141.272416 242.7975 
L 145.144451 242.7975 
L 145.144451 242.638814 
L 141.272416 242.638814 
z
" style="fill:#0000ff;opacity:0.7;"/>
   </g>
   <g id="patch_13">
    <path clip-path="url(#p949b593f2e)" d="M 145.144451 242.7975 
L 149.016486 242.7975 
L 149.016486 242.599142 
L 145.144451 242.599142 
z
" style="fill:#0000ff;opacity:0.7;"/>
   </g>
   <g id="patch_14">
    <path clip-path="url(#p949b593f2e)" d="M 149.016486 242.7975 
L 152.888521 242.7975 
L 152.888521 242.7975 
L 149.016486 242.7975 
z
" style="fill:#0000ff;opacity:0.7;"/>
   </g>
   <g id="patch_15">
    <path clip-path="url(#p949b593f2e)" d="M 152.888521 242.7975 
L 156.760555 242.7975 
L 156.760555 242.7975 
L 152.888521 242.7975 
z
" style="fill:#0000ff;opacity:0.7;"/>
   </g>
   <g id="patch_16">
    <path clip-path="url(#p949b593f2e)" d="M 156.760555 242.7975 
L 160.63259 242.7975 
L 160.63259 242.7975 
L 156.760555 242.7975 
z
" style="fill:#0000ff;opacity:0.7;"/>
   </g>
   <g id="patch_17">
    <path clip-path="url(#p949b593f2e)" d="M 160.63259 242.7975 
L 164.504625 242.7975 
L 164.504625 242.718157 
L 160.63259 242.718157 
z
" style="fill:#0000ff;opacity:0.7;"/>
   </g>
   <g id="patch_18">
    <path clip-path="url(#p949b593f2e)" d="M 164.504625 242.7975 
L 168.37666 242.7975 
L 168.37666 242.7975 
L 164.504625 242.7975 
z
" style="fill:#0000ff;opacity:0.7;"/>
   </g>
   <g id="patch_19">
    <path clip-path="url(#p949b593f2e)" d="M 168.37666 242.7975 
L 172.248695 242.7975 
L 172.248695 242.7975 
L 168.37666 242.7975 
z
" style="fill:#0000ff;opacity:0.7;"/>
   </g>
   <g id="patch_20">
    <path clip-path="url(#p949b593f2e)" d="M 172.248695 242.7975 
L 176.120729 242.7975 
L 176.120729 242.7975 
L 172.248695 242.7975 
z
" style="fill:#0000ff;opacity:0.7;"/>
   </g>
   <g id="patch_21">
    <path clip-path="url(#p949b593f2e)" d="M 176.120729 242.7975 
L 179.992764 242.7975 
L 179.992764 242.7975 
L 176.120729 242.7975 
z
" style="fill:#0000ff;opacity:0.7;"/>
   </g>
   <g id="patch_22">
    <path clip-path="url(#p949b593f2e)" d="M 179.992764 242.7975 
L 183.864799 242.7975 
L 183.864799 242.7975 
L 179.992764 242.7975 
z
" style="fill:#0000ff;opacity:0.7;"/>
   </g>
   <g id="patch_23">
    <path clip-path="url(#p949b593f2e)" d="M 183.864799 242.7975 
L 187.736834 242.7975 
L 187.736834 242.7975 
L 183.864799 242.7975 
z
" style="fill:#0000ff;opacity:0.7;"/>
   </g>
   <g id="patch_24">
    <path clip-path="url(#p949b593f2e)" d="M 187.736834 242.7975 
L 191.608868 242.7975 
L 191.608868 242.7975 
L 187.736834 242.7975 
z
" style="fill:#0000ff;opacity:0.7;"/>
   </g>
   <g id="patch_25">
    <path clip-path="url(#p949b593f2e)" d="M 191.608868 242.7975 
L 195.480903 242.7975 
L 195.480903 242.7975 
L 191.608868 242.7975 
z
" style="fill:#0000ff;opacity:0.7;"/>
   </g>
   <g id="patch_26">
    <path clip-path="url(#p949b593f2e)" d="M 195.480903 242.7975 
L 199.352938 242.7975 
L 199.352938 242.7975 
L 195.480903 242.7975 
z
" style="fill:#0000ff;opacity:0.7;"/>
   </g>
   <g id="patch_27">
    <path clip-path="url(#p949b593f2e)" d="M 199.352938 242.7975 
L 203.224973 242.7975 
L 203.224973 242.7975 
L 199.352938 242.7975 
z
" style="fill:#0000ff;opacity:0.7;"/>
   </g>
   <g id="patch_28">
    <path clip-path="url(#p949b593f2e)" d="M 203.224973 242.7975 
L 207.097008 242.7975 
L 207.097008 242.7975 
L 203.224973 242.7975 
z
" style="fill:#0000ff;opacity:0.7;"/>
   </g>
   <g id="patch_29">
    <path clip-path="url(#p949b593f2e)" d="M 207.097008 242.7975 
L 210.969042 242.7975 
L 210.969042 242.7975 
L 207.097008 242.7975 
z
" style="fill:#0000ff;opacity:0.7;"/>
   </g>
   <g id="patch_30">
    <path clip-path="url(#p949b593f2e)" d="M 210.969042 242.7975 
L 214.841077 242.7975 
L 214.841077 242.757828 
L 210.969042 242.757828 
z
" style="fill:#0000ff;opacity:0.7;"/>
   </g>
   <g id="patch_31">
    <path clip-path="url(#p949b593f2e)" d="M 214.841077 242.7975 
L 218.713112 242.7975 
L 218.713112 242.7975 
L 214.841077 242.7975 
z
" style="fill:#0000ff;opacity:0.7;"/>
   </g>
   <g id="patch_32">
    <path clip-path="url(#p949b593f2e)" d="M 218.713112 242.7975 
L 222.585147 242.7975 
L 222.585147 242.757828 
L 218.713112 242.757828 
z
" style="fill:#0000ff;opacity:0.7;"/>
   </g>
   <g id="patch_33">
    <path clip-path="url(#p949b593f2e)" d="M 222.585147 242.7975 
L 226.457182 242.7975 
L 226.457182 242.757828 
L 222.585147 242.757828 
z
" style="fill:#0000ff;opacity:0.7;"/>
   </g>
   <g id="patch_34">
    <path clip-path="url(#p949b593f2e)" d="M 226.457182 242.7975 
L 230.329216 242.7975 
L 230.329216 242.757828 
L 226.457182 242.757828 
z
" style="fill:#0000ff;opacity:0.7;"/>
   </g>
   <g id="patch_35">
    <path clip-path="url(#p949b593f2e)" d="M 230.329216 242.7975 
L 234.201251 242.7975 
L 234.201251 242.678485 
L 230.329216 242.678485 
z
" style="fill:#0000ff;opacity:0.7;"/>
   </g>
   <g id="patch_36">
    <path clip-path="url(#p949b593f2e)" d="M 234.201251 242.7975 
L 238.073286 242.7975 
L 238.073286 242.7975 
L 234.201251 242.7975 
z
" style="fill:#0000ff;opacity:0.7;"/>
   </g>
   <g id="patch_37">
    <path clip-path="url(#p949b593f2e)" d="M 238.073286 242.7975 
L 241.945321 242.7975 
L 241.945321 242.55947 
L 238.073286 242.55947 
z
" style="fill:#0000ff;opacity:0.7;"/>
   </g>
   <g id="patch_38">
    <path clip-path="url(#p949b593f2e)" d="M 241.945321 242.7975 
L 245.817355 242.7975 
L 245.817355 242.757828 
L 241.945321 242.757828 
z
" style="fill:#0000ff;opacity:0.7;"/>
   </g>
   <g id="patch_39">
    <path clip-path="url(#p949b593f2e)" d="M 245.817355 242.7975 
L 249.68939 242.7975 
L 249.68939 242.7975 
L 245.817355 242.7975 
z
" style="fill:#0000ff;opacity:0.7;"/>
   </g>
   <g id="patch_40">
    <path clip-path="url(#p949b593f2e)" d="M 249.68939 242.7975 
L 253.561425 242.7975 
L 253.561425 242.757828 
L 249.68939 242.757828 
z
" style="fill:#0000ff;opacity:0.7;"/>
   </g>
   <g id="patch_41">
    <path clip-path="url(#p949b593f2e)" d="M 253.561425 242.7975 
L 257.43346 242.7975 
L 257.43346 242.757828 
L 253.561425 242.757828 
z
" style="fill:#0000ff;opacity:0.7;"/>
   </g>
   <g id="patch_42">
    <path clip-path="url(#p949b593f2e)" d="M 257.43346 242.7975 
L 261.305495 242.7975 
L 261.305495 242.718157 
L 257.43346 242.718157 
z
" style="fill:#0000ff;opacity:0.7;"/>
   </g>
   <g id="patch_43">
    <path clip-path="url(#p949b593f2e)" d="M 261.305495 242.7975 
L 265.177529 242.7975 
L 265.177529 242.7975 
L 261.305495 242.7975 
z
" style="fill:#0000ff;opacity:0.7;"/>
   </g>
   <g id="patch_44">
    <path clip-path="url(#p949b593f2e)" d="M 265.177529 242.7975 
L 269.049564 242.7975 
L 269.049564 242.638814 
L 265.177529 242.638814 
z
" style="fill:#0000ff;opacity:0.7;"/>
   </g>
   <g id="patch_45">
    <path clip-path="url(#p949b593f2e)" d="M 269.049564 242.7975 
L 272.921599 242.7975 
L 272.921599 241.250308 
L 269.049564 241.250308 
z
" style="fill:#0000ff;opacity:0.7;"/>
   </g>
   <g id="patch_46">
    <path clip-path="url(#p949b593f2e)" d="M 272.921599 242.7975 
L 276.793634 242.7975 
L 276.793634 239.06837 
L 272.921599 239.06837 
z
" style="fill:#0000ff;opacity:0.7;"/>
   </g>
   <g id="patch_47">
    <path clip-path="url(#p949b593f2e)" d="M 276.793634 242.7975 
L 280.665668 242.7975 
L 280.665668 236.688075 
L 276.793634 236.688075 
z
" style="fill:#0000ff;opacity:0.7;"/>
   </g>
   <g id="patch_48">
    <path clip-path="url(#p949b593f2e)" d="M 280.665668 242.7975 
L 284.537703 242.7975 
L 284.537703 209.275004 
L 280.665668 209.275004 
z
" style="fill:#0000ff;opacity:0.7;"/>
   </g>
   <g id="patch_49">
    <path clip-path="url(#p949b593f2e)" d="M 284.537703 242.7975 
L 288.409738 242.7975 
L 288.409738 82.524265 
L 284.537703 82.524265 
z
" style="fill:#0000ff;opacity:0.7;"/>
   </g>
   <g id="patch_50">
    <path clip-path="url(#p949b593f2e)" d="M 288.409738 242.7975 
L 292.281773 242.7975 
L 292.281773 35.711786 
L 288.409738 35.711786 
z
" style="fill:#0000ff;opacity:0.7;"/>
   </g>
   <g id="patch_51">
    <path clip-path="url(#p949b593f2e)" d="M 292.281773 242.7975 
L 296.153808 242.7975 
L 296.153808 115.054971 
L 292.281773 115.054971 
z
" style="fill:#0000ff;opacity:0.7;"/>
   </g>
   <g id="patch_52">
    <path clip-path="url(#p949b593f2e)" d="M 296.153808 242.7975 
L 300.025842 242.7975 
L 300.025842 153.853789 
L 296.153808 153.853789 
z
" style="fill:#0000ff;opacity:0.7;"/>
   </g>
   <g id="patch_53">
    <path clip-path="url(#p949b593f2e)" d="M 300.025842 242.7975 
L 303.897877 242.7975 
L 303.897877 171.825021 
L 300.025842 171.825021 
z
" style="fill:#0000ff;opacity:0.7;"/>
   </g>
   <g id="patch_54">
    <path clip-path="url(#p949b593f2e)" d="M 303.897877 242.7975 
L 307.769912 242.7975 
L 307.769912 185.987779 
L 303.897877 185.987779 
z
" style="fill:#0000ff;opacity:0.7;"/>
   </g>
   <g id="patch_55">
    <path clip-path="url(#p949b593f2e)" d="M 307.769912 242.7975 
L 311.641947 242.7975 
L 311.641947 192.216219 
L 307.769912 192.216219 
z
" style="fill:#0000ff;opacity:0.7;"/>
   </g>
   <g id="patch_56">
    <path clip-path="url(#p949b593f2e)" d="M 311.641947 242.7975 
L 315.513982 242.7975 
L 315.513982 192.295562 
L 311.641947 192.295562 
z
" style="fill:#0000ff;opacity:0.7;"/>
   </g>
   <g id="patch_57">
    <path clip-path="url(#p949b593f2e)" d="M 315.513982 242.7975 
L 319.386016 242.7975 
L 319.386016 192.692278 
L 315.513982 192.692278 
z
" style="fill:#0000ff;opacity:0.7;"/>
   </g>
   <g id="patch_58">
    <path clip-path="url(#p949b593f2e)" d="M 319.386016 242.7975 
L 323.258051 242.7975 
L 323.258051 187.177927 
L 319.386016 187.177927 
z
" style="fill:#0000ff;opacity:0.7;"/>
   </g>
   <g id="patch_59">
    <path clip-path="url(#p949b593f2e)" d="M 323.258051 242.7975 
L 327.130086 242.7975 
L 327.130086 187.415956 
L 323.258051 187.415956 
z
" style="fill:#0000ff;opacity:0.7;"/>
   </g>
   <g id="patch_60">
    <path clip-path="url(#p949b593f2e)" d="M 327.130086 242.7975 
L 331.002121 242.7975 
L 331.002121 189.835924 
L 327.130086 189.835924 
z
" style="fill:#0000ff;opacity:0.7;"/>
   </g>
   <g id="patch_61">
    <path clip-path="url(#p949b593f2e)" d="M 331.002121 242.7975 
L 334.874155 242.7975 
L 334.874155 191.819503 
L 331.002121 191.819503 
z
" style="fill:#0000ff;opacity:0.7;"/>
   </g>
   <g id="patch_62">
    <path clip-path="url(#p949b593f2e)" d="M 334.874155 242.7975 
L 338.74619 242.7975 
L 338.74619 190.669027 
L 334.874155 190.669027 
z
" style="fill:#0000ff;opacity:0.7;"/>
   </g>
   <g id="patch_63">
    <path clip-path="url(#p949b593f2e)" d="M 338.74619 242.7975 
L 342.618225 242.7975 
L 342.618225 194.001441 
L 338.74619 194.001441 
z
" style="fill:#0000ff;opacity:0.7;"/>
   </g>
   <g id="patch_64">
    <path clip-path="url(#p949b593f2e)" d="M 342.618225 242.7975 
L 346.49026 242.7975 
L 346.49026 192.176548 
L 342.618225 192.176548 
z
" style="fill:#0000ff;opacity:0.7;"/>
   </g>
   <g id="patch_65">
    <path clip-path="url(#p949b593f2e)" d="M 346.49026 242.7975 
L 350.362295 242.7975 
L 350.362295 197.928929 
L 346.49026 197.928929 
z
" style="fill:#0000ff;opacity:0.7;"/>
   </g>
   <g id="patch_66">
    <path clip-path="url(#p949b593f2e)" d="M 350.362295 242.7975 
L 354.234329 242.7975 
L 354.234329 200.586925 
L 350.362295 200.586925 
z
" style="fill:#0000ff;opacity:0.7;"/>
   </g>
   <g id="patch_67">
    <path clip-path="url(#p949b593f2e)" d="M 354.234329 242.7975 
L 358.106364 242.7975 
L 358.106364 197.413198 
L 354.234329 197.413198 
z
" style="fill:#0000ff;opacity:0.7;"/>
   </g>
   <g id="patch_68">
    <path clip-path="url(#p949b593f2e)" d="M 358.106364 242.7975 
L 361.978399 242.7975 
L 361.978399 195.707319 
L 358.106364 195.707319 
z
" style="fill:#0000ff;opacity:0.7;"/>
   </g>
   <g id="patch_69">
    <path clip-path="url(#p949b593f2e)" d="M 361.978399 242.7975 
L 365.850434 242.7975 
L 365.850434 198.246301 
L 361.978399 198.246301 
z
" style="fill:#0000ff;opacity:0.7;"/>
   </g>
   <g id="patch_70">
    <path clip-path="url(#p949b593f2e)" d="M 365.850434 242.7975 
L 369.722468 242.7975 
L 369.722468 196.064364 
L 365.850434 196.064364 
z
" style="fill:#0000ff;opacity:0.7;"/>
   </g>
   <g id="patch_71">
    <path clip-path="url(#p949b593f2e)" d="M 369.722468 242.7975 
L 373.594503 242.7975 
L 373.594503 194.596515 
L 369.722468 194.596515 
z
" style="fill:#0000ff;opacity:0.7;"/>
   </g>
   <g id="patch_72">
    <path clip-path="url(#p949b593f2e)" d="M 373.594503 242.7975 
L 377.466538 242.7975 
L 377.466538 197.452869 
L 373.594503 197.452869 
z
" style="fill:#0000ff;opacity:0.7;"/>
   </g>
   <g id="patch_73">
    <path clip-path="url(#p949b593f2e)" d="M 377.466538 242.7975 
L 381.338573 242.7975 
L 381.338573 202.372147 
L 377.466538 202.372147 
z
" style="fill:#0000ff;opacity:0.7;"/>
   </g>
   <g id="patch_74">
    <path clip-path="url(#p949b593f2e)" d="M 381.338573 242.7975 
L 385.210608 242.7975 
L 385.210608 195.905677 
L 381.338573 195.905677 
z
" style="fill:#0000ff;opacity:0.7;"/>
   </g>
   <g id="patch_75">
    <path clip-path="url(#p949b593f2e)" d="M 385.210608 242.7975 
L 389.082642 242.7975 
L 389.082642 191.621145 
L 385.210608 191.621145 
z
" style="fill:#0000ff;opacity:0.7;"/>
   </g>
   <g id="patch_76">
    <path clip-path="url(#p949b593f2e)" d="M 389.082642 242.7975 
L 392.954677 242.7975 
L 392.954677 194.953559 
L 389.082642 194.953559 
z
" style="fill:#0000ff;opacity:0.7;"/>
   </g>
   <g id="patch_77">
    <path clip-path="url(#p949b593f2e)" d="M 392.954677 242.7975 
L 396.826712 242.7975 
L 396.826712 191.184758 
L 392.954677 191.184758 
z
" style="fill:#0000ff;opacity:0.7;"/>
   </g>
   <g id="patch_78">
    <path clip-path="url(#p949b593f2e)" d="M 396.826712 242.7975 
L 400.698747 242.7975 
L 400.698747 186.979569 
L 396.826712 186.979569 
z
" style="fill:#0000ff;opacity:0.7;"/>
   </g>
   <g id="patch_79">
    <path clip-path="url(#p949b593f2e)" d="M 400.698747 242.7975 
L 404.570782 242.7975 
L 404.570782 192.335234 
L 400.698747 192.335234 
z
" style="fill:#0000ff;opacity:0.7;"/>
   </g>
   <g id="patch_80">
    <path clip-path="url(#p949b593f2e)" d="M 404.570782 242.7975 
L 408.442816 242.7975 
L 408.442816 193.406367 
L 404.570782 193.406367 
z
" style="fill:#0000ff;opacity:0.7;"/>
   </g>
   <g id="patch_81">
    <path clip-path="url(#p949b593f2e)" d="M 408.442816 242.7975 
L 412.314851 242.7975 
L 412.314851 195.270932 
L 408.442816 195.270932 
z
" style="fill:#0000ff;opacity:0.7;"/>
   </g>
   <g id="patch_82">
    <path clip-path="url(#p949b593f2e)" d="M 412.314851 242.7975 
L 416.186886 242.7975 
L 416.186886 183.647155 
L 412.314851 183.647155 
z
" style="fill:#0000ff;opacity:0.7;"/>
   </g>
   <g id="patch_83">
    <path clip-path="url(#p949b593f2e)" d="M 416.186886 242.7975 
L 420.058921 242.7975 
L 420.058921 181.703247 
L 416.186886 181.703247 
z
" style="fill:#0000ff;opacity:0.7;"/>
   </g>
   <g id="patch_84">
    <path clip-path="url(#p949b593f2e)" d="M 420.058921 242.7975 
L 423.930955 242.7975 
L 423.930955 187.574643 
L 420.058921 187.574643 
z
" style="fill:#0000ff;opacity:0.7;"/>
   </g>
   <g id="patch_85">
    <path clip-path="url(#p949b593f2e)" d="M 423.930955 242.7975 
L 427.80299 242.7975 
L 427.80299 184.242229 
L 423.930955 184.242229 
z
" style="fill:#0000ff;opacity:0.7;"/>
   </g>
   <g id="patch_86">
    <path clip-path="url(#p949b593f2e)" d="M 427.80299 242.7975 
L 431.675025 242.7975 
L 431.675025 188.685447 
L 427.80299 188.685447 
z
" style="fill:#0000ff;opacity:0.7;"/>
   </g>
   <g id="patch_87">
    <path clip-path="url(#p949b593f2e)" d="M 431.675025 242.7975 
L 435.54706 242.7975 
L 435.54706 189.121835 
L 431.675025 189.121835 
z
" style="fill:#0000ff;opacity:0.7;"/>
   </g>
   <g id="patch_88">
    <path clip-path="url(#p949b593f2e)" d="M 435.54706 242.7975 
L 439.419095 242.7975 
L 439.419095 189.478879 
L 435.54706 189.478879 
z
" style="fill:#0000ff;opacity:0.7;"/>
   </g>
   <g id="patch_89">
    <path clip-path="url(#p949b593f2e)" d="M 439.419095 242.7975 
L 443.291129 242.7975 
L 443.291129 187.296942 
L 439.419095 187.296942 
z
" style="fill:#0000ff;opacity:0.7;"/>
   </g>
   <g id="patch_90">
    <path clip-path="url(#p949b593f2e)" d="M 443.291129 242.7975 
L 447.163164 242.7975 
L 447.163164 188.288732 
L 443.291129 188.288732 
z
" style="fill:#0000ff;opacity:0.7;"/>
   </g>
   <g id="patch_91">
    <path clip-path="url(#p949b593f2e)" d="M 447.163164 242.7975 
L 451.035199 242.7975 
L 451.035199 186.543181 
L 447.163164 186.543181 
z
" style="fill:#0000ff;opacity:0.7;"/>
   </g>
   <g id="patch_92">
    <path clip-path="url(#p949b593f2e)" d="M 451.035199 242.7975 
L 454.907234 242.7975 
L 454.907234 192.652607 
L 451.035199 192.652607 
z
" style="fill:#0000ff;opacity:0.7;"/>
   </g>
   <g id="patch_93">
    <path clip-path="url(#p949b593f2e)" d="M 454.907234 242.7975 
L 458.779268 242.7975 
L 458.779268 196.381736 
L 454.907234 196.381736 
z
" style="fill:#0000ff;opacity:0.7;"/>
   </g>
   <g id="patch_94">
    <path clip-path="url(#p949b593f2e)" d="M 458.779268 242.7975 
L 462.651303 242.7975 
L 462.651303 189.716909 
L 458.779268 189.716909 
z
" style="fill:#0000ff;opacity:0.7;"/>
   </g>
   <g id="patch_95">
    <path clip-path="url(#p949b593f2e)" d="M 462.651303 242.7975 
L 466.523338 242.7975 
L 466.523338 189.915267 
L 462.651303 189.915267 
z
" style="fill:#0000ff;opacity:0.7;"/>
   </g>
   <g id="patch_96">
    <path clip-path="url(#p949b593f2e)" d="M 466.523338 242.7975 
L 470.395373 242.7975 
L 470.395373 185.908436 
L 466.523338 185.908436 
z
" style="fill:#0000ff;opacity:0.7;"/>
   </g>
   <g id="patch_97">
    <path clip-path="url(#p949b593f2e)" d="M 470.395373 242.7975 
L 474.267408 242.7975 
L 474.267408 189.082163 
L 470.395373 189.082163 
z
" style="fill:#0000ff;opacity:0.7;"/>
   </g>
   <g id="patch_98">
    <path clip-path="url(#p949b593f2e)" d="M 474.267408 242.7975 
L 478.139442 242.7975 
L 478.139442 193.049323 
L 474.267408 193.049323 
z
" style="fill:#0000ff;opacity:0.7;"/>
   </g>
   <g id="patch_99">
    <path clip-path="url(#p949b593f2e)" d="M 478.139442 242.7975 
L 482.011477 242.7975 
L 482.011477 195.548633 
L 478.139442 195.548633 
z
" style="fill:#0000ff;opacity:0.7;"/>
   </g>
   <g id="patch_100">
    <path clip-path="url(#p949b593f2e)" d="M 482.011477 242.7975 
L 485.883512 242.7975 
L 485.883512 193.247681 
L 482.011477 193.247681 
z
" style="fill:#0000ff;opacity:0.7;"/>
   </g>
   <g id="patch_101">
    <path clip-path="url(#p949b593f2e)" d="M 485.883512 242.7975 
L 489.755547 242.7975 
L 489.755547 204.752443 
L 485.883512 204.752443 
z
" style="fill:#0000ff;opacity:0.7;"/>
   </g>
   <g id="patch_102">
    <path clip-path="url(#p949b593f2e)" d="M 489.755547 242.7975 
L 493.627582 242.7975 
L 493.627582 230.935694 
L 489.755547 230.935694 
z
" style="fill:#0000ff;opacity:0.7;"/>
   </g>
   <g id="patch_103">
    <path clip-path="url(#p949b593f2e)" d="M 106.424103 242.7975 
L 110.296138 242.7975 
L 110.296138 242.7975 
L 106.424103 242.7975 
z
" style="fill:#ff0000;opacity:0.3;"/>
   </g>
   <g id="patch_104">
    <path clip-path="url(#p949b593f2e)" d="M 110.296138 242.7975 
L 114.168173 242.7975 
L 114.168173 242.7975 
L 110.296138 242.7975 
z
" style="fill:#ff0000;opacity:0.3;"/>
   </g>
   <g id="patch_105">
    <path clip-path="url(#p949b593f2e)" d="M 114.168173 242.7975 
L 118.040208 242.7975 
L 118.040208 242.7975 
L 114.168173 242.7975 
z
" style="fill:#ff0000;opacity:0.3;"/>
   </g>
   <g id="patch_106">
    <path clip-path="url(#p949b593f2e)" d="M 118.040208 242.7975 
L 121.912242 242.7975 
L 121.912242 242.7975 
L 118.040208 242.7975 
z
" style="fill:#ff0000;opacity:0.3;"/>
   </g>
   <g id="patch_107">
    <path clip-path="url(#p949b593f2e)" d="M 121.912242 242.7975 
L 125.784277 242.7975 
L 125.784277 242.7975 
L 121.912242 242.7975 
z
" style="fill:#ff0000;opacity:0.3;"/>
   </g>
   <g id="patch_108">
    <path clip-path="url(#p949b593f2e)" d="M 125.784277 242.7975 
L 129.656312 242.7975 
L 129.656312 242.7975 
L 125.784277 242.7975 
z
" style="fill:#ff0000;opacity:0.3;"/>
   </g>
   <g id="patch_109">
    <path clip-path="url(#p949b593f2e)" d="M 129.656312 242.7975 
L 133.528347 242.7975 
L 133.528347 242.7975 
L 129.656312 242.7975 
z
" style="fill:#ff0000;opacity:0.3;"/>
   </g>
   <g id="patch_110">
    <path clip-path="url(#p949b593f2e)" d="M 133.528347 242.7975 
L 137.400382 242.7975 
L 137.400382 242.7975 
L 133.528347 242.7975 
z
" style="fill:#ff0000;opacity:0.3;"/>
   </g>
   <g id="patch_111">
    <path clip-path="url(#p949b593f2e)" d="M 137.400382 242.7975 
L 141.272416 242.7975 
L 141.272416 242.7975 
L 137.400382 242.7975 
z
" style="fill:#ff0000;opacity:0.3;"/>
   </g>
   <g id="patch_112">
    <path clip-path="url(#p949b593f2e)" d="M 141.272416 242.7975 
L 145.144451 242.7975 
L 145.144451 242.7975 
L 141.272416 242.7975 
z
" style="fill:#ff0000;opacity:0.3;"/>
   </g>
   <g id="patch_113">
    <path clip-path="url(#p949b593f2e)" d="M 145.144451 242.7975 
L 149.016486 242.7975 
L 149.016486 242.7975 
L 145.144451 242.7975 
z
" style="fill:#ff0000;opacity:0.3;"/>
   </g>
   <g id="patch_114">
    <path clip-path="url(#p949b593f2e)" d="M 149.016486 242.7975 
L 152.888521 242.7975 
L 152.888521 242.7975 
L 149.016486 242.7975 
z
" style="fill:#ff0000;opacity:0.3;"/>
   </g>
   <g id="patch_115">
    <path clip-path="url(#p949b593f2e)" d="M 152.888521 242.7975 
L 156.760555 242.7975 
L 156.760555 242.7975 
L 152.888521 242.7975 
z
" style="fill:#ff0000;opacity:0.3;"/>
   </g>
   <g id="patch_116">
    <path clip-path="url(#p949b593f2e)" d="M 156.760555 242.7975 
L 160.63259 242.7975 
L 160.63259 242.7975 
L 156.760555 242.7975 
z
" style="fill:#ff0000;opacity:0.3;"/>
   </g>
   <g id="patch_117">
    <path clip-path="url(#p949b593f2e)" d="M 160.63259 242.7975 
L 164.504625 242.7975 
L 164.504625 242.7975 
L 160.63259 242.7975 
z
" style="fill:#ff0000;opacity:0.3;"/>
   </g>
   <g id="patch_118">
    <path clip-path="url(#p949b593f2e)" d="M 164.504625 242.7975 
L 168.37666 242.7975 
L 168.37666 242.7975 
L 164.504625 242.7975 
z
" style="fill:#ff0000;opacity:0.3;"/>
   </g>
   <g id="patch_119">
    <path clip-path="url(#p949b593f2e)" d="M 168.37666 242.7975 
L 172.248695 242.7975 
L 172.248695 242.7975 
L 168.37666 242.7975 
z
" style="fill:#ff0000;opacity:0.3;"/>
   </g>
   <g id="patch_120">
    <path clip-path="url(#p949b593f2e)" d="M 172.248695 242.7975 
L 176.120729 242.7975 
L 176.120729 242.7975 
L 172.248695 242.7975 
z
" style="fill:#ff0000;opacity:0.3;"/>
   </g>
   <g id="patch_121">
    <path clip-path="url(#p949b593f2e)" d="M 176.120729 242.7975 
L 179.992764 242.7975 
L 179.992764 242.7975 
L 176.120729 242.7975 
z
" style="fill:#ff0000;opacity:0.3;"/>
   </g>
   <g id="patch_122">
    <path clip-path="url(#p949b593f2e)" d="M 179.992764 242.7975 
L 183.864799 242.7975 
L 183.864799 242.7975 
L 179.992764 242.7975 
z
" style="fill:#ff0000;opacity:0.3;"/>
   </g>
   <g id="patch_123">
    <path clip-path="url(#p949b593f2e)" d="M 183.864799 242.7975 
L 187.736834 242.7975 
L 187.736834 242.7975 
L 183.864799 242.7975 
z
" style="fill:#ff0000;opacity:0.3;"/>
   </g>
   <g id="patch_124">
    <path clip-path="url(#p949b593f2e)" d="M 187.736834 242.7975 
L 191.608868 242.7975 
L 191.608868 242.7975 
L 187.736834 242.7975 
z
" style="fill:#ff0000;opacity:0.3;"/>
   </g>
   <g id="patch_125">
    <path clip-path="url(#p949b593f2e)" d="M 191.608868 242.7975 
L 195.480903 242.7975 
L 195.480903 242.7975 
L 191.608868 242.7975 
z
" style="fill:#ff0000;opacity:0.3;"/>
   </g>
   <g id="patch_126">
    <path clip-path="url(#p949b593f2e)" d="M 195.480903 242.7975 
L 199.352938 242.7975 
L 199.352938 242.7975 
L 195.480903 242.7975 
z
" style="fill:#ff0000;opacity:0.3;"/>
   </g>
   <g id="patch_127">
    <path clip-path="url(#p949b593f2e)" d="M 199.352938 242.7975 
L 203.224973 242.7975 
L 203.224973 242.7975 
L 199.352938 242.7975 
z
" style="fill:#ff0000;opacity:0.3;"/>
   </g>
   <g id="patch_128">
    <path clip-path="url(#p949b593f2e)" d="M 203.224973 242.7975 
L 207.097008 242.7975 
L 207.097008 242.7975 
L 203.224973 242.7975 
z
" style="fill:#ff0000;opacity:0.3;"/>
   </g>
   <g id="patch_129">
    <path clip-path="url(#p949b593f2e)" d="M 207.097008 242.7975 
L 210.969042 242.7975 
L 210.969042 242.7975 
L 207.097008 242.7975 
z
" style="fill:#ff0000;opacity:0.3;"/>
   </g>
   <g id="patch_130">
    <path clip-path="url(#p949b593f2e)" d="M 210.969042 242.7975 
L 214.841077 242.7975 
L 214.841077 242.7975 
L 210.969042 242.7975 
z
" style="fill:#ff0000;opacity:0.3;"/>
   </g>
   <g id="patch_131">
    <path clip-path="url(#p949b593f2e)" d="M 214.841077 242.7975 
L 218.713112 242.7975 
L 218.713112 242.7975 
L 214.841077 242.7975 
z
" style="fill:#ff0000;opacity:0.3;"/>
   </g>
   <g id="patch_132">
    <path clip-path="url(#p949b593f2e)" d="M 218.713112 242.7975 
L 222.585147 242.7975 
L 222.585147 242.7975 
L 218.713112 242.7975 
z
" style="fill:#ff0000;opacity:0.3;"/>
   </g>
   <g id="patch_133">
    <path clip-path="url(#p949b593f2e)" d="M 222.585147 242.7975 
L 226.457182 242.7975 
L 226.457182 242.7975 
L 222.585147 242.7975 
z
" style="fill:#ff0000;opacity:0.3;"/>
   </g>
   <g id="patch_134">
    <path clip-path="url(#p949b593f2e)" d="M 226.457182 242.7975 
L 230.329216 242.7975 
L 230.329216 242.7975 
L 226.457182 242.7975 
z
" style="fill:#ff0000;opacity:0.3;"/>
   </g>
   <g id="patch_135">
    <path clip-path="url(#p949b593f2e)" d="M 230.329216 242.7975 
L 234.201251 242.7975 
L 234.201251 242.7975 
L 230.329216 242.7975 
z
" style="fill:#ff0000;opacity:0.3;"/>
   </g>
   <g id="patch_136">
    <path clip-path="url(#p949b593f2e)" d="M 234.201251 242.7975 
L 238.073286 242.7975 
L 238.073286 242.7975 
L 234.201251 242.7975 
z
" style="fill:#ff0000;opacity:0.3;"/>
   </g>
   <g id="patch_137">
    <path clip-path="url(#p949b593f2e)" d="M 238.073286 242.7975 
L 241.945321 242.7975 
L 241.945321 242.7975 
L 238.073286 242.7975 
z
" style="fill:#ff0000;opacity:0.3;"/>
   </g>
   <g id="patch_138">
    <path clip-path="url(#p949b593f2e)" d="M 241.945321 242.7975 
L 245.817355 242.7975 
L 245.817355 242.7975 
L 241.945321 242.7975 
z
" style="fill:#ff0000;opacity:0.3;"/>
   </g>
   <g id="patch_139">
    <path clip-path="url(#p949b593f2e)" d="M 245.817355 242.7975 
L 249.68939 242.7975 
L 249.68939 242.7975 
L 245.817355 242.7975 
z
" style="fill:#ff0000;opacity:0.3;"/>
   </g>
   <g id="patch_140">
    <path clip-path="url(#p949b593f2e)" d="M 249.68939 242.7975 
L 253.561425 242.7975 
L 253.561425 242.7975 
L 249.68939 242.7975 
z
" style="fill:#ff0000;opacity:0.3;"/>
   </g>
   <g id="patch_141">
    <path clip-path="url(#p949b593f2e)" d="M 253.561425 242.7975 
L 257.43346 242.7975 
L 257.43346 242.7975 
L 253.561425 242.7975 
z
" style="fill:#ff0000;opacity:0.3;"/>
   </g>
   <g id="patch_142">
    <path clip-path="url(#p949b593f2e)" d="M 257.43346 242.7975 
L 261.305495 242.7975 
L 261.305495 242.7975 
L 257.43346 242.7975 
z
" style="fill:#ff0000;opacity:0.3;"/>
   </g>
   <g id="patch_143">
    <path clip-path="url(#p949b593f2e)" d="M 261.305495 242.7975 
L 265.177529 242.7975 
L 265.177529 242.7975 
L 261.305495 242.7975 
z
" style="fill:#ff0000;opacity:0.3;"/>
   </g>
   <g id="patch_144">
    <path clip-path="url(#p949b593f2e)" d="M 265.177529 242.7975 
L 269.049564 242.7975 
L 269.049564 242.7975 
L 265.177529 242.7975 
z
" style="fill:#ff0000;opacity:0.3;"/>
   </g>
   <g id="patch_145">
    <path clip-path="url(#p949b593f2e)" d="M 269.049564 242.7975 
L 272.921599 242.7975 
L 272.921599 242.7975 
L 269.049564 242.7975 
z
" style="fill:#ff0000;opacity:0.3;"/>
   </g>
   <g id="patch_146">
    <path clip-path="url(#p949b593f2e)" d="M 272.921599 242.7975 
L 276.793634 242.7975 
L 276.793634 242.361112 
L 272.921599 242.361112 
z
" style="fill:#ff0000;opacity:0.3;"/>
   </g>
   <g id="patch_147">
    <path clip-path="url(#p949b593f2e)" d="M 276.793634 242.7975 
L 280.665668 242.7975 
L 280.665668 235.101211 
L 276.793634 235.101211 
z
" style="fill:#ff0000;opacity:0.3;"/>
   </g>
   <g id="patch_148">
    <path clip-path="url(#p949b593f2e)" d="M 280.665668 242.7975 
L 284.537703 242.7975 
L 284.537703 181.068502 
L 280.665668 181.068502 
z
" style="fill:#ff0000;opacity:0.3;"/>
   </g>
   <g id="patch_149">
    <path clip-path="url(#p949b593f2e)" d="M 284.537703 242.7975 
L 288.409738 242.7975 
L 288.409738 64.71172 
L 284.537703 64.71172 
z
" style="fill:#ff0000;opacity:0.3;"/>
   </g>
   <g id="patch_150">
    <path clip-path="url(#p949b593f2e)" d="M 288.409738 242.7975 
L 292.281773 242.7975 
L 292.281773 54.714479 
L 288.409738 54.714479 
z
" style="fill:#ff0000;opacity:0.3;"/>
   </g>
   <g id="patch_151">
    <path clip-path="url(#p949b593f2e)" d="M 292.281773 242.7975 
L 296.153808 242.7975 
L 296.153808 122.711589 
L 292.281773 122.711589 
z
" style="fill:#ff0000;opacity:0.3;"/>
   </g>
   <g id="patch_152">
    <path clip-path="url(#p949b593f2e)" d="M 296.153808 242.7975 
L 300.025842 242.7975 
L 300.025842 146.91126 
L 296.153808 146.91126 
z
" style="fill:#ff0000;opacity:0.3;"/>
   </g>
   <g id="patch_153">
    <path clip-path="url(#p949b593f2e)" d="M 300.025842 242.7975 
L 303.897877 242.7975 
L 303.897877 173.689585 
L 300.025842 173.689585 
z
" style="fill:#ff0000;opacity:0.3;"/>
   </g>
   <g id="patch_154">
    <path clip-path="url(#p949b593f2e)" d="M 303.897877 242.7975 
L 307.769912 242.7975 
L 307.769912 184.876975 
L 303.897877 184.876975 
z
" style="fill:#ff0000;opacity:0.3;"/>
   </g>
   <g id="patch_155">
    <path clip-path="url(#p949b593f2e)" d="M 307.769912 242.7975 
L 311.641947 242.7975 
L 311.641947 190.391326 
L 307.769912 190.391326 
z
" style="fill:#ff0000;opacity:0.3;"/>
   </g>
   <g id="patch_156">
    <path clip-path="url(#p949b593f2e)" d="M 311.641947 242.7975 
L 315.513982 242.7975 
L 315.513982 187.177927 
L 311.641947 187.177927 
z
" style="fill:#ff0000;opacity:0.3;"/>
   </g>
   <g id="patch_157">
    <path clip-path="url(#p949b593f2e)" d="M 315.513982 242.7975 
L 319.386016 242.7975 
L 319.386016 187.614314 
L 315.513982 187.614314 
z
" style="fill:#ff0000;opacity:0.3;"/>
   </g>
   <g id="patch_158">
    <path clip-path="url(#p949b593f2e)" d="M 319.386016 242.7975 
L 323.258051 242.7975 
L 323.258051 185.551392 
L 319.386016 185.551392 
z
" style="fill:#ff0000;opacity:0.3;"/>
   </g>
   <g id="patch_159">
    <path clip-path="url(#p949b593f2e)" d="M 323.258051 242.7975 
L 327.130086 242.7975 
L 327.130086 189.201178 
L 323.258051 189.201178 
z
" style="fill:#ff0000;opacity:0.3;"/>
   </g>
   <g id="patch_160">
    <path clip-path="url(#p949b593f2e)" d="M 327.130086 242.7975 
L 331.002121 242.7975 
L 331.002121 190.153296 
L 327.130086 190.153296 
z
" style="fill:#ff0000;opacity:0.3;"/>
   </g>
   <g id="patch_161">
    <path clip-path="url(#p949b593f2e)" d="M 331.002121 242.7975 
L 334.874155 242.7975 
L 334.874155 194.517172 
L 331.002121 194.517172 
z
" style="fill:#ff0000;opacity:0.3;"/>
   </g>
   <g id="patch_162">
    <path clip-path="url(#p949b593f2e)" d="M 334.874155 242.7975 
L 338.74619 242.7975 
L 338.74619 192.73195 
L 334.874155 192.73195 
z
" style="fill:#ff0000;opacity:0.3;"/>
   </g>
   <g id="patch_163">
    <path clip-path="url(#p949b593f2e)" d="M 338.74619 242.7975 
L 342.618225 242.7975 
L 342.618225 195.032902 
L 338.74619 195.032902 
z
" style="fill:#ff0000;opacity:0.3;"/>
   </g>
   <g id="patch_164">
    <path clip-path="url(#p949b593f2e)" d="M 342.618225 242.7975 
L 346.49026 242.7975 
L 346.49026 197.571884 
L 342.618225 197.571884 
z
" style="fill:#ff0000;opacity:0.3;"/>
   </g>
   <g id="patch_165">
    <path clip-path="url(#p949b593f2e)" d="M 346.49026 242.7975 
L 350.362295 242.7975 
L 350.362295 196.104035 
L 346.49026 196.104035 
z
" style="fill:#ff0000;opacity:0.3;"/>
   </g>
   <g id="patch_166">
    <path clip-path="url(#p949b593f2e)" d="M 350.362295 242.7975 
L 354.234329 242.7975 
L 354.234329 196.738781 
L 350.362295 196.738781 
z
" style="fill:#ff0000;opacity:0.3;"/>
   </g>
   <g id="patch_167">
    <path clip-path="url(#p949b593f2e)" d="M 354.234329 242.7975 
L 358.106364 242.7975 
L 358.106364 198.444659 
L 354.234329 198.444659 
z
" style="fill:#ff0000;opacity:0.3;"/>
   </g>
   <g id="patch_168">
    <path clip-path="url(#p949b593f2e)" d="M 358.106364 242.7975 
L 361.978399 242.7975 
L 361.978399 197.056154 
L 358.106364 197.056154 
z
" style="fill:#ff0000;opacity:0.3;"/>
   </g>
   <g id="patch_169">
    <path clip-path="url(#p949b593f2e)" d="M 361.978399 242.7975 
L 365.850434 242.7975 
L 365.850434 195.866006 
L 361.978399 195.866006 
z
" style="fill:#ff0000;opacity:0.3;"/>
   </g>
   <g id="patch_170">
    <path clip-path="url(#p949b593f2e)" d="M 365.850434 242.7975 
L 369.722468 242.7975 
L 369.722468 195.707319 
L 365.850434 195.707319 
z
" style="fill:#ff0000;opacity:0.3;"/>
   </g>
   <g id="patch_171">
    <path clip-path="url(#p949b593f2e)" d="M 369.722468 242.7975 
L 373.594503 242.7975 
L 373.594503 195.588305 
L 369.722468 195.588305 
z
" style="fill:#ff0000;opacity:0.3;"/>
   </g>
   <g id="patch_172">
    <path clip-path="url(#p949b593f2e)" d="M 373.594503 242.7975 
L 377.466538 242.7975 
L 377.466538 195.350275 
L 373.594503 195.350275 
z
" style="fill:#ff0000;opacity:0.3;"/>
   </g>
   <g id="patch_173">
    <path clip-path="url(#p949b593f2e)" d="M 377.466538 242.7975 
L 381.338573 242.7975 
L 381.338573 197.294183 
L 377.466538 197.294183 
z
" style="fill:#ff0000;opacity:0.3;"/>
   </g>
   <g id="patch_174">
    <path clip-path="url(#p949b593f2e)" d="M 381.338573 242.7975 
L 385.210608 242.7975 
L 385.210608 194.596515 
L 381.338573 194.596515 
z
" style="fill:#ff0000;opacity:0.3;"/>
   </g>
   <g id="patch_175">
    <path clip-path="url(#p949b593f2e)" d="M 385.210608 242.7975 
L 389.082642 242.7975 
L 389.082642 194.001441 
L 385.210608 194.001441 
z
" style="fill:#ff0000;opacity:0.3;"/>
   </g>
   <g id="patch_176">
    <path clip-path="url(#p949b593f2e)" d="M 389.082642 242.7975 
L 392.954677 242.7975 
L 392.954677 191.422787 
L 389.082642 191.422787 
z
" style="fill:#ff0000;opacity:0.3;"/>
   </g>
   <g id="patch_177">
    <path clip-path="url(#p949b593f2e)" d="M 392.954677 242.7975 
L 396.826712 242.7975 
L 396.826712 189.716909 
L 392.954677 189.716909 
z
" style="fill:#ff0000;opacity:0.3;"/>
   </g>
   <g id="patch_178">
    <path clip-path="url(#p949b593f2e)" d="M 396.826712 242.7975 
L 400.698747 242.7975 
L 400.698747 193.049323 
L 396.826712 193.049323 
z
" style="fill:#ff0000;opacity:0.3;"/>
   </g>
   <g id="patch_179">
    <path clip-path="url(#p949b593f2e)" d="M 400.698747 242.7975 
L 404.570782 242.7975 
L 404.570782 192.216219 
L 400.698747 192.216219 
z
" style="fill:#ff0000;opacity:0.3;"/>
   </g>
   <g id="patch_180">
    <path clip-path="url(#p949b593f2e)" d="M 404.570782 242.7975 
L 408.442816 242.7975 
L 408.442816 191.74016 
L 404.570782 191.74016 
z
" style="fill:#ff0000;opacity:0.3;"/>
   </g>
   <g id="patch_181">
    <path clip-path="url(#p949b593f2e)" d="M 408.442816 242.7975 
L 412.314851 242.7975 
L 412.314851 190.311983 
L 408.442816 190.311983 
z
" style="fill:#ff0000;opacity:0.3;"/>
   </g>
   <g id="patch_182">
    <path clip-path="url(#p949b593f2e)" d="M 412.314851 242.7975 
L 416.186886 242.7975 
L 416.186886 191.184758 
L 412.314851 191.184758 
z
" style="fill:#ff0000;opacity:0.3;"/>
   </g>
   <g id="patch_183">
    <path clip-path="url(#p949b593f2e)" d="M 416.186886 242.7975 
L 420.058921 242.7975 
L 420.058921 187.773001 
L 416.186886 187.773001 
z
" style="fill:#ff0000;opacity:0.3;"/>
   </g>
   <g id="patch_184">
    <path clip-path="url(#p949b593f2e)" d="M 420.058921 242.7975 
L 423.930955 242.7975 
L 423.930955 187.971359 
L 420.058921 187.971359 
z
" style="fill:#ff0000;opacity:0.3;"/>
   </g>
   <g id="patch_185">
    <path clip-path="url(#p949b593f2e)" d="M 423.930955 242.7975 
L 427.80299 242.7975 
L 427.80299 185.115004 
L 423.930955 185.115004 
z
" style="fill:#ff0000;opacity:0.3;"/>
   </g>
   <g id="patch_186">
    <path clip-path="url(#p949b593f2e)" d="M 427.80299 242.7975 
L 431.675025 242.7975 
L 431.675025 186.701868 
L 427.80299 186.701868 
z
" style="fill:#ff0000;opacity:0.3;"/>
   </g>
   <g id="patch_187">
    <path clip-path="url(#p949b593f2e)" d="M 431.675025 242.7975 
L 435.54706 242.7975 
L 435.54706 187.177927 
L 431.675025 187.177927 
z
" style="fill:#ff0000;opacity:0.3;"/>
   </g>
   <g id="patch_188">
    <path clip-path="url(#p949b593f2e)" d="M 435.54706 242.7975 
L 439.419095 242.7975 
L 439.419095 187.852344 
L 435.54706 187.852344 
z
" style="fill:#ff0000;opacity:0.3;"/>
   </g>
   <g id="patch_189">
    <path clip-path="url(#p949b593f2e)" d="M 439.419095 242.7975 
L 443.291129 242.7975 
L 443.291129 185.591063 
L 439.419095 185.591063 
z
" style="fill:#ff0000;opacity:0.3;"/>
   </g>
   <g id="patch_190">
    <path clip-path="url(#p949b593f2e)" d="M 443.291129 242.7975 
L 447.163164 242.7975 
L 447.163164 188.725119 
L 443.291129 188.725119 
z
" style="fill:#ff0000;opacity:0.3;"/>
   </g>
   <g id="patch_191">
    <path clip-path="url(#p949b593f2e)" d="M 447.163164 242.7975 
L 451.035199 242.7975 
L 451.035199 189.518551 
L 447.163164 189.518551 
z
" style="fill:#ff0000;opacity:0.3;"/>
   </g>
   <g id="patch_192">
    <path clip-path="url(#p949b593f2e)" d="M 451.035199 242.7975 
L 454.907234 242.7975 
L 454.907234 191.621145 
L 451.035199 191.621145 
z
" style="fill:#ff0000;opacity:0.3;"/>
   </g>
   <g id="patch_193">
    <path clip-path="url(#p949b593f2e)" d="M 454.907234 242.7975 
L 458.779268 242.7975 
L 458.779268 192.890636 
L 454.907234 192.890636 
z
" style="fill:#ff0000;opacity:0.3;"/>
   </g>
   <g id="patch_194">
    <path clip-path="url(#p949b593f2e)" d="M 458.779268 242.7975 
L 462.651303 242.7975 
L 462.651303 192.850965 
L 458.779268 192.850965 
z
" style="fill:#ff0000;opacity:0.3;"/>
   </g>
   <g id="patch_195">
    <path clip-path="url(#p949b593f2e)" d="M 462.651303 242.7975 
L 466.523338 242.7975 
L 466.523338 190.272311 
L 462.651303 190.272311 
z
" style="fill:#ff0000;opacity:0.3;"/>
   </g>
   <g id="patch_196">
    <path clip-path="url(#p949b593f2e)" d="M 466.523338 242.7975 
L 470.395373 242.7975 
L 470.395373 189.320193 
L 466.523338 189.320193 
z
" style="fill:#ff0000;opacity:0.3;"/>
   </g>
   <g id="patch_197">
    <path clip-path="url(#p949b593f2e)" d="M 470.395373 242.7975 
L 474.267408 242.7975 
L 474.267408 187.4953 
L 470.395373 187.4953 
z
" style="fill:#ff0000;opacity:0.3;"/>
   </g>
   <g id="patch_198">
    <path clip-path="url(#p949b593f2e)" d="M 474.267408 242.7975 
L 478.139442 242.7975 
L 478.139442 192.850965 
L 474.267408 192.850965 
z
" style="fill:#ff0000;opacity:0.3;"/>
   </g>
   <g id="patch_199">
    <path clip-path="url(#p949b593f2e)" d="M 478.139442 242.7975 
L 482.011477 242.7975 
L 482.011477 195.350275 
L 478.139442 195.350275 
z
" style="fill:#ff0000;opacity:0.3;"/>
   </g>
   <g id="patch_200">
    <path clip-path="url(#p949b593f2e)" d="M 482.011477 242.7975 
L 485.883512 242.7975 
L 485.883512 206.259963 
L 482.011477 206.259963 
z
" style="fill:#ff0000;opacity:0.3;"/>
   </g>
   <g id="patch_201">
    <path clip-path="url(#p949b593f2e)" d="M 485.883512 242.7975 
L 489.755547 242.7975 
L 489.755547 219.430932 
L 485.883512 219.430932 
z
" style="fill:#ff0000;opacity:0.3;"/>
   </g>
   <g id="patch_202">
    <path clip-path="url(#p949b593f2e)" d="M 489.755547 242.7975 
L 493.627582 242.7975 
L 493.627582 233.435004 
L 489.755547 233.435004 
z
" style="fill:#ff0000;opacity:0.3;"/>
   </g>
   <g id="matplotlib.axis_1">
    <g id="xtick_1">
     <g id="line2d_1">
      <defs>
       <path d="M 0 0 
L 0 3.5 
" id="maa82a112a4" style="stroke:#000000;stroke-width:0.8;"/>
      </defs>
      <g>
       <use style="stroke:#000000;stroke-width:0.8;" x="105.453668" xlink:href="#maa82a112a4" y="242.7975"/>
      </g>
     </g>
     <g id="text_1">
      <!-- 0 -->
      <defs>
       <path d="M 31.78125 66.40625 
Q 24.171875 66.40625 20.328125 58.90625 
Q 16.5 51.421875 16.5 36.375 
Q 16.5 21.390625 20.328125 13.890625 
Q 24.171875 6.390625 31.78125 6.390625 
Q 39.453125 6.390625 43.28125 13.890625 
Q 47.125 21.390625 47.125 36.375 
Q 47.125 51.421875 43.28125 58.90625 
Q 39.453125 66.40625 31.78125 66.40625 
z
M 31.78125 74.21875 
Q 44.046875 74.21875 50.515625 64.515625 
Q 56.984375 54.828125 56.984375 36.375 
Q 56.984375 17.96875 50.515625 8.265625 
Q 44.046875 -1.421875 31.78125 -1.421875 
Q 19.53125 -1.421875 13.0625 8.265625 
Q 6.59375 17.96875 6.59375 36.375 
Q 6.59375 54.828125 13.0625 64.515625 
Q 19.53125 74.21875 31.78125 74.21875 
z
" id="DejaVuSans-30"/>
      </defs>
      <g transform="translate(100.363668 261.955)scale(0.16 -0.16)">
       <use xlink:href="#DejaVuSans-30"/>
      </g>
     </g>
    </g>
    <g id="xtick_2">
     <g id="line2d_2">
      <g>
       <use style="stroke:#000000;stroke-width:0.8;" x="202.497147" xlink:href="#maa82a112a4" y="242.7975"/>
      </g>
     </g>
     <g id="text_2">
      <!-- 100 -->
      <defs>
       <path d="M 12.40625 8.296875 
L 28.515625 8.296875 
L 28.515625 63.921875 
L 10.984375 60.40625 
L 10.984375 69.390625 
L 28.421875 72.90625 
L 38.28125 72.90625 
L 38.28125 8.296875 
L 54.390625 8.296875 
L 54.390625 0 
L 12.40625 0 
z
" id="DejaVuSans-31"/>
      </defs>
      <g transform="translate(187.227147 261.955)scale(0.16 -0.16)">
       <use xlink:href="#DejaVuSans-31"/>
       <use x="63.623047" xlink:href="#DejaVuSans-30"/>
       <use x="127.246094" xlink:href="#DejaVuSans-30"/>
      </g>
     </g>
    </g>
    <g id="xtick_3">
     <g id="line2d_3">
      <g>
       <use style="stroke:#000000;stroke-width:0.8;" x="299.540625" xlink:href="#maa82a112a4" y="242.7975"/>
      </g>
     </g>
     <g id="text_3">
      <!-- 200 -->
      <defs>
       <path d="M 19.1875 8.296875 
L 53.609375 8.296875 
L 53.609375 0 
L 7.328125 0 
L 7.328125 8.296875 
Q 12.9375 14.109375 22.625 23.890625 
Q 32.328125 33.6875 34.8125 36.53125 
Q 39.546875 41.84375 41.421875 45.53125 
Q 43.3125 49.21875 43.3125 52.78125 
Q 43.3125 58.59375 39.234375 62.25 
Q 35.15625 65.921875 28.609375 65.921875 
Q 23.96875 65.921875 18.8125 64.3125 
Q 13.671875 62.703125 7.8125 59.421875 
L 7.8125 69.390625 
Q 13.765625 71.78125 18.9375 73 
Q 24.125 74.21875 28.421875 74.21875 
Q 39.75 74.21875 46.484375 68.546875 
Q 53.21875 62.890625 53.21875 53.421875 
Q 53.21875 48.921875 51.53125 44.890625 
Q 49.859375 40.875 45.40625 35.40625 
Q 44.1875 33.984375 37.640625 27.21875 
Q 31.109375 20.453125 19.1875 8.296875 
z
" id="DejaVuSans-32"/>
      </defs>
      <g transform="translate(284.270625 261.955)scale(0.16 -0.16)">
       <use xlink:href="#DejaVuSans-32"/>
       <use x="63.623047" xlink:href="#DejaVuSans-30"/>
       <use x="127.246094" xlink:href="#DejaVuSans-30"/>
      </g>
     </g>
    </g>
    <g id="xtick_4">
     <g id="line2d_4">
      <g>
       <use style="stroke:#000000;stroke-width:0.8;" x="396.584103" xlink:href="#maa82a112a4" y="242.7975"/>
      </g>
     </g>
     <g id="text_4">
      <!-- 300 -->
      <defs>
       <path d="M 40.578125 39.3125 
Q 47.65625 37.796875 51.625 33 
Q 55.609375 28.21875 55.609375 21.1875 
Q 55.609375 10.40625 48.1875 4.484375 
Q 40.765625 -1.421875 27.09375 -1.421875 
Q 22.515625 -1.421875 17.65625 -0.515625 
Q 12.796875 0.390625 7.625 2.203125 
L 7.625 11.71875 
Q 11.71875 9.328125 16.59375 8.109375 
Q 21.484375 6.890625 26.8125 6.890625 
Q 36.078125 6.890625 40.9375 10.546875 
Q 45.796875 14.203125 45.796875 21.1875 
Q 45.796875 27.640625 41.28125 31.265625 
Q 36.765625 34.90625 28.71875 34.90625 
L 20.21875 34.90625 
L 20.21875 43.015625 
L 29.109375 43.015625 
Q 36.375 43.015625 40.234375 45.921875 
Q 44.09375 48.828125 44.09375 54.296875 
Q 44.09375 59.90625 40.109375 62.90625 
Q 36.140625 65.921875 28.71875 65.921875 
Q 24.65625 65.921875 20.015625 65.03125 
Q 15.375 64.15625 9.8125 62.3125 
L 9.8125 71.09375 
Q 15.4375 72.65625 20.34375 73.4375 
Q 25.25 74.21875 29.59375 74.21875 
Q 40.828125 74.21875 47.359375 69.109375 
Q 53.90625 64.015625 53.90625 55.328125 
Q 53.90625 49.265625 50.4375 45.09375 
Q 46.96875 40.921875 40.578125 39.3125 
z
" id="DejaVuSans-33"/>
      </defs>
      <g transform="translate(381.314103 261.955)scale(0.16 -0.16)">
       <use xlink:href="#DejaVuSans-33"/>
       <use x="63.623047" xlink:href="#DejaVuSans-30"/>
       <use x="127.246094" xlink:href="#DejaVuSans-30"/>
      </g>
     </g>
    </g>
    <g id="xtick_5">
     <g id="line2d_5">
      <g>
       <use style="stroke:#000000;stroke-width:0.8;" x="493.627582" xlink:href="#maa82a112a4" y="242.7975"/>
      </g>
     </g>
     <g id="text_5">
      <!-- 400 -->
      <defs>
       <path d="M 37.796875 64.3125 
L 12.890625 25.390625 
L 37.796875 25.390625 
z
M 35.203125 72.90625 
L 47.609375 72.90625 
L 47.609375 25.390625 
L 58.015625 25.390625 
L 58.015625 17.1875 
L 47.609375 17.1875 
L 47.609375 0 
L 37.796875 0 
L 37.796875 17.1875 
L 4.890625 17.1875 
L 4.890625 26.703125 
z
" id="DejaVuSans-34"/>
      </defs>
      <g transform="translate(478.357582 261.955)scale(0.16 -0.16)">
       <use xlink:href="#DejaVuSans-34"/>
       <use x="63.623047" xlink:href="#DejaVuSans-30"/>
       <use x="127.246094" xlink:href="#DejaVuSans-30"/>
      </g>
     </g>
    </g>
    <g id="xtick_6">
     <g id="line2d_6">
      <g>
       <use style="stroke:#000000;stroke-width:0.8;" x="336.417147" xlink:href="#maa82a112a4" y="242.7975"/>
      </g>
     </g>
    </g>
    <g id="text_6">
     <!-- Edit distance to wild-type -->
     <defs>
      <path d="M 9.8125 72.90625 
L 55.90625 72.90625 
L 55.90625 64.59375 
L 19.671875 64.59375 
L 19.671875 43.015625 
L 54.390625 43.015625 
L 54.390625 34.71875 
L 19.671875 34.71875 
L 19.671875 8.296875 
L 56.78125 8.296875 
L 56.78125 0 
L 9.8125 0 
z
" id="DejaVuSans-45"/>
      <path d="M 45.40625 46.390625 
L 45.40625 75.984375 
L 54.390625 75.984375 
L 54.390625 0 
L 45.40625 0 
L 45.40625 8.203125 
Q 42.578125 3.328125 38.25 0.953125 
Q 33.9375 -1.421875 27.875 -1.421875 
Q 17.96875 -1.421875 11.734375 6.484375 
Q 5.515625 14.40625 5.515625 27.296875 
Q 5.515625 40.1875 11.734375 48.09375 
Q 17.96875 56 27.875 56 
Q 33.9375 56 38.25 53.625 
Q 42.578125 51.265625 45.40625 46.390625 
z
M 14.796875 27.296875 
Q 14.796875 17.390625 18.875 11.75 
Q 22.953125 6.109375 30.078125 6.109375 
Q 37.203125 6.109375 41.296875 11.75 
Q 45.40625 17.390625 45.40625 27.296875 
Q 45.40625 37.203125 41.296875 42.84375 
Q 37.203125 48.484375 30.078125 48.484375 
Q 22.953125 48.484375 18.875 42.84375 
Q 14.796875 37.203125 14.796875 27.296875 
z
" id="DejaVuSans-64"/>
      <path d="M 9.421875 54.6875 
L 18.40625 54.6875 
L 18.40625 0 
L 9.421875 0 
z
M 9.421875 75.984375 
L 18.40625 75.984375 
L 18.40625 64.59375 
L 9.421875 64.59375 
z
" id="DejaVuSans-69"/>
      <path d="M 18.3125 70.21875 
L 18.3125 54.6875 
L 36.8125 54.6875 
L 36.8125 47.703125 
L 18.3125 47.703125 
L 18.3125 18.015625 
Q 18.3125 11.328125 20.140625 9.421875 
Q 21.96875 7.515625 27.59375 7.515625 
L 36.8125 7.515625 
L 36.8125 0 
L 27.59375 0 
Q 17.1875 0 13.234375 3.875 
Q 9.28125 7.765625 9.28125 18.015625 
L 9.28125 47.703125 
L 2.6875 47.703125 
L 2.6875 54.6875 
L 9.28125 54.6875 
L 9.28125 70.21875 
z
" id="DejaVuSans-74"/>
      <path id="DejaVuSans-20"/>
      <path d="M 44.28125 53.078125 
L 44.28125 44.578125 
Q 40.484375 46.53125 36.375 47.5 
Q 32.28125 48.484375 27.875 48.484375 
Q 21.1875 48.484375 17.84375 46.4375 
Q 14.5 44.390625 14.5 40.28125 
Q 14.5 37.15625 16.890625 35.375 
Q 19.28125 33.59375 26.515625 31.984375 
L 29.59375 31.296875 
Q 39.15625 29.25 43.1875 25.515625 
Q 47.21875 21.78125 47.21875 15.09375 
Q 47.21875 7.46875 41.1875 3.015625 
Q 35.15625 -1.421875 24.609375 -1.421875 
Q 20.21875 -1.421875 15.453125 -0.5625 
Q 10.6875 0.296875 5.421875 2 
L 5.421875 11.28125 
Q 10.40625 8.6875 15.234375 7.390625 
Q 20.0625 6.109375 24.8125 6.109375 
Q 31.15625 6.109375 34.5625 8.28125 
Q 37.984375 10.453125 37.984375 14.40625 
Q 37.984375 18.0625 35.515625 20.015625 
Q 33.0625 21.96875 24.703125 23.78125 
L 21.578125 24.515625 
Q 13.234375 26.265625 9.515625 29.90625 
Q 5.8125 33.546875 5.8125 39.890625 
Q 5.8125 47.609375 11.28125 51.796875 
Q 16.75 56 26.8125 56 
Q 31.78125 56 36.171875 55.265625 
Q 40.578125 54.546875 44.28125 53.078125 
z
" id="DejaVuSans-73"/>
      <path d="M 34.28125 27.484375 
Q 23.390625 27.484375 19.1875 25 
Q 14.984375 22.515625 14.984375 16.5 
Q 14.984375 11.71875 18.140625 8.90625 
Q 21.296875 6.109375 26.703125 6.109375 
Q 34.1875 6.109375 38.703125 11.40625 
Q 43.21875 16.703125 43.21875 25.484375 
L 43.21875 27.484375 
z
M 52.203125 31.203125 
L 52.203125 0 
L 43.21875 0 
L 43.21875 8.296875 
Q 40.140625 3.328125 35.546875 0.953125 
Q 30.953125 -1.421875 24.3125 -1.421875 
Q 15.921875 -1.421875 10.953125 3.296875 
Q 6 8.015625 6 15.921875 
Q 6 25.140625 12.171875 29.828125 
Q 18.359375 34.515625 30.609375 34.515625 
L 43.21875 34.515625 
L 43.21875 35.40625 
Q 43.21875 41.609375 39.140625 45 
Q 35.0625 48.390625 27.6875 48.390625 
Q 23 48.390625 18.546875 47.265625 
Q 14.109375 46.140625 10.015625 43.890625 
L 10.015625 52.203125 
Q 14.9375 54.109375 19.578125 55.046875 
Q 24.21875 56 28.609375 56 
Q 40.484375 56 46.34375 49.84375 
Q 52.203125 43.703125 52.203125 31.203125 
z
" id="DejaVuSans-61"/>
      <path d="M 54.890625 33.015625 
L 54.890625 0 
L 45.90625 0 
L 45.90625 32.71875 
Q 45.90625 40.484375 42.875 44.328125 
Q 39.84375 48.1875 33.796875 48.1875 
Q 26.515625 48.1875 22.3125 43.546875 
Q 18.109375 38.921875 18.109375 30.90625 
L 18.109375 0 
L 9.078125 0 
L 9.078125 54.6875 
L 18.109375 54.6875 
L 18.109375 46.1875 
Q 21.34375 51.125 25.703125 53.5625 
Q 30.078125 56 35.796875 56 
Q 45.21875 56 50.046875 50.171875 
Q 54.890625 44.34375 54.890625 33.015625 
z
" id="DejaVuSans-6e"/>
      <path d="M 48.78125 52.59375 
L 48.78125 44.1875 
Q 44.96875 46.296875 41.140625 47.34375 
Q 37.3125 48.390625 33.40625 48.390625 
Q 24.65625 48.390625 19.8125 42.84375 
Q 14.984375 37.3125 14.984375 27.296875 
Q 14.984375 17.28125 19.8125 11.734375 
Q 24.65625 6.203125 33.40625 6.203125 
Q 37.3125 6.203125 41.140625 7.25 
Q 44.96875 8.296875 48.78125 10.40625 
L 48.78125 2.09375 
Q 45.015625 0.34375 40.984375 -0.53125 
Q 36.96875 -1.421875 32.421875 -1.421875 
Q 20.0625 -1.421875 12.78125 6.34375 
Q 5.515625 14.109375 5.515625 27.296875 
Q 5.515625 40.671875 12.859375 48.328125 
Q 20.21875 56 33.015625 56 
Q 37.15625 56 41.109375 55.140625 
Q 45.0625 54.296875 48.78125 52.59375 
z
" id="DejaVuSans-63"/>
      <path d="M 56.203125 29.59375 
L 56.203125 25.203125 
L 14.890625 25.203125 
Q 15.484375 15.921875 20.484375 11.0625 
Q 25.484375 6.203125 34.421875 6.203125 
Q 39.59375 6.203125 44.453125 7.46875 
Q 49.3125 8.734375 54.109375 11.28125 
L 54.109375 2.78125 
Q 49.265625 0.734375 44.1875 -0.34375 
Q 39.109375 -1.421875 33.890625 -1.421875 
Q 20.796875 -1.421875 13.15625 6.1875 
Q 5.515625 13.8125 5.515625 26.8125 
Q 5.515625 40.234375 12.765625 48.109375 
Q 20.015625 56 32.328125 56 
Q 43.359375 56 49.78125 48.890625 
Q 56.203125 41.796875 56.203125 29.59375 
z
M 47.21875 32.234375 
Q 47.125 39.59375 43.09375 43.984375 
Q 39.0625 48.390625 32.421875 48.390625 
Q 24.90625 48.390625 20.390625 44.140625 
Q 15.875 39.890625 15.1875 32.171875 
z
" id="DejaVuSans-65"/>
      <path d="M 30.609375 48.390625 
Q 23.390625 48.390625 19.1875 42.75 
Q 14.984375 37.109375 14.984375 27.296875 
Q 14.984375 17.484375 19.15625 11.84375 
Q 23.34375 6.203125 30.609375 6.203125 
Q 37.796875 6.203125 41.984375 11.859375 
Q 46.1875 17.53125 46.1875 27.296875 
Q 46.1875 37.015625 41.984375 42.703125 
Q 37.796875 48.390625 30.609375 48.390625 
z
M 30.609375 56 
Q 42.328125 56 49.015625 48.375 
Q 55.71875 40.765625 55.71875 27.296875 
Q 55.71875 13.875 49.015625 6.21875 
Q 42.328125 -1.421875 30.609375 -1.421875 
Q 18.84375 -1.421875 12.171875 6.21875 
Q 5.515625 13.875 5.515625 27.296875 
Q 5.515625 40.765625 12.171875 48.375 
Q 18.84375 56 30.609375 56 
z
" id="DejaVuSans-6f"/>
      <path d="M 4.203125 54.6875 
L 13.1875 54.6875 
L 24.421875 12.015625 
L 35.59375 54.6875 
L 46.1875 54.6875 
L 57.421875 12.015625 
L 68.609375 54.6875 
L 77.59375 54.6875 
L 63.28125 0 
L 52.6875 0 
L 40.921875 44.828125 
L 29.109375 0 
L 18.5 0 
z
" id="DejaVuSans-77"/>
      <path d="M 9.421875 75.984375 
L 18.40625 75.984375 
L 18.40625 0 
L 9.421875 0 
z
" id="DejaVuSans-6c"/>
      <path d="M 4.890625 31.390625 
L 31.203125 31.390625 
L 31.203125 23.390625 
L 4.890625 23.390625 
z
" id="DejaVuSans-2d"/>
      <path d="M 32.171875 -5.078125 
Q 28.375 -14.84375 24.75 -17.8125 
Q 21.140625 -20.796875 15.09375 -20.796875 
L 7.90625 -20.796875 
L 7.90625 -13.28125 
L 13.1875 -13.28125 
Q 16.890625 -13.28125 18.9375 -11.515625 
Q 21 -9.765625 23.484375 -3.21875 
L 25.09375 0.875 
L 2.984375 54.6875 
L 12.5 54.6875 
L 29.59375 11.921875 
L 46.6875 54.6875 
L 56.203125 54.6875 
z
" id="DejaVuSans-79"/>
      <path d="M 18.109375 8.203125 
L 18.109375 -20.796875 
L 9.078125 -20.796875 
L 9.078125 54.6875 
L 18.109375 54.6875 
L 18.109375 46.390625 
Q 20.953125 51.265625 25.265625 53.625 
Q 29.59375 56 35.59375 56 
Q 45.5625 56 51.78125 48.09375 
Q 58.015625 40.1875 58.015625 27.296875 
Q 58.015625 14.40625 51.78125 6.484375 
Q 45.5625 -1.421875 35.59375 -1.421875 
Q 29.59375 -1.421875 25.265625 0.953125 
Q 20.953125 3.328125 18.109375 8.203125 
z
M 48.6875 27.296875 
Q 48.6875 37.203125 44.609375 42.84375 
Q 40.53125 48.484375 33.40625 48.484375 
Q 26.265625 48.484375 22.1875 42.84375 
Q 18.109375 37.203125 18.109375 27.296875 
Q 18.109375 17.390625 22.1875 11.75 
Q 26.265625 6.109375 33.40625 6.109375 
Q 40.53125 6.109375 44.609375 11.75 
Q 48.6875 17.390625 48.6875 27.296875 
z
" id="DejaVuSans-70"/>
     </defs>
     <g transform="translate(184.93125 282.959688)scale(0.18 -0.18)">
      <use xlink:href="#DejaVuSans-45"/>
      <use x="63.183594" xlink:href="#DejaVuSans-64"/>
      <use x="126.660156" xlink:href="#DejaVuSans-69"/>
      <use x="154.443359" xlink:href="#DejaVuSans-74"/>
      <use x="193.652344" xlink:href="#DejaVuSans-20"/>
      <use x="225.439453" xlink:href="#DejaVuSans-64"/>
      <use x="288.916016" xlink:href="#DejaVuSans-69"/>
      <use x="316.699219" xlink:href="#DejaVuSans-73"/>
      <use x="368.798828" xlink:href="#DejaVuSans-74"/>
      <use x="408.007812" xlink:href="#DejaVuSans-61"/>
      <use x="469.287109" xlink:href="#DejaVuSans-6e"/>
      <use x="532.666016" xlink:href="#DejaVuSans-63"/>
      <use x="587.646484" xlink:href="#DejaVuSans-65"/>
      <use x="649.169922" xlink:href="#DejaVuSans-20"/>
      <use x="680.957031" xlink:href="#DejaVuSans-74"/>
      <use x="720.166016" xlink:href="#DejaVuSans-6f"/>
      <use x="781.347656" xlink:href="#DejaVuSans-20"/>
      <use x="813.134766" xlink:href="#DejaVuSans-77"/>
      <use x="894.921875" xlink:href="#DejaVuSans-69"/>
      <use x="922.705078" xlink:href="#DejaVuSans-6c"/>
      <use x="950.488281" xlink:href="#DejaVuSans-64"/>
      <use x="1013.964844" xlink:href="#DejaVuSans-2d"/>
      <use x="1050.048828" xlink:href="#DejaVuSans-74"/>
      <use x="1089.257812" xlink:href="#DejaVuSans-79"/>
      <use x="1148.4375" xlink:href="#DejaVuSans-70"/>
      <use x="1211.914062" xlink:href="#DejaVuSans-65"/>
     </g>
    </g>
   </g>
   <g id="matplotlib.axis_2">
    <g id="ytick_1">
     <g id="line2d_7">
      <defs>
       <path d="M 0 0 
L -3.5 0 
" id="m07adedf5ab" style="stroke:#000000;stroke-width:0.8;"/>
      </defs>
      <g>
       <use style="stroke:#000000;stroke-width:0.8;" x="76.340625" xlink:href="#m07adedf5ab" y="242.7975"/>
      </g>
     </g>
     <g id="text_7">
      <!-- 0 -->
      <g transform="translate(59.160625 248.87625)scale(0.16 -0.16)">
       <use xlink:href="#DejaVuSans-30"/>
      </g>
     </g>
    </g>
    <g id="ytick_2">
     <g id="line2d_8">
      <g>
       <use style="stroke:#000000;stroke-width:0.8;" x="76.340625" xlink:href="#m07adedf5ab" y="203.125907"/>
      </g>
     </g>
     <g id="text_8">
      <!-- 1000 -->
      <g transform="translate(28.620625 209.204657)scale(0.16 -0.16)">
       <use xlink:href="#DejaVuSans-31"/>
       <use x="63.623047" xlink:href="#DejaVuSans-30"/>
       <use x="127.246094" xlink:href="#DejaVuSans-30"/>
       <use x="190.869141" xlink:href="#DejaVuSans-30"/>
      </g>
     </g>
    </g>
    <g id="ytick_3">
     <g id="line2d_9">
      <g>
       <use style="stroke:#000000;stroke-width:0.8;" x="76.340625" xlink:href="#m07adedf5ab" y="163.454314"/>
      </g>
     </g>
     <g id="text_9">
      <!-- 2000 -->
      <g transform="translate(28.620625 169.533064)scale(0.16 -0.16)">
       <use xlink:href="#DejaVuSans-32"/>
       <use x="63.623047" xlink:href="#DejaVuSans-30"/>
       <use x="127.246094" xlink:href="#DejaVuSans-30"/>
       <use x="190.869141" xlink:href="#DejaVuSans-30"/>
      </g>
     </g>
    </g>
    <g id="ytick_4">
     <g id="line2d_10">
      <g>
       <use style="stroke:#000000;stroke-width:0.8;" x="76.340625" xlink:href="#m07adedf5ab" y="123.782722"/>
      </g>
     </g>
     <g id="text_10">
      <!-- 3000 -->
      <g transform="translate(28.620625 129.861472)scale(0.16 -0.16)">
       <use xlink:href="#DejaVuSans-33"/>
       <use x="63.623047" xlink:href="#DejaVuSans-30"/>
       <use x="127.246094" xlink:href="#DejaVuSans-30"/>
       <use x="190.869141" xlink:href="#DejaVuSans-30"/>
      </g>
     </g>
    </g>
    <g id="ytick_5">
     <g id="line2d_11">
      <g>
       <use style="stroke:#000000;stroke-width:0.8;" x="76.340625" xlink:href="#m07adedf5ab" y="84.111129"/>
      </g>
     </g>
     <g id="text_11">
      <!-- 4000 -->
      <g transform="translate(28.620625 90.189879)scale(0.16 -0.16)">
       <use xlink:href="#DejaVuSans-34"/>
       <use x="63.623047" xlink:href="#DejaVuSans-30"/>
       <use x="127.246094" xlink:href="#DejaVuSans-30"/>
       <use x="190.869141" xlink:href="#DejaVuSans-30"/>
      </g>
     </g>
    </g>
    <g id="ytick_6">
     <g id="line2d_12">
      <g>
       <use style="stroke:#000000;stroke-width:0.8;" x="76.340625" xlink:href="#m07adedf5ab" y="44.439536"/>
      </g>
     </g>
     <g id="text_12">
      <!-- 5000 -->
      <defs>
       <path d="M 10.796875 72.90625 
L 49.515625 72.90625 
L 49.515625 64.59375 
L 19.828125 64.59375 
L 19.828125 46.734375 
Q 21.96875 47.46875 24.109375 47.828125 
Q 26.265625 48.1875 28.421875 48.1875 
Q 40.625 48.1875 47.75 41.5 
Q 54.890625 34.8125 54.890625 23.390625 
Q 54.890625 11.625 47.5625 5.09375 
Q 40.234375 -1.421875 26.90625 -1.421875 
Q 22.3125 -1.421875 17.546875 -0.640625 
Q 12.796875 0.140625 7.71875 1.703125 
L 7.71875 11.625 
Q 12.109375 9.234375 16.796875 8.0625 
Q 21.484375 6.890625 26.703125 6.890625 
Q 35.15625 6.890625 40.078125 11.328125 
Q 45.015625 15.765625 45.015625 23.390625 
Q 45.015625 31 40.078125 35.4375 
Q 35.15625 39.890625 26.703125 39.890625 
Q 22.75 39.890625 18.8125 39.015625 
Q 14.890625 38.140625 10.796875 36.28125 
z
" id="DejaVuSans-35"/>
      </defs>
      <g transform="translate(28.620625 50.518286)scale(0.16 -0.16)">
       <use xlink:href="#DejaVuSans-35"/>
       <use x="63.623047" xlink:href="#DejaVuSans-30"/>
       <use x="127.246094" xlink:href="#DejaVuSans-30"/>
       <use x="190.869141" xlink:href="#DejaVuSans-30"/>
      </g>
     </g>
    </g>
    <g id="text_13">
     <!-- Num. sequences -->
     <defs>
      <path d="M 9.8125 72.90625 
L 23.09375 72.90625 
L 55.421875 11.921875 
L 55.421875 72.90625 
L 64.984375 72.90625 
L 64.984375 0 
L 51.703125 0 
L 19.390625 60.984375 
L 19.390625 0 
L 9.8125 0 
z
" id="DejaVuSans-4e"/>
      <path d="M 8.5 21.578125 
L 8.5 54.6875 
L 17.484375 54.6875 
L 17.484375 21.921875 
Q 17.484375 14.15625 20.5 10.265625 
Q 23.53125 6.390625 29.59375 6.390625 
Q 36.859375 6.390625 41.078125 11.03125 
Q 45.3125 15.671875 45.3125 23.6875 
L 45.3125 54.6875 
L 54.296875 54.6875 
L 54.296875 0 
L 45.3125 0 
L 45.3125 8.40625 
Q 42.046875 3.421875 37.71875 1 
Q 33.40625 -1.421875 27.6875 -1.421875 
Q 18.265625 -1.421875 13.375 4.4375 
Q 8.5 10.296875 8.5 21.578125 
z
M 31.109375 56 
z
" id="DejaVuSans-75"/>
      <path d="M 52 44.1875 
Q 55.375 50.25 60.0625 53.125 
Q 64.75 56 71.09375 56 
Q 79.640625 56 84.28125 50.015625 
Q 88.921875 44.046875 88.921875 33.015625 
L 88.921875 0 
L 79.890625 0 
L 79.890625 32.71875 
Q 79.890625 40.578125 77.09375 44.375 
Q 74.3125 48.1875 68.609375 48.1875 
Q 61.625 48.1875 57.5625 43.546875 
Q 53.515625 38.921875 53.515625 30.90625 
L 53.515625 0 
L 44.484375 0 
L 44.484375 32.71875 
Q 44.484375 40.625 41.703125 44.40625 
Q 38.921875 48.1875 33.109375 48.1875 
Q 26.21875 48.1875 22.15625 43.53125 
Q 18.109375 38.875 18.109375 30.90625 
L 18.109375 0 
L 9.078125 0 
L 9.078125 54.6875 
L 18.109375 54.6875 
L 18.109375 46.1875 
Q 21.1875 51.21875 25.484375 53.609375 
Q 29.78125 56 35.6875 56 
Q 41.65625 56 45.828125 52.96875 
Q 50 49.953125 52 44.1875 
z
" id="DejaVuSans-6d"/>
      <path d="M 10.6875 12.40625 
L 21 12.40625 
L 21 0 
L 10.6875 0 
z
" id="DejaVuSans-2e"/>
      <path d="M 14.796875 27.296875 
Q 14.796875 17.390625 18.875 11.75 
Q 22.953125 6.109375 30.078125 6.109375 
Q 37.203125 6.109375 41.296875 11.75 
Q 45.40625 17.390625 45.40625 27.296875 
Q 45.40625 37.203125 41.296875 42.84375 
Q 37.203125 48.484375 30.078125 48.484375 
Q 22.953125 48.484375 18.875 42.84375 
Q 14.796875 37.203125 14.796875 27.296875 
z
M 45.40625 8.203125 
Q 42.578125 3.328125 38.25 0.953125 
Q 33.9375 -1.421875 27.875 -1.421875 
Q 17.96875 -1.421875 11.734375 6.484375 
Q 5.515625 14.40625 5.515625 27.296875 
Q 5.515625 40.1875 11.734375 48.09375 
Q 17.96875 56 27.875 56 
Q 33.9375 56 38.25 53.625 
Q 42.578125 51.265625 45.40625 46.390625 
L 45.40625 54.6875 
L 54.390625 54.6875 
L 54.390625 -20.796875 
L 45.40625 -20.796875 
z
" id="DejaVuSans-71"/>
     </defs>
     <g transform="translate(20.877188 209.061563)rotate(-90)scale(0.18 -0.18)">
      <use xlink:href="#DejaVuSans-4e"/>
      <use x="74.804688" xlink:href="#DejaVuSans-75"/>
      <use x="138.183594" xlink:href="#DejaVuSans-6d"/>
      <use x="235.595703" xlink:href="#DejaVuSans-2e"/>
      <use x="267.382812" xlink:href="#DejaVuSans-20"/>
      <use x="299.169922" xlink:href="#DejaVuSans-73"/>
      <use x="351.269531" xlink:href="#DejaVuSans-65"/>
      <use x="412.792969" xlink:href="#DejaVuSans-71"/>
      <use x="476.269531" xlink:href="#DejaVuSans-75"/>
      <use x="539.648438" xlink:href="#DejaVuSans-65"/>
      <use x="601.171875" xlink:href="#DejaVuSans-6e"/>
      <use x="664.550781" xlink:href="#DejaVuSans-63"/>
      <use x="719.53125" xlink:href="#DejaVuSans-65"/>
      <use x="781.054688" xlink:href="#DejaVuSans-73"/>
     </g>
    </g>
   </g>
   <g id="line2d_13">
    <path clip-path="url(#p949b593f2e)" d="M 271.398016 242.7975 
L 271.398016 25.3575 
" style="fill:none;stroke:#808080;stroke-linecap:square;stroke-width:1.5;"/>
   </g>
   <g id="patch_203">
    <path d="M 76.340625 242.7975 
L 76.340625 25.3575 
" style="fill:none;stroke:#000000;stroke-linecap:square;stroke-linejoin:miter;stroke-width:0.8;"/>
   </g>
   <g id="patch_204">
    <path d="M 522.740625 242.7975 
L 522.740625 25.3575 
" style="fill:none;stroke:#000000;stroke-linecap:square;stroke-linejoin:miter;stroke-width:0.8;"/>
   </g>
   <g id="patch_205">
    <path d="M 76.340625 242.7975 
L 522.740625 242.7975 
" style="fill:none;stroke:#000000;stroke-linecap:square;stroke-linejoin:miter;stroke-width:0.8;"/>
   </g>
   <g id="patch_206">
    <path d="M 76.340625 25.3575 
L 522.740625 25.3575 
" style="fill:none;stroke:#000000;stroke-linecap:square;stroke-linejoin:miter;stroke-width:0.8;"/>
   </g>
   <g id="text_14">
    <!-- 75 seqs (0.1%) -->
    <defs>
     <path d="M 8.203125 72.90625 
L 55.078125 72.90625 
L 55.078125 68.703125 
L 28.609375 0 
L 18.3125 0 
L 43.21875 64.59375 
L 8.203125 64.59375 
z
" id="DejaVuSans-37"/>
     <path d="M 31 75.875 
Q 24.46875 64.65625 21.28125 53.65625 
Q 18.109375 42.671875 18.109375 31.390625 
Q 18.109375 20.125 21.3125 9.0625 
Q 24.515625 -2 31 -13.1875 
L 23.1875 -13.1875 
Q 15.875 -1.703125 12.234375 9.375 
Q 8.59375 20.453125 8.59375 31.390625 
Q 8.59375 42.28125 12.203125 53.3125 
Q 15.828125 64.359375 23.1875 75.875 
z
" id="DejaVuSans-28"/>
     <path d="M 72.703125 32.078125 
Q 68.453125 32.078125 66.03125 28.46875 
Q 63.625 24.859375 63.625 18.40625 
Q 63.625 12.0625 66.03125 8.421875 
Q 68.453125 4.78125 72.703125 4.78125 
Q 76.859375 4.78125 79.265625 8.421875 
Q 81.6875 12.0625 81.6875 18.40625 
Q 81.6875 24.8125 79.265625 28.4375 
Q 76.859375 32.078125 72.703125 32.078125 
z
M 72.703125 38.28125 
Q 80.421875 38.28125 84.953125 32.90625 
Q 89.5 27.546875 89.5 18.40625 
Q 89.5 9.28125 84.9375 3.921875 
Q 80.375 -1.421875 72.703125 -1.421875 
Q 64.890625 -1.421875 60.34375 3.921875 
Q 55.8125 9.28125 55.8125 18.40625 
Q 55.8125 27.59375 60.375 32.9375 
Q 64.9375 38.28125 72.703125 38.28125 
z
M 22.3125 68.015625 
Q 18.109375 68.015625 15.6875 64.375 
Q 13.28125 60.75 13.28125 54.390625 
Q 13.28125 47.953125 15.671875 44.328125 
Q 18.0625 40.71875 22.3125 40.71875 
Q 26.5625 40.71875 28.96875 44.328125 
Q 31.390625 47.953125 31.390625 54.390625 
Q 31.390625 60.6875 28.953125 64.34375 
Q 26.515625 68.015625 22.3125 68.015625 
z
M 66.40625 74.21875 
L 74.21875 74.21875 
L 28.609375 -1.421875 
L 20.796875 -1.421875 
z
M 22.3125 74.21875 
Q 30.03125 74.21875 34.609375 68.875 
Q 39.203125 63.53125 39.203125 54.390625 
Q 39.203125 45.171875 34.640625 39.84375 
Q 30.078125 34.515625 22.3125 34.515625 
Q 14.546875 34.515625 10.03125 39.859375 
Q 5.515625 45.21875 5.515625 54.390625 
Q 5.515625 63.484375 10.046875 68.84375 
Q 14.59375 74.21875 22.3125 74.21875 
z
" id="DejaVuSans-25"/>
     <path d="M 8.015625 75.875 
L 15.828125 75.875 
Q 23.140625 64.359375 26.78125 53.3125 
Q 30.421875 42.28125 30.421875 31.390625 
Q 30.421875 20.453125 26.78125 9.375 
Q 23.140625 -1.703125 15.828125 -13.1875 
L 8.015625 -13.1875 
Q 14.5 -2 17.703125 9.0625 
Q 20.90625 20.125 20.90625 31.390625 
Q 20.90625 42.671875 17.703125 53.65625 
Q 14.5 64.65625 8.015625 75.875 
z
" id="DejaVuSans-29"/>
    </defs>
    <g style="fill:#0000ff;" transform="translate(112.245625 138.4925)scale(0.16 -0.16)">
     <use xlink:href="#DejaVuSans-37"/>
     <use x="63.623047" xlink:href="#DejaVuSans-35"/>
     <use x="127.246094" xlink:href="#DejaVuSans-20"/>
     <use x="159.033203" xlink:href="#DejaVuSans-73"/>
     <use x="211.132812" xlink:href="#DejaVuSans-65"/>
     <use x="272.65625" xlink:href="#DejaVuSans-71"/>
     <use x="336.132812" xlink:href="#DejaVuSans-73"/>
     <use x="388.232422" xlink:href="#DejaVuSans-20"/>
     <use x="420.019531" xlink:href="#DejaVuSans-28"/>
     <use x="459.033203" xlink:href="#DejaVuSans-30"/>
     <use x="522.65625" xlink:href="#DejaVuSans-2e"/>
     <use x="554.443359" xlink:href="#DejaVuSans-31"/>
     <use x="618.066406" xlink:href="#DejaVuSans-25"/>
     <use x="713.085938" xlink:href="#DejaVuSans-29"/>
    </g>
   </g>
   <g id="text_15">
    <!-- 0 seqs (0.0%) -->
    <g style="fill:#ff0000;" transform="translate(122.425625 155.8877)scale(0.16 -0.16)">
     <use xlink:href="#DejaVuSans-30"/>
     <use x="63.623047" xlink:href="#DejaVuSans-20"/>
     <use x="95.410156" xlink:href="#DejaVuSans-73"/>
     <use x="147.509766" xlink:href="#DejaVuSans-65"/>
     <use x="209.033203" xlink:href="#DejaVuSans-71"/>
     <use x="272.509766" xlink:href="#DejaVuSans-73"/>
     <use x="324.609375" xlink:href="#DejaVuSans-20"/>
     <use x="356.396484" xlink:href="#DejaVuSans-28"/>
     <use x="395.410156" xlink:href="#DejaVuSans-30"/>
     <use x="459.033203" xlink:href="#DejaVuSans-2e"/>
     <use x="490.820312" xlink:href="#DejaVuSans-30"/>
     <use x="554.443359" xlink:href="#DejaVuSans-25"/>
     <use x="649.462891" xlink:href="#DejaVuSans-29"/>
    </g>
   </g>
   <g id="text_16">
    <!-- 79407 seqs (99.9%) -->
    <defs>
     <path d="M 10.984375 1.515625 
L 10.984375 10.5 
Q 14.703125 8.734375 18.5 7.8125 
Q 22.3125 6.890625 25.984375 6.890625 
Q 35.75 6.890625 40.890625 13.453125 
Q 46.046875 20.015625 46.78125 33.40625 
Q 43.953125 29.203125 39.59375 26.953125 
Q 35.25 24.703125 29.984375 24.703125 
Q 19.046875 24.703125 12.671875 31.3125 
Q 6.296875 37.9375 6.296875 49.421875 
Q 6.296875 60.640625 12.9375 67.421875 
Q 19.578125 74.21875 30.609375 74.21875 
Q 43.265625 74.21875 49.921875 64.515625 
Q 56.59375 54.828125 56.59375 36.375 
Q 56.59375 19.140625 48.40625 8.859375 
Q 40.234375 -1.421875 26.421875 -1.421875 
Q 22.703125 -1.421875 18.890625 -0.6875 
Q 15.09375 0.046875 10.984375 1.515625 
z
M 30.609375 32.421875 
Q 37.25 32.421875 41.125 36.953125 
Q 45.015625 41.5 45.015625 49.421875 
Q 45.015625 57.28125 41.125 61.84375 
Q 37.25 66.40625 30.609375 66.40625 
Q 23.96875 66.40625 20.09375 61.84375 
Q 16.21875 57.28125 16.21875 49.421875 
Q 16.21875 41.5 20.09375 36.953125 
Q 23.96875 32.421875 30.609375 32.421875 
z
" id="DejaVuSans-39"/>
    </defs>
    <g style="fill:#0000ff;" transform="translate(317.045625 138.4925)scale(0.16 -0.16)">
     <use xlink:href="#DejaVuSans-37"/>
     <use x="63.623047" xlink:href="#DejaVuSans-39"/>
     <use x="127.246094" xlink:href="#DejaVuSans-34"/>
     <use x="190.869141" xlink:href="#DejaVuSans-30"/>
     <use x="254.492188" xlink:href="#DejaVuSans-37"/>
     <use x="318.115234" xlink:href="#DejaVuSans-20"/>
     <use x="349.902344" xlink:href="#DejaVuSans-73"/>
     <use x="402.001953" xlink:href="#DejaVuSans-65"/>
     <use x="463.525391" xlink:href="#DejaVuSans-71"/>
     <use x="527.001953" xlink:href="#DejaVuSans-73"/>
     <use x="579.101562" xlink:href="#DejaVuSans-20"/>
     <use x="610.888672" xlink:href="#DejaVuSans-28"/>
     <use x="649.902344" xlink:href="#DejaVuSans-39"/>
     <use x="713.525391" xlink:href="#DejaVuSans-39"/>
     <use x="777.148438" xlink:href="#DejaVuSans-2e"/>
     <use x="808.935547" xlink:href="#DejaVuSans-39"/>
     <use x="872.558594" xlink:href="#DejaVuSans-25"/>
     <use x="967.578125" xlink:href="#DejaVuSans-29"/>
    </g>
   </g>
   <g id="text_17">
    <!-- 79482 seqs  (100%) -->
    <defs>
     <path d="M 31.78125 34.625 
Q 24.75 34.625 20.71875 30.859375 
Q 16.703125 27.09375 16.703125 20.515625 
Q 16.703125 13.921875 20.71875 10.15625 
Q 24.75 6.390625 31.78125 6.390625 
Q 38.8125 6.390625 42.859375 10.171875 
Q 46.921875 13.96875 46.921875 20.515625 
Q 46.921875 27.09375 42.890625 30.859375 
Q 38.875 34.625 31.78125 34.625 
z
M 21.921875 38.8125 
Q 15.578125 40.375 12.03125 44.71875 
Q 8.5 49.078125 8.5 55.328125 
Q 8.5 64.0625 14.71875 69.140625 
Q 20.953125 74.21875 31.78125 74.21875 
Q 42.671875 74.21875 48.875 69.140625 
Q 55.078125 64.0625 55.078125 55.328125 
Q 55.078125 49.078125 51.53125 44.71875 
Q 48 40.375 41.703125 38.8125 
Q 48.828125 37.15625 52.796875 32.3125 
Q 56.78125 27.484375 56.78125 20.515625 
Q 56.78125 9.90625 50.3125 4.234375 
Q 43.84375 -1.421875 31.78125 -1.421875 
Q 19.734375 -1.421875 13.25 4.234375 
Q 6.78125 9.90625 6.78125 20.515625 
Q 6.78125 27.484375 10.78125 32.3125 
Q 14.796875 37.15625 21.921875 38.8125 
z
M 18.3125 54.390625 
Q 18.3125 48.734375 21.84375 45.5625 
Q 25.390625 42.390625 31.78125 42.390625 
Q 38.140625 42.390625 41.71875 45.5625 
Q 45.3125 48.734375 45.3125 54.390625 
Q 45.3125 60.0625 41.71875 63.234375 
Q 38.140625 66.40625 31.78125 66.40625 
Q 25.390625 66.40625 21.84375 63.234375 
Q 18.3125 60.0625 18.3125 54.390625 
z
" id="DejaVuSans-38"/>
    </defs>
    <g style="fill:#ff0000;" transform="translate(317.045625 155.8877)scale(0.16 -0.16)">
     <use xlink:href="#DejaVuSans-37"/>
     <use x="63.623047" xlink:href="#DejaVuSans-39"/>
     <use x="127.246094" xlink:href="#DejaVuSans-34"/>
     <use x="190.869141" xlink:href="#DejaVuSans-38"/>
     <use x="254.492188" xlink:href="#DejaVuSans-32"/>
     <use x="318.115234" xlink:href="#DejaVuSans-20"/>
     <use x="349.902344" xlink:href="#DejaVuSans-73"/>
     <use x="402.001953" xlink:href="#DejaVuSans-65"/>
     <use x="463.525391" xlink:href="#DejaVuSans-71"/>
     <use x="527.001953" xlink:href="#DejaVuSans-73"/>
     <use x="579.101562" xlink:href="#DejaVuSans-20"/>
     <use x="610.888672" xlink:href="#DejaVuSans-20"/>
     <use x="642.675781" xlink:href="#DejaVuSans-28"/>
     <use x="681.689453" xlink:href="#DejaVuSans-31"/>
     <use x="745.3125" xlink:href="#DejaVuSans-30"/>
     <use x="808.935547" xlink:href="#DejaVuSans-30"/>
     <use x="872.558594" xlink:href="#DejaVuSans-25"/>
     <use x="967.578125" xlink:href="#DejaVuSans-29"/>
    </g>
   </g>
   <g id="text_18">
    <!-- GFP ET 2 -->
    <defs>
     <path d="M 59.515625 10.40625 
L 59.515625 29.984375 
L 43.40625 29.984375 
L 43.40625 38.09375 
L 69.28125 38.09375 
L 69.28125 6.78125 
Q 63.578125 2.734375 56.6875 0.65625 
Q 49.8125 -1.421875 42 -1.421875 
Q 24.90625 -1.421875 15.25 8.5625 
Q 5.609375 18.5625 5.609375 36.375 
Q 5.609375 54.25 15.25 64.234375 
Q 24.90625 74.21875 42 74.21875 
Q 49.125 74.21875 55.546875 72.453125 
Q 61.96875 70.703125 67.390625 67.28125 
L 67.390625 56.78125 
Q 61.921875 61.421875 55.765625 63.765625 
Q 49.609375 66.109375 42.828125 66.109375 
Q 29.4375 66.109375 22.71875 58.640625 
Q 16.015625 51.171875 16.015625 36.375 
Q 16.015625 21.625 22.71875 14.15625 
Q 29.4375 6.6875 42.828125 6.6875 
Q 48.046875 6.6875 52.140625 7.59375 
Q 56.25 8.5 59.515625 10.40625 
z
" id="DejaVuSans-47"/>
     <path d="M 9.8125 72.90625 
L 51.703125 72.90625 
L 51.703125 64.59375 
L 19.671875 64.59375 
L 19.671875 43.109375 
L 48.578125 43.109375 
L 48.578125 34.8125 
L 19.671875 34.8125 
L 19.671875 0 
L 9.8125 0 
z
" id="DejaVuSans-46"/>
     <path d="M 19.671875 64.796875 
L 19.671875 37.40625 
L 32.078125 37.40625 
Q 38.96875 37.40625 42.71875 40.96875 
Q 46.484375 44.53125 46.484375 51.125 
Q 46.484375 57.671875 42.71875 61.234375 
Q 38.96875 64.796875 32.078125 64.796875 
z
M 9.8125 72.90625 
L 32.078125 72.90625 
Q 44.34375 72.90625 50.609375 67.359375 
Q 56.890625 61.8125 56.890625 51.125 
Q 56.890625 40.328125 50.609375 34.8125 
Q 44.34375 29.296875 32.078125 29.296875 
L 19.671875 29.296875 
L 19.671875 0 
L 9.8125 0 
z
" id="DejaVuSans-50"/>
     <path d="M -0.296875 72.90625 
L 61.375 72.90625 
L 61.375 64.59375 
L 35.5 64.59375 
L 35.5 0 
L 25.59375 0 
L 25.59375 64.59375 
L -0.296875 64.59375 
z
" id="DejaVuSans-54"/>
    </defs>
    <g transform="translate(263.800625 19.3575)scale(0.16 -0.16)">
     <use xlink:href="#DejaVuSans-47"/>
     <use x="77.490234" xlink:href="#DejaVuSans-46"/>
     <use x="135.009766" xlink:href="#DejaVuSans-50"/>
     <use x="195.3125" xlink:href="#DejaVuSans-20"/>
     <use x="227.099609" xlink:href="#DejaVuSans-45"/>
     <use x="290.283203" xlink:href="#DejaVuSans-54"/>
     <use x="351.367188" xlink:href="#DejaVuSans-20"/>
     <use x="383.154297" xlink:href="#DejaVuSans-32"/>
    </g>
   </g>
   <g id="legend_1">
    <g id="patch_207">
     <path d="M 556.260625 85.1275 
L 860.753125 85.1275 
Q 863.953125 85.1275 863.953125 81.9275 
L 863.953125 36.5575 
Q 863.953125 33.3575 860.753125 33.3575 
L 556.260625 33.3575 
Q 553.060625 33.3575 553.060625 36.5575 
L 553.060625 81.9275 
Q 553.060625 85.1275 556.260625 85.1275 
z
" style="fill:#ffffff;opacity:0.8;stroke:#cccccc;stroke-linejoin:miter;"/>
    </g>
    <g id="patch_208">
     <path d="M 559.460625 51.915 
L 591.460625 51.915 
L 591.460625 40.715 
L 559.460625 40.715 
z
" style="fill:#0000ff;opacity:0.7;"/>
    </g>
    <g id="text_19">
     <!-- Evotuning seqs -->
     <defs>
      <path d="M 2.984375 54.6875 
L 12.5 54.6875 
L 29.59375 8.796875 
L 46.6875 54.6875 
L 56.203125 54.6875 
L 35.6875 0 
L 23.484375 0 
z
" id="DejaVuSans-76"/>
      <path d="M 45.40625 27.984375 
Q 45.40625 37.75 41.375 43.109375 
Q 37.359375 48.484375 30.078125 48.484375 
Q 22.859375 48.484375 18.828125 43.109375 
Q 14.796875 37.75 14.796875 27.984375 
Q 14.796875 18.265625 18.828125 12.890625 
Q 22.859375 7.515625 30.078125 7.515625 
Q 37.359375 7.515625 41.375 12.890625 
Q 45.40625 18.265625 45.40625 27.984375 
z
M 54.390625 6.78125 
Q 54.390625 -7.171875 48.1875 -13.984375 
Q 42 -20.796875 29.203125 -20.796875 
Q 24.46875 -20.796875 20.265625 -20.09375 
Q 16.0625 -19.390625 12.109375 -17.921875 
L 12.109375 -9.1875 
Q 16.0625 -11.328125 19.921875 -12.34375 
Q 23.78125 -13.375 27.78125 -13.375 
Q 36.625 -13.375 41.015625 -8.765625 
Q 45.40625 -4.15625 45.40625 5.171875 
L 45.40625 9.625 
Q 42.625 4.78125 38.28125 2.390625 
Q 33.9375 0 27.875 0 
Q 17.828125 0 11.671875 7.65625 
Q 5.515625 15.328125 5.515625 27.984375 
Q 5.515625 40.671875 11.671875 48.328125 
Q 17.828125 56 27.875 56 
Q 33.9375 56 38.28125 53.609375 
Q 42.625 51.21875 45.40625 46.390625 
L 45.40625 54.6875 
L 54.390625 54.6875 
z
" id="DejaVuSans-67"/>
     </defs>
     <g transform="translate(604.260625 51.915)scale(0.16 -0.16)">
      <use xlink:href="#DejaVuSans-45"/>
      <use x="63.183594" xlink:href="#DejaVuSans-76"/>
      <use x="122.363281" xlink:href="#DejaVuSans-6f"/>
      <use x="183.544922" xlink:href="#DejaVuSans-74"/>
      <use x="222.753906" xlink:href="#DejaVuSans-75"/>
      <use x="286.132812" xlink:href="#DejaVuSans-6e"/>
      <use x="349.511719" xlink:href="#DejaVuSans-69"/>
      <use x="377.294922" xlink:href="#DejaVuSans-6e"/>
      <use x="440.673828" xlink:href="#DejaVuSans-67"/>
      <use x="504.150391" xlink:href="#DejaVuSans-20"/>
      <use x="535.9375" xlink:href="#DejaVuSans-73"/>
      <use x="588.037109" xlink:href="#DejaVuSans-65"/>
      <use x="649.560547" xlink:href="#DejaVuSans-71"/>
      <use x="713.037109" xlink:href="#DejaVuSans-73"/>
     </g>
    </g>
    <g id="patch_209">
     <path d="M 559.460625 75.4 
L 591.460625 75.4 
L 591.460625 64.2 
L 559.460625 64.2 
z
" style="fill:#ff0000;opacity:0.3;"/>
    </g>
    <g id="text_20">
     <!-- Random seqs (length-matched) -->
     <defs>
      <path d="M 44.390625 34.1875 
Q 47.5625 33.109375 50.5625 29.59375 
Q 53.5625 26.078125 56.59375 19.921875 
L 66.609375 0 
L 56 0 
L 46.6875 18.703125 
Q 43.0625 26.03125 39.671875 28.421875 
Q 36.28125 30.8125 30.421875 30.8125 
L 19.671875 30.8125 
L 19.671875 0 
L 9.8125 0 
L 9.8125 72.90625 
L 32.078125 72.90625 
Q 44.578125 72.90625 50.734375 67.671875 
Q 56.890625 62.453125 56.890625 51.90625 
Q 56.890625 45.015625 53.6875 40.46875 
Q 50.484375 35.9375 44.390625 34.1875 
z
M 19.671875 64.796875 
L 19.671875 38.921875 
L 32.078125 38.921875 
Q 39.203125 38.921875 42.84375 42.21875 
Q 46.484375 45.515625 46.484375 51.90625 
Q 46.484375 58.296875 42.84375 61.546875 
Q 39.203125 64.796875 32.078125 64.796875 
z
" id="DejaVuSans-52"/>
      <path d="M 54.890625 33.015625 
L 54.890625 0 
L 45.90625 0 
L 45.90625 32.71875 
Q 45.90625 40.484375 42.875 44.328125 
Q 39.84375 48.1875 33.796875 48.1875 
Q 26.515625 48.1875 22.3125 43.546875 
Q 18.109375 38.921875 18.109375 30.90625 
L 18.109375 0 
L 9.078125 0 
L 9.078125 75.984375 
L 18.109375 75.984375 
L 18.109375 46.1875 
Q 21.34375 51.125 25.703125 53.5625 
Q 30.078125 56 35.796875 56 
Q 45.21875 56 50.046875 50.171875 
Q 54.890625 44.34375 54.890625 33.015625 
z
" id="DejaVuSans-68"/>
     </defs>
     <g transform="translate(604.260625 75.4)scale(0.16 -0.16)">
      <use xlink:href="#DejaVuSans-52"/>
      <use x="69.451172" xlink:href="#DejaVuSans-61"/>
      <use x="130.730469" xlink:href="#DejaVuSans-6e"/>
      <use x="194.109375" xlink:href="#DejaVuSans-64"/>
      <use x="257.585938" xlink:href="#DejaVuSans-6f"/>
      <use x="318.767578" xlink:href="#DejaVuSans-6d"/>
      <use x="416.179688" xlink:href="#DejaVuSans-20"/>
      <use x="447.966797" xlink:href="#DejaVuSans-73"/>
      <use x="500.066406" xlink:href="#DejaVuSans-65"/>
      <use x="561.589844" xlink:href="#DejaVuSans-71"/>
      <use x="625.066406" xlink:href="#DejaVuSans-73"/>
      <use x="677.166016" xlink:href="#DejaVuSans-20"/>
      <use x="708.953125" xlink:href="#DejaVuSans-28"/>
      <use x="747.966797" xlink:href="#DejaVuSans-6c"/>
      <use x="775.75" xlink:href="#DejaVuSans-65"/>
      <use x="837.273438" xlink:href="#DejaVuSans-6e"/>
      <use x="900.652344" xlink:href="#DejaVuSans-67"/>
      <use x="964.128906" xlink:href="#DejaVuSans-74"/>
      <use x="1003.337891" xlink:href="#DejaVuSans-68"/>
      <use x="1066.716797" xlink:href="#DejaVuSans-2d"/>
      <use x="1102.800781" xlink:href="#DejaVuSans-6d"/>
      <use x="1200.212891" xlink:href="#DejaVuSans-61"/>
      <use x="1261.492188" xlink:href="#DejaVuSans-74"/>
      <use x="1300.701172" xlink:href="#DejaVuSans-63"/>
      <use x="1355.681641" xlink:href="#DejaVuSans-68"/>
      <use x="1419.060547" xlink:href="#DejaVuSans-65"/>
      <use x="1480.583984" xlink:href="#DejaVuSans-64"/>
      <use x="1544.060547" xlink:href="#DejaVuSans-29"/>
     </g>
    </g>
   </g>
  </g>
 </g>
 <defs>
  <clipPath id="p949b593f2e">
   <rect height="217.44" width="446.4" x="76.340625" y="25.3575"/>
  </clipPath>
 </defs>
</svg>
